<svg xmlns="http://www.w3.org/2000/svg" viewBox="0 0 160 160"><defs><style>.cls-1{fill:#333;}.cls-2{fill:#ea7e73;}</style></defs><title>add_attribute_specification_160x160</title><g id="service1"><g id="icons_vxv-2" data-name="icons_vxv"><path class="cls-1" d="M99.26,4l55,152H139.24l-14.9-43.86-.92-2.71H53.56l-1,2.65L36.85,156H23.16L80.32,4H99.26M57.35,98.26h61L116.55,93,92.93,22.57,92,19.84H85.89l-1,2.63L59.31,92.89l-2,5.37M102.06,0H77.55L17.38,160H39.67l16.71-46.57h64.18L136.38,160H160L102.06,0Zm-39,94.26L88.69,23.84h.45l23.62,70.42Z"/><rect class="cls-2" x="14.8" width="4.59" height="34.18"/><rect class="cls-2" x="14.8" width="4.59" height="34.18" transform="translate(34.18 0) rotate(90)"/></g></g></svg>