<svg id="profile" xmlns="http://www.w3.org/2000/svg" viewBox="0 0 21.99 19"><defs><style>.cls-1{fill:#fff;}</style></defs><title>close_eye</title><path class="cls-1" d="M9632,9580.52a5,5,0,0,1,5,5,4.85,4.85,0,0,1-.36,1.83l2.92,2.92A7.2,7.2,0,1,0,9632,9578a11.65,11.65,0,0,0-4,.7l2.16,2.16A4.85,4.85,0,0,1,9632,9580.52Zm-10-2.73,2.28,2.28,0.46,0.46a8.73,8.73,0,0,0,11.64,11.65l0.42,0.42,2.93,2.92,1.27-1.27-17.73-17.73Zm5.53,5.53,1.55,1.55a2.82,2.82,0,0,0-.08.65,3,3,0,0,0,3,3,2.82,2.82,0,0,0,.65-0.08l1.55,1.55A5,5,0,0,1,9627.54,9583.32Zm4.31-.78,3.15,3.15,0-.16a3,3,0,0,0-3-3h-0.17Z" transform="translate(-9621.01 -9576.52)"/></svg>