<svg xmlns="http://www.w3.org/2000/svg" viewBox="0 0 160 160"><defs><style>.cls-1{fill:#61afc5;}.cls-2{fill:#ea7e73;}.cls-3{fill:#333;}.cls-4{fill:#fff;}</style></defs><title>connect_to_service_160x160</title><g id="vo_manager1"><g id="icons_vxv"><rect class="cls-1" x="13.87" y="4.86" width="4.3" height="32.04"/><rect class="cls-1" x="13.87" y="4.86" width="4.3" height="32.04" transform="translate(36.91 4.86) rotate(90)"/><path class="cls-2" d="M132.48,41.4,160,13.88,146.12,0,118.6,27.52A19.33,19.33,0,0,0,94,29.69L71.68,52l8,8,9.65-9.65A5,5,0,0,1,96.1,50a3,3,0,0,1,.28.26l13.34,13.34a3,3,0,0,1,.26.28,5,5,0,0,1-.26,6.82l-9.65,9.65,8,8,22.28-22.28a19.32,19.32,0,0,0,2.16-24.65Z"/><path class="cls-3" d="M90,83.31,76.69,70a5,5,0,0,0-7.09,0l-9.65,9.65h0l-8-8L29.69,94a19.33,19.33,0,0,0-2.17,24.64L0,146.12,13.88,160,41.4,132.48a19.32,19.32,0,0,0,24.65-2.16L88.34,108l-8-8L90,90.42A5,5,0,0,0,90,83.31Z"/><path class="cls-4" d="M121.84,41.5l-2.25.28a5.84,5.84,0,0,0-1.17-1.17l.28-2.25a.43.43,0,0,0-.31-.45L115.11,37a.43.43,0,0,0-.5.23l-.89,2.09a6.14,6.14,0,0,0-1.6.42l-1.81-1.36a.41.41,0,0,0-.54,0l-2.39,2.39a.41.41,0,0,0,0,.54l1.36,1.81a6.48,6.48,0,0,0-.42,1.6l-2.09.89a.41.41,0,0,0-.23.5l.87,3.26a.42.42,0,0,0,.46.31l2.25-.28a5.83,5.83,0,0,0,1.17,1.17l-.28,2.25a.43.43,0,0,0,.31.46l3.26.87a.43.43,0,0,0,.5-.23l.89-2.09a6.14,6.14,0,0,0,1.6-.42l1.81,1.36a.41.41,0,0,0,.54,0l2.39-2.39a.41.41,0,0,0,0-.54l-1.36-1.81a6.48,6.48,0,0,0,.42-1.6l2.09-.89a.41.41,0,0,0,.23-.5l-.87-3.26A.43.43,0,0,0,121.84,41.5Zm-4.41,7a4.05,4.05,0,1,1,0-5.73A4.05,4.05,0,0,1,117.42,48.5Z"/></g></g></svg>