<svg id="vo_manager1" xmlns="http://www.w3.org/2000/svg" viewBox="0 0 160 160">
    <defs>
        <style>.cls-1{fill:#ea7e73;}.cls-2{fill:#333;}.cls-3{fill:#fff;}.cls-4{fill:#61afc5;}</style>
    </defs>
    <title>connect_to_service</title>
    <g id="icons">
        <path class="cls-1"
              d="M862.48,5207.27L890,5179.75l-13.88-13.88-27.52,27.52a19.33,19.33,0,0,0-24.64,2.17l-22.28,22.28,8,8,9.65-9.65a5,5,0,0,1,6.81-.27,3,3,0,0,1,.28.26l13.34,13.34a3,3,0,0,1,.26.28,5,5,0,0,1-.26,6.82l-9.65,9.65,8,8,22.28-22.28a19.32,19.32,0,0,0,2.16-24.65h0Z"
              transform="translate(-730 -5165.87)"/>
        <path class="cls-2"
              d="M820,5249.18l-13.34-13.34a5,5,0,0,0-7.09,0l-9.65,9.65h0l-8-8-22.29,22.29a19.33,19.33,0,0,0-2.17,24.64L730,5312l13.88,13.88,27.52-27.52a19.32,19.32,0,0,0,24.65-2.16l22.29-22.29-8-8,9.65-9.65A5,5,0,0,0,820,5249.18Z"
              transform="translate(-730 -5165.87)"/>
        <path class="cls-3"
              d="M851.84,5207.37l-2.25.28a5.84,5.84,0,0,0-1.17-1.17l0.28-2.25a0.43,0.43,0,0,0-.31-0.45l-3.26-.87a0.43,0.43,0,0,0-.5.23l-0.89,2.09a6.14,6.14,0,0,0-1.6.42l-1.81-1.36a0.41,0.41,0,0,0-.54,0l-2.39,2.39a0.41,0.41,0,0,0,0,.54l1.36,1.81a6.48,6.48,0,0,0-.42,1.6l-2.09.89a0.41,0.41,0,0,0-.23.5l0.87,3.26a0.42,0.42,0,0,0,.46.31l2.25-.28a5.83,5.83,0,0,0,1.17,1.17l-0.28,2.25a0.43,0.43,0,0,0,.31.46l3.26,0.87a0.43,0.43,0,0,0,.5-0.23l0.89-2.09a6.14,6.14,0,0,0,1.6-.42l1.81,1.36a0.41,0.41,0,0,0,.54,0l2.39-2.39a0.41,0.41,0,0,0,0-.54l-1.36-1.81a6.48,6.48,0,0,0,.42-1.6l2.09-.89a0.41,0.41,0,0,0,.23-0.5l-0.87-3.26A0.43,0.43,0,0,0,851.84,5207.37Zm-4.41,7a4.05,4.05,0,1,1,0-5.73A4.05,4.05,0,0,1,847.42,5214.36Z"
              transform="translate(-730 -5165.87)"/>
        <rect class="cls-4" x="14.41" y="4.86" width="4.46" height="33.24"/>
        <rect class="cls-4" x="744.41" y="5170.73" width="4.46" height="33.24"
              transform="translate(5204 -725.16) rotate(90)"/>
    </g>
</svg>