<svg xmlns="http://www.w3.org/2000/svg" viewBox="0 0 160 160"><defs><style>.cls-1{fill:#333;}.cls-2{fill:#fff;}.cls-3{fill:#ea7e73;}</style></defs><title>contact_admin_130x130</title><g id="service1"><g id="icons_vxv-2" data-name="icons_vxv"><path class="cls-1" d="M60.61,161.5l-.27-1.16a171.23,171.23,0,0,1-3-16.87C55.51,129.3,50.79,91.77,72,71.56c8.78-8.37,21.48-13,35.74-13h.92c13.82.11,25.24,4,34,11.67,15.63,13.67,21.58,38.28,17.68,73.16a153.72,153.72,0,0,1-2.93,16.91l-.27,1.17Z"/><path class="cls-2" d="M107.74,60.08h.94c4.34,0,20.25.19,33,11.3,23,20.09,18.38,61.12,17.17,71.89a152.22,152.22,0,0,1-2.9,16.72H61.8c-1.36-5.88-2.36-11.56-3-16.72C57,129.36,52.35,92.35,73,72.65c12.56-12,29.23-12.57,34.71-12.57m0-3h0C93.09,57.08,80,61.84,71,70.48,49.2,91.21,54,129.28,55.8,143.62a173,173,0,0,0,3.08,17.06l.54,2.33h98.9l.53-2.33a155.09,155.09,0,0,0,3-17.05,149.13,149.13,0,0,0,.48-33.14c-2.05-18.4-8.33-32.31-18.66-41.34-9-7.88-20.76-11.93-34.91-12Z"/><circle class="cls-1" cx="108.53" cy="28.61" r="28.61"/><path class="cls-2" d="M92.4,122.72l3.49,3.49a1.47,1.47,0,0,0,2.13,0l13.82-13.82a9.93,9.93,0,0,0,12.45-13.51l-6.68,6.53L113,100.86l6.53-6.53a10,10,0,0,0-11.24,2,9.75,9.75,0,0,0-2.28,10.48L92.24,120.6A1.37,1.37,0,0,0,92.4,122.72Z"/><path class="cls-3" d="M30.76,0H3.42A3.41,3.41,0,0,0,0,3.42L0,23.92a3.43,3.43,0,0,0,3.42,3.42H30.76a3.43,3.43,0,0,0,3.42-3.42V3.42A3.43,3.43,0,0,0,30.76,0Zm0,23.93H3.42V6.83l13.67,8.55L30.76,6.83ZM17.09,12,3.42,3.42H30.76Z"/></g></g></svg>