<svg id="vo_manager1" xmlns="http://www.w3.org/2000/svg" viewBox="0 0 160.18 160">
    <defs>
        <style>.cls-1{fill:#333;}.cls-2{fill:#fff;}.cls-3{fill:#ea7e73;}.cls-4{fill:#61afc5;}</style>
    </defs>
    <title>create_role</title>
    <g id="icons">
        <path class="cls-1"
              d="M540.1,5191.38a18,18,0,0,0-14.71-7.65H525.2a12.76,12.76,0,1,0-24.45-5.11,12.63,12.63,0,0,0,1.06,5.11h-1.93a18,18,0,0,0-14.71,7.65H465.43v134.49h94.75V5191.38H540.1Zm-33.55-12.76a6.93,6.93,0,1,1,11.59,5.11A6.93,6.93,0,0,1,506.55,5178.62Z"
              transform="translate(-400 -5165.87)"/>
        <rect class="cls-2" x="72.29" y="34.26" width="82.42" height="117"/>
        <polygon class="cls-3"
                 points="102.26 87.47 90.27 99.46 81.83 91.03 83.25 89.61 90.27 96.63 100.85 86.05 102.26 87.47"/>
        <polygon class="cls-3"
                 points="102.26 53.81 90.27 65.8 81.83 57.37 83.25 55.96 90.27 62.97 100.85 52.4 102.26 53.81"/>
        <polygon class="cls-3"
                 points="102.26 121.12 90.27 133.11 81.83 124.68 83.25 123.26 90.27 130.28 100.85 119.71 102.26 121.12"/>
        <rect class="cls-4" x="13.87" y="4.86" width="4.3" height="32.04"/>
        <rect class="cls-4" x="413.87" y="5170.73" width="4.3" height="32.04"
              transform="translate(5202.78 -395.14) rotate(90)"/>
    </g>
</svg>