<svg xmlns="http://www.w3.org/2000/svg" viewBox="0 0 160 160"><defs><style>.cls-1{fill:#333;}.cls-2{fill:#fff;}.cls-3{fill:#ea7e73;}.cls-4{fill:#61afc5;}</style></defs><title>create_role_160x160</title><g id="vo_manager1"><g id="icons_vxv"><path class="cls-1" d="M139.92,25.51a18,18,0,0,0-14.71-7.65H125a12.76,12.76,0,1,0-24.45-5.11,12.63,12.63,0,0,0,1.06,5.11H99.7A18,18,0,0,0,85,25.51H65.25V160H160V25.51ZM106.37,12.75A6.93,6.93,0,1,1,118,17.86a6.93,6.93,0,0,1-11.59-5.11Z"/><rect class="cls-2" x="72.11" y="34.26" width="82.42" height="117"/><polygon class="cls-3" points="102.08 87.47 90.09 99.46 81.65 91.03 83.07 89.61 90.09 96.63 100.67 86.05 102.08 87.47"/><polygon class="cls-3" points="102.08 53.81 90.09 65.8 81.65 57.37 83.07 55.96 90.09 62.97 100.67 52.4 102.08 53.81"/><polygon class="cls-3" points="102.08 121.12 90.09 133.11 81.65 124.68 83.07 123.26 90.09 130.28 100.67 119.71 102.08 121.12"/><rect class="cls-4" x="13.87" y="4.86" width="4.3" height="32.04"/><rect class="cls-4" x="13.87" y="4.86" width="4.3" height="32.04" transform="translate(36.91 4.86) rotate(90)"/></g></g></svg>