<svg xmlns="http://www.w3.org/2000/svg" viewBox="0 0 160 160"><defs><style>.cls-1{fill:#ea7e73;}.cls-2{fill:#333;}.cls-3{fill:#fff;}</style></defs><title>create_permission_srt_160x160</title><g id="service1"><g id="icons_vxv-2" data-name="icons_vxv"><rect class="cls-1" x="14.8" width="4.59" height="34.18"/><rect class="cls-1" x="14.8" width="4.59" height="34.18" transform="translate(34.18 0) rotate(90)"/><path class="cls-2" d="M133,159.72c-24.56,1-37.63-1.12-71.28-2-7.41-.19-16.9-.34-28-.28a34.11,34.11,0,0,0,8.6-11.22c3.48-7.5,2.61-13.76,2.15-23a240.07,240.07,0,0,1,.31-28.34A78,78,0,0,1,59.76,62,88.55,88.55,0,0,1,93,36c6.79,2,24.07,8.08,37.79,24.13a68.93,68.93,0,0,1,16,34.79c1,10.39,1.38,18.86,1.54,24.69.3,11-.08,16,2.46,23A44.47,44.47,0,0,0,160,157.48C153.14,158.33,143.91,159.26,133,159.72Z"/><path class="cls-2" d="M65.29,0A65.67,65.67,0,0,0,77,21.87,65.55,65.55,0,0,0,93,36,83.1,83.1,0,0,1,112,19.47c5.77-3.65,10.21-5.44,9.87-6.93-.58-2.5-13.52.37-28.27-1.87A74.53,74.53,0,0,1,65.29,0Z"/><polygon class="cls-3" points="120.34 95.44 92.77 123 73.39 103.62 76.64 100.36 92.77 116.5 117.09 92.19 120.34 95.44"/></g></g></svg>