<svg xmlns="http://www.w3.org/2000/svg" viewBox="0 0 160 160"><defs><style>.cls-1{fill:#ea7e73;}.cls-2,.cls-3{fill:#333;}.cls-3{stroke:#fff;stroke-miterlimit:10;stroke-width:3px;}.cls-4{fill:#fff;}</style></defs><title>invite_manager_160x160</title><g id="service1"><g id="icons_vxv-2" data-name="icons_vxv"><rect class="cls-1" x="14.8" width="4.59" height="34.18"/><rect class="cls-1" x="14.8" width="4.59" height="34.18" transform="translate(34.18 0) rotate(90)"/><rect class="cls-2" x="0.52" y="48.24" width="159.48" height="111.24"/><polygon class="cls-3" points="80.26 103.86 160 48.24 0.52 48.24 80.26 103.86"/><path class="cls-4" d="M149.67,154.2a52.84,52.84,0,0,1-1,5.8H116c-.47-2-.82-4-1-5.8-.61-4.83-2.23-17.67,4.94-24.51,4.65-4.43,10.91-4.37,12.37-4.36s7,.07,11.44,3.92C151.69,136.23,150.09,150.46,149.67,154.2Z"/><circle class="cls-4" cx="132.23" cy="114.41" r="9.93"/></g></g></svg>