<svg id="vo_manager1" xmlns="http://www.w3.org/2000/svg" viewBox="0 0 160 163"><defs><style>.cls-1{fill:#ea7e73;}.cls-2{fill:#333;}.cls-3{fill:#fff;}.cls-4{fill:#61afc5;}</style></defs><title>manage_users</title><g id="icons"><path class="cls-1" d="M1519.17,5312.43c-0.41,4.27-1.1,8.81-2,13.44h-65.55c-0.94-4.73-1.65-9.29-2.1-13.44-1.22-11.2-4.48-40.95,9.92-56.79,9.33-10.26,21.91-10.13,24.82-10.1s14.1,0.15,23,9.09C1523.22,5270.78,1520,5303.77,1519.17,5312.43Z" transform="translate(-1360 -5165.87)"/><circle class="cls-1" cx="124.16" cy="54.08" r="23.18"/><path class="cls-2" d="M1388.83,5327.37l-0.24-1.21c-1.15-5.77-2-11.44-2.63-16.85-1.54-14.14-5.63-51.62,12.72-71.8,7.65-8.42,18.72-13.06,31.18-13.06h0.8c12.06,0.11,22,4.06,29.63,11.75,13.53,13.66,18.68,38.24,15.31,73.07-0.51,5.27-1.36,10.95-2.53,16.89l-0.24,1.21h-84Z" transform="translate(-1360 -5165.87)"/><path class="cls-3" d="M1429.85,5226h0.81c3.76,0,17.54.19,28.55,11.3,19.91,20.09,15.92,61.12,14.88,71.89-0.51,5.32-1.37,11-2.51,16.72h-81.52c-1.18-5.88-2-11.56-2.61-16.72-1.52-13.93-5.57-50.93,12.34-70.63,10.88-12,25.32-12.57,30.07-12.57m0-3h0c-12.88,0-24.34,4.81-32.29,13.55-18.81,20.69-14.67,58.65-13.11,72.94,0.6,5.49,1.5,11.21,2.66,17l0.48,2.41H1474l0.48-2.42c1.18-6,2-11.71,2.55-17,3.42-35.31-1.87-60.3-15.73-74.29-7.9-8-18.21-12.07-30.66-12.19h-0.84Z" transform="translate(-1360 -5165.87)"/><circle class="cls-2" cx="70.54" cy="28.61" r="28.61"/><path class="cls-4" d="M1360.59,5200l3.49,3.49a1.47,1.47,0,0,0,2.13,0l13.82-13.82a9.93,9.93,0,0,0,12.45-13.51l-6.68,6.53-4.56-4.56,6.53-6.53a10,10,0,0,0-11.24,2,9.75,9.75,0,0,0-2.28,10.48l-13.82,13.82A1.37,1.37,0,0,0,1360.59,5200Z" transform="translate(-1360 -5165.87)"/></g></svg>