<svg xmlns="http://www.w3.org/2000/svg" viewBox="0 0 160 160"><defs><style>.cls-1{fill:#ea7e73;}.cls-2{fill:#333;}.cls-3{fill:#fff;}.cls-4{fill:#61afc5;}</style></defs><title>manage_users_160x160</title><g id="vo_manager1"><g id="icons_vxv"><path class="cls-1" d="M159.17,146.56c-.41,4.27-1.1,8.81-2,13.44H91.61c-.94-4.73-1.65-9.29-2.1-13.44-1.22-11.2-4.48-40.95,9.92-56.79,9.33-10.26,21.91-10.13,24.82-10.1s14.1.15,23,9.09C163.22,104.91,160,137.9,159.17,146.56Z"/><circle class="cls-1" cx="124.16" cy="54.08" r="23.18"/><path class="cls-2" d="M28.83,161.5l-.24-1.21c-1.15-5.77-2-11.44-2.63-16.85-1.54-14.14-5.63-51.62,12.72-71.8,7.65-8.42,18.73-13.06,31.18-13.06h.8c12.06.11,22,4.06,29.63,11.75C113.81,84,119,108.58,115.58,143.4c-.51,5.27-1.36,10.95-2.53,16.89l-.24,1.21Z"/><path class="cls-3" d="M69.85,60.08h.81c3.76,0,17.54.19,28.55,11.3,19.91,20.09,15.92,61.12,14.88,71.89-.51,5.32-1.37,11-2.51,16.72H30.06c-1.17-5.88-2-11.56-2.61-16.72-1.52-13.93-5.57-50.93,12.34-70.63,10.88-12,25.32-12.57,30.06-12.57m0-3C57,57.08,45.51,61.9,37.56,70.63,18.76,91.32,22.9,129.28,24.46,143.57c.6,5.49,1.5,11.2,2.66,17L27.6,163H114l.48-2.42c1.18-6,2-11.71,2.55-17,3.42-35.32-1.88-60.3-15.73-74.29-7.9-8-18.21-12.07-30.66-12.19Z"/><circle class="cls-2" cx="70.54" cy="28.61" r="28.61"/><path class="cls-4" d="M.57,33.1l3.37,3.37a1.41,1.41,0,0,0,2,0L19.3,23.15A9.39,9.39,0,0,0,29.39,21a9.43,9.43,0,0,0,1.9-10.83l-6.44,6.29L20.47,12l6.29-6.29a9.67,9.67,0,0,0-10.83,1.9,9.39,9.39,0,0,0-2.19,10.1L.42,31.06A1.32,1.32,0,0,0,.57,33.1Z"/></g></g></svg>