<svg id="vo_manager4" xmlns="http://www.w3.org/2000/svg" viewBox="0 0 1920 1080"><defs><style>.cls-1,.cls-12,.cls-14{fill:#61afc5;}.cls-2{font-size:32px;}.cls-11,.cls-18,.cls-2,.cls-3,.cls-5,.cls-6,.cls-7{fill:#fff;}.cls-10,.cls-11,.cls-12,.cls-13,.cls-2{font-family:Roboto Condensed;font-weight:700;}.cls-3{font-size:18px;}.cls-14,.cls-16,.cls-18,.cls-3,.cls-6,.cls-7{font-family:Verdana;}.cls-4{fill:#333;}.cls-6{font-size:19px;}.cls-7{font-size:20px;}.cls-10,.cls-13,.cls-8{fill:#ea7e73;}.cls-15,.cls-19,.cls-9{fill:none;}.cls-9{stroke:#ea7e73;}.cls-15,.cls-19,.cls-20,.cls-9{stroke-miterlimit:10;}.cls-10,.cls-11{font-size:25px;}.cls-12,.cls-13{font-size:17px;}.cls-14,.cls-16,.cls-18{font-size:15px;}.cls-15{stroke:#61afc5;}.cls-16{fill:#231f20;}.cls-17{letter-spacing:-1px;}.cls-18{font-style:italic;}.cls-19,.cls-20{stroke:#76cabf;}.cls-20{fill:#ee342e;}</style></defs><title>ui</title><rect class="cls-1" y="79.61" width="1920" height="65"/><text class="cls-2" transform="translate(46.08 123.04)">Nag<tspan x="50.75" y="0">y</tspan><tspan x="64.8" y="0">on hosszú n</tspan><tspan x="217.94" y="0">e</tspan><tspan x="233.05" y="0">vű...</tspan></text><text class="cls-3" transform="translate(393.33 118.27)">Properties</text><text class="cls-3" transform="translate(544.55 118.27)">Users</text><text class="cls-3" transform="translate(762.92 118.27)">Connected services</text><text class="cls-3" transform="translate(654.88 118.27)">R<tspan x="12.08" y="0">oles</tspan></text><rect class="cls-4" width="1920" height="80"/><text class="cls-3" transform="translate(1716.5 45.04)">Username</text><path class="cls-5" d="M1868.79,29.07h-2.43V41.21h2.43V29.07Zm5.86,2.63-1.72,1.72a8.4,8.4,0,0,1,3.14,6.57,8.5,8.5,0,1,1-13.87-6.58l-1.71-1.71A10.93,10.93,0,1,0,1874.65,31.71Z"/><rect class="cls-1" x="303.16" y="0.73" width="178.84" height="79.61"/><text class="cls-6" transform="translate(321.17 48.54)">Organizations</text><polygon class="cls-5" points="467.82 41.26 463.33 45.74 458.85 41.26 467.82 41.26"/><text class="cls-7" transform="translate(525 48.7)">Services</text><rect class="cls-8" x="626.49" y="136.61" width="106.43" height="8"/><path class="cls-5" d="M184.84,37.82l-0.07-.13-0.2-.35-0.28-.48-4.66-8.08-0.55-1-0.28-.48-1.53-2.64a4.67,4.67,0,0,0-2.82-2.16l-0.12,0h0l-0.15,0a4.58,4.58,0,0,0-.91-0.09h-15a4.63,4.63,0,0,0-4,2.31l-7.5,13a4.64,4.64,0,0,0,0,4.62L154.68,56a3.18,3.18,0,0,0,5.93-1.59,3.16,3.16,0,0,0-.43-1.59l-5.58-9.67h22.33l-2.86,5-0.55,1-0.23.39-1.94,3.36a3.1,3.1,0,0,0-.33.82,3.17,3.17,0,0,0,.09,1.86h0v0a3.14,3.14,0,0,0,1.15,1.5l0.25,0.17h0a3.17,3.17,0,0,0,3.63-.37h0a3.24,3.24,0,0,0,.66-0.8l0.27-.48,7.12-12.33,0.28-.48,0.25-.42,0-.05A4.6,4.6,0,0,0,184.84,37.82Zm-30.24-1,4-6.89a2.38,2.38,0,0,1,2.06-1.19H170.9A2.38,2.38,0,0,1,173,29.93l0.36,0.63,0.22,0.39,0.55,1,2.84,4.92H154.61Z"/><path class="cls-1" d="M201.41,37.69l-7.5-13a4.64,4.64,0,0,0-4-2.31h-15a4.83,4.83,0,0,0-.71.05l-0.17,0h0l-0.1,0a4.64,4.64,0,0,0-3,2.2l-1.49,2.57-0.28.48-0.55,1-4.66,8.08-0.28.48-0.25.43,0,0.05a4.63,4.63,0,0,0,0,4.44l0.07,0.12,0.2,0.35,0.28,0.48L171,55.56h0l0.05,0.09L171.31,56a3.15,3.15,0,0,0,.84,1l0.26,0.19h0a3.16,3.16,0,0,0,3.75-.37h0a3.16,3.16,0,0,0,.93-1.51,3.18,3.18,0,0,0,0-1.68,3.13,3.13,0,0,0-.31-0.76l-2-3.4-0.23-.39-0.55-1-2.86-5-0.55-1-0.26-.44,0,0-0.29-.51a2.39,2.39,0,0,1,0-2.37l0.32-.56,0,0,0.28-.48,0.55-1,2.84-4.92,0.55-1,0.23-.39,0.34-.59a2.38,2.38,0,0,1,2.06-1.19h10.26a2.38,2.38,0,0,1,2.06,1.19l4,6.89H184.3l0.28,0.48,0.2,0.35,0.07,0.13a4.6,4.6,0,0,1,0,4.44l0,0.05-0.25.42-0.28.48h9.31L188,52.84A3.18,3.18,0,0,0,193.49,56l7.92-13.71A4.64,4.64,0,0,0,201.41,37.69Z"/><path class="cls-5" d="M75.44,22.36A3.42,3.42,0,0,0,72.27,26V36.38H55.33V26A3.2,3.2,0,1,0,49,26V54a3.2,3.2,0,1,0,6.34,0V43.62H72.27V54a3.2,3.2,0,1,0,6.34,0V26A3.42,3.42,0,0,0,75.44,22.36Zm1.41,1.57a2,2,0,0,0-1.41-.61,2,2,0,0,0-1.25.47,2,2,0,0,1,1.25-.47A2,2,0,0,1,76.85,23.93Zm-24.69-.61a2,2,0,0,1,1.41.61,1.93,1.93,0,0,0-2.82,0A2,2,0,0,1,52.16,23.32Z"/><path class="cls-5" d="M109.53,43.62A3.42,3.42,0,0,0,112.7,40a3.42,3.42,0,0,0-3.17-3.62H89.42V29.61h20.11A3.42,3.42,0,0,0,112.7,26a3.42,3.42,0,0,0-3.17-3.62H86.25A3.42,3.42,0,0,0,83.08,26V54a3.42,3.42,0,0,0,3.17,3.62h23.28a3.65,3.65,0,0,0,0-7.25H89.42V43.62h20.11ZM111.74,26h0a3.17,3.17,0,0,1-.1.79A3.17,3.17,0,0,0,111.74,26Z"/><path class="cls-5" d="M136.35,40l9.56-11.51a4,4,0,0,0,0-5,2.92,2.92,0,0,0-4.6,0L132,34.73l-9.34-11.24a2.92,2.92,0,0,0-4.6,0,4,4,0,0,0,0,5L127.6,40,118,51.51a4,4,0,0,0,0,5,2.92,2.92,0,0,0,4.6,0L132,45.27l9.34,11.24a2.92,2.92,0,0,0,4.6,0,4,4,0,0,0,0-5Z"/><g id="content-5" data-name="content"><rect class="cls-8" x="610" y="203.64" width="300" height="58.5"/><rect class="cls-9" x="1010.01" y="203.64" width="299.99" height="58.5"/><text class="cls-10" transform="translate(1080.4 240.19)">Add <tspan x="45.47" y="0">r</tspan><tspan x="53.32" y="0">ole </tspan><tspan x="89.78" y="0">t</tspan><tspan x="97.09" y="0">o user</tspan></text><text class="cls-11" transform="translate(728.31 240.19)">New <tspan x="48.85" y="0">r</tspan><tspan x="56.7" y="0">ole</tspan></text><rect class="cls-5" x="710.75" y="222.69" width="2" height="15.5"/><rect class="cls-5" x="710.71" y="222.98" width="2.08" height="14.91" transform="translate(942.19 -481.3) rotate(90)"/><rect class="cls-1" x="530" y="316.61" width="860" height="656.95"/><rect class="cls-5" x="544.38" y="383.44" width="828.79" height="40"/><text class="cls-12" transform="translate(560.03 408.41)">hallga<tspan x="41.49" y="0">t</tspan><tspan x="46.46" y="0">ó</tspan></text><rect class="cls-5" x="544.38" y="433.44" width="828.79" height="40"/><text class="cls-12" transform="translate(561.37 458.41)">r<tspan x="5.34" y="0">ole2</tspan></text><rect class="cls-5" x="544.38" y="483.44" width="828.79" height="40"/><text class="cls-13" transform="translate(561.03 508.41)">r<tspan x="5.34" y="0">ole3</tspan></text><rect class="cls-5" x="544.27" y="523.94" width="829" height="236.46"/><path class="cls-1" d="M1372.77,524.44V759.9h-828V524.44h828m1-1h-830V760.9h830V523.44h0Z"/><text class="cls-14" transform="translate(560 550.39) scale(0.99 1)">P<tspan x="8.68" y="0">ermissions</tspan></text><text class="cls-14" transform="translate(560 657.39)">Members</text><line class="cls-15" x1="560.53" y1="634.44" x2="1359.84" y2="634.44"/><text class="cls-16" transform="translate(705.47 550.89)">jog ar<tspan x="44.3" y="0">r</tspan><tspan x="50.43" y="0">a</tspan><tspan x="0" y="21">jog erre</tspan><tspan x="0" y="42">meg il</tspan><tspan x="46.38" y="42">y</tspan><tspan x="55.12" y="42">enol</tspan><tspan x="86.77" y="42">y</tspan><tspan x="95.35" y="42">anjog</tspan><tspan x="0" y="63">t</tspan><tspan x="5.91" y="63">o</tspan><tspan x="14.9" y="63">vábbijog</tspan></text><text class="cls-16" transform="translate(705 658.9)">Almás <tspan class="cls-17" x="51.06" y="0">T</tspan><tspan x="58.54" y="0">amás</tspan><tspan x="0" y="21">F</tspan><tspan x="7.89" y="21">arkas Péter</tspan><tspan x="0" y="42">Szé</tspan><tspan x="27.07" y="42">k</tspan><tspan x="35.8" y="42">ely Szintia</tspan><tspan class="cls-17" x="0" y="63">T</tspan><tspan x="7.63" y="63">eniszütő Ernő</tspan><tspan x="0" y="84">V</tspan><tspan x="9.52" y="84">as István</tspan></text><polygon class="cls-1" points="1365 399.64 1357.41 407.24 1349.81 399.64 1365 399.64"/><polygon class="cls-1" points="1365 449.64 1357.41 457.24 1349.81 449.64 1365 449.64"/><polygon class="cls-8" points="1364.95 507.21 1357.41 499.67 1349.87 507.21 1364.95 507.21"/><rect class="cls-5" x="545" y="770.9" width="830" height="40"/><text class="cls-12" transform="translate(561.04 795.86)">r<tspan x="5.34" y="0">ole4</tspan></text><polygon class="cls-1" points="1364.95 787.13 1357.41 794.66 1349.87 787.13 1364.95 787.13"/><rect class="cls-5" x="545" y="820.9" width="830" height="40"/><text class="cls-12" transform="translate(562.26 845.86)">r<tspan x="5.34" y="0">ole6</tspan></text><polygon class="cls-1" points="1366.17 837.13 1358.64 844.66 1351.1 837.13 1366.17 837.13"/><rect class="cls-5" x="545" y="870.9" width="830" height="40"/><text class="cls-12" transform="translate(562.26 895.86)">r<tspan x="5.34" y="0">ole7</tspan></text><polygon class="cls-1" points="1366.17 887.13 1358.64 894.66 1351.1 887.13 1366.17 887.13"/><rect class="cls-5" x="545" y="920.9" width="830" height="40"/><text class="cls-12" transform="translate(562.26 945.86)">r<tspan x="5.34" y="0">ole8</tspan></text><polygon class="cls-1" points="1366.17 937.13 1358.64 944.66 1351.1 937.13 1366.17 937.13"/><text class="cls-11" transform="translate(545 352.11)">Roles</text><text class="cls-18" transform="translate(866.04 352.11)">A szerepköröket a szerepkörök menüpont alatt tudod szerkeszteni.</text><path class="cls-8" d="M1291,495.44h-16a2,2,0,0,0-2,2v12a2,2,0,0,0,2,2h16a2,2,0,0,0,2-2v-12A2,2,0,0,0,1291,495.44Zm0,14h-16v-10l8,5,8-5v10Zm-8-7-8-5h16Z"/><path class="cls-8" d="M1235,508.69v3.75h3.75l11.06-11.06-3.75-3.75Zm17.71-10.21a1,1,0,0,0,0-1.41l-2.34-2.34a1,1,0,0,0-1.41,0l-1.83,1.83,3.75,3.75Z"/><path class="cls-8" d="M1314,510.44a2,2,0,0,0,2,2h8a2,2,0,0,0,2-2v-12h-12v12Zm13-15h-3.5l-1-1h-5l-1,1H1313v2h14v-2Z"/></g><line class="cls-19" x1="1560" y1="-8650.02" x2="1560" y2="7732.98"/><line class="cls-20" x1="1550" y1="-8644.03" x2="1550" y2="7738.97"/><line class="cls-19" x1="1490" y1="-8644.03" x2="1490" y2="7738.97"/><line class="cls-19" x1="1480" y1="-8647.03" x2="1480" y2="7735.97"/><line class="cls-19" x1="1470" y1="-8644.03" x2="1470" y2="7738.97"/><line class="cls-19" x1="1410" y1="-8644.03" x2="1410" y2="7738.97"/><line class="cls-19" x1="1400" y1="-8647.03" x2="1400" y2="7735.97"/><line class="cls-19" x1="1390" y1="-8644.03" x2="1390" y2="7738.97"/><line class="cls-19" x1="1330" y1="-8644.03" x2="1330" y2="7738.97"/><line class="cls-19" x1="1320" y1="-8647.03" x2="1320" y2="7735.97"/><line class="cls-19" x1="1310" y1="-8644.03" x2="1310" y2="7738.97"/><line class="cls-19" x1="1250" y1="-8644.03" x2="1250" y2="7738.97"/><line class="cls-19" x1="1240" y1="-8647.03" x2="1240" y2="7735.97"/><line class="cls-19" x1="1230" y1="-8644.03" x2="1230" y2="7738.97"/><line class="cls-19" x1="1170" y1="-8644.03" x2="1170" y2="7738.97"/><line class="cls-19" x1="1160" y1="-8647.03" x2="1160" y2="7735.97"/><line class="cls-19" x1="1150" y1="-8644.03" x2="1150" y2="7738.97"/><line class="cls-19" x1="1090" y1="-8644.03" x2="1090" y2="7738.97"/><line class="cls-19" x1="1080" y1="-8647.03" x2="1080" y2="7735.97"/><line class="cls-19" x1="1070" y1="-8644.03" x2="1070" y2="7738.97"/><line class="cls-19" x1="1010" y1="-8644.03" x2="1010" y2="7738.97"/><line class="cls-19" x1="1000" y1="-8647.03" x2="1000" y2="7735.97"/><line class="cls-19" x1="990" y1="-8644.03" x2="990" y2="7738.97"/><line class="cls-19" x1="930" y1="-8644.03" x2="930" y2="7738.97"/><line class="cls-19" x1="920" y1="-8638.03" x2="920" y2="7744.97"/><line class="cls-19" x1="910" y1="-8644.03" x2="910" y2="7738.97"/><line class="cls-19" x1="850" y1="-8644.03" x2="850" y2="7738.97"/><line class="cls-19" x1="840" y1="-8647.03" x2="840" y2="7735.97"/><line class="cls-19" x1="830" y1="-8644.03" x2="830" y2="7738.97"/><line class="cls-19" x1="770" y1="-8644.03" x2="770" y2="7738.97"/><line class="cls-19" x1="760" y1="-8647.03" x2="760" y2="7735.97"/><line class="cls-19" x1="750" y1="-8644.03" x2="750" y2="7738.97"/><line class="cls-19" x1="690" y1="-8644.03" x2="690" y2="7738.97"/><line class="cls-19" x1="680" y1="-8647.03" x2="680" y2="7735.97"/><line class="cls-19" x1="670" y1="-8644.03" x2="670" y2="7738.97"/><line class="cls-19" x1="610" y1="-8644.03" x2="610" y2="7738.97"/><line class="cls-19" x1="600" y1="-8647.03" x2="600" y2="7735.97"/><line class="cls-19" x1="590" y1="-8644.03" x2="590" y2="7738.97"/><line class="cls-19" x1="520" y1="-8647.03" x2="520" y2="7735.97"/><line class="cls-19" x1="510" y1="-8644.03" x2="510" y2="7738.97"/><line class="cls-19" x1="440" y1="-8647.03" x2="440" y2="7735.97"/><line class="cls-19" x1="430" y1="-8644.03" x2="430" y2="7738.97"/><line class="cls-20" x1="370" y1="-8644.03" x2="370" y2="7738.97"/><line class="cls-19" x1="360" y1="-8647.03" x2="360" y2="7735.97"/><line class="cls-19" x1="530" y1="-8644.03" x2="530" y2="7738.97"/><line class="cls-19" x1="450" y1="-8644.03" x2="450" y2="7738.97"/></svg>