<svg id="service6" xmlns="http://www.w3.org/2000/svg" viewBox="0 0 1920 956.56"><defs><style>.cls-1,.cls-10,.cls-14{fill:#61afc5;}.cls-2{font-size:32px;}.cls-11,.cls-13,.cls-17,.cls-2,.cls-4,.cls-5,.cls-6,.cls-7,.cls-9{fill:#fff;}.cls-10,.cls-11,.cls-12,.cls-2,.cls-9{font-family:Roboto Condensed;}.cls-10,.cls-12,.cls-2,.cls-9{font-weight:700;}.cls-3{fill:#333;}.cls-4{font-size:18px;}.cls-14,.cls-16,.cls-17,.cls-4,.cls-6,.cls-7{font-family:Verdana;}.cls-6{font-size:19px;}.cls-7{font-size:20px;}.cls-12,.cls-8{fill:#ea7e73;}.cls-9{font-size:25px;}.cls-10,.cls-12{font-size:17px;}.cls-11{font-size:14px;}.cls-13{stroke:#61afc5;}.cls-13,.cls-18,.cls-19{stroke-miterlimit:10;}.cls-14,.cls-16,.cls-17{font-size:15px;}.cls-15{letter-spacing:-1px;}.cls-16{fill:#231f20;}.cls-18{fill:none;}.cls-18,.cls-19{stroke:#76cabf;}.cls-19{fill:#ee342e;}</style></defs><title>ui</title><rect class="cls-1" y="79.61" width="1920" height="65"/><text class="cls-2" transform="translate(46.08 123.04)">Se<tspan x="32.59" y="0">r</tspan><tspan x="43.48" y="0">vice name</tspan></text><rect class="cls-3" width="1920" height="80"/><text class="cls-4" transform="translate(1716.5 45.04)">Username</text><path class="cls-5" d="M1868.79,29.07h-2.43V41.21h2.43V29.07Zm5.86,2.63-1.72,1.72a8.4,8.4,0,0,1,3.14,6.57,8.5,8.5,0,1,1-13.87-6.58l-1.71-1.71A10.93,10.93,0,1,0,1874.65,31.71Z"/><rect class="cls-1" x="501" width="150" height="80.86"/><text class="cls-6" transform="translate(321.17 48.55)">Organizations</text><polygon class="cls-5" points="627.25 40.86 622.76 45.34 618.28 40.86 627.25 40.86"/><text class="cls-7" transform="translate(525 48.7)">Services</text><rect class="cls-8" x="979" y="136.61" width="199.83" height="8"/><path class="cls-5" d="M184.84,37.82l-0.07-.13-0.2-.35-0.28-.48-4.66-8.08-0.55-1-0.28-.48-1.53-2.64a4.67,4.67,0,0,0-2.82-2.16l-0.12,0h0l-0.15,0a4.58,4.58,0,0,0-.91-0.09h-15a4.63,4.63,0,0,0-4,2.31l-7.5,13a4.64,4.64,0,0,0,0,4.62L154.68,56a3.18,3.18,0,0,0,5.93-1.59,3.16,3.16,0,0,0-.43-1.59l-5.58-9.67h22.33l-2.86,5-0.55,1-0.23.39-1.94,3.36a3.1,3.1,0,0,0-.33.82,3.17,3.17,0,0,0,.09,1.86h0v0a3.14,3.14,0,0,0,1.15,1.5l0.25,0.17h0a3.17,3.17,0,0,0,3.63-.37h0a3.24,3.24,0,0,0,.66-0.8l0.27-.48,7.12-12.33,0.28-.48,0.25-.42,0-.05A4.6,4.6,0,0,0,184.84,37.82Zm-30.24-1,4-6.89a2.38,2.38,0,0,1,2.06-1.19H170.9A2.38,2.38,0,0,1,173,29.93l0.36,0.63,0.22,0.39,0.55,1,2.84,4.92H154.61Z"/><path class="cls-1" d="M201.41,37.69l-7.5-13a4.64,4.64,0,0,0-4-2.31h-15a4.83,4.83,0,0,0-.71.05l-0.17,0h0l-0.1,0a4.64,4.64,0,0,0-3,2.2l-1.49,2.57-0.28.48-0.55,1-4.66,8.08-0.28.48-0.25.43,0,0.05a4.63,4.63,0,0,0,0,4.44l0.07,0.12,0.2,0.35,0.28,0.48L171,55.56h0l0.05,0.09L171.31,56a3.15,3.15,0,0,0,.84,1l0.26,0.19h0a3.16,3.16,0,0,0,3.75-.37h0a3.16,3.16,0,0,0,.93-1.51,3.18,3.18,0,0,0,0-1.68,3.13,3.13,0,0,0-.31-0.76l-2-3.4-0.23-.39-0.55-1-2.86-5-0.55-1-0.26-.44,0,0-0.29-.51a2.39,2.39,0,0,1,0-2.37l0.32-.56,0,0,0.28-.48,0.55-1,2.84-4.92,0.55-1,0.23-.39,0.34-.59a2.38,2.38,0,0,1,2.06-1.19h10.26a2.38,2.38,0,0,1,2.06,1.19l4,6.89H184.3l0.28,0.48,0.2,0.35,0.07,0.13a4.6,4.6,0,0,1,0,4.44l0,0.05-0.25.42-0.28.48h9.31L188,52.84A3.18,3.18,0,0,0,193.49,56l7.92-13.71A4.64,4.64,0,0,0,201.41,37.69Z"/><path class="cls-5" d="M75.44,22.37A3.42,3.42,0,0,0,72.27,26V36.38H55.33V26A3.2,3.2,0,1,0,49,26V54a3.2,3.2,0,1,0,6.34,0V43.62H72.27V54a3.2,3.2,0,1,0,6.34,0V26A3.42,3.42,0,0,0,75.44,22.37Zm1.41,1.57a2,2,0,0,0-1.41-.61,2,2,0,0,0-1.25.47,2,2,0,0,1,1.25-.47A2,2,0,0,1,76.85,23.93Zm-24.69-.61a2,2,0,0,1,1.41.61,1.93,1.93,0,0,0-2.82,0A2,2,0,0,1,52.16,23.32Z"/><path class="cls-5" d="M109.53,43.62A3.42,3.42,0,0,0,112.7,40a3.42,3.42,0,0,0-3.17-3.62H89.42V29.61h20.11A3.42,3.42,0,0,0,112.7,26a3.42,3.42,0,0,0-3.17-3.62H86.25A3.42,3.42,0,0,0,83.08,26V54a3.42,3.42,0,0,0,3.17,3.62h23.28a3.65,3.65,0,0,0,0-7.25H89.42V43.62h20.11ZM111.74,26h0a3.17,3.17,0,0,1-.1.79A3.17,3.17,0,0,0,111.74,26Z"/><path class="cls-5" d="M136.35,40l9.56-11.51a4,4,0,0,0,0-5,2.92,2.92,0,0,0-4.6,0L132,34.73l-9.34-11.24a2.92,2.92,0,0,0-4.6,0,4,4,0,0,0,0,5L127.6,40,118,51.51a4,4,0,0,0,0,5,2.92,2.92,0,0,0,4.6,0L132,45.27l9.34,11.24a2.92,2.92,0,0,0,4.6,0,4,4,0,0,0,0-5Z"/><text class="cls-4" transform="translate(395.04 117.15)">Properties</text><text class="cls-4" transform="translate(546.26 117.15)">Managers</text><text class="cls-4" transform="translate(842.17 117.15)">P<tspan x="10.42" y="0">ermissions</tspan></text><text class="cls-4" transform="translate(693.43 117.15)">A<tspan x="12.13" y="0">ttributes</tspan></text><text class="cls-4" transform="translate(1008.82 117.15)">P<tspan x="10.42" y="0">ermission sets</tspan></text><text class="cls-4" transform="translate(1209 117.15)">Connected organizations</text><g id="content-11" data-name="content"><rect class="cls-1" x="530" y="297.63" width="860" height="726.73"/><text class="cls-9" transform="translate(539.51 333.13)">P<tspan x="14.06" y="0">ermission sets</tspan></text><rect class="cls-5" x="541" y="364.48" width="838" height="40"/><text class="cls-10" transform="translate(560.04 389.43)">permission set1</text><polygon class="cls-1" points="1365.37 380.66 1357.77 388.26 1350.18 380.66 1365.37 380.66"/><rect class="cls-5" x="541" y="414.48" width="838" height="40"/><text class="cls-10" transform="translate(561.37 439.59)">permission set2</text><polygon class="cls-1" points="1365.37 430.83 1357.77 438.42 1350.18 430.83 1365.37 430.83"/><rect class="cls-5" x="541" y="719.98" width="838" height="40"/><text class="cls-10" transform="translate(561.04 744.79)">permission set4</text><polygon class="cls-1" points="1365.31 736.05 1357.77 743.59 1350.23 736.05 1365.31 736.05"/><rect class="cls-5" x="541" y="769.98" width="838" height="40"/><text class="cls-10" transform="translate(561.04 794.95)">permission set5</text><polygon class="cls-1" points="1365.31 786.22 1357.77 793.75 1350.23 786.22 1365.31 786.22"/><rect class="cls-5" x="541" y="819.98" width="838" height="40"/><text class="cls-10" transform="translate(561.04 845.12)">permission set6</text><polygon class="cls-1" points="1365.31 836.38 1357.77 843.92 1350.23 836.38 1365.31 836.38"/><rect class="cls-5" x="541" y="869.98" width="838" height="40"/><text class="cls-10" transform="translate(561.04 894.79)">permission set7</text><polygon class="cls-1" points="1365.31 886.05 1357.77 893.59 1350.23 886.05 1365.31 886.05"/><rect class="cls-5" x="541" y="919.98" width="838" height="40"/><text class="cls-10" transform="translate(561.04 944.95)">permission set8</text><polygon class="cls-1" points="1365.31 936.22 1357.77 943.75 1350.23 936.22 1365.31 936.22"/><rect class="cls-8" x="1307" y="211.65" width="83" height="37"/><path class="cls-1" d="M872,212.65v35H531v-35H872m1-1H530v37H873v-37h0Z"/><rect class="cls-1" x="873" y="211.65" width="37" height="37"/><path class="cls-5" d="M895.91,232.79H895l-0.33-.32a7.64,7.64,0,1,0-.82.82l0.32,0.33v0.93l5.87,5.86,1.75-1.75Zm-7,0a5.28,5.28,0,1,1,5.28-5.28A5.27,5.27,0,0,1,888.87,232.79Z"/><text class="cls-11" transform="translate(1337.62 234.24)">C<tspan x="7.94" y="0">r</tspan><tspan x="12.07" y="0">eate</tspan></text><rect class="cls-5" x="1327.19" y="224.57" width="1.18" height="9.15"/><rect class="cls-5" x="1327.16" y="224.75" width="1.23" height="8.81" transform="translate(1556.93 -1098.63) rotate(90)"/><rect class="cls-5" x="541" y="464.48" width="838" height="40"/><text class="cls-12" transform="translate(561.04 489.26)">permission set3</text><polygon class="cls-8" points="1365.31 488.06 1357.77 480.52 1350.23 488.06 1365.31 488.06"/><rect class="cls-13" x="540.61" y="502.62" width="838.78" height="207.36"/><path class="cls-8" d="M1263.38,489.54v3.75h3.75l11.06-11.06-3.75-3.75Zm17.71-10.21a1,1,0,0,0,0-1.41l-2.34-2.34a1,1,0,0,0-1.41,0l-1.83,1.83,3.75,3.75Z"/><path class="cls-8" d="M1297.38,491.29a2,2,0,0,0,2,2h8a2,2,0,0,0,2-2v-12h-12v12Zm13-15h-3.5l-1-1h-5l-1,1h-3.5v2h14v-2Z"/><text class="cls-14" transform="translate(560.04 540.79)">Description</text><text class="cls-14" transform="translate(560.04 572.29)"><tspan class="cls-15">T</tspan><tspan x="7.78" y="0">ype</tspan></text><text class="cls-16" transform="translate(770 540.79)">Ez a meg il<tspan x="83.3" y="0">y</tspan><tspan x="92.04" y="0">enol</tspan><tspan x="123.69" y="0">y</tspan><tspan x="132.28" y="0">anjog leírása.</tspan></text><text class="cls-16" transform="translate(770 572.29)">public</text><text class="cls-14" transform="translate(560.03 603.79)">P<tspan x="8.68" y="0">ermissions</tspan></text><text class="cls-16" transform="translate(770.46 603.79)">jogosultság ar<tspan x="106.9" y="0">r</tspan><tspan x="113.04" y="0">a</tspan><tspan x="0" y="21">jogosulság erre</tspan><tspan x="0" y="42">meg il</tspan><tspan x="46.38" y="42">y</tspan><tspan x="55.12" y="42">enol</tspan><tspan x="86.77" y="42">y</tspan><tspan x="95.35" y="42">anjog</tspan></text><rect class="cls-8" x="561.37" y="664.34" width="138.29" height="28.65"/><text class="cls-17" transform="translate(572.29 682.86)">Gene<tspan x="38.99" y="0">r</tspan><tspan x="45.13" y="0">ate to</tspan><tspan x="89.27" y="0">k</tspan><tspan x="98" y="0">en</tspan></text></g><line class="cls-18" x1="1560" y1="-1375.26" x2="1560" y2="15007.74"/><line class="cls-19" x1="1550" y1="-1369.28" x2="1550" y2="15013.72"/><line class="cls-18" x1="1490" y1="-1369.28" x2="1490" y2="15013.72"/><line class="cls-18" x1="1480" y1="-1372.28" x2="1480" y2="15010.72"/><line class="cls-18" x1="1470" y1="-1369.28" x2="1470" y2="15013.72"/><line class="cls-18" x1="1410" y1="-1369.28" x2="1410" y2="15013.72"/><line class="cls-18" x1="1400" y1="-1372.28" x2="1400" y2="15010.72"/><line class="cls-18" x1="1390" y1="-1369.28" x2="1390" y2="15013.72"/><line class="cls-18" x1="1330" y1="-1369.28" x2="1330" y2="15013.72"/><line class="cls-18" x1="1320" y1="-1372.28" x2="1320" y2="15010.72"/><line class="cls-18" x1="1310" y1="-1369.28" x2="1310" y2="15013.72"/><line class="cls-18" x1="1250" y1="-1369.28" x2="1250" y2="15013.72"/><line class="cls-18" x1="1240" y1="-1372.28" x2="1240" y2="15010.72"/><line class="cls-18" x1="1230" y1="-1369.28" x2="1230" y2="15013.72"/><line class="cls-18" x1="1170" y1="-1369.28" x2="1170" y2="15013.72"/><line class="cls-18" x1="1160" y1="-1372.28" x2="1160" y2="15010.72"/><line class="cls-18" x1="1150" y1="-1369.28" x2="1150" y2="15013.72"/><line class="cls-18" x1="1090" y1="-1369.28" x2="1090" y2="15013.72"/><line class="cls-18" x1="1080" y1="-1372.28" x2="1080" y2="15010.72"/><line class="cls-18" x1="1070" y1="-1369.28" x2="1070" y2="15013.72"/><line class="cls-18" x1="1010" y1="-1369.28" x2="1010" y2="15013.72"/><line class="cls-18" x1="1000" y1="-1372.28" x2="1000" y2="15010.72"/><line class="cls-18" x1="990" y1="-1369.28" x2="990" y2="15013.72"/><line class="cls-18" x1="930" y1="-1369.28" x2="930" y2="15013.72"/><line class="cls-18" x1="920" y1="-1372.28" x2="920" y2="15010.72"/><line class="cls-18" x1="910" y1="-1369.28" x2="910" y2="15013.72"/><line class="cls-18" x1="850" y1="-1369.28" x2="850" y2="15013.72"/><line class="cls-18" x1="840" y1="-1372.28" x2="840" y2="15010.72"/><line class="cls-18" x1="830" y1="-1369.28" x2="830" y2="15013.72"/><line class="cls-18" x1="770" y1="-1369.28" x2="770" y2="15013.72"/><line class="cls-18" x1="760" y1="-1372.28" x2="760" y2="15010.72"/><line class="cls-18" x1="750" y1="-1369.28" x2="750" y2="15013.72"/><line class="cls-18" x1="690" y1="-1369.28" x2="690" y2="15013.72"/><line class="cls-18" x1="680" y1="-1372.28" x2="680" y2="15010.72"/><line class="cls-18" x1="670" y1="-1369.28" x2="670" y2="15013.72"/><line class="cls-18" x1="610" y1="-1369.28" x2="610" y2="15013.72"/><line class="cls-18" x1="600" y1="-1372.28" x2="600" y2="15010.72"/><line class="cls-18" x1="590" y1="-1369.28" x2="590" y2="15013.72"/><line class="cls-18" x1="520" y1="-1372.28" x2="520" y2="15010.72"/><line class="cls-18" x1="510" y1="-1369.28" x2="510" y2="15013.72"/><line class="cls-18" x1="450" y1="-1369.28" x2="450" y2="15013.72"/><line class="cls-18" x1="440" y1="-1372.28" x2="440" y2="15010.72"/><line class="cls-18" x1="430" y1="-1369.28" x2="430" y2="15013.72"/><line class="cls-19" x1="370" y1="-1369.28" x2="370" y2="15013.72"/><line class="cls-18" x1="360" y1="-1372.28" x2="360" y2="15010.72"/><line class="cls-18" x1="530" y1="-1369.28" x2="530" y2="15013.72"/></svg>