<svg id="profile" xmlns="http://www.w3.org/2000/svg" viewBox="0 0 1920 1080"><defs><style>.cls-1,.cls-10,.cls-11,.cls-9{fill:#333;}.cls-2{fill:#61afc5;}.cls-3{font-size:18px;}.cls-20,.cls-3,.cls-4,.cls-7{fill:#fff;}.cls-10,.cls-11,.cls-14,.cls-15,.cls-17,.cls-20,.cls-3{font-family:Verdana;}.cls-5{font-size:25px;}.cls-15,.cls-17,.cls-18,.cls-5,.cls-6{fill:#636464;}.cls-18,.cls-5,.cls-7,.cls-9{font-family:Roboto Condensed;}.cls-17,.cls-18,.cls-5,.cls-7,.cls-9{font-weight:700;}.cls-7{font-size:17px;}.cls-13,.cls-21,.cls-8{fill:none;}.cls-8{stroke:#333;}.cls-13,.cls-21,.cls-22,.cls-8{stroke-miterlimit:10;}.cls-15,.cls-17,.cls-20,.cls-9{font-size:15px;}.cls-10{font-size:12px;}.cls-11,.cls-14{font-size:14px;}.cls-12,.cls-14{fill:#ea7e73;}.cls-13{stroke:#ea7e73;}.cls-14{font-style:italic;}.cls-16{letter-spacing:-1px;}.cls-18{font-size:18.67px;}.cls-19{fill:#ba334d;}.cls-21,.cls-22{stroke:#76cabf;}.cls-22{fill:#ee342e;}</style></defs><title>ui</title><rect class="cls-1" width="1920" height="80"/><rect class="cls-2" x="1668.26" width="121.39" height="80"/><text class="cls-3" transform="translate(1683.26 45.04)">Username</text><path class="cls-4" d="M1868.79,29.07h-2.43V41.21h2.43V29.07Zm5.86,2.63-1.72,1.72a8.4,8.4,0,0,1,3.14,6.57,8.5,8.5,0,1,1-13.87-6.58l-1.71-1.71A10.93,10.93,0,1,0,1874.65,31.71Z"/><path class="cls-4" d="M184.84,37.82l-0.07-.13-0.2-.35-0.28-.48-4.66-8.08-0.55-1-0.28-.48-1.53-2.64a4.67,4.67,0,0,0-2.82-2.16l-0.12,0h0l-0.15,0a4.58,4.58,0,0,0-.91-0.09h-15a4.63,4.63,0,0,0-4,2.31l-7.5,13a4.64,4.64,0,0,0,0,4.62L154.68,56a3.18,3.18,0,0,0,5.93-1.59,3.16,3.16,0,0,0-.43-1.59l-5.58-9.67h22.33l-2.86,5-0.55,1-0.23.39-1.94,3.36a3.1,3.1,0,0,0-.33.82,3.17,3.17,0,0,0,.09,1.86h0v0a3.14,3.14,0,0,0,1.15,1.5l0.25,0.17h0a3.17,3.17,0,0,0,3.63-.37h0a3.24,3.24,0,0,0,.66-0.8l0.27-.48,7.12-12.33,0.28-.48,0.25-.42,0-.05A4.6,4.6,0,0,0,184.84,37.82Zm-30.24-1,4-6.89a2.38,2.38,0,0,1,2.06-1.19H170.9A2.38,2.38,0,0,1,173,29.93l0.36,0.63,0.22,0.39,0.55,1,2.84,4.92H154.61Z"/><path class="cls-2" d="M201.41,37.69l-7.5-13a4.64,4.64,0,0,0-4-2.31h-15a4.83,4.83,0,0,0-.71.05l-0.17,0h0l-0.1,0a4.64,4.64,0,0,0-3,2.2l-1.49,2.57-0.28.48-0.55,1-4.66,8.08-0.28.48-0.25.43,0,0.05a4.63,4.63,0,0,0,0,4.44l0.07,0.12,0.2,0.35,0.28,0.48L171,55.56h0l0.05,0.09L171.31,56a3.15,3.15,0,0,0,.84,1l0.26,0.19h0a3.16,3.16,0,0,0,3.75-.37h0a3.16,3.16,0,0,0,.93-1.51,3.18,3.18,0,0,0,0-1.68,3.13,3.13,0,0,0-.31-0.76l-2-3.4-0.23-.39-0.55-1-2.86-5-0.55-1-0.26-.44,0,0-0.29-.51a2.39,2.39,0,0,1,0-2.37l0.32-.56,0,0,0.28-.48,0.55-1,2.84-4.92,0.55-1,0.23-.39,0.34-.59a2.38,2.38,0,0,1,2.06-1.19h10.26a2.38,2.38,0,0,1,2.06,1.19l4,6.89H184.3l0.28,0.48,0.2,0.35,0.07,0.13a4.6,4.6,0,0,1,0,4.44l0,0.05-0.25.42-0.28.48h9.31L188,52.84A3.18,3.18,0,0,0,193.49,56l7.92-13.71A4.64,4.64,0,0,0,201.41,37.69Z"/><path class="cls-4" d="M75.44,22.37A3.42,3.42,0,0,0,72.27,26V36.38H55.33V26A3.2,3.2,0,1,0,49,26V54a3.2,3.2,0,1,0,6.34,0V43.62H72.27V54a3.2,3.2,0,1,0,6.34,0V26A3.42,3.42,0,0,0,75.44,22.37Zm1.41,1.57a2,2,0,0,0-1.41-.61,2,2,0,0,0-1.25.47,2,2,0,0,1,1.25-.47A2,2,0,0,1,76.85,23.93Zm-24.69-.61a2,2,0,0,1,1.41.61,1.93,1.93,0,0,0-2.82,0A2,2,0,0,1,52.16,23.32Z"/><path class="cls-4" d="M109.53,43.62A3.42,3.42,0,0,0,112.7,40a3.42,3.42,0,0,0-3.17-3.62H89.42V29.61h20.11A3.42,3.42,0,0,0,112.7,26a3.42,3.42,0,0,0-3.17-3.62H86.25A3.42,3.42,0,0,0,83.08,26V54a3.42,3.42,0,0,0,3.17,3.62h23.28a3.65,3.65,0,0,0,0-7.25H89.42V43.62h20.11ZM111.74,26h0a3.17,3.17,0,0,1-.1.79A3.17,3.17,0,0,0,111.74,26Z"/><path class="cls-4" d="M136.35,40l9.56-11.51a4,4,0,0,0,0-5,2.92,2.92,0,0,0-4.6,0L132,34.73l-9.34-11.24a2.92,2.92,0,0,0-4.6,0,4,4,0,0,0,0,5L127.6,40,118,51.51a4,4,0,0,0,0,5,2.92,2.92,0,0,0,4.6,0L132,45.27l9.34,11.24a2.92,2.92,0,0,0,4.6,0,4,4,0,0,0,0-5Z"/><path class="cls-4" d="M1815.65,34.5a5,5,0,0,1,5,5,4.85,4.85,0,0,1-.36,1.83l2.92,2.92a11.82,11.82,0,0,0,3.43-4.75,11.83,11.83,0,0,0-11-7.5,11.65,11.65,0,0,0-4,.7l2.16,2.16A4.85,4.85,0,0,1,1815.65,34.5Zm-10-2.73,2.28,2.28,0.46,0.46a11.8,11.8,0,0,0-3.74,5A11.82,11.82,0,0,0,1820,46.16l0.42,0.42,2.93,2.92,1.27-1.27L1806.92,30.5Zm5.53,5.53,1.55,1.55a2.82,2.82,0,0,0-.08.65,3,3,0,0,0,3,3,2.82,2.82,0,0,0,.65-0.08l1.55,1.55A5,5,0,0,1,1811.18,37.3Zm4.31-.78,3.15,3.15,0-.16a3,3,0,0,0-3-3h-0.17Z"/><g id="content-14" data-name="content"><text class="cls-5" transform="translate(530 397.39)">A<tspan x="14.72" y="0">ttributes</tspan></text><rect class="cls-6" x="530" y="870.41" width="860" height="40"/><text class="cls-7" transform="translate(545 895.37)">attribute4</text><polygon class="cls-4" points="1365.31 888.7 1357.77 896.24 1350.23 888.7 1365.31 888.7"/><rect class="cls-6" x="530" y="920.41" width="860" height="40"/><text class="cls-7" transform="translate(545 945.37)">attribute5</text><polygon class="cls-4" points="1365.31 938.7 1357.77 946.24 1350.23 938.7 1365.31 938.7"/><rect class="cls-6" x="530" y="598.07" width="860" height="40"/><polygon class="cls-4" points="1365.31 618.51 1357.77 610.97 1350.23 618.51 1365.31 618.51"/><text class="cls-7" transform="translate(545 623.04)">Lábmé<tspan x="45.3" y="0">r</tspan><tspan x="50.78" y="0">et</tspan></text><path class="cls-2" d="M1389,637.41v172H531v-172h858m1-1H530v174h860v-174h0Z"/><rect class="cls-8" x="690" y="649.81" width="620" height="33"/><path class="cls-6" d="M1331.94,671.53v3.73h3.73l11-11-3.73-3.73Zm17.6-10.15a1,1,0,0,0,0-1.4l-2.33-2.33a1,1,0,0,0-1.4,0l-1.82,1.82,3.73,3.73Z"/><text class="cls-9" transform="translate(560 670.52) scale(1.04 1)">V<tspan x="8.33" y="0">alues</tspan></text><text class="cls-9" transform="translate(560 788.66) scale(1.04 1)">Suppo<tspan x="37.8" y="0">r</tspan><tspan x="43.14" y="0">ted se</tspan><tspan x="79.8" y="0">r</tspan><tspan x="84.91" y="0">vices</tspan></text><text class="cls-10" transform="translate(724.62 787.64)">Service1, service3, service5, service8</text><path class="cls-6" d="M1362.64,673.31a2,2,0,0,0,2,2h8a2,2,0,0,0,2-2v-12h-12v12Zm13-15h-3.5l-1-1h-5l-1,1h-3.5v2h14v-2Z"/><rect class="cls-8" x="690" y="692.81" width="620" height="33"/><text class="cls-11" transform="translate(705 670.52)">Első érték</text><text class="cls-11" transform="translate(705 713.52) scale(0.95 1)">Másodikérték</text><path class="cls-6" d="M1329.38,714.56v3.75h3.75l11.06-11.06-3.75-3.75Zm17.71-10.21a1,1,0,0,0,0-1.41l-2.34-2.34a1,1,0,0,0-1.41,0l-1.83,1.83,3.75,3.75Z"/><path class="cls-6" d="M1360.14,716.31a2,2,0,0,0,2,2h8a2,2,0,0,0,2-2v-12h-12v12Zm13-15h-3.5l-1-1h-5l-1,1h-3.5v2h14v-2Z"/><rect class="cls-1" x="697.42" y="735.81" width="2.42" height="18"/><rect class="cls-1" x="697.42" y="735.81" width="2.42" height="18" transform="translate(1443.44 46.19) rotate(90)"/><rect class="cls-6" x="530" y="820.41" width="860" height="40"/><text class="cls-7" transform="translate(545 845.37)">L<tspan x="8.13" y="0">e</tspan><tspan x="16.16" y="0">vlista</tspan></text><polygon class="cls-4" points="1365.31 836.64 1357.77 844.17 1350.23 836.64 1365.31 836.64"/><rect class="cls-12" x="530" y="428.72" width="860" height="40"/><polygon class="cls-4" points="1365.37 449.19 1357.77 441.59 1350.18 449.19 1365.37 449.19"/><text class="cls-7" transform="translate(545 453.69)">A<tspan x="10.06" y="0">u</tspan><tspan x="18.43" y="0">t</tspan><tspan x="23.4" y="0">ótípus</tspan></text><path class="cls-12" d="M1389,468.05v119H531v-119h858m1-1H530v121h860v-121h0Z"/><rect class="cls-13" x="690" y="479.89" width="620" height="33"/><path class="cls-12" d="M1341.35,502.17v4.13h4.13l12.18-12.18-4.13-4.13Zm19.51-11.24a1.1,1.1,0,0,0,0-1.55l-2.58-2.58a1.1,1.1,0,0,0-1.55,0l-2,2,4.13,4.13Z"/><text class="cls-10" transform="translate(725 567.72)">Service1, service3, service5, service8</text><text class="cls-9" transform="translate(560.38 500.59) scale(1.04 1)">V<tspan x="8.33" y="0">alues</tspan></text><text class="cls-9" transform="translate(560.38 568.74) scale(1.04 1)">Suppo<tspan x="37.8" y="0">r</tspan><tspan x="43.14" y="0">ted se</tspan><tspan x="79.8" y="0">r</tspan><tspan x="84.91" y="0">vices</tspan></text><text class="cls-14" transform="translate(705 500.59)">Még nincs érték.</text><path class="cls-4" d="M1326.92,456.78a2.05,2.05,0,0,1,.62-1.54,2.45,2.45,0,0,1,3.21,0,2.05,2.05,0,0,1,.62,1.54,2,2,0,0,1-.61,1.52,2.49,2.49,0,0,1-3.23,0A2,2,0,0,1,1326.92,456.78Zm3.94-4.3h-3.39L1327,438.54h4.34Z"/><rect class="cls-8" x="530" y="123.13" width="540" height="193"/><text class="cls-15" transform="translate(705 200.14)"><tspan class="cls-16">T</tspan><tspan x="7.63" y="0">eniszütő Ernő</tspan></text><text class="cls-15" transform="translate(705 231.15)">teniszutoerno@gmail.com</text><text class="cls-15" transform="translate(705 262.15)">teniszutoerno@partners.sztaki.hu</text><text class="cls-17" transform="translate(545 200.14)">Name</text><text class="cls-17" transform="translate(545 231.15)">Email</text><text class="cls-17" transform="translate(545 262.15)">Federal ID</text><text class="cls-5" transform="translate(545 156.48)">P<tspan x="14.22" y="0">r</tspan><tspan x="22.07" y="0">ope</tspan><tspan x="58.85" y="0">r</tspan><tspan x="67.75" y="0">ties</tspan></text><path class="cls-12" d="M1037,147.92v3.75h3.75l11.06-11.06-3.75-3.75Zm17.71-10.21a1,1,0,0,0,0-1.41l-2.34-2.34a1,1,0,0,0-1.41,0l-1.83,1.83,3.75,3.75Z"/><path class="cls-6" d="M1338.32,146.13A43.34,43.34,0,0,0,1295,189.46h-14.44l18.73,18.73,0.34,0.67,19.45-19.4h-14.44a33.86,33.86,0,1,1,9.92,23.78l-6.84,6.84A43.32,43.32,0,1,0,1338.32,146.13Z"/><polygon class="cls-6" points="1333.48 170.41 1333.48 194.22 1353.86 206.32 1357.28 200.56 1340.62 190.65 1340.62 170.41 1333.48 170.41"/><text class="cls-18" transform="translate(1272.19 282.09)">Account his<tspan x="88.38" y="0">t</tspan><tspan x="93.84" y="0">o</tspan><tspan x="103.13" y="0">r</tspan><tspan x="109.48" y="0">y</tspan></text></g><ellipse class="cls-19" cx="1769.5" cy="15.99" rx="18" ry="11.25"/><text class="cls-20" transform="translate(1764.73 20.19)">1</text><line class="cls-21" x1="1560" y1="-9794.01" x2="1560" y2="6588.99"/><line class="cls-22" x1="1550" y1="-9788.02" x2="1550" y2="6594.98"/><line class="cls-21" x1="1490" y1="-9788.02" x2="1490" y2="6594.98"/><line class="cls-21" x1="1480" y1="-9791.02" x2="1480" y2="6591.98"/><line class="cls-21" x1="1470" y1="-9788.02" x2="1470" y2="6594.98"/><line class="cls-21" x1="1410" y1="-9788.02" x2="1410" y2="6594.98"/><line class="cls-21" x1="1400" y1="-9791.02" x2="1400" y2="6591.98"/><line class="cls-21" x1="1390" y1="-9788.02" x2="1390" y2="6594.98"/><line class="cls-21" x1="1330" y1="-9788.02" x2="1330" y2="6594.98"/><line class="cls-21" x1="1320" y1="-9791.02" x2="1320" y2="6591.98"/><line class="cls-21" x1="1310" y1="-9788.02" x2="1310" y2="6594.98"/><line class="cls-21" x1="1250" y1="-9788.02" x2="1250" y2="6594.98"/><line class="cls-21" x1="1240" y1="-9791.02" x2="1240" y2="6591.98"/><line class="cls-21" x1="1230" y1="-9788.02" x2="1230" y2="6594.98"/><line class="cls-21" x1="1170" y1="-9788.02" x2="1170" y2="6594.98"/><line class="cls-21" x1="1160" y1="-9791.02" x2="1160" y2="6591.98"/><line class="cls-21" x1="1150" y1="-9788.02" x2="1150" y2="6594.98"/><line class="cls-21" x1="1090" y1="-9788.02" x2="1090" y2="6594.98"/><line class="cls-21" x1="1080" y1="-9791.02" x2="1080" y2="6591.98"/><line class="cls-21" x1="1070" y1="-9788.02" x2="1070" y2="6594.98"/><line class="cls-21" x1="1010" y1="-9788.02" x2="1010" y2="6594.98"/><line class="cls-21" x1="1000" y1="-9791.02" x2="1000" y2="6591.98"/><line class="cls-21" x1="990" y1="-9788.02" x2="990" y2="6594.98"/><line class="cls-21" x1="930" y1="-9788.02" x2="930" y2="6594.98"/><line class="cls-21" x1="920" y1="-9791.02" x2="920" y2="6591.98"/><line class="cls-21" x1="910" y1="-9788.02" x2="910" y2="6594.98"/><line class="cls-21" x1="850" y1="-9788.02" x2="850" y2="6594.98"/><line class="cls-21" x1="840" y1="-9791.02" x2="840" y2="6591.98"/><line class="cls-21" x1="830" y1="-9788.02" x2="830" y2="6594.98"/><line class="cls-21" x1="770" y1="-9788.02" x2="770" y2="6594.98"/><line class="cls-21" x1="760" y1="-9791.02" x2="760" y2="6591.98"/><line class="cls-21" x1="750" y1="-9788.02" x2="750" y2="6594.98"/><line class="cls-21" x1="690" y1="-9788.02" x2="690" y2="6594.98"/><line class="cls-21" x1="680" y1="-9791.02" x2="680" y2="6591.98"/><line class="cls-21" x1="670" y1="-9788.02" x2="670" y2="6594.98"/><line class="cls-21" x1="610" y1="-9788.02" x2="610" y2="6594.98"/><line class="cls-21" x1="600" y1="-9791.02" x2="600" y2="6591.98"/><line class="cls-21" x1="590" y1="-9788.02" x2="590" y2="6594.98"/><line class="cls-21" x1="520" y1="-9791.02" x2="520" y2="6591.98"/><line class="cls-21" x1="510" y1="-9788.02" x2="510" y2="6594.98"/><line class="cls-21" x1="450" y1="-9788.02" x2="450" y2="6594.98"/><line class="cls-21" x1="440" y1="-9791.02" x2="440" y2="6591.98"/><line class="cls-21" x1="430" y1="-9788.02" x2="430" y2="6594.98"/><line class="cls-22" x1="370" y1="-9788.02" x2="370" y2="6594.98"/><line class="cls-21" x1="360" y1="-9791.02" x2="360" y2="6591.98"/><line class="cls-21" x1="530" y1="-9788.02" x2="530" y2="6594.98"/></svg>