<svg id="index_1" xmlns="http://www.w3.org/2000/svg" xmlns:xlink="http://www.w3.org/1999/xlink" viewBox="0 0 720 960"><defs><style>.cls-1{fill:#ee342e;}.cls-1,.cls-21,.cls-22{stroke:#76cabf;}.cls-1,.cls-12,.cls-14,.cls-16,.cls-19,.cls-21,.cls-22{stroke-miterlimit:10;}.cls-18,.cls-2{fill:#333;}.cls-3,.cls-5,.cls-7,.cls-9{fill:#fff;}.cls-11,.cls-4{fill:#61afc5;}.cls-5{font-size:18px;}.cls-18,.cls-20,.cls-5,.cls-9{font-family:Open Sans;}.cls-6{fill:url(#linear-gradient);}.cls-7{font-size:45px;font-family:Verdana;}.cls-8{letter-spacing:-2px;}.cls-9{font-size:15px;}.cls-20,.cls-9{font-style:italic;}.cls-10{fill:#f48887;}.cls-11,.cls-13{font-size:20px;font-family:Roboto Condensed;font-weight:700;}.cls-12,.cls-14,.cls-16,.cls-19,.cls-21{fill:none;}.cls-12,.cls-16{stroke:#61afc5;}.cls-12,.cls-14{stroke-width:2px;}.cls-13,.cls-15{fill:#ea7e73;}.cls-14,.cls-19{stroke:#ea7e73;}.cls-17{letter-spacing:-1px;}.cls-18,.cls-20{font-size:16px;}.cls-20{fill:#999;}.cls-22{fill:#e8e8e8;}</style><linearGradient id="linear-gradient" x1="27.86" y1="515.13" x2="713.45" y2="74.86" gradientUnits="userSpaceOnUse"><stop offset="0" stop-color="#a7cfc2"/><stop offset="0.45" stop-color="#71a4b7"/><stop offset="1" stop-color="#347aa8"/></linearGradient></defs><title>mobile</title><g id="tablet"><line class="cls-1" x1="10.46" y1="-2859.6" x2="10.46" y2="13523.4"/></g><g id="tablet-2" data-name="tablet"><rect class="cls-2" width="720" height="80"/><path class="cls-3" d="M159.7,37.82l-0.07-.13-0.2-.35-0.28-.48-4.66-8.08-0.55-1-0.28-.48-1.53-2.64a4.67,4.67,0,0,0-2.82-2.16l-0.12,0h0l-0.15,0a4.58,4.58,0,0,0-.91-0.09h-15a4.63,4.63,0,0,0-4,2.31l-7.5,13a4.64,4.64,0,0,0,0,4.62L129.54,56a3.18,3.18,0,0,0,5.93-1.59,3.16,3.16,0,0,0-.43-1.59l-5.58-9.67H151.8l-2.86,5-0.55,1-0.23.39-1.94,3.36a3.1,3.1,0,0,0-.33.82,3.17,3.17,0,0,0,.09,1.86h0v0a3.14,3.14,0,0,0,1.15,1.5l0.25,0.17h0a3.17,3.17,0,0,0,3.63-.37h0a3.24,3.24,0,0,0,.66-0.8l0.27-.48,7.12-12.33,0.28-.48,0.25-.42,0-.05A4.6,4.6,0,0,0,159.7,37.82Zm-30.24-1,4-6.89a2.38,2.38,0,0,1,2.06-1.19h10.26a2.38,2.38,0,0,1,2.06,1.19l0.36,0.63,0.22,0.39,0.55,1,2.84,4.92H129.46Z"/><path class="cls-4" d="M176.26,37.69l-7.5-13a4.64,4.64,0,0,0-4-2.31h-15a4.83,4.83,0,0,0-.71.05l-0.17,0h0l-0.1,0a4.64,4.64,0,0,0-3,2.2l-1.49,2.57-0.28.48-0.55,1-4.66,8.08-0.28.48-0.25.43,0,0.05a4.63,4.63,0,0,0,0,4.44l0.07,0.12,0.2,0.35,0.28,0.48,7.17,12.42h0l0.05,0.09L146.17,56a3.15,3.15,0,0,0,.84,1l0.26,0.19h0A3.16,3.16,0,0,0,151,56.8h0a3.16,3.16,0,0,0,.93-1.51,3.18,3.18,0,0,0,0-1.68,3.13,3.13,0,0,0-.31-0.76l-2-3.4-0.23-.39-0.55-1-2.86-5-0.55-1-0.26-.44,0,0-0.29-.51a2.39,2.39,0,0,1,0-2.37l0.32-.56,0,0,0.28-.48,0.55-1L149,31.86l0.55-1,0.23-.39,0.34-.59a2.38,2.38,0,0,1,2.06-1.19h10.26a2.38,2.38,0,0,1,2.06,1.19l4,6.89h-9.27l0.28,0.48,0.2,0.35,0.07,0.13a4.6,4.6,0,0,1,0,4.44l0,0.05-0.25.42-0.28.48h9.31l-5.58,9.67A3.18,3.18,0,0,0,168.35,56l7.92-13.71A4.64,4.64,0,0,0,176.26,37.69Z"/><path class="cls-3" d="M50.29,22.37A3.42,3.42,0,0,0,47.12,26V36.38H30.19V26A3.42,3.42,0,0,0,27,22.37,3.42,3.42,0,0,0,23.84,26V54A3.42,3.42,0,0,0,27,57.63,3.42,3.42,0,0,0,30.19,54V43.62H47.12V54a3.2,3.2,0,1,0,6.34,0V26A3.42,3.42,0,0,0,50.29,22.37Zm1.41,1.57a2,2,0,0,0-1.41-.61,2,2,0,0,0-1.25.47,2,2,0,0,1,1.25-.47A2,2,0,0,1,51.7,23.93ZM27,23.32a2,2,0,0,1,1.41.61,1.93,1.93,0,0,0-2.82,0A2,2,0,0,1,27,23.32Z"/><path class="cls-3" d="M84.38,43.62A3.42,3.42,0,0,0,87.55,40a3.42,3.42,0,0,0-3.17-3.62H64.27V29.61H84.38A3.42,3.42,0,0,0,87.55,26a3.42,3.42,0,0,0-3.17-3.62H61.1A3.42,3.42,0,0,0,57.93,26V54a3.42,3.42,0,0,0,3.17,3.62H84.38a3.65,3.65,0,0,0,0-7.25H64.27V43.62H84.38ZM86.6,26h0a3.17,3.17,0,0,1-.1.79A3.17,3.17,0,0,0,86.6,26Z"/><path class="cls-3" d="M111.21,40l9.56-11.51a4,4,0,0,0,0-5,2.92,2.92,0,0,0-4.6,0l-9.34,11.24L97.49,23.49a2.92,2.92,0,0,0-4.6,0,4,4,0,0,0,0,5L102.45,40,92.89,51.51a4,4,0,0,0,0,5,2.92,2.92,0,0,0,4.6,0l9.34-11.24,9.34,11.24a2.92,2.92,0,0,0,4.6,0,4,4,0,0,0,0-5Z"/><path class="cls-3" d="M693.2,29.07h-2.43V41.21h2.43V29.07Zm5.86,2.63-1.72,1.72A8.4,8.4,0,0,1,700.48,40a8.5,8.5,0,1,1-13.87-6.58l-1.71-1.71A10.93,10.93,0,1,0,699.06,31.71Z"/><text class="cls-5" transform="translate(569.67 45.04)">Username</text><rect class="cls-6" y="80.17" width="720" height="443.35"/><text class="cls-7" transform="translate(228.18 193.19)"><tspan class="cls-8">W</tspan><tspan x="42.3" y="0">elcome to</tspan></text><text class="cls-9" transform="translate(164.58 388.8)">egy mondatban a hexaa lényege, the valami valami valami <tspan x="81.09" y="18">formában, vagy egész mondatban.</tspan></text><path class="cls-3" d="M509.75,285.79a2.45,2.45,0,0,0-.17-0.32l-0.51-.89-0.7-1.21L496.6,263l-1.39-2.42-0.7-1.21-3.86-6.67a11.77,11.77,0,0,0-7.11-5.44l-0.31-.08h0l-0.37-.08a11.56,11.56,0,0,0-2.3-.23H442.68a11.69,11.69,0,0,0-10.1,5.83l-18.93,32.79a11.7,11.7,0,0,0,0,11.67l20,34.61a8,8,0,0,0,15-4,8,8,0,0,0-1.08-4l-14.08-24.4H489.8l-7.23,12.5-1.39,2.42-0.57,1-4.9,8.49a7.82,7.82,0,0,0-.82,2.06,8,8,0,0,0,.23,4.69h0l0,0a7.92,7.92,0,0,0,2.91,3.78l0.62,0.43h0.07a8,8,0,0,0,9.16-.93l0,0a8.17,8.17,0,0,0,1.67-2l0.69-1.21,18-31.12,0.7-1.21,0.62-1.07,0.07-.14A11.6,11.6,0,0,0,509.75,285.79Zm-76.31-2.51,10-17.4a6,6,0,0,1,5.19-3h25.89a6,6,0,0,1,5.19,3l0.92,1.59,0.56,1,1.39,2.42,7.17,12.42H433.44Z"/><path class="cls-10" d="M551.55,285.55l-18.93-32.79a11.71,11.71,0,0,0-10.1-5.83H484.66a12.2,12.2,0,0,0-1.8.14l-0.43.08h0l-0.26.06a11.7,11.7,0,0,0-7.59,5.56l-3.75,6.5-0.7,1.21-1.39,2.42-11.77,20.39-0.7,1.21-0.62,1.08-0.06.13a11.68,11.68,0,0,0-.1,11.22l0.17,0.31,0.52,0.89,0.7,1.21,18.08,31.34h0l0.13,0.22,0.56,1a8,8,0,0,0,2.12,2.4l0.64,0.48h0.09a8,8,0,0,0,9.45-.93l0,0a8,8,0,0,0,2.33-3.8,8,8,0,0,0,0-4.24,7.89,7.89,0,0,0-.79-1.91l-5-8.59-0.57-1-1.39-2.42-7.21-12.5L474,296.9l-0.64-1.11-0.07-.12-0.74-1.29a6,6,0,0,1,0-6l0.81-1.4,0-.08,0.71-1.22,1.39-2.42,7.17-12.42,1.39-2.42,0.57-1,0.86-1.49a6,6,0,0,1,5.19-3h25.89a6,6,0,0,1,5.19,3l10,17.4h-23.4l0.7,1.21,0.51,0.89a2.45,2.45,0,0,1,.17.32,11.6,11.6,0,0,1-.1,11.21l-0.07.14L509,298.2l-0.7,1.21h23.5l-14.09,24.4a8,8,0,0,0,13.9,8l20-34.6A11.7,11.7,0,0,0,551.55,285.55Z"/><path class="cls-3" d="M233.64,246.84c-4.41,0-8,4.1-8,9.14V282.2H182.89V256c0-5-3.59-9.14-8-9.14s-8,4.1-8,9.14v70.73c0,5,3.59,9.14,8,9.14s8-4.1,8-9.14V300.48h42.74v26.22c0,5,3.59,9.14,8,9.14s8-4.1,8-9.14V256C241.64,250.94,238.05,246.84,233.64,246.84Zm3.55,4a5,5,0,0,0-3.55-1.54,4.93,4.93,0,0,0-3.17,1.19,4.93,4.93,0,0,1,3.17-1.19A5,5,0,0,1,237.19,250.79Zm-62.3-1.54a5,5,0,0,1,3.55,1.54,4.88,4.88,0,0,0-7.11,0A5,5,0,0,1,174.89,249.25Z"/><path class="cls-3" d="M319.67,300.48c4.41,0,8-4.1,8-9.14s-3.59-9.14-8-9.14H268.92V265.12h50.75c4.41,0,8-4.1,8-9.14s-3.59-9.14-8-9.14H260.92c-4.41,0-8,4.1-8,9.14v70.73c0,5,3.59,9.14,8,9.14h58.75c4.41,0,8-4.1,8-9.14s-3.59-9.14-8-9.14H268.92V300.48h50.75ZM325.25,256h0a8,8,0,0,1-.25,2A8,8,0,0,0,325.25,256Z"/><path class="cls-3" d="M387.36,291.34l24.14-29.06a10.12,10.12,0,0,0,0-12.6,7.36,7.36,0,0,0-11.62,0L376.32,278l-23.56-28.37a7.36,7.36,0,0,0-11.62,0,10.12,10.12,0,0,0,0,12.6l24.14,29.06L341.14,320.4a10.12,10.12,0,0,0,0,12.6,7.36,7.36,0,0,0,11.62,0l23.56-28.37L399.88,333a7.36,7.36,0,0,0,11.62,0,10.12,10.12,0,0,0,0-12.6Z"/><text class="cls-5" transform="translate(207.39 47.82)">Organizations</text><text class="cls-11" transform="translate(129.1 581.22)">Add o<tspan x="46.33" y="0">r</tspan><tspan x="52.77" y="0">ganization</tspan></text><polygon class="cls-12" points="91.26 574.97 84.04 587.47 69.61 587.47 62.39 574.97 69.61 562.47 84.04 562.47 91.26 574.97"/><polygon class="cls-12" points="85.01 574.97 80.92 582.06 72.73 582.06 68.64 574.97 72.73 567.88 80.92 567.88 85.01 574.97"/><circle class="cls-4" cx="72.73" cy="582.06" r="2"/><circle class="cls-4" cx="68.63" cy="574.97" r="2"/><circle class="cls-4" cx="72.73" cy="567.89" r="2"/><circle class="cls-4" cx="80.91" cy="567.9" r="2"/><circle class="cls-4" cx="85.01" cy="574.97" r="2"/><circle class="cls-4" cx="80.85" cy="582.06" r="2"/><path class="cls-4" d="M346.39,556v38h-298V556h298m1-1h-300v40h300V555h0Z"/><text class="cls-13" transform="translate(470.07 581.22)">Add se<tspan x="55.03" y="0">r</tspan><tspan x="61.84" y="0">vice</tspan></text><polygon class="cls-14" points="411.26 574.97 404.04 587.47 389.61 587.47 382.39 574.97 389.61 562.47 404.04 562.47 411.26 574.97"/><path class="cls-15" d="M404.94,577.21l-1.8-1.4a5.87,5.87,0,0,0,0-1.67l1.8-1.4a0.43,0.43,0,0,0,.1-0.54l-1.7-2.94a0.43,0.43,0,0,0-.52-0.19l-2.12.85a6.18,6.18,0,0,0-1.44-.83l-0.32-2.26a0.41,0.41,0,0,0-.42-0.36h-3.4a0.42,0.42,0,0,0-.42.36l-0.32,2.26a6.52,6.52,0,0,0-1.44.83l-2.12-.85a0.42,0.42,0,0,0-.52.19l-1.7,2.94a0.42,0.42,0,0,0,.1.54l1.8,1.4a5.86,5.86,0,0,0,0,1.67l-1.8,1.4a0.43,0.43,0,0,0-.1.54l1.7,2.94a0.43,0.43,0,0,0,.52.19l2.12-.85a6.18,6.18,0,0,0,1.44.83l0.32,2.26a0.42,0.42,0,0,0,.42.36h3.4a0.41,0.41,0,0,0,.42-0.36l0.32-2.26a6.52,6.52,0,0,0,1.44-.83l2.12,0.85a0.42,0.42,0,0,0,.52-0.19l1.7-2.94A0.43,0.43,0,0,0,404.94,577.21ZM396.82,579A4.08,4.08,0,1,1,400.9,575,4.08,4.08,0,0,1,396.82,579Z"/><path class="cls-15" d="M666.39,556v38h-298V556h298m1-1h-300v40h300V555h0Z"/><rect class="cls-16" x="47.39" y="630.24" width="300" height="222.14"/><text class="cls-11" transform="translate(123.97 666.04)">ORGANI<tspan x="64.44" y="0">Z</tspan><tspan class="cls-17" x="75.18" y="0">A</tspan><tspan x="85.95" y="0">TIONS</tspan></text><text class="cls-18" transform="translate(71.04 720.6)">Az organization<tspan x="0" y="27">Ez organization</tspan><tspan x="0" y="54">Nagyon hosszú nevű </tspan><tspan x="0" y="72">oganization</tspan><tspan x="0" y="99">Rövidebb nevű organization</tspan></text><rect class="cls-19" x="367.39" y="631.33" width="300" height="219.96"/><text class="cls-13" transform="translate(477.14 669.95)">SE<tspan x="20.62" y="0">R</tspan><tspan x="31.5" y="0">VICES</tspan></text><text class="cls-20" transform="translate(467.06 745.79)">No service yet.</text></g><g id="desktop-2" data-name="desktop"><polygon class="cls-3" points="352.31 40.17 347.83 44.66 343.34 40.17 352.31 40.17"/></g><g id="_1200grid_9" data-name="1200grid_9"><line class="cls-21" x1="720.46" y1="-2922.6" x2="720.46" y2="13460.4"/><line class="cls-21" x1="710.46" y1="-2919.6" x2="710.46" y2="13463.4"/><line class="cls-21" x1="650.46" y1="-2919.6" x2="650.46" y2="13463.4"/><line class="cls-21" x1="640.46" y1="-2922.6" x2="640.46" y2="13460.4"/><line class="cls-21" x1="630.46" y1="-2919.6" x2="630.46" y2="13463.4"/><line class="cls-21" x1="570.46" y1="-2919.6" x2="570.46" y2="13463.4"/><line class="cls-21" x1="560.46" y1="-2922.6" x2="560.46" y2="13460.4"/><line class="cls-22" x1="550.46" y1="-2919.6" x2="550.46" y2="13463.4"/><line class="cls-21" x1="490.46" y1="-2919.6" x2="490.46" y2="13463.4"/><line class="cls-21" x1="480.46" y1="-2922.6" x2="480.46" y2="13460.4"/><line class="cls-21" x1="470.46" y1="-2919.6" x2="470.46" y2="13463.4"/><line class="cls-21" x1="410.46" y1="-1881.61" x2="410.46" y2="14501.39"/><line class="cls-21" x1="400.46" y1="-2922.6" x2="400.46" y2="13460.4"/><line class="cls-21" x1="390.46" y1="-2859.6" x2="390.46" y2="13523.4"/><line class="cls-21" x1="330.46" y1="-2859.6" x2="330.46" y2="13523.4"/><line class="cls-21" x1="320.46" y1="-2862.6" x2="320.46" y2="13520.4"/><line class="cls-21" x1="310.46" y1="-2859.6" x2="310.46" y2="13523.4"/><line class="cls-21" x1="250.46" y1="-2859.6" x2="250.46" y2="13523.4"/><line class="cls-21" x1="240.46" y1="-2862.6" x2="240.46" y2="13520.4"/><line class="cls-21" x1="230.46" y1="-2859.6" x2="230.46" y2="13523.4"/><line class="cls-21" x1="160.46" y1="-2862.6" x2="160.46" y2="13520.4"/><line class="cls-21" x1="150.46" y1="-2859.6" x2="150.46" y2="13523.4"/><line class="cls-21" x1="90.46" y1="-2859.6" x2="90.46" y2="13523.4"/><line class="cls-21" x1="80.46" y1="-2862.6" x2="80.46" y2="13520.4"/><line class="cls-21" x1="70.46" y1="-2859.6" x2="70.46" y2="13523.4"/><line class="cls-21" x1="0.46" y1="-2862.6" x2="0.46" y2="13520.4"/><line class="cls-21" x1="170.46" y1="-2859.6" x2="170.46" y2="13523.4"/></g></svg>