<svg id="o_manager" xmlns="http://www.w3.org/2000/svg" viewBox="0 0 320 688.77"><defs><style>.cls-1,.cls-10,.cls-11,.cls-6,.cls-7,.cls-8,.cls-9{fill:#333;}.cls-2,.cls-4{fill:#fff;}.cls-3{fill:#61afc5;}.cls-4{font-size:18px;}.cls-10,.cls-11,.cls-4,.cls-6,.cls-7,.cls-8,.cls-9{font-family:Roboto Condensed;font-weight:700;}.cls-5{fill:#ea7e73;}.cls-6{font-size:14px;}.cls-7{font-size:14px;}.cls-8{font-size:14px;}.cls-9{font-size:14px;}.cls-10{font-size:14px;}.cls-11{font-size:14px;}.cls-12{fill:none;stroke:#76cabf;stroke-miterlimit:10;}</style></defs><title>mobile</title><g id="mobile-4" data-name="mobile"><rect class="cls-1" width="320" height="40"/><path class="cls-2" d="M81.48,18.82l0-.07-0.11-.19-0.15-.26L78.76,14l-0.29-.52-0.15-.26-0.8-1.42a2.48,2.48,0,0,0-.6-0.71,2.39,2.39,0,0,0-.87-0.45l-0.06,0h0l-0.08,0a2.33,2.33,0,0,0-.48,0H67.59a2.41,2.41,0,0,0-2.09,1.24l-3.92,7a2.56,2.56,0,0,0,0,2.49l4.14,7.39a1.66,1.66,0,0,0,1.44.86A1.64,1.64,0,0,0,68,29.26a1.74,1.74,0,0,0,.61-2.34l-2.92-5.21H77.35l-1.5,2.67-0.29.52-0.12.21-1,1.81a1.7,1.7,0,0,0-.17.44,1.76,1.76,0,0,0,0,1h0a1.68,1.68,0,0,0,.6.81L75,29.27h0a1.62,1.62,0,0,0,.81.22A1.64,1.64,0,0,0,77,29.07h0a1.73,1.73,0,0,0,.35-0.43l0.14-.26,3.72-6.64,0.15-.26,0.13-.23v0A2.54,2.54,0,0,0,81.48,18.82Zm-15.81-.54,2.08-3.71a1.24,1.24,0,0,1,1.08-.64h5.36a1.24,1.24,0,0,1,1.08.64l0.19,0.34,0.12,0.21,0.29,0.52,1.49,2.65H65.68Z"/><path class="cls-3" d="M90.14,18.75l-3.92-7a2.41,2.41,0,0,0-2.09-1.24H76.28l-0.37,0-0.09,0H75.76a2.41,2.41,0,0,0-.93.44,2.48,2.48,0,0,0-.65.75l-0.78,1.39-0.15.26L73,13.91l-2.44,4.35-0.15.26-0.13.23v0a2.56,2.56,0,0,0,0,2.39l0,0.07,0.11,0.19,0.15,0.26,3.75,6.69h0l0,0,0.12,0.2a1.68,1.68,0,0,0,.44.51L75,29.25h0a1.62,1.62,0,0,0,1.68,0A1.68,1.68,0,0,0,77,29.05h0a1.71,1.71,0,0,0,.48-0.81,1.76,1.76,0,0,0,0-.91,1.71,1.71,0,0,0-.16-0.41l-1-1.83-0.12-.21-0.29-.52-1.49-2.67-0.29-.52-0.13-.24,0,0-0.15-.27a1.32,1.32,0,0,1,0-1.28l0.17-.3v0l0.15-.26,0.29-.52,1.48-2.65,0.29-.52,0.12-.21,0.18-.32a1.24,1.24,0,0,1,1.08-.64h5.36a1.24,1.24,0,0,1,1.08.64L86,18.29H81.2l0.15,0.26,0.11,0.19,0,0.07a2.54,2.54,0,0,1,0,2.39v0l-0.13.23-0.15.26H86l-2.92,5.21a1.74,1.74,0,0,0,.61,2.34,1.64,1.64,0,0,0,.83.23A1.66,1.66,0,0,0,86,28.63l4.14-7.39A2.56,2.56,0,0,0,90.14,18.75Z"/><path class="cls-2" d="M24.29,10.5a1.82,1.82,0,0,0-1.66,2V18H13.78v-5.6a1.82,1.82,0,0,0-1.66-2,1.82,1.82,0,0,0-1.66,2v15.1a1.82,1.82,0,0,0,1.66,2,1.82,1.82,0,0,0,1.66-2V22h8.85v5.6a1.82,1.82,0,0,0,1.66,2,1.82,1.82,0,0,0,1.66-2V12.45A1.82,1.82,0,0,0,24.29,10.5ZM25,11.34A1,1,0,0,0,24.29,11a1,1,0,0,0-.66.25A1,1,0,0,1,24.29,11,1,1,0,0,1,25,11.34ZM12.12,11a1,1,0,0,1,.74.33,1,1,0,0,0-1.47,0A1,1,0,0,1,12.12,11Z"/><path class="cls-2" d="M42.11,22a1.82,1.82,0,0,0,1.66-2,1.82,1.82,0,0,0-1.66-2H31.6V14.4H42.11a1.82,1.82,0,0,0,1.66-2,1.82,1.82,0,0,0-1.66-2H29.94a1.82,1.82,0,0,0-1.66,2v15.1a1.82,1.82,0,0,0,1.66,2H42.11a2,2,0,0,0,0-3.9H31.6V22H42.11Zm1.16-9.5h0a1.76,1.76,0,0,1-.05.43A1.76,1.76,0,0,0,43.27,12.45Z"/><path class="cls-2" d="M56.13,20l5-6.2a2.21,2.21,0,0,0,0-2.69,1.5,1.5,0,0,0-2.41,0l-4.88,6.05L49,11.11a1.5,1.5,0,0,0-2.41,0,2.21,2.21,0,0,0,0,2.69l5,6.2-5,6.2a2.21,2.21,0,0,0,0,2.69,1.5,1.5,0,0,0,2.41,0l4.88-6.05,4.88,6.05a1.5,1.5,0,0,0,2.41,0,2.21,2.21,0,0,0,0-2.69Z"/><path class="cls-2" d="M284.67,29.5h25.59V26.33H284.67V29.5Zm0-7.92h25.59V18.42H284.67v3.17Zm0-11.08v3.17h25.59V10.5H284.67Z"/><rect class="cls-3" y="40" width="320" height="40"/><text class="cls-4" transform="translate(10.46 65.55)">Nag<tspan x="28.55" y="0">y</tspan><tspan x="36.45" y="0">on hosszú n</tspan><tspan x="122.59" y="0">e</tspan><tspan x="131.09" y="0">vű o</tspan><tspan x="161.14" y="0">r</tspan><tspan x="166.94" y="0">ganization</tspan></text><path class="cls-1" d="M110.47,113.11a9,9,0,0,0-7.36-3.83H103a6.38,6.38,0,1,0-12.22-2.55,6.32,6.32,0,0,0,.53,2.55h-1A9,9,0,0,0,83,113.11H73.14v67.25h47.37V113.11h-10Zm-16.77-6.38a3.46,3.46,0,1,1,5.8,2.55A3.46,3.46,0,0,1,93.69,106.73Z"/><rect class="cls-2" x="76.56" y="117.48" width="41.21" height="58.5"/><polygon class="cls-5" points="91.55 144.08 85.55 150.08 81.34 145.86 82.04 145.16 85.55 148.66 90.84 143.38 91.55 144.08"/><polygon class="cls-5" points="91.55 127.26 85.55 133.25 81.34 129.04 82.04 128.33 85.55 131.84 90.84 126.55 91.55 127.26"/><polygon class="cls-5" points="91.55 160.91 85.55 166.91 81.34 162.69 82.04 161.98 85.55 165.49 90.84 160.2 91.55 160.91"/><rect class="cls-3" x="47.35" y="102.78" width="2.15" height="16.02"/><rect class="cls-3" x="47.35" y="102.78" width="2.15" height="16.02" transform="translate(159.22 62.36) rotate(90)"/><text class="cls-6" transform="translate(49.62 217.33)">C<tspan x="7.98" y="0">r</tspan><tspan x="12.5" y="0">eate </tspan><tspan x="40.01" y="0">r</tspan><tspan x="44.41" y="0">ole</tspan></text><path class="cls-5" d="M266.7,121.05l13.76-13.76-6.94-6.94-13.76,13.76a9.66,9.66,0,0,0-12.32,1.08L236.3,126.34l4,4,4.82-4.82a2.51,2.51,0,0,1,3.4-.14l0.14,0.13,6.67,6.67,0.13,0.14a2.51,2.51,0,0,1-.13,3.41l-4.82,4.82,4,4,11.14-11.14a9.66,9.66,0,0,0,1.08-12.33h0Z"/><path class="cls-1" d="M245.48,142l-6.67-6.67a2.51,2.51,0,0,0-3.55,0l-4.82,4.82h0l-4-4-11.15,11.15a9.66,9.66,0,0,0-1.08,12.32l-13.76,13.76,6.94,6.94,13.76-13.76a9.66,9.66,0,0,0,12.33-1.08l11.15-11.15-4-4,4.82-4.82A2.51,2.51,0,0,0,245.48,142Z"/><path class="cls-2" d="M261.38,121.1l-1.12.14a2.92,2.92,0,0,0-.59-0.59l0.14-1.12a0.21,0.21,0,0,0-.16-0.23l-1.63-.44a0.21,0.21,0,0,0-.25.12l-0.45,1a3.07,3.07,0,0,0-.8.21l-0.91-.68a0.21,0.21,0,0,0-.27,0l-1.2,1.2a0.21,0.21,0,0,0,0,.27l0.68,0.91a3.24,3.24,0,0,0-.21.8l-1,.45a0.21,0.21,0,0,0-.12.25l0.44,1.63a0.21,0.21,0,0,0,.23.16l1.12-.14a2.91,2.91,0,0,0,.59.59l-0.14,1.12a0.21,0.21,0,0,0,.16.23l1.63,0.44a0.21,0.21,0,0,0,.25-0.12l0.45-1a3.07,3.07,0,0,0,.8-0.21l0.91,0.68a0.21,0.21,0,0,0,.27,0l1.2-1.2a0.21,0.21,0,0,0,0-.27l-0.68-.91a3.24,3.24,0,0,0,.21-0.8l1-.45a0.21,0.21,0,0,0,.12-0.25l-0.44-1.63A0.21,0.21,0,0,0,261.38,121.1Zm-2.21,3.5a2,2,0,1,1,0-2.86A2,2,0,0,1,259.17,124.6Z"/><rect class="cls-3" x="207.67" y="102.78" width="2.23" height="16.62"/><rect class="cls-3" x="207.67" y="102.78" width="2.23" height="16.62" transform="translate(319.88 -97.69) rotate(90)"/><text class="cls-7" transform="translate(188.23 217.33)">Connect <tspan x="49.4" y="0">t</tspan><tspan x="53.49" y="0">o se</tspan><tspan x="76.74" y="0">r</tspan><tspan x="81.5" y="0">vice</tspan></text><path class="cls-1" d="M64.31,317.83L56,341.12H44.81l30.08-80H87.15l29,80H104.31L96.4,317.83H64.31Zm28.19-9.58L80.69,273H80.46L67.65,308.25H92.5Z"/><text class="cls-8" transform="translate(40.83 378.1)">E<tspan x="6.74" y="0">dit attributes</tspan></text><path class="cls-5" d="M280,334.4c-0.21,2.14-.55,4.41-1,6.72H246.27c-0.47-2.36-.82-4.65-1.05-6.72-0.61-5.6-2.24-20.47,5-28.39a16.32,16.32,0,0,1,12.41-5,16.06,16.06,0,0,1,11.48,4.54C282.07,313.58,280.47,330.07,280,334.4Z"/><circle class="cls-5" cx="262.54" cy="288.16" r="11.59"/><path class="cls-1" d="M214.26,342.62L214,341.42c-0.58-2.91-1-5.77-1.33-8.49-0.78-7.16-2.85-26.15,6.55-36.49a21.42,21.42,0,0,1,16.14-6.77h0.41c6.23,0.06,11.39,2.11,15.34,6.09,6.93,7,9.57,19.49,7.87,37.13-0.26,2.66-.69,5.52-1.28,8.52l-0.24,1.21H214.26Z"/><path class="cls-2" d="M235.39,291.16h0.4a20,20,0,0,1,14.28,5.65c10,10,8,30.56,7.44,35.95-0.26,2.66-.69,5.48-1.25,8.36H215.49c-0.59-2.94-1-5.78-1.31-8.36-0.76-7-2.79-25.46,6.17-35.31,5.44-6,12.66-6.28,15-6.28m0-3h0a22.91,22.91,0,0,0-17.25,7.27c-9.86,10.84-7.73,30.31-6.94,37.64,0.31,2.79.76,5.69,1.35,8.64l0.48,2.41h45.69l0.48-2.42c0.6-3,1-6,1.3-8.65,1.75-18.12-1-31-8.29-38.35-2.91-2.94-8.12-6.46-16.38-6.54h-0.43Z"/><circle class="cls-1" cx="235.73" cy="275.43" r="14.31"/><path class="cls-3" d="M200.76,278.21L202.5,280a0.73,0.73,0,0,0,1.06,0l6.91-6.91a5,5,0,0,0,6.23-6.76l-3.34,3.26-2.28-2.28,3.26-3.26a5,5,0,0,0-5.62,1,4.87,4.87,0,0,0-1.14,5.24l-6.91,6.91A0.68,0.68,0,0,0,200.76,278.21Z"/><text class="cls-9" transform="translate(201.16 378.1)">Manage users</text><path class="cls-1" d="M74,486.89V464H87v22.94h16.25V456.3H113l-32.5-34.41L48,456.3h9.75v30.59H74Z"/><path class="cls-3" d="M48,434.77v2.61h2.61l7.7-7.7-2.61-2.61Zm12.33-7.11a0.69,0.69,0,0,0,0-1l-1.63-1.63a0.69,0.69,0,0,0-1,0l-1.27,1.27L59,428.94Z"/><text class="cls-10" transform="translate(39.2 523.87)">E<tspan x="6.74" y="0">dit p</tspan><tspan x="31.66" y="0">r</tspan><tspan x="36.06" y="0">ope</tspan><tspan x="56.66" y="0">r</tspan><tspan x="61.64" y="0">ties</tspan></text><path class="cls-1" d="M245.88,421.89a32.5,32.5,0,0,0-32.5,32.5H202.55l14,14,0.25,0.51,14.59-14.55H220.6A25.4,25.4,0,1,1,228,472.23l-5.13,5.13A32.49,32.49,0,1,0,245.88,421.89Z"/><polygon class="cls-3" points="242.27 439.95 242.27 458 257.73 467.18 260.32 462.81 247.69 455.3 247.69 439.95 242.27 439.95"/><text class="cls-11" transform="translate(205.84 523.87)">View his<tspan x="47.18" y="0">t</tspan><tspan x="51.28" y="0">o</tspan><tspan x="58.24" y="0">r</tspan><tspan x="63.01" y="0">y</tspan></text><path class="cls-5" d="M160.46,567.66a32.5,32.5,0,1,0,32.5,32.5A32.51,32.51,0,0,0,160.46,567.66Zm16.25,35.75h-32.5v-6.5h32.5v6.5Z"/><text class="cls-11" transform="translate(105.86 679.64)">Delete o<tspan x="46.03" y="0">r</tspan><tspan x="50.54" y="0">ganization</tspan></text></g><g id="_1200grid_4" data-name="1200grid_4"><line class="cls-12" x1="320.46" y1="-6082.59" x2="320.46" y2="10300.41"/><line class="cls-12" x1="310.46" y1="-6079.59" x2="310.46" y2="10303.41"/><line class="cls-12" x1="250.46" y1="-6079.59" x2="250.46" y2="10303.41"/><line class="cls-12" x1="240.46" y1="-6082.59" x2="240.46" y2="10300.41"/><line class="cls-12" x1="230.46" y1="-6079.59" x2="230.46" y2="10303.41"/><line class="cls-12" x1="170.46" y1="-6079.59" x2="170.46" y2="10303.41"/><line class="cls-12" x1="160.46" y1="-6082.59" x2="160.46" y2="10300.41"/><line class="cls-12" x1="150.46" y1="-6079.59" x2="150.46" y2="10303.41"/><line class="cls-12" x1="90.46" y1="-6079.59" x2="90.46" y2="10303.41"/><line class="cls-12" x1="80.46" y1="-6082.59" x2="80.46" y2="10300.41"/><line class="cls-12" x1="70.46" y1="-6079.59" x2="70.46" y2="10303.41"/><line class="cls-12" x1="10.46" y1="-6079.59" x2="10.46" y2="10303.41"/></g></svg>