<svg id="index_1" xmlns="http://www.w3.org/2000/svg" viewBox="0 0 720 1096.62"><defs><style>.cls-1{fill:#ee342e;}.cls-1,.cls-18,.cls-19{stroke:#76cabf;}.cls-1,.cls-11,.cls-17,.cls-18,.cls-19{stroke-miterlimit:10;}.cls-10,.cls-2,.cls-9{fill:#333;}.cls-13,.cls-14,.cls-15,.cls-3,.cls-5,.cls-6{fill:#fff;}.cls-4,.cls-8{fill:#61afc5;}.cls-5{font-size:18px;font-family:Verdana;}.cls-6{font-size:28px;}.cls-15,.cls-16,.cls-6,.cls-7,.cls-8{font-family:Roboto Condensed;}.cls-14,.cls-6,.cls-7,.cls-8,.cls-9{font-weight:700;}.cls-7,.cls-8{font-size:22px;}.cls-12,.cls-7{fill:#ea7e73;}.cls-10,.cls-13,.cls-14,.cls-9{font-size:15px;font-family:Open Sans;}.cls-11,.cls-17,.cls-18{fill:none;}.cls-11{stroke:#61afc5;}.cls-15,.cls-16{font-size:14px;}.cls-16{fill:#8e8e8e;}.cls-17{stroke:#8e8e8e;}.cls-19{fill:#e8e8e8;}</style></defs><title>mobile</title><g id="tablet"><line class="cls-1" x1="10.46" y1="-7150.74" x2="10.46" y2="9232.26"/></g><g id="tablet-5" data-name="tablet"><rect class="cls-2" x="-0.23" width="720" height="80"/><path class="cls-3" d="M159.47,37.82l-0.07-.13-0.2-.35-0.28-.48-4.66-8.08-0.55-1-0.28-.48-1.53-2.64a4.67,4.67,0,0,0-2.82-2.16l-0.12,0h0l-0.15,0a4.58,4.58,0,0,0-.91-0.09h-15a4.63,4.63,0,0,0-4,2.31l-7.5,13a4.64,4.64,0,0,0,0,4.62L129.31,56a3.18,3.18,0,0,0,5.93-1.59,3.16,3.16,0,0,0-.43-1.59l-5.58-9.67h22.33l-2.86,5-0.55,1-0.23.39L146,52.84a3.1,3.1,0,0,0-.33.82,3.17,3.17,0,0,0,.09,1.86h0v0a3.14,3.14,0,0,0,1.15,1.5l0.25,0.17h0a3.17,3.17,0,0,0,3.63-.37h0a3.24,3.24,0,0,0,.66-0.8l0.27-.48,7.12-12.33,0.28-.48,0.25-.42,0-.05A4.6,4.6,0,0,0,159.47,37.82Zm-30.24-1,4-6.89a2.38,2.38,0,0,1,2.06-1.19h10.26a2.38,2.38,0,0,1,2.06,1.19l0.36,0.63,0.22,0.39,0.55,1,2.84,4.92H129.23Z"/><path class="cls-4" d="M176,37.69l-7.5-13a4.64,4.64,0,0,0-4-2.31h-15a4.83,4.83,0,0,0-.71.05l-0.17,0h0l-0.1,0a4.64,4.64,0,0,0-3,2.2L144,27.27l-0.28.48-0.55,1-4.66,8.08-0.28.48-0.25.43,0,0.05a4.63,4.63,0,0,0,0,4.44L138,42.31l0.2,0.35,0.28,0.48,7.17,12.42h0l0.05,0.09L145.94,56a3.15,3.15,0,0,0,.84,1L147,57.17h0a3.16,3.16,0,0,0,3.75-.37h0a3.16,3.16,0,0,0,.93-1.51,3.18,3.18,0,0,0,0-1.68,3.13,3.13,0,0,0-.31-0.76l-2-3.4-0.23-.39-0.55-1-2.86-5-0.55-1L145,41.75l0,0-0.29-.51a2.39,2.39,0,0,1,0-2.37l0.32-.56,0,0,0.28-.48,0.55-1,2.84-4.92,0.55-1,0.23-.39,0.34-.59a2.38,2.38,0,0,1,2.06-1.19h10.26a2.38,2.38,0,0,1,2.06,1.19l4,6.89h-9.27l0.28,0.48,0.2,0.35,0.07,0.13a4.6,4.6,0,0,1,0,4.44l0,0.05-0.25.42-0.28.48h9.31l-5.58,9.67A3.18,3.18,0,0,0,168.11,56L176,42.31A4.64,4.64,0,0,0,176,37.69Z"/><path class="cls-3" d="M50.06,22.37A3.42,3.42,0,0,0,46.89,26V36.38H30V26a3.42,3.42,0,0,0-3.17-3.62A3.42,3.42,0,0,0,23.61,26V54a3.42,3.42,0,0,0,3.17,3.62A3.42,3.42,0,0,0,30,54V43.62H46.89V54a3.2,3.2,0,1,0,6.34,0V26A3.42,3.42,0,0,0,50.06,22.37Zm1.41,1.57a2,2,0,0,0-1.41-.61,2,2,0,0,0-1.25.47,2,2,0,0,1,1.25-.47A2,2,0,0,1,51.47,23.93Zm-24.69-.61a2,2,0,0,1,1.41.61,1.93,1.93,0,0,0-2.82,0A2,2,0,0,1,26.78,23.32Z"/><path class="cls-3" d="M84.15,43.62A3.42,3.42,0,0,0,87.32,40a3.42,3.42,0,0,0-3.17-3.62H64V29.61H84.15A3.42,3.42,0,0,0,87.32,26a3.42,3.42,0,0,0-3.17-3.62H60.87A3.42,3.42,0,0,0,57.7,26V54a3.42,3.42,0,0,0,3.17,3.62H84.15a3.65,3.65,0,0,0,0-7.25H64V43.62H84.15ZM86.36,26h0a3.17,3.17,0,0,1-.1.79A3.17,3.17,0,0,0,86.36,26Z"/><path class="cls-3" d="M111,40l9.56-11.51a4,4,0,0,0,0-5,2.92,2.92,0,0,0-4.6,0L106.6,34.73,97.26,23.49a2.92,2.92,0,0,0-4.6,0,4,4,0,0,0,0,5L102.22,40,92.66,51.51a4,4,0,0,0,0,5,2.92,2.92,0,0,0,4.6,0l9.34-11.24,9.34,11.24a2.92,2.92,0,0,0,4.6,0,4,4,0,0,0,0-5Z"/><text class="cls-5" transform="translate(207.16 45.04)">Organizations</text><polygon class="cls-3" points="347.08 37.76 342.6 42.24 338.11 37.76 347.08 37.76"/><text class="cls-5" transform="translate(384.23 45.04)">Services</text><polygon class="cls-3" points="475.21 37.76 470.73 42.24 466.25 37.76 475.21 37.76"/><path class="cls-3" d="M656.43,57.67H704V51.78H656.43v5.89Zm0-14.72H704V37.06H656.43v5.89Zm0-20.61v5.89H704V22.33H656.43Z"/><rect class="cls-4" x="-0.23" y="80" width="720.46" height="65"/><text class="cls-6" transform="translate(10.23 121.85)">Nag<tspan x="44.41" y="0">y</tspan><tspan x="56.7" y="0">on hosszú n</tspan><tspan x="190.7" y="0">e</tspan><tspan x="203.92" y="0">vű o</tspan><tspan x="250.66" y="0">r</tspan><tspan x="259.68" y="0">ganization</tspan></text><text class="cls-7" transform="translate(10.46 314.28)">Managers</text><text class="cls-8" transform="translate(10.46 624.06)">Users</text><path class="cls-4" d="M709.46,644.36v38h-698v-38h698m1-1h-700v40h700v-40h0Z"/><text class="cls-9" transform="translate(105.46 667.56)">Almás Tamás</text><text class="cls-10" transform="translate(425.46 667.56)">almastamas@example.com</text><rect class="cls-11" x="31.99" y="652.81" width="21.09" height="21.09"/><path class="cls-12" d="M709.46,334.57v38h-698v-38h698m1-1h-700v40h700v-40h0Z"/><rect class="cls-4" x="10.46" y="229.57" width="60" height="38"/><rect class="cls-3" x="29.92" y="238.03" width="21.09" height="21.09"/><rect class="cls-12" x="10.46" y="372.57" width="700" height="40"/><text class="cls-10" transform="translate(425.46 357.78)">almastamas@example.com</text><text class="cls-10" transform="translate(425.46 435.78)">nagytamas@example.com</text><text class="cls-10" transform="translate(425.46 474.78)">szabotamas@example.com</text><text class="cls-10" transform="translate(425.46 513.78)">szucstamas@example.com</text><text class="cls-10" transform="translate(425.46 552.78)">vastamas@example.com</text><text class="cls-13" transform="translate(425.46 396.78)">kistamas@example.com</text><text class="cls-9" transform="translate(105.46 357.78)">Almás Tamás</text><text class="cls-9" transform="translate(105.46 435.78)">Nagy Tamás</text><text class="cls-9" transform="translate(105.46 474.78)">Szabó Tamás</text><text class="cls-9" transform="translate(105.46 513.78)">Szűcs Tamás</text><text class="cls-9" transform="translate(105.46 552.78)">Vas Tamás</text><text class="cls-14" transform="translate(105.46 396.78)">Kis Tamás</text><rect class="cls-3" x="32.49" y="343.53" width="20.09" height="20.09"/><path class="cls-12" d="M52.07,344v19.09H33V344H52.07m1-1H32v21.09H53.07V343h0Z"/><rect class="cls-3" x="32.49" y="421.53" width="20.09" height="20.09"/><path class="cls-12" d="M52.07,422v19.09H33V422H52.07m1-1H32v21.09H53.07V421h0Z"/><rect class="cls-3" x="32.49" y="460.53" width="20.09" height="20.09"/><path class="cls-12" d="M52.07,461v19.09H33V461H52.07m1-1H32v21.09H53.07V460h0Z"/><rect class="cls-3" x="32.49" y="499.53" width="20.09" height="20.09"/><path class="cls-12" d="M52.07,500v19.09H33V500H52.07m1-1H32v21.09H53.07V499h0Z"/><rect class="cls-3" x="32.49" y="538.53" width="20.09" height="20.09"/><path class="cls-12" d="M52.07,539v19.09H33V539H52.07m1-1H32v21.09H53.07V538h0Z"/><rect class="cls-3" x="32.49" y="382.53" width="20.09" height="20.09"/><path class="cls-3" d="M52.07,383v19.09H33V383H52.07m1-1H32v21.09H53.07V382h0Z"/><polygon class="cls-12" points="51.75 387.8 40.92 398.63 33.31 391.01 34.59 389.73 40.92 396.07 50.48 386.52 51.75 387.8"/><path class="cls-12" d="M709.46,412.57v38h-698v-38h698m1-1h-700v40h700v-40h0Z"/><path class="cls-12" d="M709.46,451.57v38h-698v-38h698m1-1h-700v40h700v-40h0Z"/><path class="cls-12" d="M709.46,490.57v38h-698v-38h698m1-1h-700v40h700v-40h0Z"/><path class="cls-12" d="M709.46,529.57v38h-698v-38h698m1-1h-700v40h700v-40h0Z"/><path class="cls-4" d="M709.46,683.36v38h-698v-38h698m1-1h-700v40h700v-40h0Z"/><text class="cls-9" transform="translate(105.46 706.56)">Almás Tamás</text><text class="cls-10" transform="translate(425.46 706.56)">almastamas@example.com</text><rect class="cls-11" x="31.99" y="691.81" width="21.09" height="21.09"/><path class="cls-4" d="M709.46,722.36v38h-698v-38h698m1-1h-700v40h700v-40h0Z"/><text class="cls-9" transform="translate(105.46 745.56)">Almás Tamás</text><text class="cls-10" transform="translate(425.46 745.56)">almastamas@example.com</text><rect class="cls-11" x="31.99" y="730.81" width="21.09" height="21.09"/><path class="cls-4" d="M709.46,761.36v38h-698v-38h698m1-1h-700v40h700v-40h0Z"/><text class="cls-9" transform="translate(105.46 784.56)">Almás Tamás</text><text class="cls-10" transform="translate(425.46 784.56)">almastamas@example.com</text><rect class="cls-11" x="31.99" y="769.81" width="21.09" height="21.09"/><path class="cls-4" d="M709.46,800.36v38h-698v-38h698m1-1h-700v40h700v-40h0Z"/><text class="cls-9" transform="translate(105.46 823.56)">Almás Tamás</text><text class="cls-10" transform="translate(425.46 823.56)">almastamas@example.com</text><rect class="cls-11" x="31.99" y="808.81" width="21.09" height="21.09"/><path class="cls-4" d="M709.46,839.36v38h-698v-38h698m1-1h-700v40h700v-40h0Z"/><text class="cls-9" transform="translate(105.46 862.56)">Almás Tamás</text><text class="cls-10" transform="translate(425.46 862.56)">almastamas@example.com</text><rect class="cls-11" x="31.99" y="847.81" width="21.09" height="21.09"/><path class="cls-4" d="M709.46,878.36v38h-698v-38h698m1-1h-700v40h700v-40h0Z"/><text class="cls-9" transform="translate(105.46 901.56)">Almás Tamás</text><text class="cls-10" transform="translate(425.46 901.56)">almastamas@example.com</text><rect class="cls-11" x="31.99" y="886.81" width="21.09" height="21.09"/><path class="cls-4" d="M709.46,917.36v38h-698v-38h698m1-1h-700v40h700v-40h0Z"/><text class="cls-9" transform="translate(105.46 940.56)">Almás Tamás</text><text class="cls-10" transform="translate(425.46 940.56)">almastamas@example.com</text><rect class="cls-11" x="31.99" y="925.81" width="21.09" height="21.09"/><path class="cls-4" d="M709.46,956.36v38h-698v-38h698m1-1h-700v40h700v-40h0Z"/><text class="cls-9" transform="translate(105.46 979.56)">Almás Tamás</text><text class="cls-10" transform="translate(425.46 979.56)">almastamas@example.com</text><rect class="cls-11" x="31.99" y="964.81" width="21.09" height="21.09"/><path class="cls-4" d="M709.46,995.36v38h-698v-38h698m1-1h-700v40h700v-40h0Z"/><text class="cls-9" transform="translate(105.46 1018.56)">Almás Tamás</text><text class="cls-10" transform="translate(425.46 1018.56)">almastamas@example.com</text><rect class="cls-11" x="31.99" y="1003.81" width="21.09" height="21.09"/><path class="cls-4" d="M709.46,1034.36v38h-698v-38h698m1-1h-700v40h700v-40h0Z"/><text class="cls-9" transform="translate(105.46 1057.56)">Almás Tamás</text><text class="cls-10" transform="translate(425.46 1057.56)">almastamas@example.com</text><rect class="cls-11" x="31.99" y="1042.81" width="21.09" height="21.09"/><path class="cls-4" d="M351.46,173.57v36h-340v-36h340m1-1h-342v38h342v-38h0Z"/><rect class="cls-4" x="352.46" y="172.57" width="38" height="38"/><path class="cls-3" d="M376,194.29h-1L374.7,194a7.85,7.85,0,1,0-.84.84l0.33,0.34v1l6,6,1.8-1.8Zm-7.23,0a5.42,5.42,0,1,1,5.42-5.42A5.42,5.42,0,0,1,368.76,194.29Z"/><rect class="cls-12" x="640" y="228.7" width="70" height="38"/><text class="cls-15" transform="translate(667.04 251.79)">Invite</text><rect class="cls-3" x="656.61" y="242.12" width="1.18" height="9.15"/><rect class="cls-3" x="656.59" y="242.3" width="1.23" height="8.81" transform="translate(903.9 -410.5) rotate(90)"/><rect class="cls-4" x="90" y="228.7" width="107.7" height="38"/><text class="cls-16" transform="translate(217.33 251.22)">P<tspan x="7.76" y="0">r</tspan><tspan x="11.88" y="0">oposal</tspan></text><rect class="cls-17" x="207.7" y="228.7" width="72" height="38"/><rect class="cls-4" x="289.7" y="228.7" width="70" height="38"/><rect class="cls-4" x="449.7" y="228.7" width="70" height="38"/><rect class="cls-4" x="369.7" y="228.7" width="70" height="38"/><text class="cls-15" transform="translate(107.79 251.22)">Change <tspan x="44.84" y="0">r</tspan><tspan x="48.96" y="0">oles</tspan></text><text class="cls-15" transform="translate(304.93 251.79)">R<tspan x="7.43" y="0">e</tspan><tspan x="13.9" y="0">v</tspan><tspan x="19.78" y="0">o</tspan><tspan x="26.81" y="0">k</tspan><tspan x="32.98" y="0">e</tspan></text><text class="cls-15" transform="translate(462.75 251.79)">Rem<tspan x="24.52" y="0">o</tspan><tspan x="31.45" y="0">v</tspan><tspan x="37.34" y="0">e</tspan></text><text class="cls-15" transform="translate(379.68 251.79)">Message</text></g><g id="_1200grid_9" data-name="1200grid_9"><line class="cls-18" x1="720.46" y1="-7213.74" x2="720.46" y2="9169.26"/><line class="cls-18" x1="710.46" y1="-7210.74" x2="710.46" y2="9172.26"/><line class="cls-18" x1="650.46" y1="-7210.74" x2="650.46" y2="9172.26"/><line class="cls-18" x1="640.46" y1="-7213.74" x2="640.46" y2="9169.26"/><line class="cls-18" x1="630.46" y1="-7210.74" x2="630.46" y2="9172.26"/><line class="cls-18" x1="570.46" y1="-7210.74" x2="570.46" y2="9172.26"/><line class="cls-18" x1="560.46" y1="-7213.74" x2="560.46" y2="9169.26"/><line class="cls-19" x1="550.46" y1="-7210.74" x2="550.46" y2="9172.26"/><line class="cls-18" x1="490.46" y1="-7210.74" x2="490.46" y2="9172.26"/><line class="cls-18" x1="480.46" y1="-7213.74" x2="480.46" y2="9169.26"/><line class="cls-18" x1="470.46" y1="-7210.74" x2="470.46" y2="9172.26"/><line class="cls-18" x1="410.46" y1="-6172.75" x2="410.46" y2="10210.25"/><line class="cls-18" x1="400.46" y1="-7213.74" x2="400.46" y2="9169.26"/><line class="cls-18" x1="390.46" y1="-7150.74" x2="390.46" y2="9232.26"/><line class="cls-18" x1="330.46" y1="-7150.74" x2="330.46" y2="9232.26"/><line class="cls-18" x1="320.46" y1="-7153.74" x2="320.46" y2="9229.26"/><line class="cls-18" x1="310.46" y1="-7150.74" x2="310.46" y2="9232.26"/><line class="cls-18" x1="250.46" y1="-7150.74" x2="250.46" y2="9232.26"/><line class="cls-18" x1="240.46" y1="-7153.74" x2="240.46" y2="9229.26"/><line class="cls-18" x1="230.46" y1="-7150.74" x2="230.46" y2="9232.26"/><line class="cls-18" x1="160.46" y1="-7153.74" x2="160.46" y2="9229.26"/><line class="cls-18" x1="150.46" y1="-7150.74" x2="150.46" y2="9232.26"/><line class="cls-18" x1="90.46" y1="-7150.74" x2="90.46" y2="9232.26"/><line class="cls-18" x1="80.46" y1="-7153.74" x2="80.46" y2="9229.26"/><line class="cls-18" x1="70.46" y1="-7150.74" x2="70.46" y2="9232.26"/><line class="cls-18" x1="0.46" y1="-7153.74" x2="0.46" y2="9229.26"/><line class="cls-18" x1="170.46" y1="-7150.74" x2="170.46" y2="9232.26"/></g></svg>