<svg id="admin_contact" xmlns="http://www.w3.org/2000/svg" viewBox="0 0 1920 1080"><defs><style>.cls-1,.cls-10{fill:#ba334d;}.cls-2{font-size:24px;}.cls-2,.cls-3,.cls-4,.cls-7{fill:#333;}.cls-10,.cls-2,.cls-4,.cls-5,.cls-7,.cls-8,.cls-9{font-family:Open Sans;}.cls-2,.cls-7,.cls-8{font-weight:700;}.cls-4,.cls-5,.cls-8{font-size:16px;}.cls-11,.cls-12,.cls-13,.cls-14,.cls-5,.cls-8{fill:#fff;}.cls-6{fill:#e8e8e8;}.cls-7{font-size:17px;}.cls-10,.cls-9{font-size:15px;}.cls-9{fill:#231f20;}.cls-11{font-size:18px;}.cls-11,.cls-13,.cls-14{font-family:Verdana;}.cls-13{font-size:19px;}.cls-14{font-size:20px;}.cls-15{fill:#8299ce;}.cls-16{fill:#61afc5;}.cls-17{fill:none;}.cls-17,.cls-18{stroke:#76cabf;stroke-miterlimit:10;}.cls-18{fill:#ee342e;}</style></defs><title>mobile</title><g id="desktop-7" data-name="desktop"><rect class="cls-1" x="850" y="711.24" width="88.83" height="41"/><text class="cls-2" transform="translate(610 261.13)">Contact to</text><path class="cls-3" d="M1309,286.91v48H1091v-48h218m1-1H1090v50h220v-50h0Z"/><text class="cls-4" transform="translate(1144.4 315.11)">Hexaa admins</text><rect class="cls-3" x="610" y="287.58" width="220" height="50"/><text class="cls-5" transform="translate(656.75 316.78)">Service managers</text><rect class="cls-6" x="850.5" y="428.57" width="459" height="38.99"/><path class="cls-1" d="M1309,429.07v38H851v-38h458m1-1H850v40h460v-40h0Z"/><text class="cls-7" transform="translate(610 452.83)">Service name</text><text class="cls-7" transform="translate(610 502.66)">Title</text><text class="cls-7" transform="translate(610 552.49)">Message</text><rect class="cls-6" x="850.5" y="478.4" width="459" height="38.99"/><path class="cls-3" d="M1309,478.9v38H851v-38h458m1-1H850v40h460v-40h0Z"/><rect class="cls-6" x="850.5" y="529.16" width="459" height="169"/><path class="cls-3" d="M1309,529.66v168H851v-168h458m1-1H850v170h460v-170h0Z"/><text class="cls-8" transform="translate(874.96 736.23)">Send</text><text class="cls-9" transform="translate(866.64 452.55)">blablaal</text><text class="cls-10" transform="translate(1338.38 452.55)">Service does not exist.</text><rect class="cls-1" y="79.61" width="1920" height="65"/><rect class="cls-3" width="1920" height="80"/><text class="cls-11" transform="translate(1683.26 45.04)">Username</text><path class="cls-12" d="M1868.79,29.07h-2.43V41.21h2.43V29.07Zm5.86,2.63-1.72,1.72a8.4,8.4,0,0,1,3.14,6.57,8.5,8.5,0,1,1-13.87-6.58l-1.71-1.71A10.93,10.93,0,1,0,1874.65,31.71Z"/><rect class="cls-1" x="669.88" width="125" height="80"/><text class="cls-13" transform="translate(321.17 48.55)">Organizations</text><polygon class="cls-12" points="627.51 40.86 623.03 45.34 618.55 40.86 627.51 40.86"/><text class="cls-14" transform="translate(525.26 48.7)">Services</text><rect class="cls-15" x="1026" y="136.61" width="128.93" height="8"/><path class="cls-12" d="M184.84,37.82l-0.07-.13-0.2-.35-0.28-.48-4.66-8.08-0.55-1-0.28-.48-1.53-2.64a4.67,4.67,0,0,0-2.82-2.16l-0.12,0h0l-0.15,0a4.58,4.58,0,0,0-.91-0.09h-15a4.63,4.63,0,0,0-4,2.31l-7.5,13a4.64,4.64,0,0,0,0,4.62L154.68,56a3.18,3.18,0,0,0,5.93-1.59,3.16,3.16,0,0,0-.43-1.59l-5.58-9.67h22.33l-2.86,5-0.55,1-0.23.39-1.94,3.36a3.1,3.1,0,0,0-.33.82,3.17,3.17,0,0,0,.09,1.86h0v0a3.14,3.14,0,0,0,1.15,1.5l0.25,0.17h0a3.17,3.17,0,0,0,3.63-.37h0a3.24,3.24,0,0,0,.66-0.8l0.27-.48,7.12-12.33,0.28-.48,0.25-.42,0-.05A4.6,4.6,0,0,0,184.84,37.82Zm-30.24-1,4-6.89a2.38,2.38,0,0,1,2.06-1.19H170.9A2.38,2.38,0,0,1,173,29.93l0.36,0.63,0.22,0.39,0.55,1,2.84,4.92H154.61Z"/><path class="cls-16" d="M201.41,37.69l-7.5-13a4.64,4.64,0,0,0-4-2.31h-15a4.83,4.83,0,0,0-.71.05l-0.17,0h0l-0.1,0a4.64,4.64,0,0,0-3,2.2l-1.49,2.57-0.28.48-0.55,1-4.66,8.08-0.28.48-0.25.43,0,0.05a4.63,4.63,0,0,0,0,4.44l0.07,0.12,0.2,0.35,0.28,0.48L171,55.56h0l0.05,0.09L171.31,56a3.15,3.15,0,0,0,.84,1l0.26,0.19h0a3.16,3.16,0,0,0,3.75-.37h0a3.16,3.16,0,0,0,.93-1.51,3.18,3.18,0,0,0,0-1.68,3.13,3.13,0,0,0-.31-0.76l-2-3.4-0.23-.39-0.55-1-2.86-5-0.55-1-0.26-.44,0,0-0.29-.51a2.39,2.39,0,0,1,0-2.37l0.32-.56,0,0,0.28-.48,0.55-1,2.84-4.92,0.55-1,0.23-.39,0.34-.59a2.38,2.38,0,0,1,2.06-1.19h10.26a2.38,2.38,0,0,1,2.06,1.19l4,6.89H184.3l0.28,0.48,0.2,0.35,0.07,0.13a4.6,4.6,0,0,1,0,4.44l0,0.05-0.25.42-0.28.48h9.31L188,52.84A3.18,3.18,0,0,0,193.49,56l7.92-13.71A4.64,4.64,0,0,0,201.41,37.69Z"/><path class="cls-12" d="M75.44,22.37A3.42,3.42,0,0,0,72.27,26V36.38H55.33V26A3.2,3.2,0,1,0,49,26V54a3.2,3.2,0,1,0,6.34,0V43.62H72.27V54a3.2,3.2,0,1,0,6.34,0V26A3.42,3.42,0,0,0,75.44,22.37Zm1.41,1.57a2,2,0,0,0-1.41-.61,2,2,0,0,0-1.25.47,2,2,0,0,1,1.25-.47A2,2,0,0,1,76.85,23.93Zm-24.69-.61a2,2,0,0,1,1.41.61,1.93,1.93,0,0,0-2.82,0A2,2,0,0,1,52.16,23.32Z"/><path class="cls-12" d="M109.53,43.62A3.42,3.42,0,0,0,112.7,40a3.42,3.42,0,0,0-3.17-3.62H89.42V29.61h20.11A3.42,3.42,0,0,0,112.7,26a3.42,3.42,0,0,0-3.17-3.62H86.25A3.42,3.42,0,0,0,83.08,26V54a3.42,3.42,0,0,0,3.17,3.62h23.28a3.65,3.65,0,0,0,0-7.25H89.42V43.62h20.11ZM111.74,26h0a3.17,3.17,0,0,1-.1.79A3.17,3.17,0,0,0,111.74,26Z"/><path class="cls-12" d="M136.35,40l9.56-11.51a4,4,0,0,0,0-5,2.92,2.92,0,0,0-4.6,0L132,34.73l-9.34-11.24a2.92,2.92,0,0,0-4.6,0,4,4,0,0,0,0,5L127.6,40,118,51.51a4,4,0,0,0,0,5,2.92,2.92,0,0,0,4.6,0L132,45.27l9.34,11.24a2.92,2.92,0,0,0,4.6,0,4,4,0,0,0,0-5Z"/><path class="cls-12" d="M1815.65,32.5a11.83,11.83,0,0,0-11,7.5,11.82,11.82,0,0,0,22,0A11.83,11.83,0,0,0,1815.65,32.5Z"/><circle class="cls-3" cx="1815.65" cy="40" r="5"/><circle class="cls-12" cx="1815.65" cy="40" r="3"/><text class="cls-14" transform="translate(700.51 48.7)">Admin</text><text class="cls-11" transform="translate(395.39 117.15)">A<tspan x="12.13" y="0">ttributes</tspan></text><text class="cls-11" transform="translate(544.13 117.15)">Principals</text><text class="cls-11" transform="translate(689.65 117.15)">Enti<tspan x="34.8" y="0">t</tspan><tspan x="41.81" y="0">y IDs</tspan></text><text class="cls-11" transform="translate(839.27 117.15)">Securi<tspan x="56.42" y="0">t</tspan><tspan x="63.42" y="0">y domains</tspan></text><text class="cls-11" transform="translate(1055.83 117.15)">Contact</text></g><g id="_1200grid_15" data-name="1200grid_15"><line class="cls-17" x1="1560" y1="-9269.51" x2="1560" y2="7113.49"/><line class="cls-18" x1="1550" y1="-9263.52" x2="1550" y2="7119.48"/><line class="cls-17" x1="1490" y1="-9263.52" x2="1490" y2="7119.48"/><line class="cls-17" x1="1480" y1="-9266.52" x2="1480" y2="7116.48"/><line class="cls-17" x1="1470" y1="-9263.52" x2="1470" y2="7119.48"/><line class="cls-17" x1="1410" y1="-9263.52" x2="1410" y2="7119.48"/><line class="cls-17" x1="1400" y1="-9266.52" x2="1400" y2="7116.48"/><line class="cls-17" x1="1390" y1="-9263.52" x2="1390" y2="7119.48"/><line class="cls-17" x1="1330" y1="-9263.52" x2="1330" y2="7119.48"/><line class="cls-17" x1="1320" y1="-9266.52" x2="1320" y2="7116.48"/><line class="cls-17" x1="1310" y1="-9263.52" x2="1310" y2="7119.48"/><line class="cls-17" x1="1250" y1="-9263.52" x2="1250" y2="7119.48"/><line class="cls-17" x1="1240" y1="-9266.52" x2="1240" y2="7116.48"/><line class="cls-17" x1="1230" y1="-9263.52" x2="1230" y2="7119.48"/><line class="cls-17" x1="1170" y1="-9263.52" x2="1170" y2="7119.48"/><line class="cls-17" x1="1160" y1="-9266.52" x2="1160" y2="7116.48"/><line class="cls-17" x1="1150" y1="-9263.52" x2="1150" y2="7119.48"/><line class="cls-17" x1="1090" y1="-9263.52" x2="1090" y2="7119.48"/><line class="cls-17" x1="1080" y1="-9266.52" x2="1080" y2="7116.48"/><line class="cls-17" x1="1070" y1="-9263.52" x2="1070" y2="7119.48"/><line class="cls-17" x1="1010" y1="-9263.52" x2="1010" y2="7119.48"/><line class="cls-17" x1="1000" y1="-9266.52" x2="1000" y2="7116.48"/><line class="cls-17" x1="990" y1="-9263.52" x2="990" y2="7119.48"/><line class="cls-17" x1="930" y1="-9263.52" x2="930" y2="7119.48"/><line class="cls-17" x1="920" y1="-9266.52" x2="920" y2="7116.48"/><line class="cls-17" x1="910" y1="-9263.52" x2="910" y2="7119.48"/><line class="cls-17" x1="850" y1="-9263.52" x2="850" y2="7119.48"/><line class="cls-17" x1="840" y1="-9266.52" x2="840" y2="7116.48"/><line class="cls-17" x1="830" y1="-9263.52" x2="830" y2="7119.48"/><line class="cls-17" x1="770" y1="-9263.52" x2="770" y2="7119.48"/><line class="cls-17" x1="760" y1="-9266.52" x2="760" y2="7116.48"/><line class="cls-17" x1="750" y1="-9263.52" x2="750" y2="7119.48"/><line class="cls-17" x1="690" y1="-9263.52" x2="690" y2="7119.48"/><line class="cls-17" x1="680" y1="-9266.52" x2="680" y2="7116.48"/><line class="cls-17" x1="670" y1="-9263.52" x2="670" y2="7119.48"/><line class="cls-17" x1="610" y1="-9263.52" x2="610" y2="7119.48"/><line class="cls-17" x1="600" y1="-9266.52" x2="600" y2="7116.48"/><line class="cls-17" x1="590" y1="-9263.52" x2="590" y2="7119.48"/><line class="cls-17" x1="520" y1="-9266.52" x2="520" y2="7116.48"/><line class="cls-17" x1="510" y1="-9263.52" x2="510" y2="7119.48"/><line class="cls-17" x1="450" y1="-9263.52" x2="450" y2="7119.48"/><line class="cls-17" x1="440" y1="-9266.52" x2="440" y2="7116.48"/><line class="cls-17" x1="430" y1="-9263.52" x2="430" y2="7119.48"/><line class="cls-18" x1="370" y1="-9263.52" x2="370" y2="7119.48"/><line class="cls-17" x1="360" y1="-9266.52" x2="360" y2="7116.48"/><line class="cls-17" x1="530" y1="-9263.52" x2="530" y2="7119.48"/></g></svg>