<svg id="index_1" xmlns="http://www.w3.org/2000/svg" viewBox="0 0 720 960"><defs><style>.cls-1{fill:#ee342e;}.cls-1,.cls-21,.cls-22{stroke:#76cabf;}.cls-1,.cls-11,.cls-16,.cls-21,.cls-22{stroke-miterlimit:10;}.cls-12,.cls-13,.cls-14,.cls-2{fill:#333;}.cls-3{fill:#61afc5;}.cls-4{font-size:18px;}.cls-10,.cls-4,.cls-5,.cls-7{fill:#fff;}.cls-4,.cls-7{font-family:Verdana;}.cls-6{fill:#ba334d;}.cls-12,.cls-18,.cls-19,.cls-7{font-size:15px;}.cls-8{font-size:25px;}.cls-18,.cls-19,.cls-20,.cls-8,.cls-9{fill:#636464;}.cls-10,.cls-12,.cls-20,.cls-8{font-family:Roboto Condensed;}.cls-10,.cls-12,.cls-19,.cls-20,.cls-8{font-weight:700;}.cls-10{font-size:17px;}.cls-11,.cls-16,.cls-21{fill:none;}.cls-11{stroke:#333;}.cls-13{font-size:12px;}.cls-13,.cls-14,.cls-17,.cls-18,.cls-19{font-family:Open Sans;}.cls-14,.cls-17{font-size:14px;}.cls-15,.cls-17{fill:#ea7e73;}.cls-16{stroke:#ea7e73;}.cls-17{font-style:italic;}.cls-20{font-size:18.67px;}.cls-22{fill:#e8e8e8;}</style></defs><title>mobile</title><g id="tablet"><line class="cls-1" x1="10.46" y1="-11188.36" x2="10.46" y2="5194.64"/></g><g id="tablet-8" data-name="tablet"><rect class="cls-2" width="720.46" height="80"/><rect class="cls-3" x="468.72" width="121.39" height="80"/><text class="cls-4" transform="translate(483.72 45.04)">Username</text><path class="cls-5" d="M669.25,29.07h-2.43V41.21h2.43V29.07Zm5.86,2.63-1.72,1.72A8.4,8.4,0,0,1,676.54,40a8.5,8.5,0,1,1-13.87-6.58L661,31.71A10.93,10.93,0,1,0,675.11,31.71Z"/><path class="cls-5" d="M616.11,34.5a5,5,0,0,1,5,5,4.85,4.85,0,0,1-.36,1.83l2.92,2.92a11.82,11.82,0,0,0,3.43-4.75,11.83,11.83,0,0,0-11-7.5,11.65,11.65,0,0,0-4,.7l2.16,2.16A4.85,4.85,0,0,1,616.11,34.5Zm-10-2.73,2.28,2.28,0.46,0.46a11.8,11.8,0,0,0-3.74,5,11.82,11.82,0,0,0,15.38,6.66l0.42,0.42,2.93,2.92,1.27-1.27L607.38,30.5Zm5.53,5.53,1.55,1.55a2.82,2.82,0,0,0-.08.65,3,3,0,0,0,3,3,2.82,2.82,0,0,0,.65-0.08L618.31,44A5,5,0,0,1,611.64,37.3Zm4.31-.78,3.15,3.15,0-.16a3,3,0,0,0-3-3H616Z"/><ellipse class="cls-6" cx="569.96" cy="15.99" rx="18" ry="11.25"/><text class="cls-7" transform="translate(565.2 20.19)">1</text><text class="cls-8" transform="translate(10.94 386.03)">A<tspan x="14.72" y="0">ttributes</tspan></text><rect class="cls-9" x="10.94" y="859.04" width="699.58" height="40"/><text class="cls-10" transform="translate(23.14 884.01) scale(0.81 1)">attribute4</text><rect class="cls-9" x="10.94" y="909.04" width="699.58" height="40"/><text class="cls-10" transform="translate(23.14 934.01) scale(0.81 1)">attribute5</text><rect class="cls-9" x="10.94" y="586.71" width="699.58" height="40"/><polygon class="cls-5" points="694.25 607.15 686.71 599.61 679.17 607.15 694.25 607.15"/><text class="cls-10" transform="translate(25.94 611.68)">Lábmé<tspan x="45.3" y="0">r</tspan><tspan x="50.78" y="0">et</tspan></text><path class="cls-9" d="M709.52,626.71v172H11.94v-172H709.52m1-1H10.94v174H710.52v-174h0Z"/><rect class="cls-11" x="141.1" y="638.45" width="504.35" height="33"/><path class="cls-9" d="M660.88,660.17v3.73h3.73l11-11-3.73-3.73ZM678.48,650a1,1,0,0,0,0-1.4l-2.33-2.33a1,1,0,0,0-1.4,0l-1.82,1.82,3.73,3.73Z"/><text class="cls-12" transform="translate(40.94 659.15) scale(1.04 1)">V<tspan x="8.33" y="0">alues</tspan></text><text class="cls-12" transform="translate(40.94 777.3) scale(1.04 1)">Suppo<tspan x="37.8" y="0">r</tspan><tspan x="43.14" y="0">ted se</tspan><tspan x="79.8" y="0">r</tspan><tspan x="84.91" y="0">vices</tspan></text><text class="cls-13" transform="translate(205.56 776.28)">Service1, service3, service5, service8</text><path class="cls-9" d="M691.58,662a2,2,0,0,0,2,2h8a2,2,0,0,0,2-2V650h-12v12Zm13-15h-3.5l-1-1h-5l-1,1h-3.5v2h14v-2Z"/><rect class="cls-11" x="141.1" y="681.45" width="504.35" height="33"/><text class="cls-14" transform="translate(185.94 659.16)">Első érték</text><text class="cls-14" transform="translate(185.94 702.16) scale(0.95 1)">Másodikérték</text><path class="cls-9" d="M658.32,703.2V707h3.75l11.06-11.06-3.75-3.75ZM676,693a1,1,0,0,0,0-1.41l-2.34-2.34a1,1,0,0,0-1.41,0l-1.83,1.83,3.75,3.75Z"/><path class="cls-9" d="M689.08,705a2,2,0,0,0,2,2h8a2,2,0,0,0,2-2V693h-12v12Zm13-15h-3.5l-1-1h-5l-1,1h-3.5v2h14v-2Z"/><rect class="cls-2" x="148.89" y="724.45" width="2.42" height="18"/><rect class="cls-2" x="148.89" y="724.45" width="2.42" height="18" transform="translate(883.55 583.36) rotate(90)"/><rect class="cls-9" x="10.94" y="809.04" width="699.58" height="40"/><text class="cls-10" transform="translate(23.14 834.01) scale(0.81 1)">L<tspan x="8.13" y="0">e</tspan><tspan x="16.16" y="0">vlista</tspan></text><rect class="cls-15" x="10.94" y="417.36" width="699.58" height="40"/><polygon class="cls-5" points="694.31 437.82 686.71 430.23 679.12 437.82 694.31 437.82"/><text class="cls-10" transform="translate(25.94 442.33)">A<tspan x="10.06" y="0">u</tspan><tspan x="18.43" y="0">t</tspan><tspan x="23.4" y="0">ótípus</tspan></text><path class="cls-15" d="M709.52,456.69v119H11.94v-119H709.52m1-1H10.94v121H710.52v-121h0Z"/><rect class="cls-16" x="141.1" y="468.53" width="504.35" height="33"/><path class="cls-15" d="M670.29,490.81v4.13h4.13l12.18-12.18-4.13-4.13Zm19.51-11.24a1.1,1.1,0,0,0,0-1.55l-2.58-2.58a1.1,1.1,0,0,0-1.55,0l-2,2,4.13,4.13Z"/><text class="cls-13" transform="translate(205.94 556.36)">Service1, service3, service5, service8</text><text class="cls-12" transform="translate(41.32 489.23) scale(1.04 1)">V<tspan x="8.33" y="0">alues</tspan></text><text class="cls-12" transform="translate(41.32 557.38) scale(1.04 1)">Suppo<tspan x="37.8" y="0">r</tspan><tspan x="43.14" y="0">ted se</tspan><tspan x="79.8" y="0">r</tspan><tspan x="84.91" y="0">vices</tspan></text><text class="cls-17" transform="translate(185.94 489.23)">Még nincs érték.</text><path class="cls-5" d="M655.87,445.42a2.05,2.05,0,0,1,.62-1.54,2.45,2.45,0,0,1,3.21,0,2.05,2.05,0,0,1,.62,1.54,2,2,0,0,1-.61,1.52,2.49,2.49,0,0,1-3.23,0A2,2,0,0,1,655.87,445.42Zm3.94-4.3h-3.39l-0.48-13.94h4.34Z"/><rect class="cls-11" x="10.94" y="111.77" width="540" height="193"/><text class="cls-18" transform="translate(185.94 188.78)">Teniszütő Ernő</text><text class="cls-18" transform="translate(185.94 219.78)">teniszutoerno@gmail.com</text><text class="cls-18" transform="translate(185.94 250.79)">teniszutoerno@partners.sztaki.hu</text><text class="cls-19" transform="translate(25.94 188.78)">Name</text><text class="cls-19" transform="translate(25.94 219.78)">Email</text><text class="cls-19" transform="translate(25.94 250.79)">Federal ID</text><text class="cls-8" transform="translate(25.94 145.12)">P<tspan x="14.22" y="0">r</tspan><tspan x="22.07" y="0">ope</tspan><tspan x="58.85" y="0">r</tspan><tspan x="67.75" y="0">ties</tspan></text><path class="cls-15" d="M517.95,136.56v3.75h3.75l11.06-11.06L529,125.5Zm17.71-10.21a1,1,0,0,0,0-1.41l-2.34-2.34a1,1,0,0,0-1.41,0l-1.83,1.83,3.75,3.75Z"/><path class="cls-9" d="M646.67,134.77a43.34,43.34,0,0,0-43.33,43.33H588.89l18.73,18.73L608,197.5l19.45-19.4H613a33.86,33.86,0,1,1,9.92,23.78L616,208.72A43.32,43.32,0,1,0,646.67,134.77Z"/><polygon class="cls-9" points="641.83 159.05 641.83 182.86 662.21 194.96 665.64 189.19 648.97 179.29 648.97 159.05 641.83 159.05"/><text class="cls-20" transform="translate(580.54 270.73)">Account his<tspan x="88.38" y="0">t</tspan><tspan x="93.84" y="0">o</tspan><tspan x="103.13" y="0">r</tspan><tspan x="109.48" y="0">y</tspan></text><polygon class="cls-5" points="694.25 825.27 686.71 832.81 679.17 825.27 694.25 825.27"/><polygon class="cls-5" points="694.25 875.27 686.71 882.81 679.17 875.27 694.25 875.27"/><polygon class="cls-5" points="694.25 925.27 686.71 932.81 679.17 925.27 694.25 925.27"/><path class="cls-5" d="M159.7,37.82l-0.07-.13-0.2-.35-0.28-.48-4.66-8.08-0.55-1-0.28-.48-1.53-2.64a4.67,4.67,0,0,0-2.82-2.16l-0.12,0h0l-0.15,0a4.58,4.58,0,0,0-.91-0.09h-15a4.63,4.63,0,0,0-4,2.31l-7.5,13a4.64,4.64,0,0,0,0,4.62L129.54,56a3.18,3.18,0,0,0,5.93-1.59,3.16,3.16,0,0,0-.43-1.59l-5.58-9.67H151.8l-2.86,5-0.55,1-0.23.39-1.94,3.36a3.1,3.1,0,0,0-.33.82,3.17,3.17,0,0,0,.09,1.86h0v0a3.14,3.14,0,0,0,1.15,1.5l0.25,0.17h0a3.17,3.17,0,0,0,3.63-.37h0a3.24,3.24,0,0,0,.66-0.8l0.27-.48,7.12-12.33,0.28-.48,0.25-.42,0-.05A4.6,4.6,0,0,0,159.7,37.82Zm-30.24-1,4-6.89a2.38,2.38,0,0,1,2.06-1.19h10.26a2.38,2.38,0,0,1,2.06,1.19l0.36,0.63,0.22,0.39,0.55,1,2.84,4.92H129.46Z"/><path class="cls-3" d="M176.26,37.69l-7.5-13a4.64,4.64,0,0,0-4-2.31h-15a4.83,4.83,0,0,0-.71.05l-0.17,0h0l-0.1,0a4.64,4.64,0,0,0-3,2.2l-1.49,2.57-0.28.48-0.55,1-4.66,8.08-0.28.48-0.25.43,0,0.05a4.63,4.63,0,0,0,0,4.44l0.07,0.12,0.2,0.35,0.28,0.48,7.17,12.42h0l0.05,0.09L146.17,56a3.15,3.15,0,0,0,.84,1l0.26,0.19h0A3.16,3.16,0,0,0,151,56.8h0a3.16,3.16,0,0,0,.93-1.51,3.18,3.18,0,0,0,0-1.68,3.13,3.13,0,0,0-.31-0.76l-2-3.4-0.23-.39-0.55-1-2.86-5-0.55-1-0.26-.44,0,0-0.29-.51a2.39,2.39,0,0,1,0-2.37l0.32-.56,0,0,0.28-.48,0.55-1L149,31.86l0.55-1,0.23-.39,0.34-.59a2.38,2.38,0,0,1,2.06-1.19h10.26a2.38,2.38,0,0,1,2.06,1.19l4,6.89h-9.27l0.28,0.48,0.2,0.35,0.07,0.13a4.6,4.6,0,0,1,0,4.44l0,0.05-0.25.42-0.28.48h9.31l-5.58,9.67A3.18,3.18,0,0,0,168.35,56l7.92-13.71A4.64,4.64,0,0,0,176.26,37.69Z"/><path class="cls-5" d="M50.29,22.37A3.42,3.42,0,0,0,47.12,26V36.38H30.19V26A3.42,3.42,0,0,0,27,22.37,3.42,3.42,0,0,0,23.84,26V54A3.42,3.42,0,0,0,27,57.63,3.42,3.42,0,0,0,30.19,54V43.62H47.12V54a3.2,3.2,0,1,0,6.34,0V26A3.42,3.42,0,0,0,50.29,22.37Zm1.41,1.57a2,2,0,0,0-1.41-.61,2,2,0,0,0-1.25.47,2,2,0,0,1,1.25-.47A2,2,0,0,1,51.7,23.93ZM27,23.32a2,2,0,0,1,1.41.61,1.93,1.93,0,0,0-2.82,0A2,2,0,0,1,27,23.32Z"/><path class="cls-5" d="M84.38,43.62A3.42,3.42,0,0,0,87.55,40a3.42,3.42,0,0,0-3.17-3.62H64.27V29.61H84.38A3.42,3.42,0,0,0,87.55,26a3.42,3.42,0,0,0-3.17-3.62H61.1A3.42,3.42,0,0,0,57.93,26V54a3.42,3.42,0,0,0,3.17,3.62H84.38a3.65,3.65,0,0,0,0-7.25H64.27V43.62H84.38ZM86.6,26h0a3.17,3.17,0,0,1-.1.79A3.17,3.17,0,0,0,86.6,26Z"/><path class="cls-5" d="M111.21,40l9.56-11.51a4,4,0,0,0,0-5,2.92,2.92,0,0,0-4.6,0l-9.34,11.24L97.49,23.49a2.92,2.92,0,0,0-4.6,0,4,4,0,0,0,0,5L102.45,40,92.89,51.51a4,4,0,0,0,0,5,2.92,2.92,0,0,0,4.6,0l9.34-11.24,9.34,11.24a2.92,2.92,0,0,0,4.6,0,4,4,0,0,0,0-5Z"/></g><g id="_1200grid_9" data-name="1200grid_9"><line class="cls-21" x1="720.46" y1="-11251.36" x2="720.46" y2="5131.64"/><line class="cls-21" x1="710.46" y1="-11248.36" x2="710.46" y2="5134.64"/><line class="cls-21" x1="650.46" y1="-11248.36" x2="650.46" y2="5134.64"/><line class="cls-21" x1="640.46" y1="-11251.36" x2="640.46" y2="5131.64"/><line class="cls-21" x1="630.46" y1="-11248.36" x2="630.46" y2="5134.64"/><line class="cls-21" x1="570.46" y1="-11248.36" x2="570.46" y2="5134.64"/><line class="cls-21" x1="560.46" y1="-11251.36" x2="560.46" y2="5131.64"/><line class="cls-22" x1="550.46" y1="-11248.36" x2="550.46" y2="5134.64"/><line class="cls-21" x1="490.46" y1="-11248.36" x2="490.46" y2="5134.64"/><line class="cls-21" x1="480.46" y1="-11251.36" x2="480.46" y2="5131.64"/><line class="cls-21" x1="470.46" y1="-11248.36" x2="470.46" y2="5134.64"/><line class="cls-21" x1="410.46" y1="-10210.37" x2="410.46" y2="6172.63"/><line class="cls-21" x1="400.46" y1="-11251.36" x2="400.46" y2="5131.64"/><line class="cls-21" x1="390.46" y1="-11188.36" x2="390.46" y2="5194.64"/><line class="cls-21" x1="330.46" y1="-11188.36" x2="330.46" y2="5194.64"/><line class="cls-21" x1="320.46" y1="-11191.36" x2="320.46" y2="5191.64"/><line class="cls-21" x1="310.46" y1="-11188.36" x2="310.46" y2="5194.64"/><line class="cls-21" x1="250.46" y1="-11188.36" x2="250.46" y2="5194.64"/><line class="cls-21" x1="240.46" y1="-11191.36" x2="240.46" y2="5191.64"/><line class="cls-21" x1="230.46" y1="-11188.36" x2="230.46" y2="5194.64"/><line class="cls-21" x1="160.46" y1="-11191.36" x2="160.46" y2="5191.64"/><line class="cls-21" x1="150.46" y1="-11188.36" x2="150.46" y2="5194.64"/><line class="cls-21" x1="90.46" y1="-11188.36" x2="90.46" y2="5194.64"/><line class="cls-21" x1="80.46" y1="-11191.36" x2="80.46" y2="5191.64"/><line class="cls-21" x1="70.46" y1="-11188.36" x2="70.46" y2="5194.64"/><line class="cls-21" x1="0.46" y1="-11191.36" x2="0.46" y2="5191.64"/><line class="cls-21" x1="170.46" y1="-11188.36" x2="170.46" y2="5194.64"/></g></svg>