<svg id="o_properties_user" xmlns="http://www.w3.org/2000/svg" viewBox="0 0 320 1003.59"><defs><style>.cls-1{fill:#333;}.cls-2,.cls-4,.cls-5,.cls-9{fill:#fff;}.cls-14,.cls-16,.cls-3{fill:#61afc5;}.cls-4{font-size:18px;}.cls-12,.cls-13,.cls-16,.cls-4,.cls-5{font-family:Roboto Condensed;}.cls-12,.cls-13,.cls-15,.cls-16,.cls-4,.cls-5{font-weight:700;}.cls-16,.cls-5{font-size:22px;}.cls-17,.cls-6{fill:none;}.cls-6,.cls-9{stroke:#61afc5;}.cls-17,.cls-6,.cls-9{stroke-miterlimit:10;}.cls-10,.cls-14,.cls-15,.cls-7{font-size:15px;}.cls-10,.cls-12,.cls-15,.cls-7{fill:#231f20;}.cls-15,.cls-7{font-family:Open Sans;}.cls-13,.cls-8{fill:#ea7e73;}.cls-10,.cls-14{font-family:Verdana;}.cls-11{letter-spacing:-1px;}.cls-12,.cls-13{font-size:17px;}.cls-17{stroke:#76cabf;}</style></defs><title>mobile</title><g id="mobile-3" data-name="mobile"><rect class="cls-1" width="320" height="40"/><path class="cls-2" d="M81.48,18.82l0-.07-0.11-.19-0.15-.26L78.76,14l-0.29-.52-0.15-.26-0.8-1.42a2.48,2.48,0,0,0-.6-0.71,2.39,2.39,0,0,0-.87-0.45l-0.06,0h0l-0.08,0a2.33,2.33,0,0,0-.48,0H67.59a2.41,2.41,0,0,0-2.09,1.24l-3.92,7a2.56,2.56,0,0,0,0,2.49l4.14,7.39a1.66,1.66,0,0,0,1.44.86A1.64,1.64,0,0,0,68,29.26a1.74,1.74,0,0,0,.61-2.34l-2.92-5.21H77.35l-1.5,2.67-0.29.52-0.12.21-1,1.81a1.7,1.7,0,0,0-.17.44,1.76,1.76,0,0,0,0,1h0a1.68,1.68,0,0,0,.6.81L75,29.27h0a1.62,1.62,0,0,0,.81.22A1.64,1.64,0,0,0,77,29.07h0a1.73,1.73,0,0,0,.35-0.43l0.14-.26,3.72-6.64,0.15-.26,0.13-.23v0A2.54,2.54,0,0,0,81.48,18.82Zm-15.81-.54,2.08-3.71a1.24,1.24,0,0,1,1.08-.64h5.36a1.24,1.24,0,0,1,1.08.64l0.19,0.34,0.12,0.21,0.29,0.52,1.49,2.65H65.68Z"/><path class="cls-3" d="M90.14,18.75l-3.92-7a2.41,2.41,0,0,0-2.09-1.24H76.28l-0.37,0-0.09,0H75.76a2.41,2.41,0,0,0-.93.44,2.48,2.48,0,0,0-.65.75l-0.78,1.39-0.15.26L73,13.91l-2.44,4.35-0.15.26-0.13.23v0a2.56,2.56,0,0,0,0,2.39l0,0.07,0.11,0.19,0.15,0.26,3.75,6.69h0l0,0,0.12,0.2a1.68,1.68,0,0,0,.44.51L75,29.25h0a1.62,1.62,0,0,0,1.68,0A1.68,1.68,0,0,0,77,29.05h0a1.71,1.71,0,0,0,.48-0.81,1.76,1.76,0,0,0,0-.91,1.71,1.71,0,0,0-.16-0.41l-1-1.83-0.12-.21-0.29-.52-1.49-2.67-0.29-.52-0.13-.24,0,0-0.15-.27a1.32,1.32,0,0,1,0-1.28l0.17-.3v0l0.15-.26,0.29-.52,1.48-2.65,0.29-.52,0.12-.21,0.18-.32a1.24,1.24,0,0,1,1.08-.64h5.36a1.24,1.24,0,0,1,1.08.64L86,18.29H81.2l0.15,0.26,0.11,0.19,0,0.07a2.54,2.54,0,0,1,0,2.39v0l-0.13.23-0.15.26H86l-2.92,5.21a1.74,1.74,0,0,0,.61,2.34,1.64,1.64,0,0,0,.83.23A1.66,1.66,0,0,0,86,28.63l4.14-7.39A2.56,2.56,0,0,0,90.14,18.75Z"/><path class="cls-2" d="M24.29,10.5a1.82,1.82,0,0,0-1.66,2V18H13.78v-5.6a1.82,1.82,0,0,0-1.66-2,1.82,1.82,0,0,0-1.66,2v15.1a1.82,1.82,0,0,0,1.66,2,1.82,1.82,0,0,0,1.66-2V22h8.85v5.6a1.82,1.82,0,0,0,1.66,2,1.82,1.82,0,0,0,1.66-2V12.45A1.82,1.82,0,0,0,24.29,10.5ZM25,11.34A1,1,0,0,0,24.29,11a1,1,0,0,0-.66.25A1,1,0,0,1,24.29,11,1,1,0,0,1,25,11.34ZM12.12,11a1,1,0,0,1,.74.33,1,1,0,0,0-1.47,0A1,1,0,0,1,12.12,11Z"/><path class="cls-2" d="M42.11,22a1.82,1.82,0,0,0,1.66-2,1.82,1.82,0,0,0-1.66-2H31.6V14.4H42.11a1.82,1.82,0,0,0,1.66-2,1.82,1.82,0,0,0-1.66-2H29.94a1.82,1.82,0,0,0-1.66,2v15.1a1.82,1.82,0,0,0,1.66,2H42.11a2,2,0,0,0,0-3.9H31.6V22H42.11Zm1.16-9.5h0a1.76,1.76,0,0,1-.05.43A1.76,1.76,0,0,0,43.27,12.45Z"/><path class="cls-2" d="M56.13,20l5-6.2a2.21,2.21,0,0,0,0-2.69,1.5,1.5,0,0,0-2.41,0l-4.88,6.05L49,11.11a1.5,1.5,0,0,0-2.41,0,2.21,2.21,0,0,0,0,2.69l5,6.2-5,6.2a2.21,2.21,0,0,0,0,2.69,1.5,1.5,0,0,0,2.41,0l4.88-6.05,4.88,6.05a1.5,1.5,0,0,0,2.41,0,2.21,2.21,0,0,0,0-2.69Z"/><path class="cls-2" d="M284.67,29.5h25.59V26.33H284.67V29.5Zm0-7.92h25.59V18.42H284.67v3.17Zm0-11.08v3.17h25.59V10.5H284.67Z"/><rect class="cls-3" y="40" width="320" height="40"/><text class="cls-4" transform="translate(10.46 65.55)">Nag<tspan x="28.55" y="0">y</tspan><tspan x="36.45" y="0">on hosszú n</tspan><tspan x="122.59" y="0">e</tspan><tspan x="131.09" y="0">vű o</tspan><tspan x="161.14" y="0">r</tspan><tspan x="166.94" y="0">ganization</tspan></text><rect class="cls-3" x="0.46" y="367.79" width="320" height="659.1"/><text class="cls-5" transform="translate(10.46 402.26)">Roles</text><rect class="cls-6" x="10.78" y="95.26" width="300" height="251.53"/><text class="cls-7" transform="translate(20.46 181.66)">Nagyon hosszú nevű szervezet</text><text class="cls-7" transform="translate(21.46 224.83)">Ez a nagyon hosszú nevű szervezet <tspan x="0" y="21">leírása.</tspan></text><text class="cls-7" transform="translate(21.96 289.99)">http://nagyonhosszu.hu</text><text class="cls-7" transform="translate(21.46 335.16)">hallgató</text><rect class="cls-2" x="10.46" y="435.26" width="299.22" height="36.67"/><polygon class="cls-3" points="298.55 449.8 290.95 457.39 283.36 449.8 298.55 449.8"/><rect class="cls-2" x="10.46" y="481.93" width="299.56" height="36.67"/><polygon class="cls-3" points="298.55 496.46 290.95 504.06 283.36 496.46 298.55 496.46"/><rect class="cls-2" x="10.46" y="528.59" width="299.56" height="36.67"/><polygon class="cls-8" points="298.49 550.7 290.95 543.16 283.42 550.7 298.49 550.7"/><rect class="cls-2" x="10.46" y="816.93" width="299.56" height="36.67"/><polygon class="cls-3" points="298.49 831.49 290.95 839.03 283.42 831.49 298.49 831.49"/><rect class="cls-9" x="10.46" y="565.26" width="299.56" height="241.67"/><line class="cls-6" x1="20.46" y1="675.59" x2="296.13" y2="675.59"/><text class="cls-10" transform="translate(21.61 613.76)">jog ar<tspan x="44.3" y="0">r</tspan><tspan x="50.43" y="0">a</tspan><tspan x="0" y="21">jog erre</tspan><tspan x="0" y="42">meg il</tspan><tspan x="46.38" y="42">y</tspan><tspan x="55.12" y="42">enol</tspan><tspan x="86.77" y="42">y</tspan><tspan x="95.35" y="42">anjog</tspan></text><text class="cls-10" transform="translate(23.36 721.76)">Almás <tspan class="cls-11" x="51.06" y="0">T</tspan><tspan x="58.54" y="0">amás</tspan><tspan x="0" y="21">F</tspan><tspan x="7.89" y="21">arkas Péter</tspan><tspan x="0" y="42">Szé</tspan><tspan x="27.07" y="42">k</tspan><tspan x="35.8" y="42">ely Szintia</tspan><tspan class="cls-11" x="0" y="63">T</tspan><tspan x="7.63" y="63">eniszütő Ernő</tspan></text><rect class="cls-2" x="10.46" y="863.59" width="299.56" height="36.67"/><polygon class="cls-3" points="298.49 878.16 290.95 885.7 283.42 878.16 298.49 878.16"/><rect class="cls-2" x="10.46" y="910.26" width="300" height="36.67"/><polygon class="cls-3" points="298.49 924.82 290.95 932.36 283.42 924.82 298.49 924.82"/><rect class="cls-2" x="10.46" y="956.93" width="300" height="36.67"/><polygon class="cls-3" points="298.49 971.49 290.95 979.03 283.42 971.49 298.49 971.49"/><text class="cls-12" transform="translate(20.46 458.56)">hallga<tspan x="41.49" y="0">t</tspan><tspan x="46.46" y="0">ó</tspan></text><text class="cls-12" transform="translate(20.46 505.23)">r<tspan x="5.34" y="0">ole2</tspan></text><text class="cls-13" transform="translate(20.46 551.89)">r<tspan x="5.34" y="0">ole3</tspan></text><text class="cls-12" transform="translate(20.46 840.23)">r<tspan x="5.34" y="0">ole4</tspan></text><text class="cls-14" transform="translate(20.46 591.54)">P<tspan x="8.68" y="0">ermissions</tspan></text><text class="cls-14" transform="translate(20.46 698.55)">Members</text><text class="cls-12" transform="translate(20.46 886.89)">r<tspan x="5.34" y="0">ole5</tspan></text><text class="cls-12" transform="translate(20.46 933.56)">r<tspan x="5.34" y="0">ole6</tspan></text><text class="cls-12" transform="translate(20.46 980.23)">r<tspan x="5.34" y="0">ole7</tspan></text><text class="cls-15" transform="translate(20.46 162.41)">Name</text><text class="cls-15" transform="translate(20.46 206.58)">Description</text><text class="cls-15" transform="translate(20.46 270.75)">Home page</text><text class="cls-15" transform="translate(20.46 316.91)">Default role</text><text class="cls-16" transform="translate(20.46 128.75)">P<tspan x="12.51" y="0">r</tspan><tspan x="19.42" y="0">ope</tspan><tspan x="51.79" y="0">r</tspan><tspan x="59.62" y="0">ties</tspan></text></g><g id="_1200grid_4" data-name="1200grid_4"><line class="cls-17" x1="320.46" y1="-4615.57" x2="320.46" y2="11767.43"/><line class="cls-17" x1="310.46" y1="-4612.57" x2="310.46" y2="11770.43"/><line class="cls-17" x1="250.46" y1="-4612.57" x2="250.46" y2="11770.43"/><line class="cls-17" x1="240.46" y1="-4615.57" x2="240.46" y2="11767.43"/><line class="cls-17" x1="230.46" y1="-4612.57" x2="230.46" y2="11770.43"/><line class="cls-17" x1="170.46" y1="-4612.57" x2="170.46" y2="11770.43"/><line class="cls-17" x1="160.46" y1="-4615.57" x2="160.46" y2="11767.43"/><line class="cls-17" x1="150.46" y1="-4612.57" x2="150.46" y2="11770.43"/><line class="cls-17" x1="90.46" y1="-4612.57" x2="90.46" y2="11770.43"/><line class="cls-17" x1="80.46" y1="-4615.57" x2="80.46" y2="11767.43"/><line class="cls-17" x1="70.46" y1="-4612.57" x2="70.46" y2="11770.43"/><line class="cls-17" x1="10.46" y1="-4612.57" x2="10.46" y2="11770.43"/></g></svg>