<svg id="index_1" xmlns="http://www.w3.org/2000/svg" viewBox="0 0 720 1364.77"><defs><style>.cls-1{fill:#ee342e;}.cls-1,.cls-10,.cls-9{stroke:#76cabf;stroke-miterlimit:10;}.cls-2,.cls-8{fill:#333;}.cls-3,.cls-5,.cls-6{fill:#fff;}.cls-4{fill:#61afc5;}.cls-5{font-size:18px;font-family:Open Sans;}.cls-6,.cls-8{font-size:28px;font-family:Roboto Condensed;font-weight:700;}.cls-7{fill:#ea7e73;}.cls-9{fill:none;}.cls-10{fill:#e8e8e8;}</style></defs><title>mobile</title><g id="tablet"><line class="cls-1" x1="10.46" y1="-5700.59" x2="10.46" y2="10682.41"/></g><g id="tablet-4" data-name="tablet"><rect class="cls-2" x="0.37" width="720" height="80"/><path class="cls-3" d="M160.07,37.82L160,37.69l-0.2-.35-0.28-.48-4.66-8.08-0.55-1L154,27.34l-1.53-2.64a4.67,4.67,0,0,0-2.82-2.16l-0.12,0h0l-0.15,0a4.58,4.58,0,0,0-.91-0.09h-15a4.63,4.63,0,0,0-4,2.31l-7.5,13a4.64,4.64,0,0,0,0,4.62L129.9,56a3.18,3.18,0,0,0,5.93-1.59,3.16,3.16,0,0,0-.43-1.59l-5.58-9.67h22.33l-2.86,5-0.55,1-0.23.39-1.94,3.36a3.1,3.1,0,0,0-.33.82,3.17,3.17,0,0,0,.09,1.86h0v0A3.14,3.14,0,0,0,147.5,57l0.25,0.17h0a3.17,3.17,0,0,0,3.63-.37h0a3.24,3.24,0,0,0,.66-0.8l0.27-.48,7.12-12.33,0.28-.48,0.25-.42,0-.05A4.6,4.6,0,0,0,160.07,37.82Zm-30.24-1,4-6.89a2.38,2.38,0,0,1,2.06-1.19h10.26a2.38,2.38,0,0,1,2.06,1.19l0.36,0.63,0.22,0.39,0.55,1,2.84,4.92H129.83Z"/><path class="cls-4" d="M176.63,37.69l-7.5-13a4.64,4.64,0,0,0-4-2.31h-15a4.83,4.83,0,0,0-.71.05l-0.17,0h0l-0.1,0a4.64,4.64,0,0,0-3,2.2l-1.49,2.57-0.28.48-0.55,1-4.66,8.08-0.28.48-0.25.43,0,0.05a4.63,4.63,0,0,0,0,4.44l0.07,0.12,0.2,0.35,0.28,0.48,7.17,12.42h0l0.05,0.09L146.53,56a3.15,3.15,0,0,0,.84,1l0.26,0.19h0a3.16,3.16,0,0,0,3.75-.37h0a3.16,3.16,0,0,0,.93-1.51,3.18,3.18,0,0,0,0-1.68,3.13,3.13,0,0,0-.31-0.76l-2-3.4-0.23-.39-0.55-1-2.86-5-0.55-1-0.26-.44,0,0-0.29-.51a2.39,2.39,0,0,1,0-2.37l0.32-.56,0,0,0.28-.48,0.55-1,2.84-4.92,0.55-1,0.23-.39,0.34-.59a2.38,2.38,0,0,1,2.06-1.19h10.26a2.38,2.38,0,0,1,2.06,1.19l4,6.89h-9.27l0.28,0.48,0.2,0.35,0.07,0.13a4.6,4.6,0,0,1,0,4.44l0,0.05-0.25.42-0.28.48h9.31l-5.58,9.67A3.18,3.18,0,0,0,168.71,56l7.92-13.71A4.64,4.64,0,0,0,176.63,37.69Z"/><path class="cls-3" d="M50.66,22.37A3.42,3.42,0,0,0,47.49,26V36.38H30.55V26a3.42,3.42,0,0,0-3.17-3.62A3.42,3.42,0,0,0,24.21,26V54a3.42,3.42,0,0,0,3.17,3.62A3.42,3.42,0,0,0,30.55,54V43.62H47.49V54a3.2,3.2,0,1,0,6.34,0V26A3.42,3.42,0,0,0,50.66,22.37Zm1.41,1.57a2,2,0,0,0-1.41-.61,2,2,0,0,0-1.25.47,2,2,0,0,1,1.25-.47A2,2,0,0,1,52.07,23.93Zm-24.69-.61a2,2,0,0,1,1.41.61,1.93,1.93,0,0,0-2.82,0A2,2,0,0,1,27.38,23.32Z"/><path class="cls-3" d="M84.75,43.62A3.42,3.42,0,0,0,87.92,40a3.42,3.42,0,0,0-3.17-3.62H64.64V29.61H84.75A3.42,3.42,0,0,0,87.92,26a3.42,3.42,0,0,0-3.17-3.62H61.47A3.42,3.42,0,0,0,58.3,26V54a3.42,3.42,0,0,0,3.17,3.62H84.75a3.65,3.65,0,0,0,0-7.25H64.64V43.62H84.75ZM87,26h0a3.17,3.17,0,0,1-.1.79A3.17,3.17,0,0,0,87,26Z"/><path class="cls-3" d="M111.57,40l9.56-11.51a4,4,0,0,0,0-5,2.92,2.92,0,0,0-4.6,0l-9.34,11.24L97.86,23.49a2.92,2.92,0,0,0-4.6,0,4,4,0,0,0,0,5L102.82,40,93.25,51.51a4,4,0,0,0,0,5,2.92,2.92,0,0,0,4.6,0l9.34-11.24,9.34,11.24a2.92,2.92,0,0,0,4.6,0,4,4,0,0,0,0-5Z"/><text class="cls-5" transform="translate(207.75 45.04)">Organizations</text><polygon class="cls-3" points="350.67 37.76 346.19 42.24 341.71 37.76 350.67 37.76"/><text class="cls-5" transform="translate(384.83 45.04)">Services</text><polygon class="cls-3" points="478.81 37.76 474.33 42.24 469.85 37.76 478.81 37.76"/><path class="cls-3" d="M657,57.67h47.59V51.78H657v5.89Zm0-14.72h47.59V37.06H657v5.89Zm0-20.61v5.89h47.59V22.33H657Z"/><rect class="cls-4" x="0.37" y="80" width="720.46" height="65"/><text class="cls-6" transform="translate(10.83 121.85)">Nag<tspan x="44.41" y="0">y</tspan><tspan x="56.7" y="0">on hosszú n</tspan><tspan x="190.7" y="0">e</tspan><tspan x="203.92" y="0">vű o</tspan><tspan x="250.66" y="0">r</tspan><tspan x="259.68" y="0">ganization</tspan></text><path class="cls-2" d="M242.87,226.22a18,18,0,0,0-14.71-7.65H228a12.76,12.76,0,1,0-24.45-5.11,12.63,12.63,0,0,0,1.06,5.11h-1.93a18,18,0,0,0-14.71,7.65H168.2V360.71H263V226.22H242.87Zm-33.55-12.76a6.93,6.93,0,1,1,11.59,5.11A6.93,6.93,0,0,1,209.32,213.46Z"/><rect class="cls-3" x="175.06" y="234.97" width="82.42" height="117"/><polygon class="cls-7" points="205.03 288.18 193.04 300.17 184.6 291.74 186.02 290.32 193.04 297.34 203.62 286.77 205.03 288.18"/><polygon class="cls-7" points="205.03 254.53 193.04 266.52 184.6 258.09 186.02 256.67 193.04 263.69 203.62 253.12 205.03 254.53"/><polygon class="cls-7" points="205.03 321.83 193.04 333.82 184.6 325.39 186.02 323.98 193.04 331 203.62 320.42 205.03 321.83"/><rect class="cls-4" x="116.64" y="205.58" width="4.3" height="32.04"/><rect class="cls-4" x="116.64" y="205.58" width="4.3" height="32.04" transform="translate(340.39 102.81) rotate(90)"/><text class="cls-8" transform="translate(121.17 434.67)">C<tspan x="15.97" y="0">r</tspan><tspan x="24.99" y="0">eate </tspan><tspan x="80.02" y="0">r</tspan><tspan x="88.81" y="0">ole</tspan></text><path class="cls-7" d="M565.25,242.12l27.52-27.52-13.88-13.88-27.52,27.52a19.33,19.33,0,0,0-24.64,2.17l-22.28,22.28,8,8,9.65-9.65a5,5,0,0,1,6.81-.27,3,3,0,0,1,.28.26l13.34,13.34a3,3,0,0,1,.26.28,5,5,0,0,1-.26,6.82l-9.65,9.65,8,8,22.28-22.28a19.32,19.32,0,0,0,2.16-24.65h0Z"/><path class="cls-2" d="M522.79,284l-13.34-13.34a5,5,0,0,0-7.09,0l-9.65,9.65h0l-8-8-22.29,22.29a19.33,19.33,0,0,0-2.17,24.64l-27.52,27.52,13.88,13.88,27.52-27.52A19.32,19.32,0,0,0,498.82,331l22.29-22.29-8-8,9.65-9.65A5,5,0,0,0,522.79,284Z"/><path class="cls-3" d="M554.61,242.21l-2.25.28a5.84,5.84,0,0,0-1.17-1.17l0.28-2.25a0.43,0.43,0,0,0-.31-0.45l-3.26-.87a0.43,0.43,0,0,0-.5.23l-0.89,2.09a6.14,6.14,0,0,0-1.6.42l-1.81-1.36a0.41,0.41,0,0,0-.54,0l-2.39,2.39a0.41,0.41,0,0,0,0,.54l1.36,1.81a6.48,6.48,0,0,0-.42,1.6l-2.09.89a0.41,0.41,0,0,0-.23.5l0.87,3.26a0.42,0.42,0,0,0,.46.31l2.25-.28a5.83,5.83,0,0,0,1.17,1.17l-0.28,2.25a0.43,0.43,0,0,0,.31.46l3.26,0.87a0.43,0.43,0,0,0,.5-0.23l0.89-2.09a6.14,6.14,0,0,0,1.6-.42l1.81,1.36a0.41,0.41,0,0,0,.54,0l2.39-2.39a0.41,0.41,0,0,0,0-.54l-1.36-1.81a6.48,6.48,0,0,0,.42-1.6l2.09-.89a0.41,0.41,0,0,0,.23-0.5l-0.87-3.26A0.43,0.43,0,0,0,554.61,242.21Zm-4.41,7a4.05,4.05,0,1,1,0-5.73A4.05,4.05,0,0,1,550.19,249.21Z"/><rect class="cls-4" x="447.18" y="205.58" width="4.46" height="33.24"/><rect class="cls-4" x="447.18" y="205.58" width="4.46" height="33.24" transform="translate(671.61 -227.22) rotate(90)"/><text class="cls-8" transform="translate(408.31 434.67)">Connect <tspan x="98.79" y="0">t</tspan><tspan x="106.98" y="0">o se</tspan><tspan x="153.48" y="0">r</tspan><tspan x="163.01" y="0">vice</tspan></text><path class="cls-2" d="M171,625.68L154.3,672.26H132l60.17-160H216.7l57.94,160H251l-15.82-46.57H171Zm56.38-19.16L203.77,536.1h-0.45L177.7,606.52h49.69Z"/><path class="cls-7" d="M603.81,658.81c-0.41,4.27-1.1,8.81-2,13.44H536.24c-0.94-4.73-1.65-9.29-2.1-13.44-1.22-11.2-4.48-40.95,9.92-56.79,9.33-10.26,21.91-10.13,24.82-10.1s14.1,0.15,23,9.09C607.85,617.17,604.64,650.15,603.81,658.81Z"/><circle class="cls-7" cx="568.79" cy="566.34" r="23.18"/><path class="cls-2" d="M473.46,673.76l-0.24-1.21c-1.15-5.77-2-11.44-2.63-16.85-1.54-14.14-5.63-51.62,12.72-71.8,7.65-8.42,18.73-13.06,31.18-13.06h0.8c12.06,0.11,22,4.06,29.63,11.75,13.53,13.66,18.68,38.24,15.31,73.07-0.51,5.27-1.36,10.94-2.53,16.89l-0.24,1.21h-84Z"/><path class="cls-3" d="M514.49,572.34h0.81c3.76,0,17.54.19,28.55,11.3,19.91,20.09,15.92,61.12,14.88,71.89-0.51,5.32-1.37,11-2.51,16.72H474.69c-1.17-5.88-2-11.56-2.61-16.72-1.52-13.93-5.57-50.93,12.34-70.63,10.88-12,25.32-12.57,30.07-12.57m0-3h0c-12.88,0-24.34,4.81-32.29,13.55-18.81,20.69-14.67,58.65-13.11,72.94,0.6,5.49,1.5,11.2,2.66,17l0.48,2.41h86.45l0.48-2.42c1.18-6,2-11.71,2.55-17,3.42-35.31-1.87-60.3-15.73-74.29-7.9-8-18.21-12.07-30.66-12.19h-0.84Z"/><circle class="cls-2" cx="515.17" cy="540.87" r="28.61"/><path class="cls-4" d="M445.22,546.43l3.49,3.49a1.47,1.47,0,0,0,2.13,0l13.82-13.82a9.93,9.93,0,0,0,12.45-13.51l-6.68,6.53-4.56-4.56L472.4,518a10,10,0,0,0-11.24,2,9.75,9.75,0,0,0-2.28,10.48L445.07,544.3A1.37,1.37,0,0,0,445.22,546.43Z"/><text class="cls-8" transform="translate(115.37 746.21)">E<tspan x="13.48" y="0">dit attributes</tspan></text><text class="cls-8" transform="translate(446.04 746.21)">Manage users</text><path class="cls-2" d="M534.68,823.8a65,65,0,0,0-65,65H448l28.09,28.09,0.51,1,29.18-29.11H484.12A50.8,50.8,0,1,1,499,924.47l-10.26,10.26A65,65,0,1,0,534.68,823.8Z"/><polygon class="cls-4" points="527.46 859.91 527.46 896.02 558.37 914.36 563.57 905.63 538.29 890.6 538.29 859.91 527.46 859.91"/><path class="cls-2" d="M189.84,953.8V907.91h26V953.8h32.5V892.62h19.5l-65-68.82-65,68.82h19.5V953.8h32.5Z"/><path class="cls-4" d="M137.85,849.56v5.22h5.22l15.4-15.4-5.22-5.22Zm24.66-14.21a1.39,1.39,0,0,0,0-2l-3.26-3.26a1.39,1.39,0,0,0-2,0l-2.55,2.55,5.22,5.22Z"/><text class="cls-8" transform="translate(120.32 1027.75)">E<tspan x="13.48" y="0">dit p</tspan><tspan x="63.33" y="0">r</tspan><tspan x="72.12" y="0">ope</tspan><tspan x="113.31" y="0">r</tspan><tspan x="123.28" y="0">ties</tspan></text><text class="cls-8" transform="translate(454.59 1027.75)">View his<tspan x="94.36" y="0">t</tspan><tspan x="102.55" y="0">o</tspan><tspan x="116.48" y="0">r</tspan><tspan x="126.01" y="0">y</tspan></text><path class="cls-7" d="M360,1105.34a65,65,0,1,0,65,65A65,65,0,0,0,360,1105.34Zm32.5,71.5h-65v-13h65v13Z"/><text class="cls-8" transform="translate(250.8 1329.29)">Delete o<tspan x="92.05" y="0">r</tspan><tspan x="101.08" y="0">ganization</tspan></text></g><g id="_1200grid_9" data-name="1200grid_9"><line class="cls-9" x1="720.46" y1="-5763.59" x2="720.46" y2="10619.41"/><line class="cls-9" x1="710.46" y1="-5760.59" x2="710.46" y2="10622.41"/><line class="cls-9" x1="650.46" y1="-5760.59" x2="650.46" y2="10622.41"/><line class="cls-9" x1="640.46" y1="-5763.59" x2="640.46" y2="10619.41"/><line class="cls-9" x1="630.46" y1="-5760.59" x2="630.46" y2="10622.41"/><line class="cls-9" x1="570.46" y1="-5760.59" x2="570.46" y2="10622.41"/><line class="cls-9" x1="560.46" y1="-5763.59" x2="560.46" y2="10619.41"/><line class="cls-10" x1="550.46" y1="-5760.59" x2="550.46" y2="10622.41"/><line class="cls-9" x1="490.46" y1="-5760.59" x2="490.46" y2="10622.41"/><line class="cls-9" x1="480.46" y1="-5763.59" x2="480.46" y2="10619.41"/><line class="cls-9" x1="470.46" y1="-5760.59" x2="470.46" y2="10622.41"/><line class="cls-9" x1="410.46" y1="-4722.6" x2="410.46" y2="11660.4"/><line class="cls-9" x1="400.46" y1="-5763.59" x2="400.46" y2="10619.41"/><line class="cls-9" x1="390.46" y1="-5700.59" x2="390.46" y2="10682.41"/><line class="cls-9" x1="330.46" y1="-5700.59" x2="330.46" y2="10682.41"/><line class="cls-9" x1="320.46" y1="-5703.59" x2="320.46" y2="10679.41"/><line class="cls-9" x1="310.46" y1="-5700.59" x2="310.46" y2="10682.41"/><line class="cls-9" x1="250.46" y1="-5700.59" x2="250.46" y2="10682.41"/><line class="cls-9" x1="240.46" y1="-5703.59" x2="240.46" y2="10679.41"/><line class="cls-9" x1="230.46" y1="-5700.59" x2="230.46" y2="10682.41"/><line class="cls-9" x1="160.46" y1="-5703.59" x2="160.46" y2="10679.41"/><line class="cls-9" x1="150.46" y1="-5700.59" x2="150.46" y2="10682.41"/><line class="cls-9" x1="90.46" y1="-5700.59" x2="90.46" y2="10682.41"/><line class="cls-9" x1="80.46" y1="-5703.59" x2="80.46" y2="10679.41"/><line class="cls-9" x1="70.46" y1="-5700.59" x2="70.46" y2="10682.41"/><line class="cls-9" x1="0.46" y1="-5703.59" x2="0.46" y2="10679.41"/><line class="cls-9" x1="170.46" y1="-5700.59" x2="170.46" y2="10682.41"/></g></svg>