<svg id="vo_user1" xmlns="http://www.w3.org/2000/svg" viewBox="0 0 1920 1080"><defs><style>.cls-1{fill:#333;}.cls-16,.cls-18,.cls-2{fill:#61afc5;}.cls-12,.cls-3,.cls-4,.cls-5,.cls-6,.cls-7,.cls-9{fill:#fff;}.cls-4{font-size:18px;}.cls-11,.cls-16,.cls-17,.cls-4,.cls-5,.cls-6{font-family:Verdana;}.cls-5{font-size:19px;}.cls-6{font-size:20px;}.cls-7{font-size:32px;}.cls-14,.cls-15,.cls-18,.cls-7,.cls-9{font-family:Roboto Condensed;}.cls-14,.cls-15,.cls-17,.cls-18,.cls-7,.cls-9{font-weight:700;}.cls-15,.cls-8{fill:#ea7e73;}.cls-18,.cls-9{font-size:22px;}.cls-10{fill:none;}.cls-10,.cls-12{stroke:#61afc5;stroke-miterlimit:10;}.cls-11,.cls-16,.cls-17{font-size:15px;}.cls-11,.cls-14,.cls-17{fill:#231f20;}.cls-13{letter-spacing:-1px;}.cls-14,.cls-15{font-size:17px;}</style></defs><title>ui</title><g id="navs"><rect class="cls-1" width="1920" height="80"/><rect class="cls-2" x="303.16" width="178.84" height="80"/><path class="cls-3" d="M184.84,37.82l-0.07-.13-0.2-.35-0.28-.48-4.66-8.08-0.55-1-0.28-.48-1.53-2.64a4.67,4.67,0,0,0-2.82-2.16l-0.12,0h0l-0.15,0a4.58,4.58,0,0,0-.91-0.09h-15a4.63,4.63,0,0,0-4,2.31l-7.5,13a4.64,4.64,0,0,0,0,4.62L154.68,56a3.18,3.18,0,0,0,5.93-1.59,3.16,3.16,0,0,0-.43-1.59l-5.58-9.67h22.33l-2.86,5-0.55,1-0.23.39-1.94,3.36a3.1,3.1,0,0,0-.33.82,3.17,3.17,0,0,0,.09,1.86h0v0a3.14,3.14,0,0,0,1.15,1.5l0.25,0.17h0a3.17,3.17,0,0,0,3.63-.37h0a3.24,3.24,0,0,0,.66-0.8l0.27-.48,7.12-12.33,0.28-.48,0.25-.42,0-.05A4.6,4.6,0,0,0,184.84,37.82Zm-30.24-1,4-6.89a2.38,2.38,0,0,1,2.06-1.19H170.9A2.38,2.38,0,0,1,173,29.93l0.36,0.63,0.22,0.39,0.55,1,2.84,4.92H154.61Z"/><path class="cls-2" d="M201.41,37.69l-7.5-13a4.64,4.64,0,0,0-4-2.31h-15a4.83,4.83,0,0,0-.71.05l-0.17,0h0l-0.1,0a4.64,4.64,0,0,0-3,2.2l-1.49,2.57-0.28.48-0.55,1-4.66,8.08-0.28.48-0.25.43,0,0.05a4.63,4.63,0,0,0,0,4.44l0.07,0.12,0.2,0.35,0.28,0.48L171,55.56h0l0.05,0.09L171.31,56a3.15,3.15,0,0,0,.84,1l0.26,0.19h0a3.16,3.16,0,0,0,3.75-.37h0a3.16,3.16,0,0,0,.93-1.51,3.18,3.18,0,0,0,0-1.68,3.13,3.13,0,0,0-.31-0.76l-2-3.4-0.23-.39-0.55-1-2.86-5-0.55-1-0.26-.44,0,0-0.29-.51a2.39,2.39,0,0,1,0-2.37l0.32-.56,0,0,0.28-.48,0.55-1,2.84-4.92,0.55-1,0.23-.39,0.34-.59a2.38,2.38,0,0,1,2.06-1.19h10.26a2.38,2.38,0,0,1,2.06,1.19l4,6.89H184.3l0.28,0.48,0.2,0.35,0.07,0.13a4.6,4.6,0,0,1,0,4.44l0,0.05-0.25.42-0.28.48h9.31L188,52.84A3.18,3.18,0,0,0,193.49,56l7.92-13.71A4.64,4.64,0,0,0,201.41,37.69Z"/><path class="cls-3" d="M75.44,22.37A3.42,3.42,0,0,0,72.27,26V36.38H55.33V26A3.2,3.2,0,1,0,49,26V54a3.2,3.2,0,1,0,6.34,0V43.62H72.27V54a3.2,3.2,0,1,0,6.34,0V26A3.42,3.42,0,0,0,75.44,22.37Zm1.41,1.57a2,2,0,0,0-1.41-.61,2,2,0,0,0-1.25.47,2,2,0,0,1,1.25-.47A2,2,0,0,1,76.85,23.93Zm-24.69-.61a2,2,0,0,1,1.41.61,1.93,1.93,0,0,0-2.82,0A2,2,0,0,1,52.16,23.32Z"/><path class="cls-3" d="M109.53,43.62A3.42,3.42,0,0,0,112.7,40a3.42,3.42,0,0,0-3.17-3.62H89.42V29.61h20.11A3.42,3.42,0,0,0,112.7,26a3.42,3.42,0,0,0-3.17-3.62H86.25A3.42,3.42,0,0,0,83.08,26V54a3.42,3.42,0,0,0,3.17,3.62h23.28a3.65,3.65,0,0,0,0-7.25H89.42V43.62h20.11ZM111.74,26h0a3.17,3.17,0,0,1-.1.79A3.17,3.17,0,0,0,111.74,26Z"/><path class="cls-3" d="M136.35,40l9.56-11.51a4,4,0,0,0,0-5,2.92,2.92,0,0,0-4.6,0L132,34.73l-9.34-11.24a2.92,2.92,0,0,0-4.6,0,4,4,0,0,0,0,5L127.6,40,118,51.51a4,4,0,0,0,0,5,2.92,2.92,0,0,0,4.6,0L132,45.27l9.34,11.24a2.92,2.92,0,0,0,4.6,0,4,4,0,0,0,0-5Z"/><text class="cls-4" transform="translate(1716.5 45.04)">Username</text><text class="cls-5" transform="translate(321.17 47.82)">Organizations</text><polygon class="cls-3" points="467.82 40.53 463.33 45.02 458.85 40.53 467.82 40.53"/><path class="cls-3" d="M1868.79,29.07h-2.43V41.21h2.43V29.07Zm5.86,2.63-1.72,1.72a8.4,8.4,0,0,1,3.14,6.57,8.5,8.5,0,1,1-13.87-6.58l-1.71-1.71A10.93,10.93,0,1,0,1874.65,31.71Z"/><rect class="cls-2" y="80" width="1920" height="65"/><text class="cls-6" transform="translate(525 47.98)">Services</text><text class="cls-7" transform="translate(46.08 123.04)">Nag<tspan x="50.75" y="0">y</tspan><tspan x="64.8" y="0">on hosszú n</tspan><tspan x="217.94" y="0">e</tspan><tspan x="233.05" y="0">vű...</tspan></text><text class="cls-4" transform="translate(393.33 118.27)">Properties</text><text class="cls-4" transform="translate(544.54 118.27)">Users</text><rect class="cls-8" x="363.2" y="137" width="152.83" height="8"/></g><g id="content-2" data-name="content"><rect class="cls-2" x="530" y="421.51" width="859.99" height="660.13"/><text class="cls-9" transform="translate(545 457.01)">Roles</text><rect class="cls-10" x="530" y="180.01" width="860" height="190"/><text class="cls-11" transform="translate(770 256.69)">Nag<tspan x="29.58" y="0">y</tspan><tspan x="38.32" y="0">on hosszú nevű s</tspan><tspan x="168.95" y="0">z</tspan><tspan x="176.74" y="0">er</tspan><tspan x="192.08" y="0">v</tspan><tspan x="200.82" y="0">e</tspan><tspan x="209.76" y="0">z</tspan><tspan x="217.55" y="0">et</tspan></text><text class="cls-11" transform="translate(770 287.69)">Ez a nag<tspan x="64.77" y="0">y</tspan><tspan x="73.51" y="0">on hosszú nevű s</tspan><tspan x="204.14" y="0">z</tspan><tspan x="211.93" y="0">er</tspan><tspan x="227.27" y="0">v</tspan><tspan x="236.02" y="0">e</tspan><tspan x="244.95" y="0">z</tspan><tspan x="252.74" y="0">et leírásza.</tspan></text><text class="cls-11" transform="translate(770 318.69)">http://nag<tspan x="78.94" y="0">y</tspan><tspan x="87.69" y="0">onhosszu.hu</tspan></text><text class="cls-11" transform="translate(770 349.7)">hallgató</text><rect class="cls-3" x="544.87" y="490.01" width="827.83" height="36.67"/><polygon class="cls-2" points="1361.36 504.54 1353.77 512.14 1346.17 504.54 1361.36 504.54"/><rect class="cls-3" x="545.59" y="536.67" width="828.79" height="36.67"/><polygon class="cls-2" points="1361.36 551.21 1353.77 558.81 1346.17 551.21 1361.36 551.21"/><rect class="cls-3" x="545.29" y="583.34" width="828.79" height="36.67"/><polygon class="cls-8" points="1361.31 605.44 1353.77 597.91 1346.23 605.44 1361.31 605.44"/><rect class="cls-3" x="545.29" y="871.67" width="828.79" height="36.67"/><polygon class="cls-2" points="1361.31 886.24 1353.77 893.78 1346.23 886.24 1361.31 886.24"/><rect class="cls-12" x="545.29" y="620.01" width="828.79" height="241.67"/><line class="cls-10" x1="555.9" y1="730.34" x2="1364.49" y2="730.34"/><text class="cls-11" transform="translate(705.47 647.79)">jog ar<tspan x="44.3" y="0">r</tspan><tspan x="50.43" y="0">a</tspan><tspan x="0" y="21">jog erre</tspan><tspan x="0" y="42">meg il</tspan><tspan x="46.38" y="42">y</tspan><tspan x="55.12" y="42">enol</tspan><tspan x="86.77" y="42">y</tspan><tspan x="95.35" y="42">anjog</tspan><tspan x="0" y="63">t</tspan><tspan x="5.91" y="63">o</tspan><tspan x="14.9" y="63">vábbijogok</tspan></text><text class="cls-11" transform="translate(707.22 755.8)">Almás <tspan class="cls-13" x="51.06" y="0">T</tspan><tspan x="58.54" y="0">amás</tspan><tspan x="0" y="21">F</tspan><tspan x="7.89" y="21">arkas Péter</tspan><tspan x="0" y="42">Szé</tspan><tspan x="27.07" y="42">k</tspan><tspan x="35.8" y="42">ely Szintia</tspan><tspan class="cls-13" x="0" y="63">T</tspan><tspan x="7.63" y="63">eniszütő Ernő</tspan><tspan x="0" y="84">V</tspan><tspan x="9.52" y="84">as István</tspan></text><rect class="cls-3" x="545.29" y="918.34" width="828.79" height="36.67"/><polygon class="cls-2" points="1361.31 932.91 1353.77 940.44 1346.23 932.91 1361.31 932.91"/><rect class="cls-3" x="544.63" y="965.01" width="830" height="36.67"/><polygon class="cls-2" points="1361.31 979.57 1353.77 987.11 1346.23 979.57 1361.31 979.57"/><rect class="cls-3" x="544.63" y="1011.67" width="830" height="36.67"/><polygon class="cls-2" points="1361.31 1026.24 1353.77 1033.78 1346.23 1026.24 1361.31 1026.24"/><rect class="cls-3" x="544.63" y="1058.34" width="830" height="36.67"/><text class="cls-14" transform="translate(560 513.31)">hallga<tspan x="41.49" y="0">t</tspan><tspan x="46.46" y="0">ó</tspan></text><text class="cls-14" transform="translate(560 559.98)">r<tspan x="5.34" y="0">ole2</tspan></text><text class="cls-15" transform="translate(560 606.64)">r<tspan x="5.34" y="0">ole3</tspan></text><text class="cls-14" transform="translate(560 894.98)">r<tspan x="5.34" y="0">ole4</tspan></text><text class="cls-16" transform="translate(560 646.29)">P<tspan x="8.68" y="0">ermissions</tspan></text><text class="cls-16" transform="translate(560 753.29)">Members</text><text class="cls-14" transform="translate(560 941.64)">r<tspan x="5.34" y="0">ole5</tspan></text><text class="cls-14" transform="translate(560 988.31)">r<tspan x="5.34" y="0">ole6</tspan></text><text class="cls-14" transform="translate(560 1034.98)">r<tspan x="5.34" y="0">ole7</tspan></text><text class="cls-14" transform="translate(560 1081.64)">r<tspan x="5.34" y="0">ole8</tspan></text><polygon class="cls-2" points="1361.31 1072.91 1353.77 1080.44 1346.23 1072.91 1361.31 1072.91"/></g><text class="cls-17" transform="translate(545 257.16)">Name</text><text class="cls-17" transform="translate(545 288.16)">Description</text><text class="cls-17" transform="translate(545 319.16)">Home page</text><text class="cls-17" transform="translate(545 350.16)">Default role</text><text class="cls-18" transform="translate(545 213.5)">P<tspan x="12.51" y="0">r</tspan><tspan x="19.42" y="0">ope</tspan><tspan x="51.79" y="0">r</tspan><tspan x="59.62" y="0">ties</tspan></text></svg>