<svg id="vo_user2" xmlns="http://www.w3.org/2000/svg" viewBox="0 0 1920 1080"><defs><style>.cls-1,.cls-11,.cls-9{fill:#333;}.cls-12,.cls-2{fill:#61afc5;}.cls-3,.cls-4,.cls-5,.cls-6,.cls-7{fill:#fff;}.cls-4{font-size:18px;}.cls-11,.cls-4,.cls-5,.cls-6,.cls-9{font-family:Verdana;}.cls-5{font-size:19px;}.cls-6{font-size:20px;}.cls-7{font-size:32px;}.cls-10,.cls-12,.cls-7{font-family:Roboto Condensed;}.cls-10,.cls-11,.cls-12,.cls-7{font-weight:700;}.cls-10,.cls-8{fill:#ea7e73;}.cls-11,.cls-9{font-size:15px;}.cls-10,.cls-12{font-size:22px;}</style></defs><title>ui</title><rect class="cls-1" width="1920" height="80"/><rect class="cls-2" x="303.16" width="178.84" height="80"/><path class="cls-3" d="M184.84,37.82l-0.07-.13-0.2-.35-0.28-.48-4.66-8.08-0.55-1-0.28-.48-1.53-2.64a4.67,4.67,0,0,0-2.82-2.16l-0.12,0h0l-0.15,0a4.58,4.58,0,0,0-.91-0.09h-15a4.63,4.63,0,0,0-4,2.31l-7.5,13a4.64,4.64,0,0,0,0,4.62L154.68,56a3.18,3.18,0,0,0,5.93-1.59,3.16,3.16,0,0,0-.43-1.59l-5.58-9.67h22.33l-2.86,5-0.55,1-0.23.39-1.94,3.36a3.1,3.1,0,0,0-.33.82,3.17,3.17,0,0,0,.09,1.86h0v0a3.14,3.14,0,0,0,1.15,1.5l0.25,0.17h0a3.17,3.17,0,0,0,3.63-.37h0a3.24,3.24,0,0,0,.66-0.8l0.27-.48,7.12-12.33,0.28-.48,0.25-.42,0-.05A4.6,4.6,0,0,0,184.84,37.82Zm-30.24-1,4-6.89a2.38,2.38,0,0,1,2.06-1.19H170.9A2.38,2.38,0,0,1,173,29.93l0.36,0.63,0.22,0.39,0.55,1,2.84,4.92H154.61Z"/><path class="cls-2" d="M201.41,37.69l-7.5-13a4.64,4.64,0,0,0-4-2.31h-15a4.83,4.83,0,0,0-.71.05l-0.17,0h0l-0.1,0a4.64,4.64,0,0,0-3,2.2l-1.49,2.57-0.28.48-0.55,1-4.66,8.08-0.28.48-0.25.43,0,0.05a4.63,4.63,0,0,0,0,4.44l0.07,0.12,0.2,0.35,0.28,0.48L171,55.56h0l0.05,0.09L171.31,56a3.15,3.15,0,0,0,.84,1l0.26,0.19h0a3.16,3.16,0,0,0,3.75-.37h0a3.16,3.16,0,0,0,.93-1.51,3.18,3.18,0,0,0,0-1.68,3.13,3.13,0,0,0-.31-0.76l-2-3.4-0.23-.39-0.55-1-2.86-5-0.55-1-0.26-.44,0,0-0.29-.51a2.39,2.39,0,0,1,0-2.37l0.32-.56,0,0,0.28-.48,0.55-1,2.84-4.92,0.55-1,0.23-.39,0.34-.59a2.38,2.38,0,0,1,2.06-1.19h10.26a2.38,2.38,0,0,1,2.06,1.19l4,6.89H184.3l0.28,0.48,0.2,0.35,0.07,0.13a4.6,4.6,0,0,1,0,4.44l0,0.05-0.25.42-0.28.48h9.31L188,52.84A3.18,3.18,0,0,0,193.49,56l7.92-13.71A4.64,4.64,0,0,0,201.41,37.69Z"/><path class="cls-3" d="M75.44,22.37A3.42,3.42,0,0,0,72.27,26V36.38H55.33V26A3.2,3.2,0,1,0,49,26V54a3.2,3.2,0,1,0,6.34,0V43.62H72.27V54a3.2,3.2,0,1,0,6.34,0V26A3.42,3.42,0,0,0,75.44,22.37Zm1.41,1.57a2,2,0,0,0-1.41-.61,2,2,0,0,0-1.25.47,2,2,0,0,1,1.25-.47A2,2,0,0,1,76.85,23.93Zm-24.69-.61a2,2,0,0,1,1.41.61,1.93,1.93,0,0,0-2.82,0A2,2,0,0,1,52.16,23.32Z"/><path class="cls-3" d="M109.53,43.62A3.42,3.42,0,0,0,112.7,40a3.42,3.42,0,0,0-3.17-3.62H89.42V29.61h20.11A3.42,3.42,0,0,0,112.7,26a3.42,3.42,0,0,0-3.17-3.62H86.25A3.42,3.42,0,0,0,83.08,26V54a3.42,3.42,0,0,0,3.17,3.62h23.28a3.65,3.65,0,0,0,0-7.25H89.42V43.62h20.11ZM111.74,26h0a3.17,3.17,0,0,1-.1.79A3.17,3.17,0,0,0,111.74,26Z"/><path class="cls-3" d="M136.35,40l9.56-11.51a4,4,0,0,0,0-5,2.92,2.92,0,0,0-4.6,0L132,34.73l-9.34-11.24a2.92,2.92,0,0,0-4.6,0,4,4,0,0,0,0,5L127.6,40,118,51.51a4,4,0,0,0,0,5,2.92,2.92,0,0,0,4.6,0L132,45.27l9.34,11.24a2.92,2.92,0,0,0,4.6,0,4,4,0,0,0,0-5Z"/><text class="cls-4" transform="translate(1716.5 45.04)">Username</text><text class="cls-5" transform="translate(321.17 47.82)">Organizations</text><polygon class="cls-3" points="467.82 40.53 463.33 45.02 458.85 40.53 467.82 40.53"/><path class="cls-3" d="M1868.79,29.07h-2.43V41.21h2.43V29.07Zm5.86,2.63-1.72,1.72a8.4,8.4,0,0,1,3.14,6.57,8.5,8.5,0,1,1-13.87-6.58l-1.71-1.71A10.93,10.93,0,1,0,1874.65,31.71Z"/><rect class="cls-2" y="80" width="1920" height="65"/><text class="cls-6" transform="translate(525 47.98)">Services</text><text class="cls-7" transform="translate(46.08 123.04)">O<tspan x="19.31" y="0">r</tspan><tspan x="29.63" y="0">ganization name</tspan></text><text class="cls-4" transform="translate(393.33 118.27)">Properties</text><text class="cls-4" transform="translate(544.54 118.27)">Users</text><rect class="cls-8" x="516.03" y="137" width="110.46" height="8"/><g id="content-3" data-name="content"><path class="cls-8" d="M1389,245.08v38H531v-38h858m1-1H530v40h860v-40h0Z"/><text class="cls-9" transform="translate(850 268.29)">almastamas@example.com</text><path class="cls-8" d="M1389,284.08v38H531v-38h858m1-1H530v40h860v-40h0Z"/><text class="cls-9" transform="translate(850 307.28)">kistamas@example.com</text><path class="cls-8" d="M1389,323.08v38H531v-38h858m1-1H530v40h860v-40h0Z"/><text class="cls-9" transform="translate(850 346.29)">nagytamas@example.com</text><path class="cls-8" d="M1389,362.08v38H531v-38h858m1-1H530v40h860v-40h0Z"/><text class="cls-9" transform="translate(850 385.29)">szabotamas@example.com</text><path class="cls-8" d="M1389,401.08v38H531v-38h858m1-1H530v40h860v-40h0Z"/><text class="cls-9" transform="translate(850 424.28)">szucstamas@example.com</text><path class="cls-8" d="M1389,440.08v38H531v-38h858m1-1H530v40h860v-40h0Z"/><text class="cls-10" transform="translate(530 224.79)">Managers</text><text class="cls-11" transform="translate(561.03 268.28)">Almás Tamás</text><text class="cls-11" transform="translate(561.03 307.28)">Kis Tamás</text><text class="cls-11" transform="translate(561.03 346.29)">Nagy Tamás</text><text class="cls-11" transform="translate(561.03 385.28)">Szabó Tamás</text><text class="cls-11" transform="translate(561.03 424.28)">Szűcs Tamás</text><text class="cls-11" transform="translate(561.03 463.29)">Vas Tamás</text><text class="cls-9" transform="translate(850 463.29)">v<tspan x="8.58" y="0">astamas@example.com</tspan></text><text class="cls-12" transform="translate(530 534.57)">Users</text><path class="cls-2" d="M1389,554.86v38H531v-38h858m1-1H530v40h860v-40h0Z"/><text class="cls-11" transform="translate(561.03 580.29)">Almás Tamás</text><text class="cls-9" transform="translate(850 580.29)">almastamas@example.com</text><path class="cls-2" d="M1389,593.86v38H531v-38h858m1-1H530v40h860v-40h0Z"/><text class="cls-11" transform="translate(561.03 619.29)">Almás Tamás</text><text class="cls-9" transform="translate(850 619.29)">almastamas@example.com</text><path class="cls-2" d="M1389,632.86v38H531v-38h858m1-1H530v40h860v-40h0Z"/><text class="cls-11" transform="translate(561.03 658.29)">Almás Tamás</text><text class="cls-9" transform="translate(850 658.29)">almastamas@example.com</text><path class="cls-2" d="M1389,671.86v38H531v-38h858m1-1H530v40h860v-40h0Z"/><text class="cls-11" transform="translate(561.03 697.29)">Almás Tamás</text><text class="cls-9" transform="translate(850 697.29)">almastamas@example.com</text><path class="cls-2" d="M1389,710.86v38H531v-38h858m1-1H530v40h860v-40h0Z"/><text class="cls-11" transform="translate(561.03 736.29)">Almás Tamás</text><text class="cls-9" transform="translate(850 736.29)">almastamas@example.com</text><path class="cls-2" d="M1389,749.86v38H531v-38h858m1-1H530v40h860v-40h0Z"/><text class="cls-11" transform="translate(561.03 775.29)">Almás Tamás</text><text class="cls-9" transform="translate(850 775.29)">almastamas@example.com</text><path class="cls-2" d="M1389,788.86v38H531v-38h858m1-1H530v40h860v-40h0Z"/><text class="cls-11" transform="translate(561.03 814.29)">Almás Tamás</text><text class="cls-9" transform="translate(850 814.29)">almastamas@example.com</text><path class="cls-2" d="M1389,827.86v38H531v-38h858m1-1H530v40h860v-40h0Z"/><text class="cls-11" transform="translate(561.03 853.29)">Almás Tamás</text><text class="cls-9" transform="translate(850 853.29)">almastamas@example.com</text><path class="cls-2" d="M1389,866.86v38H531v-38h858m1-1H530v40h860v-40h0Z"/><text class="cls-11" transform="translate(561.03 892.29)">Almás Tamás</text><text class="cls-9" transform="translate(850 892.29)">almastamas@example.com</text><path class="cls-2" d="M1389,905.86v38H531v-38h858m1-1H530v40h860v-40h0Z"/><text class="cls-11" transform="translate(561.03 931.29)">Almás Tamás</text><text class="cls-9" transform="translate(850 931.29)">almastamas@example.com</text><path class="cls-2" d="M1389,944.86v38H531v-38h858m1-1H530v40h860v-40h0Z"/><text class="cls-11" transform="translate(561.03 970.29)">Almás Tamás</text><text class="cls-9" transform="translate(850 970.29)">almastamas@example.com</text><path class="cls-2" d="M1389,983.86v38H531v-38h858m1-1H530v40h860v-40h0Z"/><text class="cls-11" transform="translate(561.03 1009.29)">Almás Tamás</text><text class="cls-9" transform="translate(850 1009.29)">almastamas@example.com</text><path class="cls-2" d="M1389,1022.86v38H531v-38h858m1-1H530v40h860v-40h0Z"/><text class="cls-11" transform="translate(561.03 1048.29)">Almás Tamás</text><text class="cls-9" transform="translate(850 1048.29)">almastamas@example.com</text></g></svg>