<svg id="vo_user2" xmlns="http://www.w3.org/2000/svg" viewBox="0 0 1920 1080">
    <defs>
        <style>
            .cls-1,.cls-2{font-size:22px;}.cls-1,.cls-7{fill:#ea7e73;}.cls-1,.cls-11,.cls-12,.cls-14,.cls-2{font-family:Roboto
            Condensed;}.cls-1,.cls-10,.cls-14,.cls-2,.cls-4{font-weight:700;}.cls-2,.cls-3{fill:#61afc5;}.cls-10,.cls-4,.cls-5,.cls-9{font-size:15px;}.cls-16,.cls-4,.cls-5{fill:#333;}.cls-10,.cls-15,.cls-17,.cls-18,.cls-4,.cls-5,.cls-9{font-family:Verdana;}.cls-13,.cls-6{fill:none;stroke-miterlimit:10;}.cls-6{stroke:#61afc5;}.cls-10,.cls-11,.cls-14,.cls-15,.cls-17,.cls-18,.cls-8,.cls-9{fill:#fff;}.cls-11,.cls-12{font-size:14px;}.cls-12{fill:#8e8e8e;}.cls-13{stroke:#8e8e8e;}.cls-14{font-size:32px;}.cls-15{font-size:18px;}.cls-17{font-size:19px;}.cls-18{font-size:20px;}
        </style>
    </defs>
    <title>ui</title>
    <g id="content-3" data-name="content">
        <text class="cls-1" transform="translate(370 284.28)">Managers</text>
        <text class="cls-2" transform="translate(370 594.06)">Users</text>
        <path class="cls-3" d="M1549,614.36v38H371v-38H1549m1-1H370v40H1550v-40h0Z"/>
        <text class="cls-4" transform="translate(465 637.56)">Almás Tamás</text>
        <text class="cls-5" transform="translate(785 637.56)">almastamas@example.com</text>
        <rect class="cls-6" x="391.52" y="622.81" width="21.09" height="21.09"/>
        <path class="cls-7" d="M1549,304.57v38H371v-38H1549m1-1H370v40H1550v-40h0Z"/>
        <rect class="cls-3" x="370" y="202.2" width="60" height="38.74"/>
        <rect class="cls-8" x="389.46" y="211.03" width="21.09" height="21.09"/>
        <rect class="cls-7" x="370" y="342.57" width="1180" height="40"/>
        <text class="cls-5" transform="translate(785 327.78)">almastamas@example.com</text>
        <text class="cls-5" transform="translate(785 405.78)">nagytamas@example.com</text>
        <text class="cls-5" transform="translate(785 444.78)">szabotamas@example.com</text>
        <text class="cls-5" transform="translate(785 483.78)">szucstamas@example.com</text>
        <text class="cls-5" transform="translate(785 522.78)">v
            <tspan x="8.58" y="0">astamas@example.com</tspan>
        </text>
        <text class="cls-9" transform="translate(785 366.78)">kistamas@example.com</text>
        <text class="cls-4" transform="translate(465 327.78)">Almás Tamás</text>
        <text class="cls-4" transform="translate(465 405.78)">Nagy Tamás</text>
        <text class="cls-4" transform="translate(465 444.78)">Szabó Tamás</text>
        <text class="cls-4" transform="translate(465 483.78)">Szűcs Tamás</text>
        <text class="cls-4" transform="translate(465 522.78)">Vas Tamás</text>
        <text class="cls-10" transform="translate(465 366.78)">Kis Tamás</text>
        <rect class="cls-8" x="392.02" y="313.53" width="20.09" height="20.09"/>
        <path class="cls-7" d="M411.61,314v19.09H392.52V314h19.09m1-1H391.52v21.09h21.09V313h0Z"/>
        <rect class="cls-8" x="392.02" y="391.53" width="20.09" height="20.09"/>
        <path class="cls-7" d="M411.61,392v19.09H392.52V392h19.09m1-1H391.52v21.09h21.09V391h0Z"/>
        <rect class="cls-8" x="392.02" y="430.53" width="20.09" height="20.09"/>
        <path class="cls-7" d="M411.61,431v19.09H392.52V431h19.09m1-1H391.52v21.09h21.09V430h0Z"/>
        <rect class="cls-8" x="392.02" y="469.53" width="20.09" height="20.09"/>
        <path class="cls-7" d="M411.61,470v19.09H392.52V470h19.09m1-1H391.52v21.09h21.09V469h0Z"/>
        <rect class="cls-8" x="392.02" y="508.53" width="20.09" height="20.09"/>
        <path class="cls-7" d="M411.61,509v19.09H392.52V509h19.09m1-1H391.52v21.09h21.09V508h0Z"/>
        <rect class="cls-8" x="392.02" y="352.53" width="20.09" height="20.09"/>
        <path class="cls-8" d="M411.61,353v19.09H392.52V353h19.09m1-1H391.52v21.09h21.09V352h0Z"/>
        <polygon class="cls-7"
                 points="411.29 357.8 400.46 368.63 392.84 361.01 394.12 359.73 400.46 366.07 410.01 356.52 411.29 357.8"/>
        <path class="cls-7" d="M1549,382.57v38H371v-38H1549m1-1H370v40H1550v-40h0Z"/>
        <path class="cls-7" d="M1549,421.57v38H371v-38H1549m1-1H370v40H1550v-40h0Z"/>
        <path class="cls-7" d="M1549,460.57v38H371v-38H1549m1-1H370v40H1550v-40h0Z"/>
        <path class="cls-7" d="M1549,499.57v38H371v-38H1549m1-1H370v40H1550v-40h0Z"/>
        <path class="cls-3" d="M1549,653.36v38H371v-38H1549m1-1H370v40H1550v-40h0Z"/>
        <text class="cls-4" transform="translate(465 676.56)">Almás Tamás</text>
        <text class="cls-5" transform="translate(785 676.56)">almastamas@example.com</text>
        <rect class="cls-6" x="391.52" y="661.81" width="21.09" height="21.09"/>
        <path class="cls-3" d="M1549,692.36v38H371v-38H1549m1-1H370v40H1550v-40h0Z"/>
        <text class="cls-4" transform="translate(465 715.56)">Almás Tamás</text>
        <text class="cls-5" transform="translate(785 715.56)">almastamas@example.com</text>
        <rect class="cls-6" x="391.52" y="700.81" width="21.09" height="21.09"/>
        <path class="cls-3" d="M1549,731.36v38H371v-38H1549m1-1H370v40H1550v-40h0Z"/>
        <text class="cls-4" transform="translate(465 754.56)">Almás Tamás</text>
        <text class="cls-5" transform="translate(785 754.56)">almastamas@example.com</text>
        <rect class="cls-6" x="391.52" y="739.81" width="21.09" height="21.09"/>
        <path class="cls-3" d="M1549,770.36v38H371v-38H1549m1-1H370v40H1550v-40h0Z"/>
        <text class="cls-4" transform="translate(465 793.56)">Almás Tamás</text>
        <text class="cls-5" transform="translate(785 793.56)">almastamas@example.com</text>
        <rect class="cls-6" x="391.52" y="778.81" width="21.09" height="21.09"/>
        <path class="cls-3" d="M1549,809.36v38H371v-38H1549m1-1H370v40H1550v-40h0Z"/>
        <text class="cls-4" transform="translate(465 832.56)">Almás Tamás</text>
        <text class="cls-5" transform="translate(785 832.56)">almastamas@example.com</text>
        <rect class="cls-6" x="391.52" y="817.81" width="21.09" height="21.09"/>
        <path class="cls-3" d="M1549,848.36v38H371v-38H1549m1-1H370v40H1550v-40h0Z"/>
        <text class="cls-4" transform="translate(465 871.56)">Almás Tamás</text>
        <text class="cls-5" transform="translate(785 871.56)">almastamas@example.com</text>
        <rect class="cls-6" x="391.52" y="856.81" width="21.09" height="21.09"/>
        <path class="cls-3" d="M1549,887.36v38H371v-38H1549m1-1H370v40H1550v-40h0Z"/>
        <text class="cls-4" transform="translate(465 910.56)">Almás Tamás</text>
        <text class="cls-5" transform="translate(785 910.56)">almastamas@example.com</text>
        <rect class="cls-6" x="391.52" y="895.81" width="21.09" height="21.09"/>
        <path class="cls-3" d="M1549,926.36v38H371v-38H1549m1-1H370v40H1550v-40h0Z"/>
        <text class="cls-4" transform="translate(465 949.56)">Almás Tamás</text>
        <text class="cls-5" transform="translate(785 949.56)">almastamas@example.com</text>
        <rect class="cls-6" x="391.52" y="934.81" width="21.09" height="21.09"/>
        <path class="cls-3" d="M1549,965.36v38H371v-38H1549m1-1H370v40H1550v-40h0Z"/>
        <text class="cls-4" transform="translate(465 988.56)">Almás Tamás</text>
        <text class="cls-5" transform="translate(785 988.56)">almastamas@example.com</text>
        <rect class="cls-6" x="391.52" y="973.81" width="21.09" height="21.09"/>
        <path class="cls-3" d="M1549,1004.36v38H371v-38H1549m1-1H370v40H1550v-40h0Z"/>
        <text class="cls-4" transform="translate(465 1027.56)">Almás Tamás</text>
        <text class="cls-5" transform="translate(785 1027.56)">almastamas@example.com</text>
        <rect class="cls-6" x="391.52" y="1012.81" width="21.09" height="21.09"/>
    </g>
    <g id="content-4" data-name="content">
        <path class="cls-3" d="M791,203.57v36H451v-36H791m1-1H450v38H792v-38h0Z"/>
        <rect class="cls-7" x="1480" y="202.57" width="70" height="38"/>
        <rect class="cls-3" x="792" y="202.57" width="38" height="38"/>
        <path class="cls-8"
              d="M815.53,224.29h-1l-0.34-.33a7.85,7.85,0,1,0-.84.84l0.33,0.34v1l6,6,1.8-1.8Zm-7.23,0a5.42,5.42,0,1,1,5.42-5.42A5.42,5.42,0,0,1,808.29,224.29Z"/>
        <text class="cls-11" transform="translate(1507.04 225.66)">Invite</text>
        <rect class="cls-8" x="1496.61" y="216" width="1.18" height="9.15"/>
        <rect class="cls-8" x="1496.59" y="216.17" width="1.23" height="8.81"
              transform="translate(1717.78 -1276.63) rotate(90)"/>
        <rect class="cls-3" x="850" y="202.57" width="107.7" height="38"/>
        <text class="cls-12" transform="translate(977.33 225.1)">P
            <tspan x="7.76" y="0">r</tspan>
            <tspan x="11.88" y="0">oposal</tspan>
        </text>
        <rect class="cls-13" x="967.7" y="202.57" width="72" height="38"/>
        <rect class="cls-3" x="1049.7" y="202.57" width="70" height="38"/>
        <rect class="cls-3" x="1209.7" y="202.57" width="70" height="38"/>
        <rect class="cls-3" x="1129.7" y="202.57" width="70" height="38"/>
        <text class="cls-11" transform="translate(867.79 225.1)">Change
            <tspan x="44.84" y="0">r</tspan>
            <tspan x="48.96" y="0">oles</tspan>
        </text>
        <text class="cls-11" transform="translate(1064.93 225.66)">R
            <tspan x="7.43" y="0">e</tspan>
            <tspan x="13.9" y="0">v</tspan>
            <tspan x="19.78" y="0">o</tspan>
            <tspan x="26.81" y="0">k</tspan>
            <tspan x="32.98" y="0">e</tspan>
        </text>
        <text class="cls-11" transform="translate(1222.75 225.66)">Rem
            <tspan x="24.52" y="0">o</tspan>
            <tspan x="31.45" y="0">v</tspan>
            <tspan x="37.34" y="0">e</tspan>
        </text>
        <text class="cls-11" transform="translate(1139.68 225.67)">Message</text>
    </g>
    <rect class="cls-3" y="79.61" width="1920" height="65"/>
    <text class="cls-14" transform="translate(46.08 123.04)">Nag
        <tspan x="50.75" y="0">y</tspan>
        <tspan x="64.8" y="0">on hosszú n</tspan>
        <tspan x="217.94" y="0">e</tspan>
        <tspan x="233.05" y="0">vű...</tspan>
    </text>
    <text class="cls-15" transform="translate(393.33 118.28)">Properties</text>
    <text class="cls-15" transform="translate(544.55 118.28)">Users</text>
    <text class="cls-15" transform="translate(762.92 118.27)">Connected services</text>
    <text class="cls-15" transform="translate(654.88 118.27)">R
        <tspan x="12.08" y="0">oles</tspan>
    </text>
    <rect class="cls-16" width="1920" height="80"/>
    <text class="cls-15" transform="translate(1716.5 45.04)">Username</text>
    <path class="cls-8"
          d="M1868.79,29.07h-2.43V41.21h2.43V29.07Zm5.86,2.63-1.72,1.72a8.4,8.4,0,0,1,3.14,6.57,8.5,8.5,0,1,1-13.87-6.58l-1.71-1.71A10.93,10.93,0,1,0,1874.65,31.71Z"/>
    <rect class="cls-3" x="303.16" y="0.73" width="178.84" height="79.61"/>
    <text class="cls-17" transform="translate(321.17 48.55)">Organizations</text>
    <polygon class="cls-8" points="467.82 41.26 463.33 45.74 458.85 41.26 467.82 41.26"/>
    <text class="cls-18" transform="translate(525 48.7)">Services</text>
    <rect class="cls-7" x="514.48" y="136.61" width="110.46" height="8"/>
    <path class="cls-8"
          d="M184.84,37.82l-0.07-.13-0.2-.35-0.28-.48-4.66-8.08-0.55-1-0.28-.48-1.53-2.64a4.67,4.67,0,0,0-2.82-2.16l-0.12,0h0l-0.15,0a4.58,4.58,0,0,0-.91-0.09h-15a4.63,4.63,0,0,0-4,2.31l-7.5,13a4.64,4.64,0,0,0,0,4.62L154.68,56a3.18,3.18,0,0,0,5.93-1.59,3.16,3.16,0,0,0-.43-1.59l-5.58-9.67h22.33l-2.86,5-0.55,1-0.23.39-1.94,3.36a3.1,3.1,0,0,0-.33.82,3.17,3.17,0,0,0,.09,1.86h0v0a3.14,3.14,0,0,0,1.15,1.5l0.25,0.17h0a3.17,3.17,0,0,0,3.63-.37h0a3.24,3.24,0,0,0,.66-0.8l0.27-.48,7.12-12.33,0.28-.48,0.25-.42,0-.05A4.6,4.6,0,0,0,184.84,37.82Zm-30.24-1,4-6.89a2.38,2.38,0,0,1,2.06-1.19H170.9A2.38,2.38,0,0,1,173,29.93l0.36,0.63,0.22,0.39,0.55,1,2.84,4.92H154.61Z"/>
    <path class="cls-3"
          d="M201.41,37.69l-7.5-13a4.64,4.64,0,0,0-4-2.31h-15a4.83,4.83,0,0,0-.71.05l-0.17,0h0l-0.1,0a4.64,4.64,0,0,0-3,2.2l-1.49,2.57-0.28.48-0.55,1-4.66,8.08-0.28.48-0.25.43,0,0.05a4.63,4.63,0,0,0,0,4.44l0.07,0.12,0.2,0.35,0.28,0.48L171,55.56h0l0.05,0.09L171.31,56a3.15,3.15,0,0,0,.84,1l0.26,0.19h0a3.16,3.16,0,0,0,3.75-.37h0a3.16,3.16,0,0,0,.93-1.51,3.18,3.18,0,0,0,0-1.68,3.13,3.13,0,0,0-.31-0.76l-2-3.4-0.23-.39-0.55-1-2.86-5-0.55-1-0.26-.44,0,0-0.29-.51a2.39,2.39,0,0,1,0-2.37l0.32-.56,0,0,0.28-.48,0.55-1,2.84-4.92,0.55-1,0.23-.39,0.34-.59a2.38,2.38,0,0,1,2.06-1.19h10.26a2.38,2.38,0,0,1,2.06,1.19l4,6.89H184.3l0.28,0.48,0.2,0.35,0.07,0.13a4.6,4.6,0,0,1,0,4.44l0,0.05-0.25.42-0.28.48h9.31L188,52.84A3.18,3.18,0,0,0,193.49,56l7.92-13.71A4.64,4.64,0,0,0,201.41,37.69Z"/>
    <path class="cls-8"
          d="M75.44,22.37A3.42,3.42,0,0,0,72.27,26V36.38H55.33V26A3.2,3.2,0,1,0,49,26V54a3.2,3.2,0,1,0,6.34,0V43.62H72.27V54a3.2,3.2,0,1,0,6.34,0V26A3.42,3.42,0,0,0,75.44,22.37Zm1.41,1.57a2,2,0,0,0-1.41-.61,2,2,0,0,0-1.25.47,2,2,0,0,1,1.25-.47A2,2,0,0,1,76.85,23.93Zm-24.69-.61a2,2,0,0,1,1.41.61,1.93,1.93,0,0,0-2.82,0A2,2,0,0,1,52.16,23.32Z"/>
    <path class="cls-8"
          d="M109.53,43.62A3.42,3.42,0,0,0,112.7,40a3.42,3.42,0,0,0-3.17-3.62H89.42V29.61h20.11A3.42,3.42,0,0,0,112.7,26a3.42,3.42,0,0,0-3.17-3.62H86.25A3.42,3.42,0,0,0,83.08,26V54a3.42,3.42,0,0,0,3.17,3.62h23.28a3.65,3.65,0,0,0,0-7.25H89.42V43.62h20.11ZM111.74,26h0a3.17,3.17,0,0,1-.1.79A3.17,3.17,0,0,0,111.74,26Z"/>
    <path class="cls-8"
          d="M136.35,40l9.56-11.51a4,4,0,0,0,0-5,2.92,2.92,0,0,0-4.6,0L132,34.73l-9.34-11.24a2.92,2.92,0,0,0-4.6,0,4,4,0,0,0,0,5L127.6,40,118,51.51a4,4,0,0,0,0,5,2.92,2.92,0,0,0,4.6,0L132,45.27l9.34,11.24a2.92,2.92,0,0,0,4.6,0,4,4,0,0,0,0-5Z"/>
</svg>