<svg id="service1" xmlns="http://www.w3.org/2000/svg" viewBox="0 0 1920 1080"><defs><style>.cls-1{fill:#61afc5;}.cls-2{font-size:32px;}.cls-2,.cls-4,.cls-5,.cls-6,.cls-7{fill:#fff;}.cls-10,.cls-2,.cls-9{font-family:Roboto Condensed;font-weight:700;}.cls-10,.cls-11,.cls-3,.cls-9{fill:#333;}.cls-4{font-size:18px;}.cls-4,.cls-6,.cls-7{font-family:Verdana;}.cls-6{font-size:19px;}.cls-7{font-size:20px;}.cls-8{fill:#ea7e73;}.cls-10,.cls-9{font-size:28px;}.cls-10{white-space:pre;}.cls-11{stroke:#fff;stroke-miterlimit:10;stroke-width:3px;}</style></defs><title>ui</title><rect class="cls-1" y="79.61" width="1920" height="65"/><text class="cls-2" transform="translate(46.08 123.04)">Se<tspan x="32.59" y="0">r</tspan><tspan x="43.48" y="0">vice name</tspan></text><rect class="cls-3" width="1920" height="80"/><text class="cls-4" transform="translate(1716.5 45.04)">Username</text><path class="cls-5" d="M1868.79,29.07h-2.43V41.21h2.43V29.07Zm5.86,2.63-1.72,1.72a8.4,8.4,0,0,1,3.14,6.57,8.5,8.5,0,1,1-13.87-6.58l-1.71-1.71A10.93,10.93,0,1,0,1874.65,31.71Z"/><rect class="cls-1" x="500.99" width="150" height="80"/><text class="cls-6" transform="translate(321.17 48.54)">Organizations</text><polygon class="cls-5" points="627.25 40.86 622.76 45.34 618.28 40.86 627.25 40.86"/><text class="cls-7" transform="translate(525 48.7)">Services</text><path class="cls-5" d="M184.84,37.82l-0.07-.13-0.2-.35-0.28-.48-4.66-8.08-0.55-1-0.28-.48-1.53-2.64a4.67,4.67,0,0,0-2.82-2.16l-0.12,0h0l-0.15,0a4.58,4.58,0,0,0-.91-0.09h-15a4.63,4.63,0,0,0-4,2.31l-7.5,13a4.64,4.64,0,0,0,0,4.62L154.68,56a3.18,3.18,0,0,0,5.93-1.59,3.16,3.16,0,0,0-.43-1.59l-5.58-9.67h22.33l-2.86,5-0.55,1-0.23.39-1.94,3.36a3.1,3.1,0,0,0-.33.82,3.17,3.17,0,0,0,.09,1.86h0v0a3.14,3.14,0,0,0,1.15,1.5l0.25,0.17h0a3.17,3.17,0,0,0,3.63-.37h0a3.24,3.24,0,0,0,.66-0.8l0.27-.48,7.12-12.33,0.28-.48,0.25-.42,0-.05A4.6,4.6,0,0,0,184.84,37.82Zm-30.24-1,4-6.89a2.38,2.38,0,0,1,2.06-1.19H170.9A2.38,2.38,0,0,1,173,29.93l0.36,0.63,0.22,0.39,0.55,1,2.84,4.92H154.61Z"/><path class="cls-1" d="M201.41,37.69l-7.5-13a4.64,4.64,0,0,0-4-2.31h-15a4.83,4.83,0,0,0-.71.05l-0.17,0h0l-0.1,0a4.64,4.64,0,0,0-3,2.2l-1.49,2.57-0.28.48-0.55,1-4.66,8.08-0.28.48-0.25.43,0,0.05a4.63,4.63,0,0,0,0,4.44l0.07,0.12,0.2,0.35,0.28,0.48L171,55.56h0l0.05,0.09L171.31,56a3.15,3.15,0,0,0,.84,1l0.26,0.19h0a3.16,3.16,0,0,0,3.75-.37h0a3.16,3.16,0,0,0,.93-1.51,3.18,3.18,0,0,0,0-1.68,3.13,3.13,0,0,0-.31-0.76l-2-3.4-0.23-.39-0.55-1-2.86-5-0.55-1-0.26-.44,0,0-0.29-.51a2.39,2.39,0,0,1,0-2.37l0.32-.56,0,0,0.28-.48,0.55-1,2.84-4.92,0.55-1,0.23-.39,0.34-.59a2.38,2.38,0,0,1,2.06-1.19h10.26a2.38,2.38,0,0,1,2.06,1.19l4,6.89H184.3l0.28,0.48,0.2,0.35,0.07,0.13a4.6,4.6,0,0,1,0,4.44l0,0.05-0.25.42-0.28.48h9.31L188,52.84A3.18,3.18,0,0,0,193.49,56l7.92-13.71A4.64,4.64,0,0,0,201.41,37.69Z"/><path class="cls-5" d="M75.44,22.37A3.42,3.42,0,0,0,72.27,26V36.38H55.33V26A3.2,3.2,0,1,0,49,26V54a3.2,3.2,0,1,0,6.34,0V43.62H72.27V54a3.2,3.2,0,1,0,6.34,0V26A3.42,3.42,0,0,0,75.44,22.37Zm1.41,1.57a2,2,0,0,0-1.41-.61,2,2,0,0,0-1.25.47,2,2,0,0,1,1.25-.47A2,2,0,0,1,76.85,23.93Zm-24.69-.61a2,2,0,0,1,1.41.61,1.93,1.93,0,0,0-2.82,0A2,2,0,0,1,52.16,23.32Z"/><path class="cls-5" d="M109.52,43.62A3.42,3.42,0,0,0,112.7,40a3.42,3.42,0,0,0-3.17-3.62H89.42V29.61h20.11A3.42,3.42,0,0,0,112.7,26a3.42,3.42,0,0,0-3.17-3.62H86.25A3.42,3.42,0,0,0,83.07,26V54a3.42,3.42,0,0,0,3.17,3.62h23.28a3.65,3.65,0,0,0,0-7.25H89.42V43.62h20.11ZM111.74,26h0a3.17,3.17,0,0,1-.1.79A3.17,3.17,0,0,0,111.74,26Z"/><path class="cls-5" d="M136.35,40l9.56-11.51a4,4,0,0,0,0-5,2.92,2.92,0,0,0-4.6,0L132,34.73l-9.34-11.24a2.92,2.92,0,0,0-4.6,0,4,4,0,0,0,0,5L127.6,40,118,51.51a4,4,0,0,0,0,5,2.92,2.92,0,0,0,4.6,0L132,45.27l9.34,11.24a2.92,2.92,0,0,0,4.6,0,4,4,0,0,0,0-5Z"/><text class="cls-4" transform="translate(395.04 117.15)">Properties</text><text class="cls-4" transform="translate(546.25 117.15)">Managers</text><text class="cls-4" transform="translate(842.17 117.15)">P<tspan x="10.42" y="0">ermissions</tspan></text><text class="cls-4" transform="translate(693.43 117.15)">A<tspan x="12.13" y="0">ttributes</tspan></text><text class="cls-4" transform="translate(1008.82 117.15)">P<tspan x="10.42" y="0">ermission sets</tspan></text><text class="cls-4" transform="translate(1209 117.15)">Connected organizations</text><g id="icons-4" data-name="icons"><path class="cls-3" d="M970.83,707.31a65,65,0,0,0-65,65H884.17l28.09,28.09,0.51,1,29.18-29.11H920.28A50.8,50.8,0,1,1,935.16,808L924.9,818.24A65,65,0,1,0,970.83,707.31Z"/><polygon class="cls-8" points="963.57 743.74 963.57 779.45 994.14 797.6 999.29 788.95 974.29 774.1 974.29 743.74 963.57 743.74"/><text class="cls-9" transform="translate(890.75 911.26)">View his<tspan x="94.36" y="0">t</tspan><tspan x="102.55" y="0">o</tspan><tspan x="116.48" y="0">r</tspan><tspan x="126.01" y="0">y</tspan></text><path class="cls-8" d="M1280,707.31a65,65,0,1,0,65,65A65,65,0,0,0,1280,707.31Zm32.5,71.5h-65v-13h65v13Z"/><text class="cls-9" transform="translate(1200.16 911.26)">Delete se<tspan x="104.23" y="0">r</tspan><tspan x="113.76" y="0">vice</tspan></text><path class="cls-3" d="M619.76,838.81l-0.27-1.16A139.54,139.54,0,0,1,617,823.91c-1.45-11.55-5.31-42.14,12-58.66,7.19-6.85,17.57-10.62,29.24-10.62H659c11.3,0.09,20.64,3.3,27.78,9.55,12.77,11.17,17.64,31.25,14.46,59.69a125.18,125.18,0,0,1-2.38,13.77l-0.27,1.17H619.76Z"/><path class="cls-5" d="M658.27,756.13H659c3.53,0,16.46.15,26.78,9.18,18.67,16.33,14.93,49.66,14,58.41a123.75,123.75,0,0,1-2.35,13.58H620.95c-1.1-4.78-1.92-9.39-2.45-13.58-1.42-11.31-5.23-41.38,11.58-57.39,10.21-9.73,23.75-10.21,28.2-10.21m0-3h0c-12.05,0-22.8,3.92-30.27,11-17.88,17-14,48.18-12.49,59.9A141.18,141.18,0,0,0,618,838l0.54,2.33h81.25l0.53-2.33a126.59,126.59,0,0,0,2.41-13.92c3.24-29-1.79-49.49-15-61-7.42-6.49-17.09-9.83-28.73-9.92h-0.78Z"/><circle class="cls-3" cx="658.92" cy="730.56" r="23.25"/><path class="cls-5" d="M645.81,807l2.84,2.84a1.19,1.19,0,0,0,1.73,0l11.23-11.23a8.06,8.06,0,0,0,10.12-11l-5.43,5.3-3.7-3.7,5.3-5.3a8.16,8.16,0,0,0-9.13,1.6,7.92,7.92,0,0,0-1.85,8.51l-11.23,11.23A1.11,1.11,0,0,0,645.81,807Z"/><path class="cls-8" d="M604.26,707.31H582a2.77,2.77,0,0,0-2.76,2.78v16.66a2.79,2.79,0,0,0,2.78,2.78h22.22a2.79,2.79,0,0,0,2.78-2.78V710.09A2.79,2.79,0,0,0,604.26,707.31Zm0,19.44H582V712.86l11.11,6.94,11.11-6.94v13.89ZM593.15,717L582,710.09h22.22Z"/><text class="cls-10" transform="translate(555.75 911.26)"> Contact admin</text><rect class="cls-8" x="1374.09" y="305.76" width="4.29" height="31.94"/><rect class="cls-8" x="1374.09" y="305.76" width="4.29" height="31.94" transform="translate(1697.96 -1054.49) rotate(90)"/><rect class="cls-3" x="1360.26" y="354" width="159.48" height="111.24"/><polygon class="cls-11" points="1440 409.63 1519.74 354 1360.26 354 1440 409.63"/><path class="cls-5" d="M1509.41,460a52.84,52.84,0,0,1-1,5.8h-32.66c-0.47-2-.82-4-1-5.8-0.61-4.83-2.23-17.67,4.94-24.51,4.65-4.43,10.91-4.37,12.37-4.36s7,0.07,11.44,3.92C1511.43,442,1509.83,456.23,1509.41,460Z"/><circle class="cls-5" cx="1491.97" cy="420.18" r="9.93"/><text class="cls-9" transform="translate(1356.44 539.72)">Invite manager</text><path class="cls-3" d="M1139.11,309.76l55,152H1179.1l-14.9-43.86-0.92-2.71h-69.86l-1,2.65-15.76,43.93H1063l57.16-152h18.94M1097.21,404h61l-1.77-5.27-23.62-70.42-0.92-2.73h-6.12l-1,2.63-25.63,70.42-2,5.37m44.71-98.26H1117.4l-60.17,160h22.28l16.71-46.57h64.18l15.82,46.57h23.62l-57.94-160h0Zm-39,94.26,25.63-70.42H1129L1152.61,400h-49.69Z"/><rect class="cls-8" x="1054.94" y="305.76" width="4.59" height="34.18"/><rect class="cls-8" x="1054.94" y="305.76" width="4.59" height="34.18" transform="translate(1380.09 -734.38) rotate(90)"/><text class="cls-9" transform="translate(1046.36 539.72)">Add attribute<tspan x="0.86" y="27">specification</tspan></text><rect class="cls-8" x="734.8" y="305.76" width="4.59" height="34.18"/><rect class="cls-8" x="734.8" y="305.76" width="4.59" height="34.18" transform="translate(1059.94 -414.24) rotate(90)"/><path class="cls-3" d="M853,465.49c-24.56,1-37.63-1.12-71.28-2-7.41-.19-16.9-0.34-28-0.28a34.11,34.11,0,0,0,8.6-11.22c3.48-7.5,2.61-13.76,2.15-23a240.07,240.07,0,0,1,.31-28.34,78,78,0,0,1,15-32.89,88.55,88.55,0,0,1,33.26-26c6.79,2,24.07,8.08,37.79,24.13a68.93,68.93,0,0,1,16,34.79c1,10.39,1.38,18.86,1.54,24.69,0.3,11-.08,16,2.46,23A44.47,44.47,0,0,0,880,463.25C873.14,464.1,863.91,465,853,465.49Z"/><path class="cls-3" d="M785.29,305.77a65.41,65.41,0,0,0,27.73,36A83.1,83.1,0,0,1,832,325.23c5.77-3.65,10.21-5.44,9.87-6.93-0.58-2.5-13.52.37-28.27-1.87A74.53,74.53,0,0,1,785.29,305.77Z"/><polygon class="cls-5" points="840.34 401.2 812.77 428.76 793.39 409.39 796.64 406.13 812.77 422.26 837.09 397.96 840.34 401.2"/><text class="cls-9" transform="translate(694.48 539.72)">C<tspan x="15.97" y="0">r</tspan><tspan x="24.99" y="0">eate permission </tspan><tspan x="88.16" y="21">set</tspan></text><polygon class="cls-3" points="560 371.84 466.07 465.76 400 399.73 411.1 388.63 466.07 443.61 548.94 360.78 560 371.84"/><rect class="cls-8" x="414.8" y="305.76" width="4.59" height="34.18"/><rect class="cls-8" x="414.8" y="305.76" width="4.59" height="34.18" transform="translate(739.94 -94.24) rotate(90)"/><text class="cls-9" transform="translate(377.71 539.72)">C<tspan x="15.97" y="0">r</tspan><tspan x="24.99" y="0">eate permission</tspan></text></g></svg>