<svg id="service3" xmlns="http://www.w3.org/2000/svg" viewBox="0 0 1920 1080"><defs><style>.cls-1{fill:#61afc5;}.cls-10,.cls-12,.cls-13,.cls-14,.cls-2,.cls-4,.cls-7,.cls-9{fill:#fff;}.cls-3,.cls-5{fill:#ea7e73;}.cls-4{font-size:14px;}.cls-10,.cls-4,.cls-5{font-family:Roboto Condensed;}.cls-5{font-size:22px;}.cls-10,.cls-5,.cls-8,.cls-9{font-weight:700;}.cls-6,.cls-7,.cls-8,.cls-9{font-size:15px;}.cls-11,.cls-6,.cls-8{fill:#333;}.cls-12,.cls-13,.cls-14,.cls-6,.cls-7,.cls-8,.cls-9{font-family:Verdana;}.cls-10{font-size:32px;}.cls-12{font-size:18px;}.cls-13{font-size:19px;}.cls-14{font-size:20px;}</style></defs><title>ui</title><g id="content-8" data-name="content"><rect class="cls-1" x="370" y="233.74" width="60" height="37"/><rect class="cls-2" x="389.46" y="241.69" width="21.09" height="21.09"/><rect class="cls-1" x="895" y="233.24" width="70" height="38"/><rect class="cls-3" x="1480" y="233.74" width="70" height="37"/><path class="cls-1" d="M841,234.74v35H451v-35H841m1-1H450v37H842v-37h0Z"/><rect class="cls-1" x="842" y="233.74" width="38" height="37"/><path class="cls-2" d="M865.52,254.88h-1l-0.34-.32a7.48,7.48,0,0,0,1.89-5,7.84,7.84,0,1,0-7.84,7.63,7.93,7.93,0,0,0,5.1-1.84l0.33,0.33v0.93l6,5.86,1.8-1.75Zm-7.23,0a5.28,5.28,0,1,1,5.42-5.28A5.35,5.35,0,0,1,858.29,254.88Z"/><text class="cls-4" transform="translate(1507.04 256.33)">Invite</text><rect class="cls-2" x="1496.61" y="246.66" width="1.18" height="9.15"/><rect class="cls-2" x="1496.59" y="246.83" width="1.23" height="8.81" transform="translate(1748.44 -1245.96) rotate(90)"/><text class="cls-4" transform="translate(908.05 256.33)">Rem<tspan x="24.52" y="0">o</tspan><tspan x="31.45" y="0">v</tspan><tspan x="37.34" y="0">e</tspan></text><text class="cls-5" transform="translate(370 323.88)">Managers</text><path class="cls-3" d="M1549,344.18v38H371v-38H1549m1-1H370v40H1550v-40h0Z"/><rect class="cls-3" x="370" y="382.18" width="1180" height="40"/><text class="cls-6" transform="translate(785 367.38)">almastamas@example.com</text><text class="cls-6" transform="translate(785 445.38)">nagytamas@example.com</text><text class="cls-6" transform="translate(785 484.38)">szabotamas@example.com</text><text class="cls-6" transform="translate(785 523.38)">szucstamas@example.com</text><text class="cls-6" transform="translate(785 562.38)">v<tspan x="8.58" y="0">astamas@example.com</tspan></text><text class="cls-7" transform="translate(785 406.38)">kistamas@example.com</text><text class="cls-8" transform="translate(465 367.38)">Almás Tamás</text><text class="cls-8" transform="translate(465 445.38)">Nagy Tamás</text><text class="cls-8" transform="translate(465 484.38)">Szabó Tamás</text><text class="cls-8" transform="translate(465 523.38)">Szűcs Tamás</text><text class="cls-8" transform="translate(465 562.38)">Vas Tamás</text><text class="cls-9" transform="translate(465 406.38)">Kis Tamás</text><rect class="cls-2" x="392.02" y="353.13" width="20.09" height="20.09"/><path class="cls-3" d="M411.61,353.63v19.09H392.52V353.63h19.09m1-1H391.52v21.09h21.09V352.63h0Z"/><rect class="cls-2" x="392.02" y="431.13" width="20.09" height="20.09"/><path class="cls-3" d="M411.61,431.63v19.09H392.52V431.63h19.09m1-1H391.52v21.09h21.09V430.63h0Z"/><rect class="cls-2" x="392.02" y="470.13" width="20.09" height="20.09"/><path class="cls-3" d="M411.61,470.63v19.09H392.52V470.63h19.09m1-1H391.52v21.09h21.09V469.63h0Z"/><rect class="cls-2" x="392.02" y="509.13" width="20.09" height="20.09"/><path class="cls-3" d="M411.61,509.63v19.09H392.52V509.63h19.09m1-1H391.52v21.09h21.09V508.63h0Z"/><rect class="cls-2" x="392.02" y="548.13" width="20.09" height="20.09"/><path class="cls-3" d="M411.61,548.63v19.09H392.52V548.63h19.09m1-1H391.52v21.09h21.09V547.63h0Z"/><rect class="cls-2" x="392.02" y="392.13" width="20.09" height="20.09"/><path class="cls-2" d="M411.61,392.63v19.09H392.52V392.63h19.09m1-1H391.52v21.09h21.09V391.63h0Z"/><polygon class="cls-3" points="411.29 397.4 400.46 408.23 392.84 400.62 394.12 399.34 400.46 405.68 410.01 396.13 411.29 397.4"/><path class="cls-3" d="M1549,422.18v38H371v-38H1549m1-1H370v40H1550v-40h0Z"/><path class="cls-3" d="M1549,461.18v38H371v-38H1549m1-1H370v40H1550v-40h0Z"/><path class="cls-3" d="M1549,500.18v38H371v-38H1549m1-1H370v40H1550v-40h0Z"/><path class="cls-3" d="M1549,539.18v38H371v-38H1549m1-1H370v40H1550v-40h0Z"/></g><g id="navs-3" data-name="navs"><rect class="cls-1" y="79.61" width="1920" height="65"/><text class="cls-10" transform="translate(46.08 123.04)">Se<tspan x="32.59" y="0">r</tspan><tspan x="43.48" y="0">vice name</tspan></text><rect class="cls-11" width="1920" height="80"/><text class="cls-12" transform="translate(1716.5 45.04)">Username</text><path class="cls-2" d="M1868.79,29.07h-2.43V41.21h2.43V29.07Zm5.86,2.63-1.72,1.72a8.4,8.4,0,0,1,3.14,6.57,8.5,8.5,0,1,1-13.87-6.58l-1.71-1.71A10.93,10.93,0,1,0,1874.65,31.71Z"/><rect class="cls-1" x="501" width="150" height="80"/><text class="cls-13" transform="translate(321.17 48.55)">Organizations</text><polygon class="cls-2" points="627.25 40.86 622.76 45.34 618.28 40.86 627.25 40.86"/><text class="cls-14" transform="translate(525 48.7)">Services</text><path class="cls-2" d="M184.84,37.82l-0.07-.13-0.2-.35-0.28-.48-4.66-8.08-0.55-1-0.28-.48-1.53-2.64a4.67,4.67,0,0,0-2.82-2.16l-0.12,0h0l-0.15,0a4.58,4.58,0,0,0-.91-0.09h-15a4.63,4.63,0,0,0-4,2.31l-7.5,13a4.64,4.64,0,0,0,0,4.62L154.68,56a3.18,3.18,0,0,0,5.93-1.59,3.16,3.16,0,0,0-.43-1.59l-5.58-9.67h22.33l-2.86,5-0.55,1-0.23.39-1.94,3.36a3.1,3.1,0,0,0-.33.82,3.17,3.17,0,0,0,.09,1.86h0v0a3.14,3.14,0,0,0,1.15,1.5l0.25,0.17h0a3.17,3.17,0,0,0,3.63-.37h0a3.24,3.24,0,0,0,.66-0.8l0.27-.48,7.12-12.33,0.28-.48,0.25-.42,0-.05A4.6,4.6,0,0,0,184.84,37.82Zm-30.24-1,4-6.89a2.38,2.38,0,0,1,2.06-1.19H170.9A2.38,2.38,0,0,1,173,29.93l0.36,0.63,0.22,0.39,0.55,1,2.84,4.92H154.61Z"/><path class="cls-1" d="M201.41,37.69l-7.5-13a4.64,4.64,0,0,0-4-2.31h-15a4.83,4.83,0,0,0-.71.05l-0.17,0h0l-0.1,0a4.64,4.64,0,0,0-3,2.2l-1.49,2.57-0.28.48-0.55,1-4.66,8.08-0.28.48-0.25.43,0,0.05a4.63,4.63,0,0,0,0,4.44l0.07,0.12,0.2,0.35,0.28,0.48L171,55.56h0l0.05,0.09L171.31,56a3.15,3.15,0,0,0,.84,1l0.26,0.19h0a3.16,3.16,0,0,0,3.75-.37h0a3.16,3.16,0,0,0,.93-1.51,3.18,3.18,0,0,0,0-1.68,3.13,3.13,0,0,0-.31-0.76l-2-3.4-0.23-.39-0.55-1-2.86-5-0.55-1-0.26-.44,0,0-0.29-.51a2.39,2.39,0,0,1,0-2.37l0.32-.56,0,0,0.28-.48,0.55-1,2.84-4.92,0.55-1,0.23-.39,0.34-.59a2.38,2.38,0,0,1,2.06-1.19h10.26a2.38,2.38,0,0,1,2.06,1.19l4,6.89H184.3l0.28,0.48,0.2,0.35,0.07,0.13a4.6,4.6,0,0,1,0,4.44l0,0.05-0.25.42-0.28.48h9.31L188,52.84A3.18,3.18,0,0,0,193.49,56l7.92-13.71A4.64,4.64,0,0,0,201.41,37.69Z"/><path class="cls-2" d="M75.44,22.37A3.42,3.42,0,0,0,72.27,26V36.38H55.33V26A3.2,3.2,0,1,0,49,26V54a3.2,3.2,0,1,0,6.34,0V43.62H72.27V54a3.2,3.2,0,1,0,6.34,0V26A3.42,3.42,0,0,0,75.44,22.37Zm1.41,1.57a2,2,0,0,0-1.41-.61,2,2,0,0,0-1.25.47,2,2,0,0,1,1.25-.47A2,2,0,0,1,76.85,23.93Zm-24.69-.61a2,2,0,0,1,1.41.61,1.93,1.93,0,0,0-2.82,0A2,2,0,0,1,52.16,23.32Z"/><path class="cls-2" d="M109.53,43.62A3.42,3.42,0,0,0,112.7,40a3.42,3.42,0,0,0-3.17-3.62H89.42V29.61h20.11A3.42,3.42,0,0,0,112.7,26a3.42,3.42,0,0,0-3.17-3.62H86.25A3.42,3.42,0,0,0,83.08,26V54a3.42,3.42,0,0,0,3.17,3.62h23.28a3.65,3.65,0,0,0,0-7.25H89.42V43.62h20.11ZM111.74,26h0a3.17,3.17,0,0,1-.1.79A3.17,3.17,0,0,0,111.74,26Z"/><path class="cls-2" d="M136.35,40l9.56-11.51a4,4,0,0,0,0-5,2.92,2.92,0,0,0-4.6,0L132,34.73l-9.34-11.24a2.92,2.92,0,0,0-4.6,0,4,4,0,0,0,0,5L127.6,40,118,51.51a4,4,0,0,0,0,5,2.92,2.92,0,0,0,4.6,0L132,45.27l9.34,11.24a2.92,2.92,0,0,0,4.6,0,4,4,0,0,0,0-5Z"/><text class="cls-12" transform="translate(395.04 117.15)">Properties</text><text class="cls-12" transform="translate(546.26 117.15)">Managers</text><text class="cls-12" transform="translate(842.17 117.15)">P<tspan x="10.42" y="0">ermissions</tspan></text><text class="cls-12" transform="translate(693.43 117.15)">A<tspan x="12.13" y="0">ttributes</tspan></text><text class="cls-12" transform="translate(1008.82 117.15)">P<tspan x="10.42" y="0">ermission sets</tspan></text><text class="cls-12" transform="translate(1209 117.15)">Connected organizations</text><rect class="cls-3" x="516.26" y="136.61" width="147.18" height="8"/></g></svg>