<svg id="service4" xmlns="http://www.w3.org/2000/svg" viewBox="0 0 1920 1080">
    <defs>
        <style>.cls-1,.cls-2{fill:#ea7e73;}.cls-2{font-size:22px;}.cls-2,.cls-7,.cls-8{font-family:Roboto
            Condensed;}.cls-2,.cls-3,.cls-4,.cls-8{font-weight:700;}.cls-3,.cls-4{font-size:15px;}.cls-3,.cls-9{fill:#333;}.cls-10,.cls-11,.cls-12,.cls-3,.cls-4{font-family:Verdana;}.cls-10,.cls-11,.cls-12,.cls-4,.cls-5,.cls-7,.cls-8{fill:#fff;}.cls-6{fill:#61afc5;}.cls-7{font-size:14px;}.cls-8{font-size:32px;}.cls-10{font-size:18px;}.cls-11{font-size:19px;}.cls-12{font-size:20px;}
        </style>
    </defs>
    <title>ui</title>
    <g id="content-9" data-name="content">
        <path class="cls-1" d="M1389,360.88v38H531v-38h858m1-1H530v40h860v-40h0Z"/>
        <rect class="cls-1" x="530" y="398.88" width="860" height="40"/>
        <path class="cls-1" d="M1389,438.88v38H531v-38h858m1-1H530v40h860v-40h0Z"/>
        <path class="cls-1" d="M1389,477.88v38H531v-38h858m1-1H530v40h860v-40h0Z"/>
        <path class="cls-1" d="M1389,516.88v38H531v-38h858m1-1H530v40h860v-40h0Z"/>
        <path class="cls-1" d="M1389,555.88v38H531v-38h858m1-1H530v40h860v-40h0Z"/>
        <text class="cls-2" transform="translate(530 340.58)">Used attribute sp
            <tspan x="150.72" y="0">r</tspan>
            <tspan x="157.81" y="0">cifications</tspan>
        </text>
        <text class="cls-3" transform="translate(610 384.08)">lábméret</text>
        <text class="cls-4" transform="translate(610 423.08)">fejméret</text>
        <text class="cls-3" transform="translate(610 462.08)">magasság</text>
        <text class="cls-3" transform="translate(610 501.08)">súly</text>
        <text class="cls-3" transform="translate(610 540.08)">hajszín</text>
        <text class="cls-3" transform="translate(610 579.08)">szemszín</text>
        <rect class="cls-5" x="547.46" y="369.83" width="20.09" height="20.09"/>
        <path class="cls-1" d="M567,370.33v19.09H548V370.33H567m1-1H547v21.09H568V369.33h0Z"/>
        <rect class="cls-5" x="547.46" y="408.83" width="20.09" height="20.09"/>
        <path class="cls-5" d="M567,409.33v19.09H548V409.33H567m1-1H547v21.09H568V408.33h0Z"/>
        <rect class="cls-5" x="547.46" y="447.83" width="20.09" height="20.09"/>
        <path class="cls-1" d="M567,448.33v19.09H548V448.33H567m1-1H547v21.09H568V447.33h0Z"/>
        <rect class="cls-5" x="547.46" y="486.83" width="20.09" height="20.09"/>
        <path class="cls-1" d="M567,487.33v19.09H548V487.33H567m1-1H547v21.09H568V486.33h0Z"/>
        <rect class="cls-5" x="547.46" y="525.83" width="20.09" height="20.09"/>
        <path class="cls-1" d="M567,526.33v19.09H548V526.33H567m1-1H547v21.09H568V525.33h0Z"/>
        <rect class="cls-5" x="547.46" y="564.83" width="20.09" height="20.09"/>
        <path class="cls-1" d="M567,565.33v19.09H548V565.33H567m1-1H547v21.09H568V564.33h0Z"/>
        <rect class="cls-6" x="530" y="248.51" width="60" height="38.74"/>
        <rect class="cls-5" x="546.96" y="257.33" width="21.09" height="21.09"/>
        <polygon class="cls-1"
                 points="566.73 414.1 555.9 424.93 548.28 417.32 549.56 416.04 555.9 422.38 565.45 412.83 566.73 414.1"/>
        <rect class="cls-1" x="1330" y="248.88" width="60" height="38"/>
        <text class="cls-7" transform="translate(1356.14 271.97)">Add</text>
        <rect class="cls-5" x="1345.71" y="262.3" width="1.18" height="9.15"/>
        <rect class="cls-5" x="1345.69" y="262.48" width="1.23" height="8.81"
              transform="translate(1613.18 -1079.42) rotate(90)"/>
        <path class="cls-6" d="M1001,249.88v36H611v-36h390m1-1H610v38h392v-38h0Z"/>
        <rect class="cls-6" x="1002" y="248.88" width="38" height="38"/>
        <rect class="cls-6" x="1060" y="248.88" width="70" height="38"/>
        <path class="cls-5"
              d="M1025.52,270.6h-1l-0.34-.33a7.85,7.85,0,1,0-.84.84l0.33,0.34v1l6,6,1.8-1.8Zm-7.23,0a5.42,5.42,0,1,1,5.42-5.42A5.42,5.42,0,0,1,1018.29,270.6Z"/>
        <text class="cls-7" transform="translate(1073.05 271.97)">Rem
            <tspan x="24.52" y="0">o</tspan>
            <tspan x="31.45" y="0">v</tspan>
            <tspan x="37.34" y="0">e</tspan>
        </text>
    </g>
    <g id="navs-4" data-name="navs">
        <rect class="cls-6" y="79.61" width="1920" height="65"/>
        <text class="cls-8" transform="translate(46.08 123.04)">Se
            <tspan x="32.59" y="0">r</tspan>
            <tspan x="43.48" y="0">vice name</tspan>
        </text>
        <rect class="cls-9" width="1920" height="80"/>
        <text class="cls-10" transform="translate(1716.5 45.04)">Username</text>
        <path class="cls-5"
              d="M1868.79,29.07h-2.43V41.21h2.43V29.07Zm5.86,2.63-1.72,1.72a8.4,8.4,0,0,1,3.14,6.57,8.5,8.5,0,1,1-13.87-6.58l-1.71-1.71A10.93,10.93,0,1,0,1874.65,31.71Z"/>
        <rect class="cls-6" x="501" width="150" height="80"/>
        <text class="cls-11" transform="translate(321.17 48.55)">Organizations</text>
        <polygon class="cls-5" points="627.25 40.86 622.76 45.34 618.28 40.86 627.25 40.86"/>
        <text class="cls-12" transform="translate(525 48.7)">Services</text>
        <rect class="cls-1" x="663.61" y="136.61" width="148.55" height="8"/>
        <path class="cls-5"
              d="M184.84,37.82l-0.07-.13-0.2-.35-0.28-.48-4.66-8.08-0.55-1-0.28-.48-1.53-2.64a4.67,4.67,0,0,0-2.82-2.16l-0.12,0h0l-0.15,0a4.58,4.58,0,0,0-.91-0.09h-15a4.63,4.63,0,0,0-4,2.31l-7.5,13a4.64,4.64,0,0,0,0,4.62L154.68,56a3.18,3.18,0,0,0,5.93-1.59,3.16,3.16,0,0,0-.43-1.59l-5.58-9.67h22.33l-2.86,5-0.55,1-0.23.39-1.94,3.36a3.1,3.1,0,0,0-.33.82,3.17,3.17,0,0,0,.09,1.86h0v0a3.14,3.14,0,0,0,1.15,1.5l0.25,0.17h0a3.17,3.17,0,0,0,3.63-.37h0a3.24,3.24,0,0,0,.66-0.8l0.27-.48,7.12-12.33,0.28-.48,0.25-.42,0-.05A4.6,4.6,0,0,0,184.84,37.82Zm-30.24-1,4-6.89a2.38,2.38,0,0,1,2.06-1.19H170.9A2.38,2.38,0,0,1,173,29.93l0.36,0.63,0.22,0.39,0.55,1,2.84,4.92H154.61Z"/>
        <path class="cls-6"
              d="M201.41,37.69l-7.5-13a4.64,4.64,0,0,0-4-2.31h-15a4.83,4.83,0,0,0-.71.05l-0.17,0h0l-0.1,0a4.64,4.64,0,0,0-3,2.2l-1.49,2.57-0.28.48-0.55,1-4.66,8.08-0.28.48-0.25.43,0,0.05a4.63,4.63,0,0,0,0,4.44l0.07,0.12,0.2,0.35,0.28,0.48L171,55.56h0l0.05,0.09L171.31,56a3.15,3.15,0,0,0,.84,1l0.26,0.19h0a3.16,3.16,0,0,0,3.75-.37h0a3.16,3.16,0,0,0,.93-1.51,3.18,3.18,0,0,0,0-1.68,3.13,3.13,0,0,0-.31-0.76l-2-3.4-0.23-.39-0.55-1-2.86-5-0.55-1-0.26-.44,0,0-0.29-.51a2.39,2.39,0,0,1,0-2.37l0.32-.56,0,0,0.28-.48,0.55-1,2.84-4.92,0.55-1,0.23-.39,0.34-.59a2.38,2.38,0,0,1,2.06-1.19h10.26a2.38,2.38,0,0,1,2.06,1.19l4,6.89H184.3l0.28,0.48,0.2,0.35,0.07,0.13a4.6,4.6,0,0,1,0,4.44l0,0.05-0.25.42-0.28.48h9.31L188,52.84A3.18,3.18,0,0,0,193.49,56l7.92-13.71A4.64,4.64,0,0,0,201.41,37.69Z"/>
        <path class="cls-5"
              d="M75.44,22.37A3.42,3.42,0,0,0,72.27,26V36.38H55.33V26A3.2,3.2,0,1,0,49,26V54a3.2,3.2,0,1,0,6.34,0V43.62H72.27V54a3.2,3.2,0,1,0,6.34,0V26A3.42,3.42,0,0,0,75.44,22.37Zm1.41,1.57a2,2,0,0,0-1.41-.61,2,2,0,0,0-1.25.47,2,2,0,0,1,1.25-.47A2,2,0,0,1,76.85,23.93Zm-24.69-.61a2,2,0,0,1,1.41.61,1.93,1.93,0,0,0-2.82,0A2,2,0,0,1,52.16,23.32Z"/>
        <path class="cls-5"
              d="M109.53,43.62A3.42,3.42,0,0,0,112.7,40a3.42,3.42,0,0,0-3.17-3.62H89.42V29.61h20.11A3.42,3.42,0,0,0,112.7,26a3.42,3.42,0,0,0-3.17-3.62H86.25A3.42,3.42,0,0,0,83.08,26V54a3.42,3.42,0,0,0,3.17,3.62h23.28a3.65,3.65,0,0,0,0-7.25H89.42V43.62h20.11ZM111.74,26h0a3.17,3.17,0,0,1-.1.79A3.17,3.17,0,0,0,111.74,26Z"/>
        <path class="cls-5"
              d="M136.35,40l9.56-11.51a4,4,0,0,0,0-5,2.92,2.92,0,0,0-4.6,0L132,34.73l-9.34-11.24a2.92,2.92,0,0,0-4.6,0,4,4,0,0,0,0,5L127.6,40,118,51.51a4,4,0,0,0,0,5,2.92,2.92,0,0,0,4.6,0L132,45.27l9.34,11.24a2.92,2.92,0,0,0,4.6,0,4,4,0,0,0,0-5Z"/>
        <text class="cls-10" transform="translate(395.04 117.15)">Properties</text>
        <text class="cls-10" transform="translate(546.26 117.15)">Managers</text>
        <text class="cls-10" transform="translate(842.17 117.15)">P
            <tspan x="10.42" y="0">ermissions</tspan>
        </text>
        <text class="cls-10" transform="translate(693.43 117.15)">A
            <tspan x="12.13" y="0">ttributes</tspan>
        </text>
        <text class="cls-10" transform="translate(1008.82 117.15)">P
            <tspan x="10.42" y="0">ermission sets</tspan>
        </text>
        <text class="cls-10" transform="translate(1209 117.15)">Connected organizations</text>
    </g>
</svg>