<svg id="service6" xmlns="http://www.w3.org/2000/svg" viewBox="0 0 1920 1080"><defs><style>.cls-1,.cls-10,.cls-12,.cls-16,.cls-9{fill:#61afc5;}.cls-11,.cls-13,.cls-18,.cls-2,.cls-3,.cls-5,.cls-6,.cls-7{fill:#fff;}.cls-3{font-size:32px;}.cls-10,.cls-11,.cls-12,.cls-14,.cls-16,.cls-18,.cls-3{font-family:Roboto Condensed;}.cls-10,.cls-11,.cls-12,.cls-14,.cls-16,.cls-3{font-weight:700;}.cls-4{fill:#333;}.cls-5{font-size:18px;}.cls-13,.cls-5,.cls-6,.cls-7,.cls-9{font-family:Verdana;}.cls-12,.cls-6{font-size:19px;}.cls-7{font-size:20px;}.cls-14,.cls-8{fill:#ea7e73;}.cls-13,.cls-14,.cls-16,.cls-9{font-size:15px;}.cls-13,.cls-9{font-style:italic;}.cls-10{font-size:25px;}.cls-11{font-size:17px;}.cls-15,.cls-17{fill:none;stroke-miterlimit:10;}.cls-15{stroke:#ea7e73;}.cls-17{stroke:#61afc5;}.cls-18{font-size:12px;}</style></defs><title>ui</title><g id="content-11" data-name="content"><path class="cls-1" d="M872,181v35H531V181H872m1-1H530v37H873V180h0Z"/><rect class="cls-1" x="873" y="180.01" width="37" height="37"/><path class="cls-2" d="M895.91,201.15H895l-0.33-.32a7.64,7.64,0,1,0-.82.82l0.32,0.33v0.93l5.87,5.85,1.75-1.75Zm-7,0a5.28,5.28,0,1,1,5.28-5.28A5.27,5.27,0,0,1,888.87,201.15Z"/></g><rect class="cls-1" y="79.61" width="1920" height="65"/><text class="cls-3" transform="translate(46.08 123.04)">Se<tspan x="32.59" y="0">r</tspan><tspan x="43.48" y="0">vice name</tspan></text><rect class="cls-4" width="1920" height="80"/><text class="cls-5" transform="translate(1716.5 45.04)">Username</text><path class="cls-2" d="M1868.79,29.07h-2.43V41.21h2.43V29.07Zm5.86,2.63-1.72,1.72a8.4,8.4,0,0,1,3.14,6.57,8.5,8.5,0,1,1-13.87-6.58l-1.71-1.71A10.93,10.93,0,1,0,1874.65,31.71Z"/><rect class="cls-1" x="501" width="150" height="80"/><text class="cls-6" transform="translate(321.17 48.55)">Organizations</text><polygon class="cls-2" points="627.25 40.86 622.76 45.34 618.28 40.86 627.25 40.86"/><text class="cls-7" transform="translate(525 48.7)">Services</text><rect class="cls-8" x="1179" y="136.61" width="282.69" height="8"/><path class="cls-2" d="M184.84,37.82l-0.07-.13-0.2-.35-0.28-.48-4.66-8.08-0.55-1-0.28-.48-1.53-2.64a4.67,4.67,0,0,0-2.82-2.16l-0.12,0h0l-0.15,0a4.58,4.58,0,0,0-.91-0.09h-15a4.63,4.63,0,0,0-4,2.31l-7.5,13a4.64,4.64,0,0,0,0,4.62L154.68,56a3.18,3.18,0,0,0,5.93-1.59,3.16,3.16,0,0,0-.43-1.59l-5.58-9.67h22.33l-2.86,5-0.55,1-0.23.39-1.94,3.36a3.1,3.1,0,0,0-.33.82,3.17,3.17,0,0,0,.09,1.86h0v0a3.14,3.14,0,0,0,1.15,1.5l0.25,0.17h0a3.17,3.17,0,0,0,3.63-.37h0a3.24,3.24,0,0,0,.66-0.8l0.27-.48,7.12-12.33,0.28-.48,0.25-.42,0-.05A4.6,4.6,0,0,0,184.84,37.82Zm-30.24-1,4-6.89a2.38,2.38,0,0,1,2.06-1.19H170.9A2.38,2.38,0,0,1,173,29.93l0.36,0.63,0.22,0.39,0.55,1,2.84,4.92H154.61Z"/><path class="cls-1" d="M201.41,37.69l-7.5-13a4.64,4.64,0,0,0-4-2.31h-15a4.83,4.83,0,0,0-.71.05l-0.17,0h0l-0.1,0a4.64,4.64,0,0,0-3,2.2l-1.49,2.57-0.28.48-0.55,1-4.66,8.08-0.28.48-0.25.43,0,0.05a4.63,4.63,0,0,0,0,4.44l0.07,0.12,0.2,0.35,0.28,0.48L171,55.56h0l0.05,0.09L171.31,56a3.15,3.15,0,0,0,.84,1l0.26,0.19h0a3.16,3.16,0,0,0,3.75-.37h0a3.16,3.16,0,0,0,.93-1.51,3.18,3.18,0,0,0,0-1.68,3.13,3.13,0,0,0-.31-0.76l-2-3.4-0.23-.39-0.55-1-2.86-5-0.55-1-0.26-.44,0,0-0.29-.51a2.39,2.39,0,0,1,0-2.37l0.32-.56,0,0,0.28-.48,0.55-1,2.84-4.92,0.55-1,0.23-.39,0.34-.59a2.38,2.38,0,0,1,2.06-1.19h10.26a2.38,2.38,0,0,1,2.06,1.19l4,6.89H184.3l0.28,0.48,0.2,0.35,0.07,0.13a4.6,4.6,0,0,1,0,4.44l0,0.05-0.25.42-0.28.48h9.31L188,52.84A3.18,3.18,0,0,0,193.49,56l7.92-13.71A4.64,4.64,0,0,0,201.41,37.69Z"/><path class="cls-2" d="M75.44,22.37A3.42,3.42,0,0,0,72.27,26V36.38H55.33V26A3.2,3.2,0,1,0,49,26V54a3.2,3.2,0,1,0,6.34,0V43.62H72.27V54a3.2,3.2,0,1,0,6.34,0V26A3.42,3.42,0,0,0,75.44,22.37Zm1.41,1.57a2,2,0,0,0-1.41-.61,2,2,0,0,0-1.25.47,2,2,0,0,1,1.25-.47A2,2,0,0,1,76.85,23.93Zm-24.69-.61a2,2,0,0,1,1.41.61,1.93,1.93,0,0,0-2.82,0A2,2,0,0,1,52.16,23.32Z"/><path class="cls-2" d="M109.53,43.62A3.42,3.42,0,0,0,112.7,40a3.42,3.42,0,0,0-3.17-3.62H89.42V29.61h20.11A3.42,3.42,0,0,0,112.7,26a3.42,3.42,0,0,0-3.17-3.62H86.25A3.42,3.42,0,0,0,83.08,26V54a3.42,3.42,0,0,0,3.17,3.62h23.28a3.65,3.65,0,0,0,0-7.25H89.42V43.62h20.11ZM111.74,26h0a3.17,3.17,0,0,1-.1.79A3.17,3.17,0,0,0,111.74,26Z"/><path class="cls-2" d="M136.35,40l9.56-11.51a4,4,0,0,0,0-5,2.92,2.92,0,0,0-4.6,0L132,34.73l-9.34-11.24a2.92,2.92,0,0,0-4.6,0,4,4,0,0,0,0,5L127.6,40,118,51.51a4,4,0,0,0,0,5,2.92,2.92,0,0,0,4.6,0L132,45.27l9.34,11.24a2.92,2.92,0,0,0,4.6,0,4,4,0,0,0,0-5Z"/><text class="cls-5" transform="translate(395.04 117.15)">Properties</text><text class="cls-5" transform="translate(546.26 117.15)">Managers</text><text class="cls-5" transform="translate(842.17 117.15)">P<tspan x="10.42" y="0">ermissions</tspan></text><text class="cls-5" transform="translate(693.43 117.15)">A<tspan x="12.13" y="0">ttributes</tspan></text><text class="cls-5" transform="translate(1008.82 117.15)">P<tspan x="10.42" y="0">ermission sets</tspan></text><text class="cls-5" transform="translate(1209 117.15)">Connected organizations</text><g id="component"><text class="cls-9" transform="translate(546.36 202.2)">Organization, Permission set</text><text class="cls-10" transform="translate(530 267.69)">Connected o<tspan x="125" y="0">r</tspan><tspan x="133.06" y="0">ganizations</tspan></text><rect class="cls-1" x="530" y="677.35" width="860" height="40"/><text class="cls-11" transform="translate(561.04 702.32)">o<tspan x="8.46" y="0">r</tspan><tspan x="13.94" y="0">ganization name4</tspan></text><polygon class="cls-2" points="1365.31 695.65 1357.77 703.19 1350.23 695.65 1365.31 695.65"/><rect class="cls-1" x="530" y="737.93" width="860" height="40"/><text class="cls-11" transform="translate(561.04 762.9)">o<tspan x="8.46" y="0">r</tspan><tspan x="13.94" y="0">ganization name5</tspan></text><polygon class="cls-2" points="1365.31 756.23 1357.77 763.77 1350.23 756.23 1365.31 756.23"/><rect class="cls-1" x="530" y="787.93" width="860" height="40"/><text class="cls-11" transform="translate(561.04 812.9)">o<tspan x="8.46" y="0">r</tspan><tspan x="13.94" y="0">ganiza</tspan><tspan x="58.84" y="0">t</tspan><tspan x="63.81" y="0">on name7</tspan></text><polygon class="cls-2" points="1365.31 806.23 1357.77 813.77 1350.23 806.23 1365.31 806.23"/><rect class="cls-1" x="530" y="837.93" width="860" height="40"/><text class="cls-11" transform="translate(561.04 862.9)">o<tspan x="8.46" y="0">r</tspan><tspan x="13.94" y="0">ganization name8</tspan></text><polygon class="cls-2" points="1365.31 856.23 1357.77 863.77 1350.23 856.23 1365.31 856.23"/><rect class="cls-8" x="530" y="288.69" width="860" height="40"/><text class="cls-11" transform="translate(561.04 313.66)">ebben a s<tspan x="65.03" y="0">z</tspan><tspan x="72.59" y="0">e</tspan><tspan x="80.73" y="0">r</tspan><tspan x="86.51" y="0">v</tspan><tspan x="94.04" y="0">e</tspan><tspan x="102.17" y="0">z</tspan><tspan x="109.74" y="0">etben elfogadás</tspan><tspan x="219.07" y="0">r</tspan><tspan x="224.46" y="0">a </tspan><tspan x="236.38" y="0">v</tspan><tspan x="243.89" y="0">ár egy set, e</tspan><tspan x="326.94" y="0">z</tspan><tspan x="334.5" y="0">é</tspan><tspan x="342.64" y="0">r</tspan><tspan x="348.69" y="0">t a legelején </tspan><tspan x="435.87" y="0">v</tspan><tspan x="443.38" y="0">an</tspan></text><polygon class="cls-2" points="1365.37 304.89 1357.77 312.49 1350.18 304.89 1365.37 304.89"/><rect class="cls-8" x="530" y="388.69" width="860" height="40"/><text class="cls-11" transform="translate(561.04 413.66)">o<tspan x="8.46" y="0">r</tspan><tspan x="13.94" y="0">ganization name3</tspan></text><polygon class="cls-2" points="1365.31 412.46 1357.77 404.92 1350.23 412.46 1365.31 412.46"/><path class="cls-1" d="M1389,428V666.35H531V428h858m1-1H530V667.35h860V427h0Z"/><text class="cls-12" transform="translate(561.04 462.31)">P<tspan x="10.69" y="0">ermission sets</tspan></text><text class="cls-13" transform="translate(766.58 413.66)">Service manager</text><text class="cls-13" transform="translate(922.39 413.66)">Kis Lajos (kislajos@valami.hu)</text><text class="cls-14" transform="translate(579.44 507.16) scale(1.04 1)">permissionset1</text><rect class="cls-15" x="561" y="486.46" width="798" height="33"/><path class="cls-8" d="M1331,510a2,2,0,0,0,2,2h8a2,2,0,0,0,2-2V498h-12v12Zm13-15h-3.5l-1-1h-5l-1,1H1330v2h14v-2Z"/><text class="cls-14" transform="translate(579.44 550.16) scale(1.04 1)">permissionset2</text><rect class="cls-15" x="561" y="529.46" width="798" height="33"/><text class="cls-16" transform="translate(579.44 636.16) scale(1.04 1)">permissionset2</text><rect class="cls-17" x="561" y="615.46" width="798" height="33"/><text class="cls-16" transform="translate(579.44 593.16) scale(1.04 1)">permissionset2</text><rect class="cls-17" x="561" y="572.46" width="798" height="33"/><path class="cls-8" d="M1331,553a2,2,0,0,0,2,2h8a2,2,0,0,0,2-2V541h-12v12Zm13-15h-3.5l-1-1h-5l-1,1H1330v2h14v-2Z"/><path class="cls-8" d="M1331,596a2,2,0,0,0,2,2h8a2,2,0,0,0,2-2V584h-12v12Zm13-15h-3.5l-1-1h-5l-1,1H1330v2h14v-2Z"/><path class="cls-8" d="M1331,639a2,2,0,0,0,2,2h8a2,2,0,0,0,2-2V627h-12v12Zm13-15h-3.5l-1-1h-5l-1,1H1330v2h14v-2Z"/><rect class="cls-8" x="1250" y="494.29" width="60" height="18"/><text class="cls-18" transform="translate(1263.46 507.06)">Accept</text><rect class="cls-8" x="1250" y="536.96" width="60" height="18"/><text class="cls-18" transform="translate(1263.46 549.72)">Accept</text><rect class="cls-8" x="530" y="338.69" width="860" height="40"/><text class="cls-11" transform="translate(561.04 363.66)">ebben is</text><polygon class="cls-2" points="1365.37 354.89 1357.77 362.49 1350.18 354.89 1365.37 354.89"/></g></svg>