<svg id="admin2" xmlns="http://www.w3.org/2000/svg" viewBox="0 0 1920 1080"><defs><style>.cls-1{fill:#ba334d;}.cls-10,.cls-11,.cls-2{fill:#333;}.cls-3{font-size:18px;}.cls-12,.cls-13,.cls-14,.cls-3,.cls-4,.cls-5,.cls-6{fill:#fff;}.cls-10,.cls-11,.cls-12,.cls-13,.cls-3,.cls-5,.cls-6{font-family:Verdana;}.cls-5{font-size:19px;}.cls-6{font-size:20px;}.cls-7,.cls-9{fill:#8299ce;}.cls-8{fill:#61afc5;}.cls-9{font-size:22px;}.cls-14,.cls-9{font-family:Roboto Condensed;}.cls-11,.cls-13,.cls-9{font-weight:700;}.cls-10,.cls-11,.cls-12,.cls-13{font-size:15px;}.cls-14{font-size:13.63px;}</style></defs><title>ui</title><rect class="cls-1" y="79.61" width="1920" height="65"/><rect class="cls-2" width="1920" height="80"/><text class="cls-3" transform="translate(1683.26 45.04)">Username</text><path class="cls-4" d="M1868.79,29.07h-2.43V41.21h2.43V29.07Zm5.86,2.63-1.72,1.72a8.4,8.4,0,0,1,3.14,6.57,8.5,8.5,0,1,1-13.87-6.58l-1.71-1.71A10.93,10.93,0,1,0,1874.65,31.71Z"/><rect class="cls-1" x="669.88" width="125" height="80"/><text class="cls-5" transform="translate(321.17 48.55)">Organizations</text><polygon class="cls-4" points="627.51 40.86 623.03 45.34 618.55 40.86 627.51 40.86"/><text class="cls-6" transform="translate(525.26 48.7)">Services</text><rect class="cls-7" x="514.13" y="136.61" width="145.53" height="8"/><path class="cls-4" d="M184.84,37.82l-0.07-.13-0.2-.35-0.28-.48-4.66-8.08-0.55-1-0.28-.48-1.53-2.64a4.67,4.67,0,0,0-2.82-2.16l-0.12,0h0l-0.15,0a4.58,4.58,0,0,0-.91-0.09h-15a4.63,4.63,0,0,0-4,2.31l-7.5,13a4.64,4.64,0,0,0,0,4.62L154.68,56a3.18,3.18,0,0,0,5.93-1.59,3.16,3.16,0,0,0-.43-1.59l-5.58-9.67h22.33l-2.86,5-0.55,1-0.23.39-1.94,3.36a3.1,3.1,0,0,0-.33.82,3.17,3.17,0,0,0,.09,1.86h0v0a3.14,3.14,0,0,0,1.15,1.5l0.25,0.17h0a3.17,3.17,0,0,0,3.63-.37h0a3.24,3.24,0,0,0,.66-0.8l0.27-.48,7.12-12.33,0.28-.48,0.25-.42,0-.05A4.6,4.6,0,0,0,184.84,37.82Zm-30.24-1,4-6.89a2.38,2.38,0,0,1,2.06-1.19H170.9A2.38,2.38,0,0,1,173,29.93l0.36,0.63,0.22,0.39,0.55,1,2.84,4.92H154.61Z"/><path class="cls-8" d="M201.41,37.69l-7.5-13a4.64,4.64,0,0,0-4-2.31h-15a4.83,4.83,0,0,0-.71.05l-0.17,0h0l-0.1,0a4.64,4.64,0,0,0-3,2.2l-1.49,2.57-0.28.48-0.55,1-4.66,8.08-0.28.48-0.25.43,0,0.05a4.63,4.63,0,0,0,0,4.44l0.07,0.12,0.2,0.35,0.28,0.48L171,55.56h0l0.05,0.09L171.31,56a3.15,3.15,0,0,0,.84,1l0.26,0.19h0a3.16,3.16,0,0,0,3.75-.37h0a3.16,3.16,0,0,0,.93-1.51,3.18,3.18,0,0,0,0-1.68,3.13,3.13,0,0,0-.31-0.76l-2-3.4-0.23-.39-0.55-1-2.86-5-0.55-1-0.26-.44,0,0-0.29-.51a2.39,2.39,0,0,1,0-2.37l0.32-.56,0,0,0.28-.48,0.55-1,2.84-4.92,0.55-1,0.23-.39,0.34-.59a2.38,2.38,0,0,1,2.06-1.19h10.26a2.38,2.38,0,0,1,2.06,1.19l4,6.89H184.3l0.28,0.48,0.2,0.35,0.07,0.13a4.6,4.6,0,0,1,0,4.44l0,0.05-0.25.42-0.28.48h9.31L188,52.84A3.18,3.18,0,0,0,193.49,56l7.92-13.71A4.64,4.64,0,0,0,201.41,37.69Z"/><path class="cls-4" d="M75.44,22.37A3.42,3.42,0,0,0,72.27,26V36.38H55.33V26A3.2,3.2,0,1,0,49,26V54a3.2,3.2,0,1,0,6.34,0V43.62H72.27V54a3.2,3.2,0,1,0,6.34,0V26A3.42,3.42,0,0,0,75.44,22.37Zm1.41,1.57a2,2,0,0,0-1.41-.61,2,2,0,0,0-1.25.47,2,2,0,0,1,1.25-.47A2,2,0,0,1,76.85,23.93Zm-24.69-.61a2,2,0,0,1,1.41.61,1.93,1.93,0,0,0-2.82,0A2,2,0,0,1,52.16,23.32Z"/><path class="cls-4" d="M109.53,43.62A3.42,3.42,0,0,0,112.7,40a3.42,3.42,0,0,0-3.17-3.62H89.42V29.61h20.11A3.42,3.42,0,0,0,112.7,26a3.42,3.42,0,0,0-3.17-3.62H86.25A3.42,3.42,0,0,0,83.08,26V54a3.42,3.42,0,0,0,3.17,3.62h23.28a3.65,3.65,0,0,0,0-7.25H89.42V43.62h20.11ZM111.74,26h0a3.17,3.17,0,0,1-.1.79A3.17,3.17,0,0,0,111.74,26Z"/><path class="cls-4" d="M136.35,40l9.56-11.51a4,4,0,0,0,0-5,2.92,2.92,0,0,0-4.6,0L132,34.73l-9.34-11.24a2.92,2.92,0,0,0-4.6,0,4,4,0,0,0,0,5L127.6,40,118,51.51a4,4,0,0,0,0,5,2.92,2.92,0,0,0,4.6,0L132,45.27l9.34,11.24a2.92,2.92,0,0,0,4.6,0,4,4,0,0,0,0-5Z"/><path class="cls-4" d="M1815.65,32.5a11.83,11.83,0,0,0-11,7.5,11.82,11.82,0,0,0,22,0A11.83,11.83,0,0,0,1815.65,32.5Zm0,12.5a5,5,0,1,1,5-5A5,5,0,0,1,1815.65,45Zm0-8a3,3,0,1,0,3,3A3,3,0,0,0,1815.65,37Z"/><text class="cls-6" transform="translate(700.51 48.7)">Admin</text><text class="cls-3" transform="translate(395.39 117.15)">A<tspan x="12.13" y="0">ttributes</tspan></text><text class="cls-3" transform="translate(544.13 117.15)">Principals</text><text class="cls-3" transform="translate(689.65 117.15)">Enti<tspan x="34.8" y="0">t</tspan><tspan x="41.81" y="0">y IDs</tspan></text><text class="cls-3" transform="translate(839.27 117.15)">Securi<tspan x="56.42" y="0">t</tspan><tspan x="63.42" y="0">y domains</tspan></text><text class="cls-3" transform="translate(1055.83 117.15)">Contact</text><g id="content-12" data-name="content"><text class="cls-9" transform="translate(530 304.13)">Principals</text><rect class="cls-4" x="520.5" y="323.93" width="879" height="39"/><path class="cls-7" d="M1399,324.43v38H521v-38h878m1-1H520v40h880v-40h0Z"/><rect class="cls-4" x="547.46" y="333.39" width="20.09" height="20.09"/><path class="cls-7" d="M567,333.89V353H548V333.89H567m1-1H547V354H568V332.89h0Z"/><text class="cls-10" transform="translate(851.74 349.18)">almastamas@example.com</text><text class="cls-11" transform="translate(610 349.18)">Almás Tamás</text><rect class="cls-4" x="520.5" y="401.93" width="879" height="39"/><path class="cls-7" d="M1399,402.43v38H521v-38h878m1-1H520v40h880v-40h0Z"/><rect class="cls-4" x="547.46" y="411.23" width="20.09" height="20.09"/><path class="cls-7" d="M567,411.73v19.09H548V411.73H567m1-1H547v21.09H568V410.73h0Z"/><text class="cls-10" transform="translate(851.74 427.18)">nagytamas@example.com</text><text class="cls-11" transform="translate(610 427.18)">Nagy Tamás</text><rect class="cls-4" x="520.5" y="440.93" width="879" height="39"/><path class="cls-7" d="M1399,441.43v38H521v-38h878m1-1H520v40h880v-40h0Z"/><rect class="cls-4" x="547.46" y="450.15" width="20.09" height="20.09"/><path class="cls-7" d="M567,450.65v19.09H548V450.65H567m1-1H547v21.09H568V449.65h0Z"/><text class="cls-10" transform="translate(851.74 466.18)">szabotamas@example.com</text><text class="cls-11" transform="translate(610 466.18)">Szabó Tamás</text><rect class="cls-4" x="520.5" y="479.93" width="879" height="39"/><path class="cls-7" d="M1399,480.43v38H521v-38h878m1-1H520v40h880v-40h0Z"/><rect class="cls-4" x="547.46" y="489.07" width="20.09" height="20.09"/><path class="cls-7" d="M567,489.57v19.09H548V489.57H567m1-1H547v21.09H568V488.57h0Z"/><text class="cls-10" transform="translate(851.74 505.18)">szucstamas@example.com</text><text class="cls-11" transform="translate(610 505.18)">Szűcs Tamás</text><rect class="cls-4" x="520.5" y="518.93" width="879" height="39"/><path class="cls-7" d="M1399,519.43v38H521v-38h878m1-1H520v40h880v-40h0Z"/><rect class="cls-4" x="547.46" y="527.99" width="20.09" height="20.09"/><path class="cls-7" d="M567,528.49v19.09H548V528.49H567m1-1H547v21.09H568V527.49h0Z"/><text class="cls-11" transform="translate(610 544.18)">Vas Tamás</text><text class="cls-10" transform="translate(851.74 544.18)">v<tspan x="8.58" y="0">astamas@example.com</tspan></text><rect class="cls-7" x="520" y="362.43" width="880" height="40"/><rect class="cls-4" x="547.46" y="372.31" width="20.09" height="20.09"/><path class="cls-4" d="M567,372.81V391.9H548V372.81H567m1-1H547V392.9H568V371.81h0Z"/><polygon class="cls-7" points="566.73 377.57 555.9 388.4 548.28 380.79 549.56 379.51 555.9 385.85 565.45 376.3 566.73 377.57"/><text class="cls-12" transform="translate(851.74 388.18)">kistamas@example.com</text><text class="cls-13" transform="translate(610 388.18)">Kis Tamás</text><path class="cls-4" d="M1367.59,388.21v4.13h4.13l12.18-12.18-4.13-4.13ZM1387.09,377a1.1,1.1,0,0,0,0-1.55l-2.58-2.58a1.1,1.1,0,0,0-1.55,0l-2,2,4.13,4.13Z"/><rect class="cls-7" x="530" y="223.44" width="60" height="36"/><rect class="cls-4" x="549.46" y="231.18" width="21.09" height="20.52"/><rect class="cls-7" x="1010" y="224.42" width="70" height="36"/><text class="cls-14" transform="translate(1023.05 246.4) scale(1.03 1)">Rem<tspan x="23.87" y="0">o</tspan><tspan x="30.61" y="0">v</tspan><tspan x="36.35" y="0">e</tspan></text><rect class="cls-4" x="610.5" y="224.94" width="342" height="35"/><path class="cls-7" d="M952,225.44v34H611v-34H952m1-1H610v36H953v-36h0Z"/><rect class="cls-7" x="953" y="224.46" width="37" height="35.97"/><path class="cls-4" d="M975.91,245H975l-0.33-.31a7.27,7.27,0,0,0,1.84-4.83,7.63,7.63,0,1,0-7.63,7.42,7.72,7.72,0,0,0,5-1.79l0.32,0.32v0.9l5.87,5.69,1.75-1.7Zm-7,0a5.14,5.14,0,1,1,5.28-5.13A5.2,5.2,0,0,1,968.87,245Z"/></g></svg>