<svg id="admin3" xmlns="http://www.w3.org/2000/svg" viewBox="0 0 1920 1080">
    <defs>
        <style>
            .cls-1,.cls-14{fill:#ba334d;}.cls-2{fill:#333;}.cls-3{font-size:18px;}.cls-10,.cls-3,.cls-4,.cls-5,.cls-6,.cls-9{fill:#fff;}.cls-15,.cls-16,.cls-3,.cls-5,.cls-6{font-family:Verdana;}.cls-5{font-size:19px;}.cls-6{font-size:20px;}.cls-11,.cls-15,.cls-7{fill:#8299ce;}.cls-8{fill:#61afc5;}.cls-9{font-size:25px;}.cls-11,.cls-14,.cls-9{font-family:Roboto
            Condensed;font-weight:700;}.cls-10{stroke:#8299ce;stroke-miterlimit:10;}.cls-11,.cls-14{font-size:17px;}.cls-12{letter-spacing:-2px;}.cls-13{letter-spacing:-1px;}.cls-15,.cls-16{font-size:15px;}.cls-16{fill:#231f20;}
        </style>
    </defs>
    <title>ui</title>
    <rect class="cls-1" y="79.61" width="1920" height="65"/>
    <rect class="cls-2" width="1920" height="80"/>
    <text class="cls-3" transform="translate(1683.26 45.04)">Username</text>
    <path class="cls-4"
          d="M1868.79,29.07h-2.43V41.21h2.43V29.07Zm5.86,2.63-1.72,1.72a8.4,8.4,0,0,1,3.14,6.57,8.5,8.5,0,1,1-13.87-6.58l-1.71-1.71A10.93,10.93,0,1,0,1874.65,31.71Z"/>
    <rect class="cls-1" x="669.88" width="125" height="80"/>
    <text class="cls-5" transform="translate(321.17 48.55)">Organizations</text>
    <polygon class="cls-4" points="627.51 40.86 623.03 45.34 618.55 40.86 627.51 40.86"/>
    <text class="cls-6" transform="translate(525.26 48.7)">Services</text>
    <rect class="cls-7" x="659.67" y="136.61" width="149.58" height="8"/>
    <path class="cls-4"
          d="M184.84,37.82l-0.07-.13-0.2-.35-0.28-.48-4.66-8.08-0.55-1-0.28-.48-1.53-2.64a4.67,4.67,0,0,0-2.82-2.16l-0.12,0h0l-0.15,0a4.58,4.58,0,0,0-.91-0.09h-15a4.63,4.63,0,0,0-4,2.31l-7.5,13a4.64,4.64,0,0,0,0,4.62L154.68,56a3.18,3.18,0,0,0,5.93-1.59,3.16,3.16,0,0,0-.43-1.59l-5.58-9.67h22.33l-2.86,5-0.55,1-0.23.39-1.94,3.36a3.1,3.1,0,0,0-.33.82,3.17,3.17,0,0,0,.09,1.86h0v0a3.14,3.14,0,0,0,1.15,1.5l0.25,0.17h0a3.17,3.17,0,0,0,3.63-.37h0a3.24,3.24,0,0,0,.66-0.8l0.27-.48,7.12-12.33,0.28-.48,0.25-.42,0-.05A4.6,4.6,0,0,0,184.84,37.82Zm-30.24-1,4-6.89a2.38,2.38,0,0,1,2.06-1.19H170.9A2.38,2.38,0,0,1,173,29.93l0.36,0.63,0.22,0.39,0.55,1,2.84,4.92H154.61Z"/>
    <path class="cls-8"
          d="M201.41,37.69l-7.5-13a4.64,4.64,0,0,0-4-2.31h-15a4.83,4.83,0,0,0-.71.05l-0.17,0h0l-0.1,0a4.64,4.64,0,0,0-3,2.2l-1.49,2.57-0.28.48-0.55,1-4.66,8.08-0.28.48-0.25.43,0,0.05a4.63,4.63,0,0,0,0,4.44l0.07,0.12,0.2,0.35,0.28,0.48L171,55.56h0l0.05,0.09L171.31,56a3.15,3.15,0,0,0,.84,1l0.26,0.19h0a3.16,3.16,0,0,0,3.75-.37h0a3.16,3.16,0,0,0,.93-1.51,3.18,3.18,0,0,0,0-1.68,3.13,3.13,0,0,0-.31-0.76l-2-3.4-0.23-.39-0.55-1-2.86-5-0.55-1-0.26-.44,0,0-0.29-.51a2.39,2.39,0,0,1,0-2.37l0.32-.56,0,0,0.28-.48,0.55-1,2.84-4.92,0.55-1,0.23-.39,0.34-.59a2.38,2.38,0,0,1,2.06-1.19h10.26a2.38,2.38,0,0,1,2.06,1.19l4,6.89H184.3l0.28,0.48,0.2,0.35,0.07,0.13a4.6,4.6,0,0,1,0,4.44l0,0.05-0.25.42-0.28.48h9.31L188,52.84A3.18,3.18,0,0,0,193.49,56l7.92-13.71A4.64,4.64,0,0,0,201.41,37.69Z"/>
    <path class="cls-4"
          d="M75.44,22.37A3.42,3.42,0,0,0,72.27,26V36.38H55.33V26A3.2,3.2,0,1,0,49,26V54a3.2,3.2,0,1,0,6.34,0V43.62H72.27V54a3.2,3.2,0,1,0,6.34,0V26A3.42,3.42,0,0,0,75.44,22.37Zm1.41,1.57a2,2,0,0,0-1.41-.61,2,2,0,0,0-1.25.47,2,2,0,0,1,1.25-.47A2,2,0,0,1,76.85,23.93Zm-24.69-.61a2,2,0,0,1,1.41.61,1.93,1.93,0,0,0-2.82,0A2,2,0,0,1,52.16,23.32Z"/>
    <path class="cls-4"
          d="M109.53,43.62A3.42,3.42,0,0,0,112.7,40a3.42,3.42,0,0,0-3.17-3.62H89.42V29.61h20.11A3.42,3.42,0,0,0,112.7,26a3.42,3.42,0,0,0-3.17-3.62H86.25A3.42,3.42,0,0,0,83.08,26V54a3.42,3.42,0,0,0,3.17,3.62h23.28a3.65,3.65,0,0,0,0-7.25H89.42V43.62h20.11ZM111.74,26h0a3.17,3.17,0,0,1-.1.79A3.17,3.17,0,0,0,111.74,26Z"/>
    <path class="cls-4"
          d="M136.35,40l9.56-11.51a4,4,0,0,0,0-5,2.92,2.92,0,0,0-4.6,0L132,34.73l-9.34-11.24a2.92,2.92,0,0,0-4.6,0,4,4,0,0,0,0,5L127.6,40,118,51.51a4,4,0,0,0,0,5,2.92,2.92,0,0,0,4.6,0L132,45.27l9.34,11.24a2.92,2.92,0,0,0,4.6,0,4,4,0,0,0,0-5Z"/>
    <path class="cls-4"
          d="M1815.65,32.5a11.83,11.83,0,0,0-11,7.5,11.82,11.82,0,0,0,22,0A11.83,11.83,0,0,0,1815.65,32.5Zm0,12.5a5,5,0,1,1,5-5A5,5,0,0,1,1815.65,45Zm0-8a3,3,0,1,0,3,3A3,3,0,0,0,1815.65,37Z"/>
    <text class="cls-6" transform="translate(700.51 48.7)">Admin</text>
    <text class="cls-3" transform="translate(395.39 117.15)">A
        <tspan x="12.13" y="0">ttributes</tspan>
    </text>
    <text class="cls-3" transform="translate(544.13 117.15)">Principals</text>
    <text class="cls-3" transform="translate(689.65 117.15)">Enti
        <tspan x="34.8" y="0">t</tspan>
        <tspan x="41.81" y="0">y IDs</tspan>
    </text>
    <text class="cls-3" transform="translate(839.27 117.15)">Securi
        <tspan x="56.42" y="0">t</tspan>
        <tspan x="63.42" y="0">y domains</tspan>
    </text>
    <text class="cls-3" transform="translate(1055.83 117.15)">Contact</text>
    <g id="content-13" data-name="content">
        <rect class="cls-7" x="530" y="276.27" width="860" height="724.27"/>
        <text class="cls-9" transform="translate(539.5 311.77)">Entity IDs</text>
        <rect class="cls-10" x="540.61" y="343.1" width="838.78" height="40"/>
        <text class="cls-11" transform="translate(561.04 368.07)">https:
            <tspan class="cls-12" x="39.61" y="0">/</tspan>
            <tspan x="43.18" y="0">/sp4.hexaa.eu/shibboleth</tspan>
        </text>
        <polygon class="cls-7" points="1365.37 359.3 1357.77 366.9 1350.18 359.3 1365.37 359.3"/>
        <rect class="cls-10" x="540.61" y="393.1" width="838.78" height="40"/>
        <text class="cls-11" transform="translate(561.04 418.07)">https:
            <tspan class="cls-12" x="39.61" y="0">/</tspan>
            <tspan x="43.18" y="0">/fa</tspan>
            <tspan x="62.38" y="0">k</tspan>
            <tspan x="70.35" y="0">e.tes</tspan>
            <tspan x="104.51" y="0">t</tspan>
            <tspan x="109.48" y="0">onl</tspan>
            <tspan class="cls-13" x="130.59" y="0">y</tspan>
            <tspan x="136.79" y="0">.hexaa.eu</tspan>
        </text>
        <polygon class="cls-7" points="1365.37 409.3 1357.77 416.9 1350.18 409.3 1365.37 409.3"/>
        <rect class="cls-10" x="540.61" y="698.79" width="838.78" height="40"/>
        <text class="cls-11" transform="translate(561.04 723.76)">entity4</text>
        <polygon class="cls-7" points="1365.31 715.02 1357.77 722.56 1350.23 715.02 1365.31 715.02"/>
        <rect class="cls-10" x="540.61" y="748.79" width="838.78" height="40"/>
        <text class="cls-11" transform="translate(561.04 773.76)">entity5</text>
        <polygon class="cls-7" points="1365.31 765.02 1357.77 772.56 1350.23 765.02 1365.31 765.02"/>
        <rect class="cls-10" x="540.61" y="798.79" width="838.78" height="40"/>
        <text class="cls-11" transform="translate(561.04 823.76)">entity6</text>
        <polygon class="cls-7" points="1365.31 815.02 1357.77 822.56 1350.23 815.02 1365.31 815.02"/>
        <rect class="cls-10" x="540.61" y="848.79" width="838.78" height="40"/>
        <text class="cls-11" transform="translate(561.04 873.76)">entity7</text>
        <polygon class="cls-7" points="1365.31 865.02 1357.77 872.56 1350.23 865.02 1365.31 865.02"/>
        <rect class="cls-10" x="540.61" y="898.79" width="838.78" height="40"/>
        <text class="cls-11" transform="translate(561.04 923.76)">entity8</text>
        <polygon class="cls-7" points="1365.31 915.02 1357.77 922.56 1350.23 915.02 1365.31 915.02"/>
        <rect class="cls-10" x="540.3" y="948.79" width="838.78" height="40"/>
        <text class="cls-11" transform="translate(561.04 973.76)">entity9</text>
        <polygon class="cls-7" points="1365.31 965.02 1357.77 972.56 1350.23 965.02 1365.31 965.02"/>
        <rect class="cls-4" x="530.5" y="190.77" width="342" height="36.03"/>
        <path class="cls-7" d="M872,191.27v35H531v-35H872m1-1H530v37H873v-37h0Z"/>
        <rect class="cls-7" x="872" y="189.79" width="38" height="38"/>
        <path class="cls-4"
              d="M895.53,211.51h-1l-0.34-.33a7.85,7.85,0,1,0-.84.84l0.33,0.34v1l6,6,1.8-1.8Zm-7.23,0a5.42,5.42,0,1,1,5.42-5.42A5.42,5.42,0,0,1,888.29,211.51Z"/>
        <rect class="cls-10" x="540.61" y="443.1" width="838.78" height="40"/>
        <text class="cls-14" transform="translate(561.04 468.07)">https:
            <tspan class="cls-12" x="39.61" y="0">/</tspan>
            <tspan x="43.18" y="0">/fa</tspan>
            <tspan x="62.38" y="0">k</tspan>
            <tspan x="70.35" y="0">e2.tes</tspan>
            <tspan x="113.11" y="0">t</tspan>
            <tspan x="118.08" y="0">onl</tspan>
            <tspan class="cls-13" x="139.19" y="0">y</tspan>
            <tspan x="145.39" y="0">.hexaa.eu</tspan>
        </text>
        <polygon class="cls-1" points="1365.31 466.87 1357.77 459.33 1350.23 466.87 1365.31 466.87"/>
        <rect class="cls-10" x="540.61" y="481.43" width="838.78" height="207.36"/>
        <text class="cls-15" transform="translate(561.04 519.59)">
            <tspan class="cls-13">T</tspan>
            <tspan x="7.78" y="0">ype</tspan>
        </text>
        <text class="cls-15" transform="translate(561.04 552.09)">Email</text>
        <text class="cls-16" transform="translate(770 519.59)">technical</text>
        <text class="cls-16" transform="translate(770 551.09)">solazs@sztaki.hu</text>
        <text class="cls-15" transform="translate(561.04 649.6)">Email</text>
        <text class="cls-15" transform="translate(561.04 617.1)">
            <tspan class="cls-13">T</tspan>
            <tspan x="7.78" y="0">ype</tspan>
        </text>
        <text class="cls-16" transform="translate(770 616.1)">administ
            <tspan x="64.39" y="0">r</tspan>
            <tspan x="70.53" y="0">ation</tspan>
        </text>
        <line class="cls-10" x1="1357.5" y1="579.88" x2="562.5" y2="579.21"/>
        <text class="cls-16" transform="translate(770 648.6)">admin@doma.in</text>
    </g>
</svg>