<svg id="login" xmlns="http://www.w3.org/2000/svg" xmlns:xlink="http://www.w3.org/1999/xlink" viewBox="0 0 1920 1080"><defs><style>.cls-1{fill:url(#linear-gradient);}.cls-2,.cls-4,.cls-7{fill:#fff;}.cls-3{fill:#f48887;}.cls-4,.cls-8{font-size:25px;font-family:Roboto Condensed;font-weight:700;}.cls-5{letter-spacing:-1px;}.cls-6{letter-spacing:-2px;}.cls-7{font-size:16px;font-family:Open Sans;}.cls-8{fill:#61afc5;}</style><linearGradient id="linear-gradient" x1="-17.43" y1="1027.97" x2="1928.16" y2="58.73" gradientUnits="userSpaceOnUse"><stop offset="0" stop-color="#a7cfc2"/><stop offset="0.52" stop-color="#71a4b7"/><stop offset="1" stop-color="#347aa8"/></linearGradient></defs><title>ui</title><rect class="cls-1" y="2.08" width="1920" height="1077.92"/><path class="cls-2" d="M1106.54,202.58a2.4,2.4,0,0,0-.17-0.32l-0.5-.87-0.69-1.18-11.52-20-1.36-2.36-0.69-1.18-3.77-6.53a11.52,11.52,0,0,0-7-5.33l-0.3-.08h0l-0.36-.08a11.32,11.32,0,0,0-2.25-.22h-37.05a11.44,11.44,0,0,0-9.89,5.7l-18.52,32.09a11.45,11.45,0,0,0,0,11.42L1032,247.55a7.85,7.85,0,0,0,14.65-3.92,7.79,7.79,0,0,0-1.06-3.92l-13.78-23.88H1087l-7.07,12.24-1.36,2.36-0.56,1-4.8,8.3a7.65,7.65,0,0,0-.8,2,7.82,7.82,0,0,0,.22,4.59h0l0,0a7.75,7.75,0,0,0,2.85,3.7l0.61,0.43h0.07a7.84,7.84,0,0,0,9-.91l0,0a8,8,0,0,0,1.63-2l0.68-1.18,17.58-30.45,0.69-1.18,0.61-1,0.07-.13A11.35,11.35,0,0,0,1106.54,202.58Zm-74.67-2.46,9.82-17a5.89,5.89,0,0,1,5.08-2.93h25.33a5.88,5.88,0,0,1,5.08,2.93l0.9,1.55,0.55,1L1080,188l7,12.15h-55.15Z"/><path class="cls-3" d="M1147.44,202.35l-18.52-32.09a11.46,11.46,0,0,0-9.89-5.7H1082a11.94,11.94,0,0,0-1.76.13l-0.43.08h0l-0.25.06a11.45,11.45,0,0,0-7.43,5.44l-3.67,6.36-0.69,1.18-1.36,2.36-11.52,20-0.69,1.18-0.61,1.06-0.06.13a11.43,11.43,0,0,0-.1,11l0.17,0.31,0.5,0.87,0.69,1.18,17.7,30.66h0l0.13,0.21,0.54,0.94a7.79,7.79,0,0,0,2.07,2.35l0.63,0.47h0.09a7.81,7.81,0,0,0,9.25-.91l0,0a7.81,7.81,0,0,0,2.28-3.72,7.84,7.84,0,0,0,0-4.15,7.72,7.72,0,0,0-.77-1.87l-4.85-8.41-0.56-1-1.36-2.36-7.06-12.24-1.36-2.36-0.63-1.09-0.07-.12-0.72-1.26a5.9,5.9,0,0,1,0-5.86l0.79-1.37,0-.08,0.69-1.2,1.36-2.36,7-12.15,1.36-2.36,0.56-1,0.84-1.46a5.87,5.87,0,0,1,5.08-2.94h25.33a5.89,5.89,0,0,1,5.08,2.94l9.83,17h-22.89l0.69,1.18,0.5,0.87a2.4,2.4,0,0,1,.17.32,11.35,11.35,0,0,1-.09,11l-0.07.13-0.61,1-0.69,1.18h23l-13.79,23.87a7.85,7.85,0,0,0,13.6,7.85l19.55-33.86A11.45,11.45,0,0,0,1147.44,202.35Z"/><path class="cls-2" d="M836.35,164.47c-4.32,0-7.83,4-7.83,8.95v25.66H786.7V173.42c0-4.93-3.51-8.95-7.83-8.95s-7.83,4-7.83,8.95v69.21c0,4.93,3.51,8.95,7.83,8.95s7.83-4,7.83-8.95V217h41.83v25.66c0,4.93,3.51,8.95,7.83,8.95s7.83-4,7.83-8.95V173.42C844.18,168.48,840.67,164.47,836.35,164.47Zm3.48,3.87a4.92,4.92,0,0,0-3.48-1.5,4.83,4.83,0,0,0-3.1,1.16,4.83,4.83,0,0,1,3.1-1.16A4.92,4.92,0,0,1,839.83,168.34Zm-61-1.5a4.92,4.92,0,0,1,3.48,1.5,4.78,4.78,0,0,0-7,0A4.92,4.92,0,0,1,778.86,166.83Z"/><path class="cls-2" d="M920.53,217c4.32,0,7.83-4,7.83-8.95s-3.51-8.95-7.83-8.95H870.88V182.36h49.66c4.32,0,7.83-4,7.83-8.95s-3.51-8.95-7.83-8.95H863c-4.32,0-7.83,4-7.83,8.95v69.21c0,4.93,3.51,8.95,7.83,8.95h57.49c4.32,0,7.83-4,7.83-8.95s-3.51-8.95-7.83-8.95H870.88V217h49.66ZM926,173.42h0a7.82,7.82,0,0,1-.25,2A7.83,7.83,0,0,0,926,173.42Z"/><path class="cls-2" d="M986.78,208l23.62-28.44a9.9,9.9,0,0,0,0-12.33,7.2,7.2,0,0,0-11.37,0L976,195l-23.06-27.76a7.2,7.2,0,0,0-11.37,0,9.9,9.9,0,0,0,0,12.33L965.16,208l-23.62,28.44a9.9,9.9,0,0,0,0,12.33,7.2,7.2,0,0,0,11.37,0L976,221,999,248.79a7.2,7.2,0,0,0,11.37,0,9.9,9.9,0,0,0,0-12.33Z"/><text class="cls-4" transform="translate(770.47 411.72)">Log in with</text><text class="cls-4" transform="translate(771.03 542.21)">Or enter <tspan x="87.1" y="0">y</tspan><tspan x="98.07" y="0">our o</tspan><tspan x="149.3" y="0">r</tspan><tspan x="157.36" y="0">ganizatio</tspan><tspan class="cls-5" x="249.8" y="0">n</tspan><tspan class="cls-6" x="260.64" y="0">’</tspan><tspan x="263.43" y="0">s name</tspan></text><text class="cls-7" transform="translate(770.33 624.7)">Allow me to pick from a list</text><path class="cls-2" d="M1149,562.76v36H773v-36h376m2-2H771v40h380v-40h0Z"/><rect class="cls-2" x="896.95" y="686.02" width="125" height="40"/><text class="cls-8" transform="translate(929.33 713.33)">Log in</text></svg>