<svg id="Layer_1" data-name="Layer 1" xmlns="http://www.w3.org/2000/svg" xmlns:xlink="http://www.w3.org/1999/xlink" viewBox="0 0 1920 1080"><defs><style>.cls-1,.cls-18{fill:none;}.cls-15,.cls-2{opacity:0.8;}.cls-3{fill:#e87c73;}.cls-19,.cls-22,.cls-23,.cls-24,.cls-4{font-size:16px;}.cls-10,.cls-11,.cls-12,.cls-21,.cls-23,.cls-4,.cls-6,.cls-7,.cls-9{fill:#fff;}.cls-11,.cls-12,.cls-19,.cls-22,.cls-23,.cls-25,.cls-26,.cls-28,.cls-4,.cls-6{font-family:Open Sans;}.cls-17,.cls-19,.cls-22,.cls-24,.cls-25,.cls-26,.cls-5{fill:#61afc5;}.cls-28,.cls-6,.cls-9{font-size:18px;}.cls-7{font-size:32px;}.cls-14,.cls-17,.cls-24,.cls-7{font-family:Roboto Condensed;}.cls-14,.cls-17,.cls-24,.cls-25,.cls-7{font-weight:700;}.cls-14,.cls-8{fill:#333;}.cls-9{font-family:Verdana;}.cls-11{font-size:19px;}.cls-12,.cls-25{font-size:20px;}.cls-13{fill:#ea7e73;}.cls-14{font-size:28px;}.cls-15{fill:#2a5268;}.cls-16{fill:#010101;}.cls-17{font-size:24px;}.cls-18,.cls-21{stroke:#61afc5;stroke-miterlimit:10;}.cls-20{fill:#dfedee;}.cls-22,.cls-23{font-style:italic;}.cls-26{font-size:23px;}.cls-27{clip-path:url(#clip-path);}.cls-28{fill:#d1d2d1;}.cls-29{fill:#61aec4;}</style><clipPath id="clip-path"><rect class="cls-1" x="770" y="402.94" width="307" height="40"/></clipPath><symbol id="New_Symbol" data-name="New Symbol" viewBox="0 0 85.33 30"><g class="cls-2"><rect class="cls-3" width="85.33" height="30"/></g><text class="cls-4" transform="translate(15.15 19.69)">Tovább</text></symbol></defs><title>pupup3</title><rect class="cls-5" y="79.61" width="1920" height="65"/><text class="cls-6" transform="translate(654.88 118.27)">Roles</text><text class="cls-7" transform="translate(46.08 123.04)">Nag<tspan x="50.75" y="0">y</tspan><tspan x="64.8" y="0">on hosszú n</tspan><tspan x="217.94" y="0">e</tspan><tspan x="233.05" y="0">vű...</tspan></text><text class="cls-6" transform="translate(393.33 118.28)">Properties</text><text class="cls-6" transform="translate(544.55 118.28)">Users</text><text class="cls-6" transform="translate(762.92 118.27)">Connected services</text><rect class="cls-8" width="1920" height="80"/><text class="cls-9" transform="translate(1716.5 45.04)">Username</text><path class="cls-10" d="M1868.79,29.07h-2.43V41.21h2.43V29.07Zm5.86,2.63-1.72,1.72a8.4,8.4,0,0,1,3.14,6.57,8.5,8.5,0,1,1-13.87-6.58l-1.71-1.71A10.93,10.93,0,1,0,1874.65,31.71Z"/><rect class="cls-5" x="303.16" y="0.73" width="178.84" height="79.61"/><text class="cls-11" transform="translate(321.17 48.55)">Organizations</text><polygon class="cls-10" points="467.82 41.26 463.33 45.74 458.85 41.26 467.82 41.26"/><text class="cls-12" transform="translate(525 48.7)">Services</text><path class="cls-10" d="M184.84,37.82l-0.07-.13-0.2-.35-0.28-.48-4.66-8.08-0.55-1-0.28-.48-1.53-2.64a4.67,4.67,0,0,0-2.82-2.16l-0.12,0h0l-0.15,0a4.58,4.58,0,0,0-.91-0.09h-15a4.63,4.63,0,0,0-4,2.31l-7.5,13a4.64,4.64,0,0,0,0,4.62L154.68,56a3.18,3.18,0,0,0,5.93-1.59,3.16,3.16,0,0,0-.43-1.59l-5.58-9.67h22.33l-2.86,5-0.55,1-0.23.39-1.94,3.36a3.1,3.1,0,0,0-.33.82,3.17,3.17,0,0,0,.09,1.86h0v0a3.14,3.14,0,0,0,1.15,1.5l0.25,0.17h0a3.17,3.17,0,0,0,3.63-.37h0a3.24,3.24,0,0,0,.66-0.8l0.27-.48,7.12-12.33,0.28-.48,0.25-.42,0-.05A4.6,4.6,0,0,0,184.84,37.82Zm-30.24-1,4-6.89a2.38,2.38,0,0,1,2.06-1.19H170.9A2.38,2.38,0,0,1,173,29.93l0.36,0.63,0.22,0.39,0.55,1,2.84,4.92H154.61Z"/><path class="cls-5" d="M201.41,37.69l-7.5-13a4.64,4.64,0,0,0-4-2.31h-15a4.83,4.83,0,0,0-.71.05l-0.17,0h0l-0.1,0a4.64,4.64,0,0,0-3,2.2l-1.49,2.57-0.28.48-0.55,1-4.66,8.08-0.28.48-0.25.43,0,0.05a4.63,4.63,0,0,0,0,4.44l0.07,0.12,0.2,0.35,0.28,0.48L171,55.56h0l0.05,0.09L171.31,56a3.15,3.15,0,0,0,.84,1l0.26,0.19h0a3.16,3.16,0,0,0,3.75-.37h0a3.16,3.16,0,0,0,.93-1.51,3.18,3.18,0,0,0,0-1.68,3.13,3.13,0,0,0-.31-0.76l-2-3.4-0.23-.39-0.55-1-2.86-5-0.55-1-0.26-.44,0,0-0.29-.51a2.39,2.39,0,0,1,0-2.37l0.32-.56,0,0,0.28-.48,0.55-1,2.84-4.92,0.55-1,0.23-.39,0.34-.59a2.38,2.38,0,0,1,2.06-1.19h10.26a2.38,2.38,0,0,1,2.06,1.19l4,6.89H184.3l0.28,0.48,0.2,0.35,0.07,0.13a4.6,4.6,0,0,1,0,4.44l0,0.05-0.25.42-0.28.48h9.31L188,52.84A3.18,3.18,0,0,0,193.49,56l7.92-13.71A4.64,4.64,0,0,0,201.41,37.69Z"/><path class="cls-10" d="M75.44,22.37A3.42,3.42,0,0,0,72.27,26V36.38H55.33V26A3.2,3.2,0,1,0,49,26V54a3.2,3.2,0,1,0,6.34,0V43.62H72.27V54a3.2,3.2,0,1,0,6.34,0V26A3.42,3.42,0,0,0,75.44,22.37Zm1.41,1.57a2,2,0,0,0-1.41-.61,2,2,0,0,0-1.25.47,2,2,0,0,1,1.25-.47A2,2,0,0,1,76.85,23.93Zm-24.69-.61a2,2,0,0,1,1.41.61,1.93,1.93,0,0,0-2.82,0A2,2,0,0,1,52.16,23.32Z"/><path class="cls-10" d="M109.53,43.62A3.42,3.42,0,0,0,112.7,40a3.42,3.42,0,0,0-3.17-3.62H89.42V29.61h20.11A3.42,3.42,0,0,0,112.7,26a3.42,3.42,0,0,0-3.17-3.62H86.25A3.42,3.42,0,0,0,83.08,26V54a3.42,3.42,0,0,0,3.17,3.62h23.28a3.65,3.65,0,0,0,0-7.25H89.42V43.62h20.11ZM111.74,26h0a3.17,3.17,0,0,1-.1.79A3.17,3.17,0,0,0,111.74,26Z"/><path class="cls-10" d="M136.35,40l9.56-11.51a4,4,0,0,0,0-5,2.92,2.92,0,0,0-4.6,0L132,34.73l-9.34-11.24a2.92,2.92,0,0,0-4.6,0,4,4,0,0,0,0,5L127.6,40,118,51.51a4,4,0,0,0,0,5,2.92,2.92,0,0,0,4.6,0L132,45.27l9.34,11.24a2.92,2.92,0,0,0,4.6,0,4,4,0,0,0,0-5Z"/><path class="cls-13" d="M1280,706.13a65,65,0,1,0,65,65A65,65,0,0,0,1280,706.13Zm32.5,71.5h-65v-13h65v13Z"/><path class="cls-8" d="M1086.38,420.36l-16.71,46.57h-22.28l60.17-160h24.51l57.94,160h-23.62l-15.82-46.57h-64.18Zm56.38-19.16-23.62-70.42h-0.45l-25.63,70.42h49.69Z"/><path class="cls-5" d="M1030,338.07V345h6.91l20.39-20.39-6.91-6.91Zm32.64-18.82a1.84,1.84,0,0,0,0-2.6l-4.31-4.31a1.84,1.84,0,0,0-2.6,0l-3.37,3.37,6.91,6.91Z"/><path class="cls-13" d="M1519.17,453.49c-0.41,4.27-1.1,8.81-2,13.44h-65.55c-0.94-4.73-1.65-9.29-2.1-13.44-1.22-11.2-4.48-40.95,9.92-56.79,9.33-10.26,21.91-10.13,24.82-10.1s14.1,0.15,23,9.09C1523.22,411.85,1520,444.83,1519.17,453.49Z"/><circle class="cls-13" cx="1484.16" cy="361.02" r="23.18"/><path class="cls-8" d="M1474.09,450.22c-0.51,5.32-1.37,11-2.51,16.72h-81.52c-1.17-5.88-2-11.56-2.61-16.72-1.52-13.93-5.57-50.93,12.34-70.63,11.6-12.77,27.25-12.59,30.88-12.56s17.54,0.19,28.55,11.3C1479.12,398.42,1475.13,439.45,1474.09,450.22Z"/><path class="cls-10" d="M1429.85,367h0.81c3.76,0,17.54.19,28.55,11.3,19.91,20.09,15.92,61.12,14.88,71.89-0.51,5.32-1.37,11-2.51,16.72h-81.52c-1.18-5.88-2-11.56-2.61-16.72-1.52-13.93-5.57-50.93,12.34-70.63,10.88-12,25.32-12.57,30.06-12.57m0-3h0c-12.88,0-24.34,4.81-32.28,13.55-18.81,20.69-14.67,58.65-13.11,72.94,0.6,5.49,1.5,11.2,2.66,17l0.48,2.41H1474l0.48-2.42c1.18-6,2-11.71,2.55-17,3.42-35.32-1.87-60.3-15.73-74.29-7.9-8-18.21-12.07-30.66-12.19h-0.84Z"/><circle class="cls-8" cx="1430.54" cy="335.55" r="28.61"/><path class="cls-5" d="M1360.59,341.11l3.49,3.49a1.47,1.47,0,0,0,2.13,0L1380,330.78a9.93,9.93,0,0,0,12.45-13.51l-6.68,6.53-4.56-4.56,6.53-6.53a10,10,0,0,0-11.24,2,9.75,9.75,0,0,0-2.28,10.48L1360.44,339A1.37,1.37,0,0,0,1360.59,341.11Z"/><path class="cls-13" d="M862.48,348.34L890,320.82l-13.88-13.88L848.6,334.46A19.33,19.33,0,0,0,824,336.63l-22.28,22.28,8,8,9.65-9.65a5,5,0,0,1,6.81-.27,3,3,0,0,1,.28.26l13.34,13.34a3,3,0,0,1,.26.28,5,5,0,0,1-.26,6.82l-9.65,9.65,8,8L860.32,373a19.32,19.32,0,0,0,2.16-24.65h0Z"/><path class="cls-8" d="M820,390.25l-13.34-13.34a5,5,0,0,0-7.09,0l-9.65,9.65h0l-8-8-22.29,22.29a19.33,19.33,0,0,0-2.17,24.64L730,453.06l13.88,13.88,27.52-27.52a19.32,19.32,0,0,0,24.65-2.16L818.34,415l-8-8,9.65-9.65A5,5,0,0,0,820,390.25Z"/><path class="cls-10" d="M851.84,348.43l-2.25.28a5.84,5.84,0,0,0-1.17-1.17l0.28-2.25a0.43,0.43,0,0,0-.31-0.45l-3.26-.87a0.43,0.43,0,0,0-.5.23l-0.89,2.09a6.14,6.14,0,0,0-1.6.42l-1.81-1.36a0.41,0.41,0,0,0-.54,0l-2.39,2.39a0.41,0.41,0,0,0,0,.54l1.36,1.81a6.48,6.48,0,0,0-.42,1.6l-2.09.89a0.41,0.41,0,0,0-.23.5l0.87,3.26a0.42,0.42,0,0,0,.46.31l2.25-.28a5.83,5.83,0,0,0,1.17,1.17l-0.28,2.25a0.43,0.43,0,0,0,.31.46l3.26,0.87a0.43,0.43,0,0,0,.5-0.23l0.89-2.09a6.14,6.14,0,0,0,1.6-.42l1.81,1.36a0.41,0.41,0,0,0,.54,0l2.39-2.39a0.41,0.41,0,0,0,0-.54L850.42,355a6.48,6.48,0,0,0,.42-1.6l2.09-.89a0.41,0.41,0,0,0,.23-0.5l-0.87-3.26A0.43,0.43,0,0,0,851.84,348.43Zm-4.41,7a4.05,4.05,0,1,1,0-5.73A4.05,4.05,0,0,1,847.42,355.43Z"/><rect class="cls-5" x="744.41" y="311.8" width="4.46" height="33.24"/><rect class="cls-5" x="744.41" y="311.8" width="4.46" height="33.24" transform="translate(1075.07 -418.22) rotate(90)"/><path class="cls-8" d="M540.1,332.45a18,18,0,0,0-14.71-7.65H525.2a12.76,12.76,0,1,0-24.45-5.11,12.63,12.63,0,0,0,1.06,5.11h-1.93a18,18,0,0,0-14.71,7.65H465.43V466.94h94.75V332.45H540.1Zm-33.55-12.76a6.93,6.93,0,1,1,11.59,5.11A6.93,6.93,0,0,1,506.55,319.69Z"/><rect class="cls-10" x="472.29" y="341.19" width="82.42" height="117"/><polygon class="cls-13" points="502.26 394.4 490.27 406.39 481.83 397.96 483.25 396.55 490.27 403.56 500.85 392.99 502.26 394.4"/><polygon class="cls-13" points="502.26 360.75 490.27 372.74 481.83 364.31 483.25 362.89 490.27 369.91 500.85 359.34 502.26 360.75"/><polygon class="cls-13" points="502.26 428.06 490.27 440.05 481.83 431.62 483.25 430.2 490.27 437.22 500.85 426.64 502.26 428.06"/><rect class="cls-5" x="413.87" y="311.8" width="4.3" height="32.04"/><rect class="cls-5" x="413.87" y="311.8" width="4.3" height="32.04" transform="translate(743.85 -88.2) rotate(90)"/><text class="cls-14" transform="translate(418.4 540.89)">C<tspan x="15.97" y="0">r</tspan><tspan x="24.99" y="0">eate </tspan><tspan x="80.02" y="0">r</tspan><tspan x="88.81" y="0">ole</tspan></text><text class="cls-14" transform="translate(705.54 540.89)">Connect <tspan x="98.79" y="0">t</tspan><tspan x="106.98" y="0">o se</tspan><tspan x="153.48" y="0">r</tspan><tspan x="163.01" y="0">vice</tspan></text><text class="cls-14" transform="translate(1030.73 540.89)">E<tspan x="13.48" y="0">dit attributes</tspan></text><text class="cls-14" transform="translate(1361.4 540.89)">Manage users</text><path class="cls-8" d="M970.83,706.13a65,65,0,0,0-65,65H884.17l28.09,28.09,0.51,1,29.18-29.11H920.28a50.8,50.8,0,1,1,14.88,35.68L924.9,817.07A65,65,0,1,0,970.83,706.13Z"/><polygon class="cls-5" points="963.61 742.25 963.61 778.36 994.52 796.7 999.72 787.96 974.44 772.94 974.44 742.25 963.61 742.25"/><path class="cls-8" d="M626,836.13V790.25h26v45.88h32.5V775H704l-65-68.82L574,775h19.5v61.18H626Z"/><path class="cls-5" d="M574,731.9v5.22h5.22l15.4-15.4-5.22-5.22Zm24.66-14.21a1.39,1.39,0,0,0,0-2l-3.26-3.26a1.39,1.39,0,0,0-2,0L590.89,715l5.22,5.22Z"/><text class="cls-14" transform="translate(556.48 910.09)">E<tspan x="13.48" y="0">dit p</tspan><tspan x="63.33" y="0">r</tspan><tspan x="72.12" y="0">ope</tspan><tspan x="113.31" y="0">r</tspan><tspan x="123.28" y="0">ties</tspan></text><text class="cls-14" transform="translate(890.75 910.09)">View his<tspan x="94.36" y="0">t</tspan><tspan x="102.55" y="0">o</tspan><tspan x="116.48" y="0">r</tspan><tspan x="126.01" y="0">y</tspan></text><text class="cls-14" transform="translate(1170.8 910.09)">Delete o<tspan x="92.05" y="0">r</tspan><tspan x="101.08" y="0">ganization</tspan></text><rect class="cls-15" width="1920" height="1080"/><rect class="cls-10" x="730" y="258.05" width="460" height="468.76"/><path class="cls-16" d="M1180,270.41l-2.36-2.36-9.37,9.37-9.37-9.37-2.36,2.36,9.37,9.37-9.37,9.37,2.36,2.36,9.37-9.37,9.37,9.37,2.36-2.36-9.37-9.37Z"/><text class="cls-17" transform="translate(770 296.82)">Meghí<tspan x="59.86" y="0">v</tspan><tspan x="70.46" y="0">ó </tspan><tspan x="87.94" y="0">k</tspan><tspan x="99.19" y="0">észítés</tspan></text><path class="cls-5" d="M1149,530.62v38H771v-38h378m1-1H770v40h380v-40h0Z"/><rect class="cls-18" x="786.36" y="538.95" width="23.97" height="20.67"/><text class="cls-19" transform="translate(830 555.62)">több választható lehetőség</text><rect class="cls-20" x="770.5" y="569.12" width="379" height="39"/><path class="cls-5" d="M1149,569.62v38H771v-38h378m1-1H770v40h380v-40h0Z"/><rect class="cls-21" x="786.36" y="577.95" width="23.97" height="20.67"/><text class="cls-19" transform="translate(830 594.62)">például role - members, permissions</text><polygon class="cls-5" points="807.57 583.84 796.74 594.67 789.12 587.05 790.4 585.77 796.74 592.11 806.29 582.56 807.57 583.84"/><path class="cls-5" d="M1149,608.62v38H771v-38h378m1-1H770v40h380v-40h0Z"/><rect class="cls-18" x="786.36" y="616.95" width="23.97" height="20.67"/><rect class="cls-20" x="770.5" y="362.75" width="379" height="39"/><path class="cls-5" d="M1149,363.25v38H771v-38h378m1-1H770v40h380v-40h0Z"/><text class="cls-22" transform="translate(785 386.96)">Kitöltendő</text><rect class="cls-5" x="770" y="432.25" width="380" height="40"/><polygon class="cls-10" points="1130 450.14 1122.4 457.73 1114.81 450.14 1130 450.14"/><text class="cls-23" transform="translate(785 457.84)">Listás választó</text><rect class="cls-5" x="770" y="681.14" width="85.33" height="30"/><text class="cls-4" transform="translate(790.06 700.83)">Vissza</text><use width="85.33" height="30" transform="translate(1063.18 681.14)" xlink:href="#New_Symbol"/><text class="cls-24" transform="translate(770 516.48)">Alcím</text><rect class="cls-10" x="730" y="258.05" width="460" height="468.76"/><path class="cls-16" d="M1180,270.41l-2.36-2.36-9.37,9.37-9.37-9.37-2.36,2.36,9.37,9.37-9.37,9.37,2.36,2.36,9.37-9.37,9.37,9.37,2.36-2.36-9.37-9.37Z"/><text class="cls-17" transform="translate(770 296.82)">Meghí<tspan x="59.86" y="0">v</tspan><tspan x="70.46" y="0">ó </tspan><tspan x="87.94" y="0">k</tspan><tspan x="99.19" y="0">észítés</tspan></text><rect class="cls-5" x="770" y="681.14" width="85.33" height="30"/><rect class="cls-5" x="1063.18" y="681.14" width="85.33" height="30"/><text class="cls-4" transform="translate(790.06 700.83)">Vissza</text><text class="cls-4" transform="translate(1078.33 700.83)">Tovább</text><rect class="cls-18" x="830" y="412.94" width="80" height="40"/><text class="cls-19" transform="translate(851.7 437.63)">2016</text><rect class="cls-18" x="920" y="412.94" width="120" height="40"/><text class="cls-19" transform="translate(949.26 437.63)">Október</text><rect class="cls-18" x="1050" y="412.94" width="40" height="40"/><text class="cls-19" transform="translate(1060.85 437.63)">21</text><polyline class="cls-18" points="862.4 467.94 870 475.54 877.6 467.94"/><polyline class="cls-18" points="1062.4 467.94 1070 475.54 1077.6 467.94"/><polyline class="cls-18" points="972.4 467.94 980 475.54 987.6 467.94"/><polyline class="cls-18" points="862.4 397.94 870 390.35 877.6 397.94"/><polyline class="cls-18" points="972.4 397.94 980 390.35 987.6 397.94"/><polyline class="cls-18" points="1062.4 397.94 1070 390.35 1077.6 397.94"/><text class="cls-25" transform="translate(859.92 361.94)">Érvényesség kezdete</text><rect class="cls-18" x="830" y="574.65" width="80" height="40"/><text class="cls-19" transform="translate(851.7 599.34)">2017</text><rect class="cls-18" x="920" y="574.65" width="120" height="40"/><text class="cls-19" transform="translate(949.26 599.34)">Október</text><rect class="cls-18" x="1050" y="574.65" width="40" height="40"/><text class="cls-19" transform="translate(1060.85 599.34)">21</text><polyline class="cls-18" points="862.4 629.65 870 637.25 877.6 629.65"/><polyline class="cls-18" points="1062.4 629.65 1070 637.25 1077.6 629.65"/><polyline class="cls-18" points="972.4 629.65 980 637.25 987.6 629.65"/><polyline class="cls-18" points="862.4 559.65 870 552.06 877.6 559.65"/><polyline class="cls-18" points="972.4 559.65 980 552.06 987.6 559.65"/><polyline class="cls-18" points="1062.4 559.65 1070 552.06 1077.6 559.65"/><text class="cls-25" transform="translate(875.43 523.65)">Érvényesség vége</text><rect class="cls-10" x="730" y="258.05" width="460" height="468.76"/><path class="cls-16" d="M1180,270.41l-2.36-2.36-9.37,9.37-9.37-9.37-2.36,2.36,9.37,9.37-9.37,9.37,2.36,2.36,9.37-9.37,9.37,9.37,2.36-2.36-9.37-9.37Z"/><text class="cls-26" transform="translate(857.42 316.82)">Meghívód elkészült</text><rect class="cls-5" x="770" y="681.14" width="85.33" height="30"/><rect class="cls-3" x="1054.67" y="681.14" width="93.85" height="30"/><text class="cls-4" transform="translate(790.06 700.83)">Vissza</text><text class="cls-4" transform="translate(1066.16 700.83)">Befejezés</text><rect class="cls-20" x="770.5" y="496.58" width="379" height="79"/><path class="cls-5" d="M1149,497.08v78H771v-78h378m1-1H770v80h380v-80h0Z"/><text class="cls-22" transform="translate(781 520.79)">E-mail címek</text><rect class="cls-20" x="770.5" y="403.44" width="312" height="39"/><path class="cls-5" d="M1082,403.94v38H771v-38h311m1-1H770v40h313v-40h0Z"/><text class="cls-24" transform="translate(770 394.61)">Link</text><text class="cls-24" transform="translate(770 486.43)">K<tspan x="8.67" y="0">üld el e-mail-ben</tspan></text><rect class="cls-5" x="1087" y="402.94" width="61.52" height="40"/><text class="cls-4" transform="translate(1098.95 427.63)">Copy</text><g class="cls-27"><text class="cls-19" transform="translate(780 427.63)">https://hexaa.eduid.hu/index.php?token=53ea7639-b2e1-47cb-8c66-9548c6673b85&amp;action=accept </text></g><rect class="cls-10" x="730" y="258.05" width="460" height="468.76"/><path class="cls-16" d="M1180,270.41l-2.36-2.36-9.37,9.37-9.37-9.37-2.36,2.36,9.37,9.37-9.37,9.37,2.36,2.36,9.37-9.37,9.37,9.37,2.36-2.36-9.37-9.37Z"/><text class="cls-26" transform="translate(857.42 316.82)">Sikeres csatlakozás</text><rect class="cls-3" x="1054.67" y="681.14" width="93.85" height="30"/><text class="cls-4" transform="translate(1066.16 700.83)">Befejezés</text><text class="cls-28" transform="translate(856.24 436.12)">Kérésedet továbbítottuk.<tspan x="-64.89" y="27.6">Jogosultságaid állapotát megtekintheted</tspan><tspan x="-30.46" y="55.2">a </tspan><tspan class="cls-29" x="-15.77" y="55.2">Csatlakoztatott szolgáltatások </tspan><tspan x="36.27" y="82.8">menüpont alatt.</tspan></text></svg>