<svg id="index_1" xmlns="http://www.w3.org/2000/svg" xmlns:xlink="http://www.w3.org/1999/xlink" viewBox="0 0 1920 1080"><defs><style>.cls-1,.cls-15{fill:#333;}.cls-2{fill:url(#linear-gradient);}.cls-3{font-size:45px;font-family:Verdana;}.cls-3,.cls-5,.cls-6,.cls-9{fill:#fff;}.cls-4{letter-spacing:-2px;}.cls-5{font-size:25px;font-style:italic;}.cls-5,.cls-9{font-family:Open Sans;}.cls-7{fill:#f48887;}.cls-13,.cls-8{fill:#61afc5;}.cls-9{font-size:18px;}.cls-10,.cls-13,.cls-15{font-size:30px;font-family:Roboto Condensed;font-weight:700;}.cls-10,.cls-11{fill:#ea7e73;}.cls-12{fill:none;stroke:#fff;stroke-miterlimit:10;stroke-width:3px;}.cls-14{fill:#666766;}</style><linearGradient id="linear-gradient" x1="-32.53" y1="567.89" x2="2006.94" y2="-126.07" gradientUnits="userSpaceOnUse"><stop offset="0" stop-color="#a7cfc2"/><stop offset="0.45" stop-color="#71a4b7"/><stop offset="1" stop-color="#347aa8"/></linearGradient></defs><title>mobile</title><g id="desktop"><rect class="cls-1" width="1920" height="80"/><rect class="cls-2" y="80.17" width="1920" height="300"/><text class="cls-3" transform="translate(828.17 152.08)"><tspan class="cls-4">W</tspan><tspan x="42.3" y="0">elcome to</tspan></text><text class="cls-5" transform="translate(443.75 326.12)">egy mondatban a hexaa lényege, the valami valami valami formában, vagy egész mondatban.</text><path class="cls-6" d="M1109.75,224.44a2.45,2.45,0,0,0-.17-0.32l-0.51-.89-0.7-1.21-11.77-20.4-1.39-2.42-0.7-1.21-3.86-6.67a11.77,11.77,0,0,0-7.11-5.44l-0.31-.08h0l-0.37-.08a11.56,11.56,0,0,0-2.3-.23h-37.87a11.69,11.69,0,0,0-10.1,5.83l-18.93,32.79a11.7,11.7,0,0,0,0,11.67l20,34.61a8,8,0,0,0,15-4,8,8,0,0,0-1.08-4L1033.43,238h56.37l-7.23,12.5-1.39,2.42-0.57,1-4.9,8.49a7.82,7.82,0,0,0-.82,2.06,8,8,0,0,0,.23,4.69h0l0,0a7.92,7.92,0,0,0,2.91,3.78l0.62,0.43h0.07a8,8,0,0,0,9.16-.93l0,0a8.17,8.17,0,0,0,1.67-2l0.69-1.21,18-31.12,0.7-1.21,0.62-1.07,0.07-.14A11.6,11.6,0,0,0,1109.75,224.44Zm-76.31-2.51,10-17.4a6,6,0,0,1,5.19-3h25.89a6,6,0,0,1,5.19,3l0.92,1.59,0.56,1,1.39,2.42,7.17,12.42h-56.36Z"/><path class="cls-7" d="M1151.55,224.21l-18.93-32.79a11.71,11.71,0,0,0-10.1-5.83h-37.87a12.2,12.2,0,0,0-1.8.14l-0.43.08h0l-0.26.06a11.7,11.7,0,0,0-7.59,5.56l-3.75,6.5-0.7,1.21-1.39,2.42-11.77,20.39-0.7,1.21-0.62,1.08-0.06.13a11.68,11.68,0,0,0-.1,11.22l0.17,0.31,0.52,0.89,0.7,1.21,18.08,31.34h0l0.13,0.22,0.56,1a8,8,0,0,0,2.12,2.4l0.64,0.48h0.09a8,8,0,0,0,9.45-.93l0,0a8,8,0,0,0,2.33-3.8,8,8,0,0,0,0-4.24,7.89,7.89,0,0,0-.79-1.91l-5-8.59-0.57-1-1.39-2.42-7.21-12.5-1.39-2.42-0.64-1.11-0.07-.12-0.74-1.29a6,6,0,0,1,0-6l0.81-1.4,0-.08,0.71-1.22,1.39-2.42,7.17-12.42,1.39-2.42,0.57-1,0.86-1.49a6,6,0,0,1,5.19-3h25.89a6,6,0,0,1,5.19,3l10,17.4h-23.4l0.7,1.21,0.51,0.89a2.45,2.45,0,0,1,.17.32,11.6,11.6,0,0,1-.1,11.21l-0.07.14-0.62,1.07-0.7,1.21h23.5l-14.09,24.4a8,8,0,0,0,13.9,8l20-34.6A11.7,11.7,0,0,0,1151.55,224.21Z"/><path class="cls-6" d="M833.64,185.49c-4.41,0-8,4.1-8,9.14v26.22H782.89V194.64c0-5-3.59-9.14-8-9.14s-8,4.1-8,9.14v70.73c0,5,3.59,9.14,8,9.14s8-4.1,8-9.14V239.14h42.74v26.22c0,5,3.59,9.14,8,9.14s8-4.1,8-9.14V194.64C841.64,189.6,838.05,185.49,833.64,185.49Zm3.55,4a5,5,0,0,0-3.55-1.54,4.93,4.93,0,0,0-3.17,1.19,4.93,4.93,0,0,1,3.17-1.19A5,5,0,0,1,837.19,189.45Zm-62.3-1.54a5,5,0,0,1,3.55,1.54,4.88,4.88,0,0,0-7.11,0A5,5,0,0,1,774.89,187.91Z"/><path class="cls-6" d="M919.67,239.14c4.41,0,8-4.1,8-9.14s-3.59-9.14-8-9.14H868.92V203.78h50.75c4.41,0,8-4.1,8-9.14s-3.59-9.14-8-9.14H860.92c-4.41,0-8,4.1-8,9.14v70.73c0,5,3.59,9.14,8,9.14h58.75c4.41,0,8-4.1,8-9.14s-3.59-9.14-8-9.14H868.92V239.14h50.75Zm5.59-44.51h0a8,8,0,0,1-.25,2A8,8,0,0,0,925.25,194.64Z"/><path class="cls-6" d="M987.36,230l24.14-29.06a10.12,10.12,0,0,0,0-12.6,7.36,7.36,0,0,0-11.62,0L976.32,216.7l-23.56-28.37a7.36,7.36,0,0,0-11.62,0,10.12,10.12,0,0,0,0,12.6L965.27,230l-24.14,29.06a10.12,10.12,0,0,0,0,12.6,7.36,7.36,0,0,0,11.62,0l23.56-28.37,23.56,28.37a7.36,7.36,0,0,0,11.62,0,10.12,10.12,0,0,0,0-12.6Z"/><path class="cls-6" d="M184.84,39l-0.07-.13-0.2-.35-0.28-.48L179.64,30l-0.55-1-0.28-.48-1.53-2.64a4.67,4.67,0,0,0-2.82-2.16l-0.12,0h0l-0.15,0a4.58,4.58,0,0,0-.91-0.09h-15a4.63,4.63,0,0,0-4,2.31l-7.5,13a4.64,4.64,0,0,0,0,4.62l7.91,13.71a3.18,3.18,0,0,0,5.93-1.59,3.16,3.16,0,0,0-.43-1.59l-5.58-9.67h22.33l-2.86,5-0.55,1-0.23.39-1.94,3.36a3.1,3.1,0,0,0-.33.82,3.17,3.17,0,0,0,.09,1.86h0v0a3.14,3.14,0,0,0,1.15,1.5l0.25,0.17h0a3.17,3.17,0,0,0,3.63-.37h0a3.24,3.24,0,0,0,.66-0.8l0.27-.48,7.12-12.33,0.28-.48,0.25-.42,0-.05A4.6,4.6,0,0,0,184.84,39Zm-30.24-1,4-6.89A2.38,2.38,0,0,1,160.64,30H170.9A2.38,2.38,0,0,1,173,31.14l0.36,0.63,0.22,0.39,0.55,1L176.94,38H154.61Z"/><path class="cls-8" d="M201.41,38.9l-7.5-13a4.64,4.64,0,0,0-4-2.31h-15a4.83,4.83,0,0,0-.71.05l-0.17,0h0l-0.1,0a4.64,4.64,0,0,0-3,2.2l-1.49,2.57-0.28.48-0.55,1L163.92,38l-0.28.48-0.25.43,0,0.05a4.63,4.63,0,0,0,0,4.44l0.07,0.12,0.2,0.35,0.28,0.48L171,56.77h0l0.05,0.09,0.22,0.38a3.15,3.15,0,0,0,.84,1l0.26,0.19h0a3.16,3.16,0,0,0,3.75-.37h0a3.16,3.16,0,0,0,.93-1.51,3.18,3.18,0,0,0,0-1.68,3.13,3.13,0,0,0-.31-0.76l-2-3.4-0.23-.39-0.55-1-2.86-5-0.55-1L170.41,43l0,0-0.29-.51a2.39,2.39,0,0,1,0-2.37l0.32-.56,0,0,0.28-.48,0.55-1,2.84-4.92,0.55-1,0.23-.39,0.34-.59A2.38,2.38,0,0,1,177.27,30h10.26a2.38,2.38,0,0,1,2.06,1.19l4,6.89H184.3l0.28,0.48,0.2,0.35L184.84,39a4.6,4.6,0,0,1,0,4.44l0,0.05-0.25.42-0.28.48h9.31L188,54.06a3.18,3.18,0,0,0,5.51,3.18l7.92-13.71A4.64,4.64,0,0,0,201.41,38.9Z"/><path class="cls-6" d="M75.44,23.58a3.42,3.42,0,0,0-3.17,3.62V37.59H55.33V27.2a3.2,3.2,0,1,0-6.34,0v28a3.2,3.2,0,1,0,6.34,0V44.84H72.27V55.23a3.2,3.2,0,1,0,6.34,0v-28A3.42,3.42,0,0,0,75.44,23.58Zm1.41,1.57a2,2,0,0,0-1.41-.61,2,2,0,0,0-1.25.47,2,2,0,0,1,1.25-.47A2,2,0,0,1,76.85,25.15Zm-24.69-.61a2,2,0,0,1,1.41.61,1.93,1.93,0,0,0-2.82,0A2,2,0,0,1,52.16,24.54Z"/><path class="cls-6" d="M109.53,44.84a3.42,3.42,0,0,0,3.17-3.62,3.42,3.42,0,0,0-3.17-3.62H89.42V30.82h20.11a3.42,3.42,0,0,0,3.17-3.62,3.42,3.42,0,0,0-3.17-3.62H86.25a3.42,3.42,0,0,0-3.17,3.62v28a3.42,3.42,0,0,0,3.17,3.62h23.28a3.65,3.65,0,0,0,0-7.25H89.42V44.84h20.11Zm2.21-17.63h0a3.17,3.17,0,0,1-.1.79A3.17,3.17,0,0,0,111.74,27.2Z"/><path class="cls-6" d="M136.35,41.21l9.56-11.51a4,4,0,0,0,0-5,2.92,2.92,0,0,0-4.6,0L132,35.95l-9.34-11.24a2.92,2.92,0,0,0-4.6,0,4,4,0,0,0,0,5l9.56,11.51L118,52.73a4,4,0,0,0,0,5,2.92,2.92,0,0,0,4.6,0L132,46.48l9.34,11.24a2.92,2.92,0,0,0,4.6,0,4,4,0,0,0,0-5Z"/><path class="cls-6" d="M1868.79,29.07h-2.43V41.21h2.43V29.07Zm5.86,2.63-1.72,1.72a8.4,8.4,0,0,1,3.14,6.57,8.5,8.5,0,1,1-13.87-6.58l-1.71-1.71A10.93,10.93,0,1,0,1874.65,31.71Z"/><text class="cls-9" transform="translate(1716.5 45.04)">Username</text><text class="cls-10" transform="translate(457.85 785.6)">Add o<tspan x="69.49" y="0">r</tspan><tspan x="79.16" y="0">ganization</tspan></text><polygon class="cls-11" points="670 615.04 615.14 710.07 505.42 710.07 450.55 615.04 505.42 520.02 615.14 520.02 670 615.04"/><polygon class="cls-12" points="622.51 615.04 591.4 668.93 529.18 668.93 498.07 615.04 529.18 561.16 591.4 561.16 622.51 615.04"/><circle class="cls-6" cx="529.13" cy="668.93" r="10.97"/><circle class="cls-6" cx="497.99" cy="615.04" r="10.97"/><circle class="cls-6" cx="529.13" cy="561.22" r="10.97"/><circle class="cls-6" cx="591.31" cy="561.32" r="10.97"/><circle class="cls-6" cx="622.54" cy="615.04" r="10.97"/><circle class="cls-6" cx="590.9" cy="668.93" r="10.97"/><polygon class="cls-8" points="1069.72 615.04 1014.86 710.07 905.14 710.07 850.28 615.04 905.14 520.02 1014.86 520.02 1069.72 615.04"/><path class="cls-6" d="M1021.72,632.05l-13.65-10.67a44.64,44.64,0,0,0,0-12.67L1021.72,598a3.27,3.27,0,0,0,.77-4.14l-12.93-22.38a3.26,3.26,0,0,0-3.95-1.43l-16.1,6.47a47,47,0,0,0-10.93-6.34l-2.46-17.14a3.15,3.15,0,0,0-3.17-2.72H947.07a3.16,3.16,0,0,0-3.17,2.72l-2.46,17.14a49.55,49.55,0,0,0-10.93,6.34l-16.1-6.47a3.16,3.16,0,0,0-4,1.43L897.53,593.9a3.19,3.19,0,0,0,.78,4.14L912,608.71a44.57,44.57,0,0,0,0,12.67l-13.65,10.67a3.25,3.25,0,0,0-.78,4.14l12.93,22.38a3.27,3.27,0,0,0,4,1.43l16.1-6.47a47,47,0,0,0,10.93,6.34L943.9,677a3.16,3.16,0,0,0,3.17,2.71H973a3.15,3.15,0,0,0,3.17-2.71l2.46-17.14a49.55,49.55,0,0,0,10.93-6.34l16.1,6.47a3.16,3.16,0,0,0,3.95-1.43l12.93-22.38A3.27,3.27,0,0,0,1021.72,632.05ZM960,646a31,31,0,1,1,31-31A31,31,0,0,1,960,646Z"/><text class="cls-13" transform="translate(889.03 785.6)">Add se<tspan x="82.54" y="0">r</tspan><tspan x="92.75" y="0">vice</tspan></text><polygon class="cls-14" points="1469.45 615.04 1414.59 710.07 1304.86 710.07 1250 615.04 1304.86 520.02 1414.59 520.02 1469.45 615.04"/><circle class="cls-6" cx="1359.71" cy="595.79" r="27.44"/><path class="cls-6" d="M1404.85,696.61a110.78,110.78,0,0,1-2.61,13.45h-84.71a124.25,124.25,0,0,1-2.72-13.45c-1.58-11.21-5.79-41,12.82-56.84,12.06-10.27,28.31-10.14,32.08-10.11s18.23,0.15,29.67,9.09C1410.07,654.93,1405.93,687.94,1404.85,696.61Z"/><text class="cls-15" transform="translate(1293.97 785.6)">E<tspan x="14.44" y="0">dit p</tspan><tspan x="67.85" y="0">r</tspan><tspan x="77.27" y="0">ofile</tspan></text></g></svg>