<svg id="index_1" xmlns="http://www.w3.org/2000/svg" xmlns:xlink="http://www.w3.org/1999/xlink" viewBox="0 0 320 480"><defs><style>.cls-1{fill:#333;}.cls-10,.cls-11,.cls-12,.cls-2,.cls-4,.cls-7,.cls-8{fill:#fff;}.cls-3{fill:#61afc5;}.cls-4{font-size:15px;}.cls-11,.cls-12,.cls-4{font-family:Open Sans;}.cls-5{fill:url(#linear-gradient);}.cls-6{fill:#f48887;}.cls-7{font-size:21.37px;}.cls-10,.cls-7,.cls-8{font-family:Roboto Condensed;}.cls-8{font-size:21.37px;}.cls-9{fill:none;stroke:#fff;stroke-miterlimit:10;stroke-width:2px;}.cls-10{font-size:21.37px;}.cls-11{font-size:23px;}.cls-12{font-size:14px;font-style:italic;}</style><linearGradient id="linear-gradient" x1="-23.61" y1="472.15" x2="345.75" y2="45.91" gradientUnits="userSpaceOnUse"><stop offset="0" stop-color="#a7cfc2"/><stop offset="0.45" stop-color="#71a4b7"/><stop offset="1" stop-color="#347aa8"/></linearGradient></defs><title>mobile</title><g id="mobile"><rect class="cls-1" width="320" height="40"/><path class="cls-2" d="M81,18.86l0-.07-0.11-.18-0.15-.25L78.3,14.13,78,13.63l-0.15-.25L77.06,12a2.44,2.44,0,0,0-1.47-1.13l-0.06,0h0l-0.08,0a2.4,2.4,0,0,0-.48,0H67.13A2.42,2.42,0,0,0,65,12l-3.92,6.79a2.42,2.42,0,0,0,0,2.42l4.14,7.17a1.66,1.66,0,0,0,3.1-.83,1.65,1.65,0,0,0-.22-0.83l-2.92-5.05H76.89l-1.5,2.59-0.29.5L75,25l-1,1.76a1.62,1.62,0,0,0-.17.43,1.66,1.66,0,0,0,0,1h0a1.64,1.64,0,0,0,.6.78L74.58,29h0a1.66,1.66,0,0,0,1.9-.19h0a1.69,1.69,0,0,0,.35-0.42L77,28.13l3.72-6.45,0.15-.25L81,21.21v0A2.4,2.4,0,0,0,81,18.86Zm-15.81-.52,2.08-3.6a1.25,1.25,0,0,1,1.08-.62h5.36a1.24,1.24,0,0,1,1.08.62L75,15.06l0.12,0.2,0.29,0.5,1.49,2.57H65.21Z"/><path class="cls-3" d="M89.68,18.79L85.76,12a2.43,2.43,0,0,0-2.09-1.21H75.82l-0.37,0-0.09,0H75.3A2.42,2.42,0,0,0,73.73,12L73,13.34l-0.15.25-0.29.5-2.44,4.22-0.15.25-0.13.22v0a2.42,2.42,0,0,0,0,2.32l0,0.07,0.11,0.19,0.15,0.25,3.75,6.49h0l0,0,0.12,0.2a1.65,1.65,0,0,0,.44.5L74.52,29h0a1.65,1.65,0,0,0,2-.19h0A1.65,1.65,0,0,0,77,28a1.66,1.66,0,0,0,0-.88,1.63,1.63,0,0,0-.16-0.4l-1-1.78-0.12-.2-0.29-.5-1.49-2.59-0.29-.5-0.13-.23,0,0-0.15-.27a1.25,1.25,0,0,1,0-1.24l0.17-.29v0l0.15-.25,0.29-.5,1.48-2.57,0.29-.5,0.12-.2L76,14.74a1.24,1.24,0,0,1,1.08-.62h5.36a1.25,1.25,0,0,1,1.08.62l2.08,3.6H80.73l0.15,0.25L81,18.77l0,0.07a2.4,2.4,0,0,1,0,2.32v0l-0.13.22-0.15.25h4.87l-2.92,5.05a1.66,1.66,0,0,0,2.88,1.66l4.14-7.17A2.42,2.42,0,0,0,89.68,18.79Z"/><path class="cls-2" d="M23.83,10.78a1.79,1.79,0,0,0-1.66,1.89v5.43H13.32V12.68a1.79,1.79,0,0,0-1.66-1.89A1.79,1.79,0,0,0,10,12.68V27.32a1.79,1.79,0,0,0,1.66,1.89,1.79,1.79,0,0,0,1.66-1.89V21.89h8.85v5.43a1.79,1.79,0,0,0,1.66,1.89,1.79,1.79,0,0,0,1.66-1.89V12.68A1.79,1.79,0,0,0,23.83,10.78Zm0.74,0.82a1,1,0,0,0-.74-0.32,1,1,0,0,0-.66.25,1,1,0,0,1,.66-0.25A1,1,0,0,1,24.56,11.6Zm-12.91-.32a1,1,0,0,1,.74.32,1,1,0,0,0-1.47,0A1,1,0,0,1,11.66,11.28Z"/><path class="cls-2" d="M41.65,21.89A1.79,1.79,0,0,0,43.3,20a1.79,1.79,0,0,0-1.66-1.89H31.13V14.57H41.65a1.79,1.79,0,0,0,1.66-1.89,1.79,1.79,0,0,0-1.66-1.89H29.48a1.79,1.79,0,0,0-1.66,1.89V27.32a1.79,1.79,0,0,0,1.66,1.89H41.65a1.91,1.91,0,0,0,0-3.79H31.13V21.89H41.65Zm1.16-9.22h0a1.66,1.66,0,0,1-.05.41A1.66,1.66,0,0,0,42.8,12.68Z"/><path class="cls-2" d="M55.67,20l5-6a2.1,2.1,0,0,0,0-2.61,1.52,1.52,0,0,0-2.41,0l-4.88,5.88L48.5,11.37a1.52,1.52,0,0,0-2.41,0,2.1,2.1,0,0,0,0,2.61l5,6-5,6a2.1,2.1,0,0,0,0,2.61,1.52,1.52,0,0,0,2.41,0l4.88-5.88,4.88,5.88a1.52,1.52,0,0,0,2.41,0,2.1,2.1,0,0,0,0-2.61Z"/><path class="cls-2" d="M308.61,14.28h-1.27v6.35h1.27V14.28Zm3.07,1.38-0.9.9A4.4,4.4,0,0,1,312.42,20a4.45,4.45,0,1,1-7.26-3.44l-0.9-.9A5.72,5.72,0,1,0,311.68,15.66Z"/><text class="cls-4" transform="translate(218.01 24.2)">Username</text><rect class="cls-5" x="0.23" y="40" width="320" height="440"/><path class="cls-2" d="M253.29,153.63a1.53,1.53,0,0,0-.11-0.2l-0.32-.55-0.44-.75-7.31-12.68-0.87-1.5-0.44-.75-2.4-4.15a7.32,7.32,0,0,0-4.42-3.38l-0.19-.05h0l-0.23,0a7.19,7.19,0,0,0-1.43-.14H211.61a7.27,7.27,0,0,0-6.28,3.62l-11.76,20.38a7.27,7.27,0,0,0,0,7.25L206,182.19a5,5,0,0,0,9.3-2.49,5,5,0,0,0-.67-2.49L205.86,162h35l-4.49,7.77-0.87,1.5-0.36.61-3,5.27a4.86,4.86,0,0,0-.51,1.28,5,5,0,0,0,.14,2.92h0v0a4.92,4.92,0,0,0,1.81,2.35L234,184h0a5,5,0,0,0,5.69-.58h0a5.07,5.07,0,0,0,1-1.26l0.43-.75,11.17-19.34,0.44-.75,0.39-.67,0-.09A7.21,7.21,0,0,0,253.29,153.63Zm-47.42-1.56,6.24-10.81a3.74,3.74,0,0,1,3.23-1.86h16.08a3.73,3.73,0,0,1,3.23,1.86l0.57,1,0.35,0.61,0.87,1.5,4.46,7.71h-35Z"/><path class="cls-6" d="M279.26,153.49L267.5,133.11a7.28,7.28,0,0,0-6.28-3.62H237.69a7.58,7.58,0,0,0-1.12.09l-0.27,0h0l-0.16,0a7.27,7.27,0,0,0-4.72,3.45l-2.33,4-0.44.75-0.87,1.5-7.31,12.67-0.44.75-0.39.67,0,0.08a7.26,7.26,0,0,0-.07,7l0.11,0.2,0.32,0.56L220.4,162l11.24,19.47h0l0.08,0.14,0.35,0.6a5,5,0,0,0,1.32,1.49l0.4,0.3h0.06a5,5,0,0,0,5.87-.58h0a5,5,0,0,0,1.45-2.36,5,5,0,0,0,0-2.64,4.9,4.9,0,0,0-.49-1.19l-3.08-5.34-0.36-.61-0.87-1.5L231.91,162l-0.87-1.5-0.4-.69,0-.08-0.46-.8a3.74,3.74,0,0,1,0-3.72l0.5-.87,0-.05,0.44-.76,0.87-1.5,4.45-7.71,0.87-1.5,0.36-.61,0.54-.93a3.73,3.73,0,0,1,3.23-1.87H257.5a3.74,3.74,0,0,1,3.23,1.87L267,152.13H252.43l0.44,0.75,0.32,0.55a1.53,1.53,0,0,1,.11.2,7.21,7.21,0,0,1-.06,7l0,0.09-0.39.67-0.44.75H267l-8.76,15.16a5,5,0,0,0,8.64,5l12.42-21.5A7.27,7.27,0,0,0,279.26,153.49Z"/><path class="cls-2" d="M81.71,129.43c-2.74,0-5,2.55-5,5.68V151.4H50.18V135.11c0-3.13-2.23-5.68-5-5.68s-5,2.55-5,5.68v43.95c0,3.13,2.23,5.68,5,5.68s5-2.55,5-5.68V162.77H76.74v16.29c0,3.13,2.23,5.68,5,5.68s5-2.55,5-5.68V135.11C86.68,132,84.45,129.43,81.71,129.43Zm2.21,2.46a3.13,3.13,0,0,0-2.21-1,3.07,3.07,0,0,0-2,.74,3.07,3.07,0,0,1,2-.74A3.13,3.13,0,0,1,83.92,131.89Zm-38.72-1a3.13,3.13,0,0,1,2.21,1,3,3,0,0,0-4.42,0A3.13,3.13,0,0,1,45.2,130.93Z"/><path class="cls-2" d="M135.17,162.77c2.74,0,5-2.55,5-5.68s-2.23-5.68-5-5.68H103.64V140.79h31.53c2.74,0,5-2.55,5-5.68s-2.23-5.68-5-5.68H98.66c-2.74,0-5,2.55-5,5.68v43.95c0,3.13,2.23,5.68,5,5.68h36.51c2.74,0,5-2.55,5-5.68s-2.23-5.68-5-5.68H103.64V162.77h31.53Zm3.47-27.66h0a5,5,0,0,1-.16,1.24A5,5,0,0,0,138.64,135.11Z"/><path class="cls-2" d="M177.24,157.09l15-18.06a6.29,6.29,0,0,0,0-7.83,4.57,4.57,0,0,0-7.22,0l-14.64,17.63L155.73,131.2a4.57,4.57,0,0,0-7.22,0,6.29,6.29,0,0,0,0,7.83l15,18.06-15,18.06a6.29,6.29,0,0,0,0,7.83,4.57,4.57,0,0,0,7.22,0l14.64-17.63L185,183a4.57,4.57,0,0,0,7.22,0,6.29,6.29,0,0,0,0-7.83Z"/><text class="cls-7" transform="translate(88.33 326.77)">Add o<tspan x="49.14" y="0">r</tspan><tspan x="55.45" y="0">ganization</tspan></text><text class="cls-8" transform="translate(110.62 382)">Add se<tspan x="58.16" y="0">r</tspan><tspan x="64.85" y="0">vice</tspan></text><polygon class="cls-9" points="53.87 320.52 46.65 333.02 32.22 333.02 25 320.52 32.22 308.02 46.65 308.02 53.87 320.52"/><polygon class="cls-9" points="47.62 320.52 43.53 327.61 35.34 327.61 31.25 320.52 35.34 313.43 43.53 313.43 47.62 320.52"/><circle class="cls-2" cx="35.34" cy="327.61" r="2"/><circle class="cls-2" cx="31.24" cy="320.52" r="2"/><circle class="cls-2" cx="35.34" cy="313.44" r="2"/><circle class="cls-2" cx="43.52" cy="313.45" r="2"/><circle class="cls-2" cx="47.62" cy="320.52" r="2"/><circle class="cls-2" cx="43.46" cy="327.61" r="2"/><polygon class="cls-9" points="53.87 375.75 46.65 388.25 32.22 388.25 25 375.75 32.22 363.25 46.65 363.25 53.87 375.75"/><path class="cls-2" d="M47.55,378l-1.8-1.4a5.87,5.87,0,0,0,0-1.67l1.8-1.4a0.43,0.43,0,0,0,.1-0.54L46,370a0.43,0.43,0,0,0-.52-0.19l-2.12.85a6.18,6.18,0,0,0-1.44-.83l-0.32-2.26a0.41,0.41,0,0,0-.42-0.36h-3.4a0.42,0.42,0,0,0-.42.36L37,369.86a6.52,6.52,0,0,0-1.44.83l-2.12-.85a0.42,0.42,0,0,0-.52.19L31.22,373a0.42,0.42,0,0,0,.1.54l1.8,1.4a5.86,5.86,0,0,0,0,1.67l-1.8,1.4a0.43,0.43,0,0,0-.1.54l1.7,2.94a0.43,0.43,0,0,0,.52.19l2.12-.85a6.18,6.18,0,0,0,1.44.83l0.32,2.26a0.42,0.42,0,0,0,.42.36h3.4a0.41,0.41,0,0,0,.42-0.36l0.32-2.26a6.52,6.52,0,0,0,1.44-.83l2.12,0.85a0.42,0.42,0,0,0,.52-0.19l1.7-2.94A0.43,0.43,0,0,0,47.55,378Zm-8.12,1.84a4.08,4.08,0,1,1,4.08-4.08A4.08,4.08,0,0,1,39.43,379.83Z"/><polygon class="cls-9" points="53.87 428.8 46.65 441.3 32.22 441.3 25 428.8 32.22 416.3 46.65 416.3 53.87 428.8"/><circle class="cls-2" cx="39.43" cy="426.27" r="3.61"/><path class="cls-2" d="M45.37,439.53A14.57,14.57,0,0,1,45,441.3H33.88a16.34,16.34,0,0,1-.36-1.77c-0.21-1.47-.76-5.39,1.69-7.48a6.56,6.56,0,0,1,4.22-1.33,6.48,6.48,0,0,1,3.9,1.2C46.06,434,45.51,438.39,45.37,439.53Z"/><text class="cls-10" transform="translate(114.38 435.05)">E<tspan x="10.42" y="0">dit p</tspan><tspan x="47.66" y="0">r</tspan><tspan x="53.95" y="0">ofile</tspan></text><path class="cls-2" d="M308,302.52v36H12v-36H308m2-2H10v40H310v-40h0Z"/><text class="cls-11" transform="translate(96.43 97.39)">Welcome to</text><path class="cls-2" d="M308,410.8v36H12v-36H308m2-2H10v40H310v-40h0Z"/><path class="cls-2" d="M308,357.75v36H12v-36H308m2-2H10v40H310v-40h0Z"/><text class="cls-12" transform="translate(57.05 223.8)">egy mondatban a hexaa lényege, <tspan x="-10.97" y="16.8">the valami valami valami formában, </tspan><tspan x="30.73" y="33.6">vagy egész mondatban.</tspan></text></g></svg>