<svg id="index_2" xmlns="http://www.w3.org/2000/svg" xmlns:xlink="http://www.w3.org/1999/xlink" viewBox="0 0 320 1005.76"><defs><style>.cls-1,.cls-10,.cls-12,.cls-6,.cls-7,.cls-9{fill:#fff;}.cls-15,.cls-2{fill:#333;}.cls-14,.cls-3{fill:#61afc5;}.cls-4{fill:url(#linear-gradient);}.cls-5{fill:#f48887;}.cls-6{font-size:21.37px;}.cls-14,.cls-17,.cls-6,.cls-7,.cls-9{font-family:Roboto Condensed;}.cls-7{font-size:21.37px;}.cls-13,.cls-16,.cls-8{fill:none;stroke-miterlimit:10;}.cls-8{stroke:#fff;stroke-width:2px;}.cls-9{font-size:21.37px;}.cls-10{font-size:23px;font-family:Verdana;}.cls-11{letter-spacing:-1px;}.cls-12{font-size:14px;}.cls-12,.cls-15,.cls-18{font-family:Open Sans;}.cls-12,.cls-18{font-style:italic;}.cls-13{stroke:#61afc5;}.cls-14,.cls-17{font-size:20px;font-weight:700;}.cls-15,.cls-18{font-size:16px;}.cls-16{stroke:#ea7e73;}.cls-17{fill:#ea7e73;}.cls-18{fill:#999;}</style><linearGradient id="linear-gradient" x1="-23.84" y1="472.15" x2="345.52" y2="45.91" gradientUnits="userSpaceOnUse"><stop offset="0" stop-color="#a7cfc2"/><stop offset="0.45" stop-color="#71a4b7"/><stop offset="1" stop-color="#347aa8"/></linearGradient></defs><title>mobile</title><g id="mobile-2" data-name="mobile"><rect class="cls-1" width="320" height="1005.76"/><rect class="cls-2" width="320" height="40"/><path class="cls-1" d="M81,18.82l0-.07-0.11-.19-0.15-.26L78.3,14,78,13.44l-0.15-.26-0.8-1.42a2.48,2.48,0,0,0-.6-0.71,2.39,2.39,0,0,0-.87-0.45l-0.06,0h0l-0.08,0a2.33,2.33,0,0,0-.48,0H67.13A2.41,2.41,0,0,0,65,11.75l-3.92,7a2.56,2.56,0,0,0,0,2.49l4.14,7.39a1.66,1.66,0,0,0,1.44.86,1.64,1.64,0,0,0,.83-0.23,1.74,1.74,0,0,0,.61-2.34l-2.92-5.21H76.89l-1.5,2.67-0.29.52L75,25.11l-1,1.81a1.7,1.7,0,0,0-.17.44,1.76,1.76,0,0,0,0,1h0a1.68,1.68,0,0,0,.6.81l0.13,0.09h0a1.62,1.62,0,0,0,.81.22,1.64,1.64,0,0,0,1.09-.42h0a1.73,1.73,0,0,0,.35-0.43L77,28.37l3.72-6.64,0.15-.26L81,21.25v0A2.54,2.54,0,0,0,81,18.82Zm-15.81-.54,2.08-3.71a1.24,1.24,0,0,1,1.08-.64h5.36a1.24,1.24,0,0,1,1.08.64L75,14.91l0.12,0.21,0.29,0.52,1.49,2.65H65.21Z"/><path class="cls-3" d="M89.68,18.75l-3.92-7a2.41,2.41,0,0,0-2.09-1.24H75.82l-0.37,0-0.09,0H75.3a2.41,2.41,0,0,0-.93.44,2.48,2.48,0,0,0-.65.75L73,13.14l-0.15.26-0.29.52-2.44,4.35-0.15.26-0.13.23v0a2.56,2.56,0,0,0,0,2.39l0,0.07,0.11,0.19,0.15,0.26,3.75,6.69h0l0,0,0.12,0.2a1.68,1.68,0,0,0,.44.51l0.13,0.1h0a1.62,1.62,0,0,0,1.68,0,1.68,1.68,0,0,0,.28-0.21h0A1.71,1.71,0,0,0,77,28.23a1.76,1.76,0,0,0,0-.91,1.71,1.71,0,0,0-.16-0.41l-1-1.83-0.12-.21-0.29-.52-1.49-2.67-0.29-.52-0.13-.24,0,0-0.15-.27a1.32,1.32,0,0,1,0-1.28l0.17-.3v0l0.15-.26,0.29-.52,1.48-2.65,0.29-.52,0.12-.21L76,14.57a1.24,1.24,0,0,1,1.08-.64h5.36a1.24,1.24,0,0,1,1.08.64l2.08,3.71H80.73l0.15,0.26L81,18.74l0,0.07a2.54,2.54,0,0,1,0,2.39v0l-0.13.23-0.15.26h4.87l-2.92,5.21a1.74,1.74,0,0,0,.61,2.34,1.64,1.64,0,0,0,.83.23,1.66,1.66,0,0,0,1.44-.86l4.14-7.39A2.56,2.56,0,0,0,89.68,18.75Z"/><path class="cls-1" d="M23.83,10.5a1.82,1.82,0,0,0-1.66,2V18H13.32v-5.6a1.82,1.82,0,0,0-1.66-2,1.82,1.82,0,0,0-1.66,2v15.1a1.82,1.82,0,0,0,1.66,2,1.82,1.82,0,0,0,1.66-2V22h8.85v5.6a1.82,1.82,0,0,0,1.66,2,1.82,1.82,0,0,0,1.66-2V12.45A1.82,1.82,0,0,0,23.83,10.5Zm0.74,0.84A1,1,0,0,0,23.83,11a1,1,0,0,0-.66.25A1,1,0,0,1,23.83,11,1,1,0,0,1,24.56,11.34ZM11.66,11a1,1,0,0,1,.74.33,1,1,0,0,0-1.47,0A1,1,0,0,1,11.66,11Z"/><path class="cls-1" d="M41.65,22a1.82,1.82,0,0,0,1.66-2,1.82,1.82,0,0,0-1.66-2H31.13V14.4H41.65a1.82,1.82,0,0,0,1.66-2,1.82,1.82,0,0,0-1.66-2H29.48a1.82,1.82,0,0,0-1.66,2v15.1a1.82,1.82,0,0,0,1.66,2H41.65a2,2,0,0,0,0-3.9H31.13V22H41.65Zm1.16-9.5h0a1.76,1.76,0,0,1-.05.43A1.76,1.76,0,0,0,42.8,12.45Z"/><path class="cls-1" d="M55.67,20l5-6.2a2.21,2.21,0,0,0,0-2.69,1.5,1.5,0,0,0-2.41,0l-4.88,6.05L48.5,11.11a1.5,1.5,0,0,0-2.41,0,2.21,2.21,0,0,0,0,2.69l5,6.2-5,6.2a2.21,2.21,0,0,0,0,2.69,1.5,1.5,0,0,0,2.41,0l4.88-6.05,4.88,6.05a1.5,1.5,0,0,0,2.41,0,2.21,2.21,0,0,0,0-2.69Z"/><path class="cls-1" d="M284.2,29.5H309.8V26.33H284.2V29.5Zm0-7.92H309.8V18.42H284.2v3.17Zm0-11.08v3.17H309.8V10.5H284.2Z"/><rect class="cls-4" y="40" width="320" height="440"/><path class="cls-1" d="M253.06,153.63a1.53,1.53,0,0,0-.11-0.2l-0.32-.55-0.44-.75-7.31-12.68L244,138l-0.44-.75-2.4-4.15a7.32,7.32,0,0,0-4.42-3.38l-0.19-.05h0l-0.23,0a7.19,7.19,0,0,0-1.43-.14H211.38a7.27,7.27,0,0,0-6.28,3.62l-11.76,20.38a7.27,7.27,0,0,0,0,7.25l12.41,21.51a5,5,0,0,0,9.3-2.49,5,5,0,0,0-.67-2.49L205.63,162h35l-4.49,7.77-0.87,1.5-0.36.61-3,5.27a4.86,4.86,0,0,0-.51,1.28,5,5,0,0,0,.14,2.92h0v0a4.92,4.92,0,0,0,1.81,2.35l0.39,0.27h0a5,5,0,0,0,5.69-.58h0a5.07,5.07,0,0,0,1-1.26l0.43-.75,11.17-19.34,0.44-.75,0.39-.67,0-.09A7.21,7.21,0,0,0,253.06,153.63Zm-47.42-1.56,6.24-10.81a3.74,3.74,0,0,1,3.23-1.86h16.08a3.73,3.73,0,0,1,3.23,1.86l0.57,1,0.35,0.61,0.87,1.5,4.46,7.71h-35Z"/><path class="cls-5" d="M279,153.49l-11.76-20.38a7.28,7.28,0,0,0-6.28-3.62H237.46a7.58,7.58,0,0,0-1.12.09l-0.27,0h0l-0.16,0a7.27,7.27,0,0,0-4.72,3.45l-2.33,4-0.44.75-0.87,1.5-7.31,12.67-0.44.75-0.39.67,0,0.08a7.26,7.26,0,0,0-.07,7l0.11,0.2,0.32,0.56,0.44,0.75,11.24,19.47h0l0.08,0.14,0.35,0.6a5,5,0,0,0,1.32,1.49l0.4,0.3h0.06a5,5,0,0,0,5.87-.58h0a5,5,0,0,0,1.45-2.36,5,5,0,0,0,0-2.64,4.9,4.9,0,0,0-.49-1.19l-3.08-5.34-0.36-.61-0.87-1.5L231.68,162l-0.87-1.5-0.4-.69,0-.08-0.46-.8a3.74,3.74,0,0,1,0-3.72l0.5-.87,0-.05,0.44-.76,0.87-1.5,4.45-7.71,0.87-1.5,0.36-.61,0.54-.93a3.73,3.73,0,0,1,3.23-1.87h16.08a3.74,3.74,0,0,1,3.23,1.87l6.24,10.81H252.2l0.44,0.75,0.32,0.55a1.53,1.53,0,0,1,.11.2,7.21,7.21,0,0,1-.06,7l0,0.09-0.39.67-0.44.75h14.6L258,177.26a5,5,0,0,0,8.64,5L279,160.74A7.27,7.27,0,0,0,279,153.49Z"/><path class="cls-1" d="M81.48,129.43c-2.74,0-5,2.55-5,5.68V151.4H49.95V135.11c0-3.13-2.23-5.68-5-5.68s-5,2.55-5,5.68v43.95c0,3.13,2.23,5.68,5,5.68s5-2.55,5-5.68V162.77H76.51v16.29c0,3.13,2.23,5.68,5,5.68s5-2.55,5-5.68V135.11C86.45,132,84.22,129.43,81.48,129.43Zm2.21,2.46a3.13,3.13,0,0,0-2.21-1,3.07,3.07,0,0,0-2,.74,3.07,3.07,0,0,1,2-.74A3.13,3.13,0,0,1,83.69,131.89Zm-38.72-1a3.13,3.13,0,0,1,2.21,1,3,3,0,0,0-4.42,0A3.13,3.13,0,0,1,45,130.93Z"/><path class="cls-1" d="M134.94,162.77c2.74,0,5-2.55,5-5.68s-2.23-5.68-5-5.68H103.4V140.79h31.53c2.74,0,5-2.55,5-5.68s-2.23-5.68-5-5.68H98.43c-2.74,0-5,2.55-5,5.68v43.95c0,3.13,2.23,5.68,5,5.68h36.51c2.74,0,5-2.55,5-5.68s-2.23-5.68-5-5.68H103.4V162.77h31.53Zm3.47-27.66h0a5,5,0,0,1-.16,1.24A5,5,0,0,0,138.41,135.11Z"/><path class="cls-1" d="M177,157.09L192,139a6.29,6.29,0,0,0,0-7.83,4.57,4.57,0,0,0-7.22,0l-14.64,17.63L155.5,131.2a4.57,4.57,0,0,0-7.22,0,6.29,6.29,0,0,0,0,7.83l15,18.06-15,18.06a6.29,6.29,0,0,0,0,7.83,4.57,4.57,0,0,0,7.22,0l14.64-17.63L184.78,183a4.57,4.57,0,0,0,7.22,0,6.29,6.29,0,0,0,0-7.83Z"/><text class="cls-6" transform="translate(88.09 326.77)">Add o<tspan x="49.14" y="0">r</tspan><tspan x="55.45" y="0">ganization</tspan></text><text class="cls-7" transform="translate(110.39 382)">Add se<tspan x="58.16" y="0">r</tspan><tspan x="64.85" y="0">vice</tspan></text><polygon class="cls-8" points="53.64 320.52 46.42 333.02 31.98 333.02 24.77 320.52 31.98 308.02 46.42 308.02 53.64 320.52"/><polygon class="cls-8" points="47.39 320.52 43.3 327.61 35.11 327.61 31.02 320.52 35.11 313.43 43.3 313.43 47.39 320.52"/><circle class="cls-1" cx="35.11" cy="327.61" r="2"/><circle class="cls-1" cx="31.01" cy="320.52" r="2"/><circle class="cls-1" cx="35.11" cy="313.44" r="2"/><circle class="cls-1" cx="43.28" cy="313.45" r="2"/><circle class="cls-1" cx="47.39" cy="320.52" r="2"/><circle class="cls-1" cx="43.23" cy="327.61" r="2"/><polygon class="cls-8" points="53.64 375.75 46.42 388.25 31.98 388.25 24.77 375.75 31.98 363.25 46.42 363.25 53.64 375.75"/><path class="cls-1" d="M47.32,378l-1.8-1.4a5.87,5.87,0,0,0,0-1.67l1.8-1.4a0.43,0.43,0,0,0,.1-0.54L45.72,370a0.43,0.43,0,0,0-.52-0.19l-2.12.85a6.18,6.18,0,0,0-1.44-.83l-0.32-2.26a0.41,0.41,0,0,0-.42-0.36H37.5a0.42,0.42,0,0,0-.42.36l-0.32,2.26a6.52,6.52,0,0,0-1.44.83l-2.12-.85a0.42,0.42,0,0,0-.52.19L31,373a0.42,0.42,0,0,0,.1.54l1.8,1.4a5.86,5.86,0,0,0,0,1.67l-1.8,1.4a0.43,0.43,0,0,0-.1.54l1.7,2.94a0.43,0.43,0,0,0,.52.19l2.12-.85a6.18,6.18,0,0,0,1.44.83l0.32,2.26a0.42,0.42,0,0,0,.42.36h3.4a0.41,0.41,0,0,0,.42-0.36l0.32-2.26a6.52,6.52,0,0,0,1.44-.83l2.12,0.85a0.42,0.42,0,0,0,.52-0.19l1.7-2.94A0.43,0.43,0,0,0,47.32,378Zm-8.12,1.84a4.08,4.08,0,1,1,4.08-4.08A4.08,4.08,0,0,1,39.2,379.83Z"/><polygon class="cls-8" points="53.64 428.8 46.42 441.3 31.98 441.3 24.77 428.8 31.98 416.3 46.42 416.3 53.64 428.8"/><circle class="cls-1" cx="39.2" cy="426.27" r="3.61"/><path class="cls-1" d="M45.14,439.53a14.57,14.57,0,0,1-.34,1.77H33.65a16.34,16.34,0,0,1-.36-1.77c-0.21-1.47-.76-5.39,1.69-7.48a6.56,6.56,0,0,1,4.22-1.33,6.48,6.48,0,0,1,3.9,1.2C45.83,434,45.28,438.39,45.14,439.53Z"/><text class="cls-9" transform="translate(106.61 435.05)">E<tspan x="10.42" y="0">dit attributes</tspan></text><path class="cls-1" d="M307.77,302.52v36h-296v-36h296m2-2H9.77v40h300v-40h0Z"/><text class="cls-10" transform="translate(92.39 97.39)"><tspan class="cls-11">W</tspan><tspan x="21.62" y="0">elcome to</tspan></text><path class="cls-1" d="M307.77,410.8v36h-296v-36h296m2-2H9.77v40h300v-40h0Z"/><path class="cls-1" d="M307.77,357.75v36h-296v-36h296m2-2H9.77v40h300v-40h0Z"/><text class="cls-12" transform="translate(56.82 223.8)">egy mondatban a hexaa lényege, <tspan x="-10.97" y="16.8">the valami valami valami formában, </tspan><tspan x="30.73" y="33.6">vagy egész mondatban.</tspan></text><rect class="cls-13" x="10" y="519.17" width="300" height="222.14"/><text class="cls-14" transform="translate(86.58 554.97)">ORGANI<tspan x="64.44" y="0">Z</tspan><tspan class="cls-11" x="75.18" y="0">A</tspan><tspan x="85.95" y="0">TIONS</tspan></text><text class="cls-15" transform="translate(33.65 609.53)">Az organization<tspan x="0" y="27">Ez organization</tspan><tspan x="0" y="54">Nagyon hosszú nevű </tspan><tspan x="0" y="72">oganization</tspan><tspan x="0" y="99">Rövidebb nevű organization</tspan></text><rect class="cls-16" x="10" y="764.42" width="300" height="219.96"/><text class="cls-17" transform="translate(119.75 803.04)">SE<tspan x="20.62" y="0">R</tspan><tspan x="31.5" y="0">VICES</tspan></text><text class="cls-18" transform="translate(109.67 878.88)">No service yet.</text></g></svg>