<svg id="o_properties_user" xmlns="http://www.w3.org/2000/svg" viewBox="0 0 720 1087.79"><defs><style>.cls-1{fill:#333;}.cls-10,.cls-2,.cls-4,.cls-5,.cls-7{fill:#fff;}.cls-13,.cls-15,.cls-3{fill:#61afc5;}.cls-4{font-size:18px;}.cls-13,.cls-14,.cls-4,.cls-9{font-family:Open Sans;}.cls-5{font-size:28px;}.cls-11,.cls-12,.cls-15,.cls-5,.cls-7{font-family:Roboto Condensed;}.cls-11,.cls-12,.cls-14,.cls-15,.cls-5,.cls-7{font-weight:700;}.cls-12,.cls-6{fill:#ea7e73;}.cls-15,.cls-7{font-size:22px;}.cls-8{fill:none;}.cls-10,.cls-8{stroke:#61afc5;stroke-miterlimit:10;}.cls-13,.cls-14,.cls-9{font-size:15px;}.cls-11,.cls-14,.cls-9{fill:#231f20;}.cls-11,.cls-12{font-size:17px;}</style></defs><title>mobile</title><g id="tablet-3" data-name="tablet"><rect class="cls-1" width="720" height="80"/><path class="cls-2" d="M159.7,37.82l-0.07-.13-0.2-.35-0.28-.48-4.66-8.08-0.55-1-0.28-.48-1.53-2.64a4.67,4.67,0,0,0-2.82-2.16l-0.12,0h0l-0.15,0a4.58,4.58,0,0,0-.91-0.09h-15a4.63,4.63,0,0,0-4,2.31l-7.5,13a4.64,4.64,0,0,0,0,4.62L129.54,56a3.18,3.18,0,0,0,5.93-1.59,3.16,3.16,0,0,0-.43-1.59l-5.58-9.67H151.8l-2.86,5-0.55,1-0.23.39-1.94,3.36a3.1,3.1,0,0,0-.33.82,3.17,3.17,0,0,0,.09,1.86h0v0a3.14,3.14,0,0,0,1.15,1.5l0.25,0.17h0a3.17,3.17,0,0,0,3.63-.37h0a3.24,3.24,0,0,0,.66-0.8l0.27-.48,7.12-12.33,0.28-.48,0.25-.42,0-.05A4.6,4.6,0,0,0,159.7,37.82Zm-30.24-1,4-6.89a2.38,2.38,0,0,1,2.06-1.19h10.26a2.38,2.38,0,0,1,2.06,1.19l0.36,0.63,0.22,0.39,0.55,1,2.84,4.92H129.46Z"/><path class="cls-3" d="M176.26,37.69l-7.5-13a4.64,4.64,0,0,0-4-2.31h-15a4.83,4.83,0,0,0-.71.05l-0.17,0h0l-0.1,0a4.64,4.64,0,0,0-3,2.2l-1.49,2.57-0.28.48-0.55,1-4.66,8.08-0.28.48-0.25.43,0,0.05a4.63,4.63,0,0,0,0,4.44l0.07,0.12,0.2,0.35,0.28,0.48,7.17,12.42h0l0.05,0.09L146.17,56a3.15,3.15,0,0,0,.84,1l0.26,0.19h0A3.16,3.16,0,0,0,151,56.8h0a3.16,3.16,0,0,0,.93-1.51,3.18,3.18,0,0,0,0-1.68,3.13,3.13,0,0,0-.31-0.76l-2-3.4-0.23-.39-0.55-1-2.86-5-0.55-1-0.26-.44,0,0-0.29-.51a2.39,2.39,0,0,1,0-2.37l0.32-.56,0,0,0.28-.48,0.55-1L149,31.86l0.55-1,0.23-.39,0.34-.59a2.38,2.38,0,0,1,2.06-1.19h10.26a2.38,2.38,0,0,1,2.06,1.19l4,6.89h-9.27l0.28,0.48,0.2,0.35,0.07,0.13a4.6,4.6,0,0,1,0,4.44l0,0.05-0.25.42-0.28.48h9.31l-5.58,9.67A3.18,3.18,0,0,0,168.35,56l7.92-13.71A4.64,4.64,0,0,0,176.26,37.69Z"/><path class="cls-2" d="M50.29,22.37A3.42,3.42,0,0,0,47.12,26V36.38H30.19V26A3.42,3.42,0,0,0,27,22.37,3.42,3.42,0,0,0,23.84,26V54A3.42,3.42,0,0,0,27,57.63,3.42,3.42,0,0,0,30.19,54V43.62H47.12V54a3.2,3.2,0,1,0,6.34,0V26A3.42,3.42,0,0,0,50.29,22.37Zm1.41,1.57a2,2,0,0,0-1.41-.61,2,2,0,0,0-1.25.47,2,2,0,0,1,1.25-.47A2,2,0,0,1,51.7,23.93ZM27,23.32a2,2,0,0,1,1.41.61,1.93,1.93,0,0,0-2.82,0A2,2,0,0,1,27,23.32Z"/><path class="cls-2" d="M84.38,43.62A3.42,3.42,0,0,0,87.55,40a3.42,3.42,0,0,0-3.17-3.62H64.27V29.61H84.38A3.42,3.42,0,0,0,87.55,26a3.42,3.42,0,0,0-3.17-3.62H61.1A3.42,3.42,0,0,0,57.93,26V54a3.42,3.42,0,0,0,3.17,3.62H84.38a3.65,3.65,0,0,0,0-7.25H64.27V43.62H84.38ZM86.6,26h0a3.17,3.17,0,0,1-.1.79A3.17,3.17,0,0,0,86.6,26Z"/><path class="cls-2" d="M111.21,40l9.56-11.51a4,4,0,0,0,0-5,2.92,2.92,0,0,0-4.6,0l-9.34,11.24L97.49,23.49a2.92,2.92,0,0,0-4.6,0,4,4,0,0,0,0,5L102.45,40,92.89,51.51a4,4,0,0,0,0,5,2.92,2.92,0,0,0,4.6,0l9.34-11.24,9.34,11.24a2.92,2.92,0,0,0,4.6,0,4,4,0,0,0,0-5Z"/><text class="cls-4" transform="translate(207.39 45.04)">Organizations</text><polygon class="cls-2" points="350.31 37.76 345.83 42.24 341.34 37.76 350.31 37.76"/><text class="cls-4" transform="translate(384.46 45.04)">Services</text><polygon class="cls-2" points="478.45 37.76 473.96 42.24 469.48 37.76 478.45 37.76"/><path class="cls-2" d="M656.67,57.67h47.59V51.78H656.67v5.89Zm0-14.72h47.59V37.06H656.67v5.89Zm0-20.61v5.89h47.59V22.33H656.67Z"/><rect class="cls-3" y="80" width="720.46" height="65"/><text class="cls-5" transform="translate(10.46 121.85)">Nag<tspan x="44.41" y="0">y</tspan><tspan x="56.7" y="0">on hosszú n</tspan><tspan x="190.7" y="0">e</tspan><tspan x="203.92" y="0">vű...</tspan></text><text class="cls-4" transform="translate(360.6 118.27)">Properties</text><text class="cls-4" transform="translate(511.81 118.27)">Users</text><rect class="cls-6" x="330.46" y="137" width="152.83" height="8"/><rect class="cls-3" x="10.46" y="414.3" width="700" height="660.13"/><text class="cls-7" transform="translate(25.46 449.8)">Roles</text><rect class="cls-8" x="10.46" y="172.79" width="700" height="190"/><text class="cls-9" transform="translate(250.47 249.48)">Nagyon hosszú nevű szervezet</text><text class="cls-9" transform="translate(250.47 280.48)">Ez a nagyon hosszú nevű szervezet leírásza.</text><text class="cls-9" transform="translate(250.47 311.48)">http://nagyonhosszu.hu</text><text class="cls-9" transform="translate(250.47 342.48)">hallgató</text><rect class="cls-2" x="25.28" y="482.79" width="668.25" height="36.67"/><polygon class="cls-3" points="678.22 497.33 670.63 504.92 663.03 497.33 678.22 497.33"/><rect class="cls-2" x="25.87" y="529.46" width="669.03" height="36.67"/><polygon class="cls-3" points="678.22 543.99 670.63 551.59 663.03 543.99 678.22 543.99"/><rect class="cls-2" x="25.63" y="576.12" width="669.03" height="36.67"/><polygon class="cls-6" points="678.17 598.23 670.63 590.69 663.09 598.23 678.17 598.23"/><rect class="cls-2" x="25.63" y="864.46" width="669.03" height="36.67"/><polygon class="cls-3" points="678.17 879.02 670.63 886.56 663.09 879.02 678.17 879.02"/><rect class="cls-10" x="25.63" y="612.79" width="669.03" height="241.67"/><line class="cls-8" x1="34.19" y1="723.12" x2="686.9" y2="723.12"/><text class="cls-9" transform="translate(185.93 640.58)">jog arra<tspan x="0" y="21">jog erre</tspan><tspan x="0" y="42">meg ilyenolyanjog</tspan><tspan x="0" y="63">továbbijogok</tspan></text><text class="cls-9" transform="translate(187.68 748.58)">Almás Tamás<tspan x="0" y="21">Farkas Péter</tspan><tspan x="0" y="42">Székely Szintia</tspan><tspan x="0" y="63">Teniszütő Ernő</tspan><tspan x="0" y="84">Vas István</tspan></text><rect class="cls-2" x="25.63" y="911.12" width="669.03" height="36.67"/><polygon class="cls-3" points="678.17 925.69 670.63 933.23 663.09 925.69 678.17 925.69"/><rect class="cls-2" x="25.09" y="957.79" width="670" height="36.67"/><polygon class="cls-3" points="678.17 972.36 670.63 979.89 663.09 972.36 678.17 972.36"/><rect class="cls-2" x="25.09" y="1004.46" width="670" height="36.67"/><polygon class="cls-3" points="678.17 1019.02 670.63 1026.56 663.09 1019.02 678.17 1019.02"/><rect class="cls-2" x="25.09" y="1051.12" width="670" height="36.67"/><text class="cls-11" transform="translate(40.46 506.09)">hallga<tspan x="41.49" y="0">t</tspan><tspan x="46.46" y="0">ó</tspan></text><text class="cls-11" transform="translate(40.46 552.76)">r<tspan x="5.34" y="0">ole2</tspan></text><text class="cls-12" transform="translate(40.46 599.43)">r<tspan x="5.34" y="0">ole3</tspan></text><text class="cls-11" transform="translate(40.46 887.76)">r<tspan x="5.34" y="0">ole4</tspan></text><text class="cls-13" transform="translate(40.46 639.08)">Permissions</text><text class="cls-13" transform="translate(40.46 746.08)">Members</text><text class="cls-11" transform="translate(40.46 934.43)">r<tspan x="5.34" y="0">ole5</tspan></text><text class="cls-11" transform="translate(40.46 981.09)">r<tspan x="5.34" y="0">ole6</tspan></text><text class="cls-11" transform="translate(40.46 1027.76)">r<tspan x="5.34" y="0">ole7</tspan></text><text class="cls-11" transform="translate(40.46 1074.43)">r<tspan x="5.34" y="0">ole8</tspan></text><polygon class="cls-3" points="678.17 1065.69 670.63 1073.23 663.09 1065.69 678.17 1065.69"/><text class="cls-14" transform="translate(25.46 249.94)">Name</text><text class="cls-14" transform="translate(25.46 280.94)">Description</text><text class="cls-14" transform="translate(25.46 311.95)">Home page</text><text class="cls-14" transform="translate(25.46 342.95)">Default role</text><text class="cls-15" transform="translate(25.46 206.28)">P<tspan x="12.51" y="0">r</tspan><tspan x="19.42" y="0">ope</tspan><tspan x="51.79" y="0">r</tspan><tspan x="59.62" y="0">ties</tspan></text></g></svg>