<svg id="o_properties_user" xmlns="http://www.w3.org/2000/svg" viewBox="0 0 320 480"><defs><style>.cls-1{fill:#333;}.cls-2,.cls-5{fill:#fff;}.cls-3{fill:#61afc5;}.cls-4{fill:#171617;}.cls-5{font-size:18px;font-family:Open Sans;}</style></defs><title>mobile</title><g id="mobile-3" data-name="mobile"><rect class="cls-1" width="320" height="40"/><path class="cls-2" d="M80.76,18.82l0-.07-0.11-.19-0.15-.26L78,14l-0.29-.52-0.15-.26-0.8-1.42a2.48,2.48,0,0,0-.6-0.71,2.39,2.39,0,0,0-.87-0.45l-0.06,0h0l-0.08,0a2.33,2.33,0,0,0-.48,0H66.87a2.41,2.41,0,0,0-2.09,1.24l-3.92,7a2.56,2.56,0,0,0,0,2.49L65,28.63a1.66,1.66,0,0,0,1.44.86,1.64,1.64,0,0,0,.83-0.23,1.74,1.74,0,0,0,.61-2.34L65,21.71H76.63l-1.5,2.67-0.29.52-0.12.21-1,1.81a1.7,1.7,0,0,0-.17.44,1.76,1.76,0,0,0,0,1h0a1.68,1.68,0,0,0,.6.81l0.13,0.09h0a1.62,1.62,0,0,0,.81.22,1.64,1.64,0,0,0,1.09-.42h0a1.73,1.73,0,0,0,.35-0.43l0.14-.26,3.72-6.64,0.15-.26,0.13-.23v0A2.54,2.54,0,0,0,80.76,18.82ZM65,18.29L67,14.57a1.24,1.24,0,0,1,1.08-.64h5.36a1.24,1.24,0,0,1,1.08.64l0.19,0.34,0.12,0.21,0.29,0.52,1.49,2.65H65Z"/><path class="cls-3" d="M89.42,18.75l-3.92-7a2.41,2.41,0,0,0-2.09-1.24H75.56l-0.37,0-0.09,0H75a2.41,2.41,0,0,0-.93.44,2.48,2.48,0,0,0-.65.75l-0.78,1.39-0.15.26-0.29.52-2.44,4.35-0.15.26-0.13.23v0a2.56,2.56,0,0,0,0,2.39l0,0.07,0.11,0.19,0.15,0.26,3.75,6.69h0l0,0,0.12,0.2a1.68,1.68,0,0,0,.44.51l0.13,0.1h0a1.62,1.62,0,0,0,1.68,0,1.68,1.68,0,0,0,.28-0.21h0a1.71,1.71,0,0,0,.48-0.81,1.76,1.76,0,0,0,0-.91,1.71,1.71,0,0,0-.16-0.41l-1-1.83-0.12-.21-0.29-.52-1.49-2.67-0.29-.52-0.13-.24,0,0L73,20.64a1.32,1.32,0,0,1,0-1.28l0.17-.3v0l0.15-.26,0.29-.52,1.48-2.65,0.29-.52,0.12-.21,0.18-.32a1.24,1.24,0,0,1,1.08-.64h5.36a1.24,1.24,0,0,1,1.08.64l2.08,3.71H80.48l0.15,0.26,0.11,0.19,0,0.07a2.54,2.54,0,0,1,0,2.39v0l-0.13.23-0.15.26h4.87L82.4,26.92A1.74,1.74,0,0,0,83,29.26a1.64,1.64,0,0,0,.83.23,1.66,1.66,0,0,0,1.44-.86l4.14-7.39A2.56,2.56,0,0,0,89.42,18.75Z"/><path class="cls-2" d="M23.57,10.5a1.82,1.82,0,0,0-1.66,2V18H13.06v-5.6a1.82,1.82,0,0,0-1.66-2,1.82,1.82,0,0,0-1.66,2v15.1a1.82,1.82,0,0,0,1.66,2,1.82,1.82,0,0,0,1.66-2V22h8.85v5.6a1.82,1.82,0,0,0,1.66,2,1.82,1.82,0,0,0,1.66-2V12.45A1.82,1.82,0,0,0,23.57,10.5Zm0.74,0.84A1,1,0,0,0,23.57,11a1,1,0,0,0-.66.25A1,1,0,0,1,23.57,11,1,1,0,0,1,24.3,11.34ZM11.4,11a1,1,0,0,1,.74.33,1,1,0,0,0-1.47,0A1,1,0,0,1,11.4,11Z"/><path class="cls-2" d="M41.39,22A1.82,1.82,0,0,0,43,20a1.82,1.82,0,0,0-1.66-2H30.88V14.4H41.39a1.82,1.82,0,0,0,1.66-2,1.82,1.82,0,0,0-1.66-2H29.22a1.82,1.82,0,0,0-1.66,2v15.1a1.82,1.82,0,0,0,1.66,2H41.39a2,2,0,0,0,0-3.9H30.88V22H41.39Zm1.16-9.5h0a1.76,1.76,0,0,1-.05.43A1.76,1.76,0,0,0,42.55,12.45Z"/><path class="cls-2" d="M55.41,20l5-6.2a2.21,2.21,0,0,0,0-2.69,1.5,1.5,0,0,0-2.41,0l-4.88,6.05-4.88-6.05a1.5,1.5,0,0,0-2.41,0,2.21,2.21,0,0,0,0,2.69l5,6.2-5,6.2a2.21,2.21,0,0,0,0,2.69,1.5,1.5,0,0,0,2.41,0l4.88-6.05L58,28.89a1.5,1.5,0,0,0,2.41,0,2.21,2.21,0,0,0,0-2.69Z"/><path class="cls-2" d="M283.95,29.5h25.59V26.33H283.95V29.5Zm0-7.92h25.59V18.42H283.95v3.17Zm0-11.08v3.17h25.59V10.5H283.95Z"/><rect class="cls-1" x="0.5" y="39.5" width="319" height="44"/><path class="cls-4" d="M319,40V83H1V40H319m1-1H0V84H320V39h0Z"/><rect class="cls-1" x="0.5" y="127.5" width="319" height="44"/><path class="cls-4" d="M319,128v43H1V128H319m1-1H0v45H320V127h0Z"/><text class="cls-5" transform="translate(40.48 154.75)">Profile</text><path class="cls-2" d="M19.4,147.89a4,4,0,1,0-4-4A4,4,0,0,0,19.4,147.89Zm0,2c-2.67,0-8,1.34-8,4v2h16v-2C27.4,151.23,22.07,149.89,19.4,149.89Z"/><rect class="cls-1" x="0.5" y="171.5" width="319" height="44"/><path class="cls-4" d="M319,172v43H1V172H319m1-1H0v45H320V171h0Z"/><text class="cls-5" transform="translate(40.48 198.75)">Log out</text><path class="cls-2" d="M20.29,185.5H18.51v8.89h1.78V185.5Zm4.29,1.93-1.26,1.26a6.15,6.15,0,0,1,2.3,4.81,6.22,6.22,0,1,1-10.15-4.82l-1.25-1.25A8,8,0,1,0,24.58,187.43Z"/><text class="cls-5" transform="translate(9.96 66.54)">Organizations</text><polygon class="cls-2" points="148.61 59.26 144.13 63.74 139.65 59.26 148.61 59.26"/><rect class="cls-3" x="0.5" y="215.5" width="319" height="44"/><path class="cls-2" d="M319,216v43H1V216H319m1-1H0v45H320V215h0Z"/><text class="cls-5" transform="translate(10.48 242.75)">Properties</text><rect class="cls-3" x="0.5" y="259.5" width="319" height="44"/><path class="cls-2" d="M319,260v43H1V260H319m1-1H0v45H320V259h0Z"/><text class="cls-5" transform="translate(10.48 286.75)">Users</text><rect class="cls-1" x="0.5" y="83.5" width="319" height="44"/><path class="cls-4" d="M319,84v43H1V84H319m1-1H0v45H320V83h0Z"/><text class="cls-5" transform="translate(9.96 110.54)">Services</text><polygon class="cls-2" points="101.61 103.26 97.13 107.74 92.65 103.26 101.61 103.26"/></g></svg>