<svg id="o_users_m" xmlns="http://www.w3.org/2000/svg" viewBox="0 0 320 613.36"><defs><style>.cls-1,.cls-10,.cls-11{fill:#333;}.cls-2,.cls-4,.cls-6{fill:#fff;}.cls-3{fill:#61afc5;}.cls-4{font-size:18px;}.cls-4,.cls-6,.cls-7,.cls-9{font-family:Roboto Condensed;}.cls-11,.cls-4,.cls-9{font-weight:700;}.cls-5,.cls-9{fill:#ea7e73;}.cls-6,.cls-7{font-size:14px;}.cls-7,.cls-8{fill:#8e8e8e;}.cls-9{font-size:22px;}.cls-10,.cls-11{font-size:15px;font-family:Open Sans;}</style></defs><title>mobile</title><g id="mobile-5" data-name="mobile"><rect class="cls-1" width="320" height="40"/><path class="cls-2" d="M81.48,18.82l0-.07-0.11-.19-0.15-.26L78.76,14l-0.29-.52-0.15-.26-0.8-1.42a2.48,2.48,0,0,0-.6-0.71,2.39,2.39,0,0,0-.87-0.45l-0.06,0h0l-0.08,0a2.33,2.33,0,0,0-.48,0H67.59a2.41,2.41,0,0,0-2.09,1.24l-3.92,7a2.56,2.56,0,0,0,0,2.49l4.14,7.39a1.66,1.66,0,0,0,1.44.86A1.64,1.64,0,0,0,68,29.26a1.74,1.74,0,0,0,.61-2.34l-2.92-5.21H77.35l-1.5,2.67-0.29.52-0.12.21-1,1.81a1.7,1.7,0,0,0-.17.44,1.76,1.76,0,0,0,0,1h0a1.68,1.68,0,0,0,.6.81L75,29.27h0a1.62,1.62,0,0,0,.81.22A1.64,1.64,0,0,0,77,29.07h0a1.73,1.73,0,0,0,.35-0.43l0.14-.26,3.72-6.64,0.15-.26,0.13-.23v0A2.54,2.54,0,0,0,81.48,18.82Zm-15.81-.54,2.08-3.71a1.24,1.24,0,0,1,1.08-.64h5.36a1.24,1.24,0,0,1,1.08.64l0.19,0.34,0.12,0.21,0.29,0.52,1.49,2.65H65.68Z"/><path class="cls-3" d="M90.14,18.75l-3.92-7a2.41,2.41,0,0,0-2.09-1.24H76.28l-0.37,0-0.09,0H75.76a2.41,2.41,0,0,0-.93.44,2.48,2.48,0,0,0-.65.75l-0.78,1.39-0.15.26L73,13.91l-2.44,4.35-0.15.26-0.13.23v0a2.56,2.56,0,0,0,0,2.39l0,0.07,0.11,0.19,0.15,0.26,3.75,6.69h0l0,0,0.12,0.2a1.68,1.68,0,0,0,.44.51L75,29.25h0a1.62,1.62,0,0,0,1.68,0A1.68,1.68,0,0,0,77,29.05h0a1.71,1.71,0,0,0,.48-0.81,1.76,1.76,0,0,0,0-.91,1.71,1.71,0,0,0-.16-0.41l-1-1.83-0.12-.21-0.29-.52-1.49-2.67-0.29-.52-0.13-.24,0,0-0.15-.27a1.32,1.32,0,0,1,0-1.28l0.17-.3v0l0.15-.26,0.29-.52,1.48-2.65,0.29-.52,0.12-.21,0.18-.32a1.24,1.24,0,0,1,1.08-.64h5.36a1.24,1.24,0,0,1,1.08.64L86,18.29H81.2l0.15,0.26,0.11,0.19,0,0.07a2.54,2.54,0,0,1,0,2.39v0l-0.13.23-0.15.26H86l-2.92,5.21a1.74,1.74,0,0,0,.61,2.34,1.64,1.64,0,0,0,.83.23A1.66,1.66,0,0,0,86,28.63l4.14-7.39A2.56,2.56,0,0,0,90.14,18.75Z"/><path class="cls-2" d="M24.29,10.5a1.82,1.82,0,0,0-1.66,2V18H13.78v-5.6a1.82,1.82,0,0,0-1.66-2,1.82,1.82,0,0,0-1.66,2v15.1a1.82,1.82,0,0,0,1.66,2,1.82,1.82,0,0,0,1.66-2V22h8.85v5.6a1.82,1.82,0,0,0,1.66,2,1.82,1.82,0,0,0,1.66-2V12.45A1.82,1.82,0,0,0,24.29,10.5ZM25,11.34A1,1,0,0,0,24.29,11a1,1,0,0,0-.66.25A1,1,0,0,1,24.29,11,1,1,0,0,1,25,11.34ZM12.12,11a1,1,0,0,1,.74.33,1,1,0,0,0-1.47,0A1,1,0,0,1,12.12,11Z"/><path class="cls-2" d="M42.11,22a1.82,1.82,0,0,0,1.66-2,1.82,1.82,0,0,0-1.66-2H31.6V14.4H42.11a1.82,1.82,0,0,0,1.66-2,1.82,1.82,0,0,0-1.66-2H29.94a1.82,1.82,0,0,0-1.66,2v15.1a1.82,1.82,0,0,0,1.66,2H42.11a2,2,0,0,0,0-3.9H31.6V22H42.11Zm1.16-9.5h0a1.76,1.76,0,0,1-.05.43A1.76,1.76,0,0,0,43.27,12.45Z"/><path class="cls-2" d="M56.13,20l5-6.2a2.21,2.21,0,0,0,0-2.69,1.5,1.5,0,0,0-2.41,0l-4.88,6.05L49,11.11a1.5,1.5,0,0,0-2.41,0,2.21,2.21,0,0,0,0,2.69l5,6.2-5,6.2a2.21,2.21,0,0,0,0,2.69,1.5,1.5,0,0,0,2.41,0l4.88-6.05,4.88,6.05a1.5,1.5,0,0,0,2.41,0,2.21,2.21,0,0,0,0-2.69Z"/><path class="cls-2" d="M284.67,29.5h25.59V26.33H284.67V29.5Zm0-7.92h25.59V18.42H284.67v3.17Zm0-11.08v3.17h25.59V10.5H284.67Z"/><rect class="cls-3" y="40" width="320" height="40"/><text class="cls-4" transform="translate(10.46 65.55)">Nag<tspan x="28.55" y="0">y</tspan><tspan x="36.45" y="0">on hosszú n</tspan><tspan x="122.59" y="0">e</tspan><tspan x="131.09" y="0">vű o</tspan><tspan x="161.14" y="0">r</tspan><tspan x="166.94" y="0">ganization</tspan></text><rect class="cls-3" x="10.76" y="195.12" width="60" height="30"/><rect class="cls-2" x="30.21" y="199.58" width="21.09" height="21.09"/><path class="cls-3" d="M229.46,103.12v28H11.76v-28h217.7m1-1H10.76v30h219.7v-30h0Z"/><rect class="cls-3" x="200.89" y="102.34" width="29.57" height="29.57"/><path class="cls-2" d="M219.2,119.24h-0.74L218.2,119a6.11,6.11,0,1,0-.66.66l0.25,0.26v0.74l4.69,4.68,1.4-1.4Zm-5.63,0a4.22,4.22,0,1,1,4.22-4.22A4.22,4.22,0,0,1,213.57,119.24Z"/><rect class="cls-5" x="250.46" y="102.12" width="60" height="30"/><text class="cls-6" transform="translate(272.5 121.21)">Invite</text><rect class="cls-2" x="262.07" y="111.55" width="1.18" height="9.15"/><rect class="cls-2" x="262.05" y="111.72" width="1.23" height="8.81" transform="translate(378.79 -146.54) rotate(90)"/><text class="cls-7" transform="translate(93.17 163.77)">P<tspan x="7.76" y="0">r</tspan><tspan x="11.88" y="0">oposal</tspan></text><path class="cls-8" d="M143.35,146.25v28H89.88v-28h53.47m1-1H88.88v30h55.47v-30h0Z"/><rect class="cls-3" x="10.29" y="145.25" width="76.29" height="30"/><text class="cls-6" transform="translate(12.41 163.77)">Change <tspan x="44.84" y="0">r</tspan><tspan x="48.96" y="0">oles</tspan></text><rect class="cls-3" x="146.65" y="145.25" width="46.14" height="30"/><text class="cls-6" transform="translate(150.21 163.77)">R<tspan x="7.43" y="0">e</tspan><tspan x="13.9" y="0">v</tspan><tspan x="19.78" y="0">o</tspan><tspan x="26.81" y="0">k</tspan><tspan x="32.98" y="0">e</tspan></text><rect class="cls-3" x="256.92" y="145.25" width="53.54" height="30"/><text class="cls-6" transform="translate(261.97 164.34)">Rem<tspan x="24.52" y="0">o</tspan><tspan x="31.45" y="0">v</tspan><tspan x="37.34" y="0">e</tspan></text><rect class="cls-3" x="195.08" y="145.25" width="59.54" height="30"/><text class="cls-6" transform="translate(198.81 164.34)">Message</text><text class="cls-9" transform="translate(10.29 248.03)">Managers</text></g><g id="tablet-5" data-name="tablet"><path class="cls-5" d="M309.46,260.12v47.5h-298v-47.5h298m1-1h-300v49.5h300v-49.5h0Z"/><text class="cls-10" transform="translate(90.46 298.32)">almastamas@example.com</text><text class="cls-11" transform="translate(90.46 279.32)">Almás Tamás</text><rect class="cls-2" x="32.49" y="273.07" width="20.09" height="20.09"/><path class="cls-5" d="M52.07,273.57v19.09H33V273.57H52.07m1-1H32v21.09H53.07V272.57h0Z"/><path class="cls-5" d="M309.46,308.62v47.5h-298v-47.5h298m1-1h-300v49.5h300v-49.5h0Z"/><text class="cls-10" transform="translate(90.46 346.82)">almastamas@example.com</text><text class="cls-11" transform="translate(90.46 327.82)">Almás Tamás</text><rect class="cls-2" x="32.49" y="321.57" width="20.09" height="20.09"/><path class="cls-5" d="M52.07,322.07v19.09H33V322.07H52.07m1-1H32v21.09H53.07V321.07h0Z"/><path class="cls-5" d="M309.46,357.12v47.5h-298v-47.5h298m1-1h-300v49.5h300v-49.5h0Z"/><text class="cls-10" transform="translate(90.46 395.32)">almastamas@example.com</text><text class="cls-11" transform="translate(90.46 376.32)">Almás Tamás</text><rect class="cls-2" x="32.49" y="370.07" width="20.09" height="20.09"/><path class="cls-5" d="M52.07,370.57v19.09H33V370.57H52.07m1-1H32v21.09H53.07V369.57h0Z"/><path class="cls-5" d="M309.46,405.62v47.5h-298v-47.5h298m1-1h-300v49.5h300v-49.5h0Z"/><text class="cls-10" transform="translate(90.46 443.82)">almastamas@example.com</text><text class="cls-11" transform="translate(90.46 424.82)">Almás Tamás</text><rect class="cls-2" x="32.49" y="418.57" width="20.09" height="20.09"/><path class="cls-5" d="M52.07,419.07v19.09H33V419.07H52.07m1-1H32v21.09H53.07V418.07h0Z"/><path class="cls-5" d="M309.46,454.12v47.5h-298v-47.5h298m1-1h-300v49.5h300v-49.5h0Z"/><text class="cls-10" transform="translate(90.46 492.32)">almastamas@example.com</text><text class="cls-11" transform="translate(90.46 473.32)">Almás Tamás</text><rect class="cls-2" x="32.49" y="467.07" width="20.09" height="20.09"/><path class="cls-5" d="M52.07,467.57v19.09H33V467.57H52.07m1-1H32v21.09H53.07V466.57h0Z"/><path class="cls-5" d="M309.46,502.62v47.5h-298v-47.5h298m1-1h-300v49.5h300v-49.5h0Z"/><text class="cls-10" transform="translate(90.46 540.82)">almastamas@example.com</text><text class="cls-11" transform="translate(90.46 521.82)">Almás Tamás</text><rect class="cls-2" x="32.49" y="515.57" width="20.09" height="20.09"/><path class="cls-5" d="M52.07,516.07v19.09H33V516.07H52.07m1-1H32v21.09H53.07V515.07h0Z"/><path class="cls-5" d="M309.46,551.12v47.5h-298v-47.5h298m1-1h-300v49.5h300v-49.5h0Z"/><text class="cls-10" transform="translate(90.46 589.32)">almastamas@example.com</text><text class="cls-11" transform="translate(90.46 570.32)">Almás Tamás</text><rect class="cls-2" x="32.49" y="564.07" width="20.09" height="20.09"/><path class="cls-5" d="M52.07,564.57v19.09H33V564.57H52.07m1-1H32v21.09H53.07V563.57h0Z"/></g></svg>