<svg id="o_connecteds" xmlns="http://www.w3.org/2000/svg" viewBox="0 0 1920 1080"><defs><style>.cls-1,.cls-17,.cls-20{fill:#ea7e73;}.cls-2{font-size:16.26px;}.cls-10,.cls-12,.cls-14,.cls-2,.cls-3,.cls-6,.cls-7,.cls-9{fill:#fff;}.cls-11,.cls-12,.cls-13,.cls-15,.cls-17,.cls-2,.cls-20,.cls-6{font-family:Roboto Condensed;font-weight:700;}.cls-11,.cls-13,.cls-15,.cls-18,.cls-4,.cls-5{fill:#61afc5;}.cls-14,.cls-15,.cls-18,.cls-19,.cls-20,.cls-5{font-size:15px;}.cls-14,.cls-18,.cls-19,.cls-5,.cls-7{font-family:Verdana;}.cls-14,.cls-5{font-style:italic;}.cls-6{font-size:32px;}.cls-7{font-size:18px;}.cls-19,.cls-8{fill:#333;}.cls-13,.cls-9{font-size:19px;}.cls-10,.cls-9{font-family:Open Sans;}.cls-10{font-size:20px;}.cls-11{font-size:25px;}.cls-12{font-size:17px;}.cls-16,.cls-21{fill:none;stroke-miterlimit:10;}.cls-16{stroke:#61afc5;}.cls-17{font-size:14px;}.cls-21{stroke:#ea7e73;}</style></defs><title>mobile</title><g id="desktop-6" data-name="desktop"><rect class="cls-1" x="1207.93" y="212.49" width="182.07" height="37"/><text class="cls-2" transform="translate(1254.89 235.74)">New connection</text><rect class="cls-3" x="1243.47" y="224.37" width="1.3" height="10.08"/><rect class="cls-3" x="1243.44" y="224.56" width="1.35" height="9.7" transform="translate(1473.52 -1014.71) rotate(90)"/><path class="cls-4" d="M872,213.49v35H530v-35H872m1-1H529v37H873v-37h0Z"/><rect class="cls-4" x="873" y="212.49" width="37" height="37"/><path class="cls-3" d="M895.91,233.64H895l-0.33-.32a7.64,7.64,0,1,0-.82.82l0.32,0.33v0.93l5.87,5.86,1.75-1.75Zm-7,0a5.28,5.28,0,1,1,5.28-5.28A5.27,5.27,0,0,1,888.87,233.64Z"/><text class="cls-5" transform="translate(545.36 235.2)">Servise, Permission, Permission set</text><rect class="cls-4" y="79.61" width="1920" height="65"/><text class="cls-6" transform="translate(46.08 123.04)">Nag<tspan x="50.75" y="0">y</tspan><tspan x="64.8" y="0">on hosszú n</tspan><tspan x="217.94" y="0">e</tspan><tspan x="233.05" y="0">vű...</tspan></text><text class="cls-7" transform="translate(393.33 118.28)">Properties</text><text class="cls-7" transform="translate(544.55 118.28)">Users</text><text class="cls-7" transform="translate(762.92 118.27)">Connected services</text><text class="cls-7" transform="translate(654.88 118.27)">R<tspan x="12.08" y="0">oles</tspan></text><rect class="cls-8" width="1920" height="80"/><text class="cls-7" transform="translate(1716.5 45.04)">Username</text><path class="cls-3" d="M1868.79,29.07h-2.43V41.21h2.43V29.07Zm5.86,2.63-1.72,1.72a8.4,8.4,0,0,1,3.14,6.57,8.5,8.5,0,1,1-13.87-6.58l-1.71-1.71A10.93,10.93,0,1,0,1874.65,31.71Z"/><rect class="cls-4" x="303.16" y="0.73" width="178.84" height="79.61"/><text class="cls-9" transform="translate(321.17 48.54)">Organizations</text><polygon class="cls-3" points="467.82 41.26 463.33 45.74 458.85 41.26 467.82 41.26"/><text class="cls-10" transform="translate(525 48.7)">Services</text><rect class="cls-1" x="732.92" y="136.61" width="233.88" height="8"/><path class="cls-3" d="M184.84,37.82l-0.07-.13-0.2-.35-0.28-.48-4.66-8.08-0.55-1-0.28-.48-1.53-2.64a4.67,4.67,0,0,0-2.82-2.16l-0.12,0h0l-0.15,0a4.58,4.58,0,0,0-.91-0.09h-15a4.63,4.63,0,0,0-4,2.31l-7.5,13a4.64,4.64,0,0,0,0,4.62L154.68,56a3.18,3.18,0,0,0,5.93-1.59,3.16,3.16,0,0,0-.43-1.59l-5.58-9.67h22.33l-2.86,5-0.55,1-0.23.39-1.94,3.36a3.1,3.1,0,0,0-.33.82,3.17,3.17,0,0,0,.09,1.86h0v0a3.14,3.14,0,0,0,1.15,1.5l0.25,0.17h0a3.17,3.17,0,0,0,3.63-.37h0a3.24,3.24,0,0,0,.66-0.8l0.27-.48,7.12-12.33,0.28-.48,0.25-.42,0-.05A4.6,4.6,0,0,0,184.84,37.82Zm-30.24-1,4-6.89a2.38,2.38,0,0,1,2.06-1.19H170.9A2.38,2.38,0,0,1,173,29.93l0.36,0.63,0.22,0.39,0.55,1,2.84,4.92H154.61Z"/><path class="cls-4" d="M201.41,37.69l-7.5-13a4.64,4.64,0,0,0-4-2.31h-15a4.83,4.83,0,0,0-.71.05l-0.17,0h0l-0.1,0a4.64,4.64,0,0,0-3,2.2l-1.49,2.57-0.28.48-0.55,1-4.66,8.08-0.28.48-0.25.43,0,0.05a4.63,4.63,0,0,0,0,4.44l0.07,0.12,0.2,0.35,0.28,0.48L171,55.56h0l0.05,0.09L171.31,56a3.15,3.15,0,0,0,.84,1l0.26,0.19h0a3.16,3.16,0,0,0,3.75-.37h0a3.16,3.16,0,0,0,.93-1.51,3.18,3.18,0,0,0,0-1.68,3.13,3.13,0,0,0-.31-0.76l-2-3.4-0.23-.39-0.55-1-2.86-5-0.55-1-0.26-.44,0,0-0.29-.51a2.39,2.39,0,0,1,0-2.37l0.32-.56,0,0,0.28-.48,0.55-1,2.84-4.92,0.55-1,0.23-.39,0.34-.59a2.38,2.38,0,0,1,2.06-1.19h10.26a2.38,2.38,0,0,1,2.06,1.19l4,6.89H184.3l0.28,0.48,0.2,0.35,0.07,0.13a4.6,4.6,0,0,1,0,4.44l0,0.05-0.25.42-0.28.48h9.31L188,52.84A3.18,3.18,0,0,0,193.49,56l7.92-13.71A4.64,4.64,0,0,0,201.41,37.69Z"/><path class="cls-3" d="M75.44,22.37A3.42,3.42,0,0,0,72.27,26V36.38H55.33V26A3.2,3.2,0,1,0,49,26V54a3.2,3.2,0,1,0,6.34,0V43.62H72.27V54a3.2,3.2,0,1,0,6.34,0V26A3.42,3.42,0,0,0,75.44,22.37Zm1.41,1.57a2,2,0,0,0-1.41-.61,2,2,0,0,0-1.25.47,2,2,0,0,1,1.25-.47A2,2,0,0,1,76.85,23.93Zm-24.69-.61a2,2,0,0,1,1.41.61,1.93,1.93,0,0,0-2.82,0A2,2,0,0,1,52.16,23.32Z"/><path class="cls-3" d="M109.53,43.62A3.42,3.42,0,0,0,112.7,40a3.42,3.42,0,0,0-3.17-3.62H89.42V29.61h20.11A3.42,3.42,0,0,0,112.7,26a3.42,3.42,0,0,0-3.17-3.62H86.25A3.42,3.42,0,0,0,83.08,26V54a3.42,3.42,0,0,0,3.17,3.62h23.28a3.65,3.65,0,0,0,0-7.25H89.42V43.62h20.11ZM111.74,26h0a3.17,3.17,0,0,1-.1.79A3.17,3.17,0,0,0,111.74,26Z"/><path class="cls-3" d="M136.35,40l9.56-11.51a4,4,0,0,0,0-5,2.92,2.92,0,0,0-4.6,0L132,34.73l-9.34-11.24a2.92,2.92,0,0,0-4.6,0,4,4,0,0,0,0,5L127.6,40,118,51.51a4,4,0,0,0,0,5,2.92,2.92,0,0,0,4.6,0L132,45.27l9.34,11.24a2.92,2.92,0,0,0,4.6,0,4,4,0,0,0,0-5Z"/><text class="cls-11" transform="translate(529 300.69)">Connected se<tspan x="135.88" y="0">r</tspan><tspan x="144.38" y="0">vices</tspan></text><rect class="cls-4" x="530" y="332.02" width="860" height="40"/><rect class="cls-4" x="530" y="378.69" width="860" height="40"/><rect class="cls-4" x="530" y="425.36" width="860" height="40"/><path class="cls-4" d="M1389,464.69V822H531V464.69h858m1-1H530V823h860V463.69h0Z"/><rect class="cls-4" x="530" y="831.29" width="860" height="40"/><rect class="cls-4" x="530" y="877.96" width="860" height="40"/><rect class="cls-4" x="530" y="924.62" width="860" height="40"/><rect class="cls-4" x="530" y="971.29" width="860" height="40"/><text class="cls-12" transform="translate(545 356.99)">könyvtár</text><text class="cls-12" transform="translate(546.33 403.66)">se<tspan x="15.85" y="0">r</tspan><tspan x="21.64" y="0">vice2</tspan></text><text class="cls-12" transform="translate(546 450.32)">se<tspan x="15.85" y="0">r</tspan><tspan x="21.64" y="0">vice3</tspan></text><text class="cls-13" transform="translate(546 498.97)">P<tspan x="10.69" y="0">ermission sets</tspan></text><text class="cls-12" transform="translate(545.13 856.26)">se<tspan x="15.85" y="0">r</tspan><tspan x="21.64" y="0">vice4</tspan></text><text class="cls-12" transform="translate(545.13 902.92)">se<tspan x="15.85" y="0">r</tspan><tspan x="21.64" y="0">vice5</tspan></text><text class="cls-12" transform="translate(545.13 949.59)">se<tspan x="15.85" y="0">r</tspan><tspan x="21.64" y="0">vice6</tspan></text><text class="cls-12" transform="translate(545.13 996.26)">se<tspan x="15.85" y="0">r</tspan><tspan x="21.64" y="0">vice7</tspan></text><text class="cls-14" transform="translate(766.58 450.32)">Service manager</text><text class="cls-14" transform="translate(922.39 450.32)">Kis Lajos (kislajos@valami.hu)</text><polygon class="cls-4" points="1352.94 535.85 1345.08 543.39 1337.22 535.85 1352.94 535.85"/><text class="cls-15" transform="translate(564.44 543.82) scale(1.04 1)">permissionset1</text><rect class="cls-16" x="550" y="523.12" width="820" height="33"/><text class="cls-17" transform="translate(1268 543.39) scale(1.04 1)">P<tspan x="7.87" y="0">ending</tspan></text><text class="cls-18" transform="translate(564.44 651.64)">P<tspan x="8.68" y="0">ermissions</tspan></text><text class="cls-19" transform="translate(678.36 651.64)">permission1<tspan x="0" y="21">permission2</tspan><tspan x="0" y="42">permission3</tspan><tspan x="0" y="63">permission4</tspan></text><path class="cls-1" d="M1302.83,589.62a2,2,0,0,0,2,2h8a2,2,0,0,0,2-2v-12h-12v12Zm13-15h-3.5l-1-1h-5l-1,1h-3.5v2h14v-2Z"/><text class="cls-20" transform="translate(564.44 586.82) scale(1.04 1)">permissionset2</text><text class="cls-18" transform="translate(564.44 623.17)">Details</text><rect class="cls-21" x="550" y="566.12" width="820" height="161"/><rect class="cls-21" x="550" y="566.12" width="820" height="33"/><text class="cls-19" transform="translate(678.36 623.17)">Ez egy szép és jó jogosultságcsomag.</text><polygon class="cls-1" points="1352.62 586.39 1345.08 578.85 1337.54 586.39 1352.62 586.39"/><polygon class="cls-4" points="1352.62 792.85 1345.08 800.39 1337.54 792.85 1352.62 792.85"/><text class="cls-15" transform="translate(564.44 800.82) scale(1.04 1)">permissionset2</text><rect class="cls-16" x="550" y="780.12" width="820" height="33"/><text class="cls-15" transform="translate(564.44 757.82) scale(1.04 1)">permissionset2</text><rect class="cls-16" x="550" y="737.12" width="820" height="33"/><polygon class="cls-4" points="1352.62 749.85 1345.08 757.39 1337.54 749.85 1352.62 749.85"/><polygon class="cls-3" points="1370 344.89 1362.4 352.49 1354.81 344.89 1370 344.89"/><polygon class="cls-3" points="1369.89 449.13 1362.35 441.59 1354.81 449.13 1369.89 449.13"/><polygon class="cls-3" points="1369.89 849.59 1362.35 857.13 1354.81 849.59 1369.89 849.59"/><polygon class="cls-3" points="1369.89 896.25 1362.35 903.79 1354.81 896.25 1369.89 896.25"/><polygon class="cls-3" points="1369.89 942.92 1362.35 950.46 1354.81 942.92 1369.89 942.92"/><polygon class="cls-3" points="1369.89 989.59 1362.35 997.13 1354.81 989.59 1369.89 989.59"/><polygon class="cls-3" points="1370 394.89 1362.4 402.49 1354.81 394.89 1370 394.89"/></g></svg>