<svg id="o_connecteds" xmlns="http://www.w3.org/2000/svg" viewBox="0 0 720 991.29"><defs><style>.cls-1,.cls-17{fill:#333;}.cls-10,.cls-12,.cls-2,.cls-4,.cls-5,.cls-7{fill:#fff;}.cls-11,.cls-13,.cls-16,.cls-3,.cls-8,.cls-9{fill:#61afc5;}.cls-4{font-size:18px;font-family:Open Sans;}.cls-5{font-size:28px;}.cls-10,.cls-11,.cls-13,.cls-15,.cls-18,.cls-5,.cls-7,.cls-9{font-family:Roboto Condensed;font-weight:700;}.cls-15,.cls-18,.cls-6{fill:#ea7e73;}.cls-7{font-size:16.26px;}.cls-12,.cls-13,.cls-16,.cls-17,.cls-18,.cls-8{font-size:15px;}.cls-12,.cls-16,.cls-17,.cls-8{font-family:Verdana;}.cls-12,.cls-8{font-style:italic;}.cls-9{font-size:25px;}.cls-10{font-size:17px;}.cls-11{font-size:19px;}.cls-14,.cls-19{fill:none;stroke-miterlimit:10;}.cls-14{stroke:#61afc5;}.cls-15{font-size:14px;}.cls-19{stroke:#ea7e73;}</style></defs><title>mobile</title><g id="tablet-6" data-name="tablet"><rect class="cls-1" x="-0.23" width="720" height="80"/><path class="cls-2" d="M159.47,37.82l-0.07-.13-0.2-.35-0.28-.48-4.66-8.08-0.55-1-0.28-.48-1.53-2.64a4.67,4.67,0,0,0-2.82-2.16l-0.12,0h0l-0.15,0a4.58,4.58,0,0,0-.91-0.09h-15a4.63,4.63,0,0,0-4,2.31l-7.5,13a4.64,4.64,0,0,0,0,4.62L129.31,56a3.18,3.18,0,0,0,5.93-1.59,3.16,3.16,0,0,0-.43-1.59l-5.58-9.67h22.33l-2.86,5-0.55,1-0.23.39L146,52.84a3.1,3.1,0,0,0-.33.82,3.17,3.17,0,0,0,.09,1.86h0v0a3.14,3.14,0,0,0,1.15,1.5l0.25,0.17h0a3.17,3.17,0,0,0,3.63-.37h0a3.24,3.24,0,0,0,.66-0.8l0.27-.48,7.12-12.33,0.28-.48,0.25-.42,0-.05A4.6,4.6,0,0,0,159.47,37.82Zm-30.24-1,4-6.89a2.38,2.38,0,0,1,2.06-1.19h10.26a2.38,2.38,0,0,1,2.06,1.19l0.36,0.63,0.22,0.39,0.55,1,2.84,4.92H129.23Z"/><path class="cls-3" d="M176,37.69l-7.5-13a4.64,4.64,0,0,0-4-2.31h-15a4.83,4.83,0,0,0-.71.05l-0.17,0h0l-0.1,0a4.64,4.64,0,0,0-3,2.2L144,27.27l-0.28.48-0.55,1-4.66,8.08-0.28.48-0.25.43,0,0.05a4.63,4.63,0,0,0,0,4.44L138,42.31l0.2,0.35,0.28,0.48,7.17,12.42h0l0.05,0.09L145.94,56a3.15,3.15,0,0,0,.84,1L147,57.17h0a3.16,3.16,0,0,0,3.75-.37h0a3.16,3.16,0,0,0,.93-1.51,3.18,3.18,0,0,0,0-1.68,3.13,3.13,0,0,0-.31-0.76l-2-3.4-0.23-.39-0.55-1-2.86-5-0.55-1L145,41.75l0,0-0.29-.51a2.39,2.39,0,0,1,0-2.37l0.32-.56,0,0,0.28-.48,0.55-1,2.84-4.92,0.55-1,0.23-.39,0.34-.59a2.38,2.38,0,0,1,2.06-1.19h10.26a2.38,2.38,0,0,1,2.06,1.19l4,6.89h-9.27l0.28,0.48,0.2,0.35,0.07,0.13a4.6,4.6,0,0,1,0,4.44l0,0.05-0.25.42-0.28.48h9.31l-5.58,9.67A3.18,3.18,0,0,0,168.11,56L176,42.31A4.64,4.64,0,0,0,176,37.69Z"/><path class="cls-2" d="M50.06,22.37A3.42,3.42,0,0,0,46.89,26V36.38H30V26a3.42,3.42,0,0,0-3.17-3.62A3.42,3.42,0,0,0,23.61,26V54a3.42,3.42,0,0,0,3.17,3.62A3.42,3.42,0,0,0,30,54V43.62H46.89V54a3.2,3.2,0,1,0,6.34,0V26A3.42,3.42,0,0,0,50.06,22.37Zm1.41,1.57a2,2,0,0,0-1.41-.61,2,2,0,0,0-1.25.47,2,2,0,0,1,1.25-.47A2,2,0,0,1,51.47,23.93Zm-24.69-.61a2,2,0,0,1,1.41.61,1.93,1.93,0,0,0-2.82,0A2,2,0,0,1,26.78,23.32Z"/><path class="cls-2" d="M84.15,43.62A3.42,3.42,0,0,0,87.32,40a3.42,3.42,0,0,0-3.17-3.62H64V29.61H84.15A3.42,3.42,0,0,0,87.32,26a3.42,3.42,0,0,0-3.17-3.62H60.87A3.42,3.42,0,0,0,57.7,26V54a3.42,3.42,0,0,0,3.17,3.62H84.15a3.65,3.65,0,0,0,0-7.25H64V43.62H84.15ZM86.36,26h0a3.17,3.17,0,0,1-.1.79A3.17,3.17,0,0,0,86.36,26Z"/><path class="cls-2" d="M111,40l9.56-11.51a4,4,0,0,0,0-5,2.92,2.92,0,0,0-4.6,0L106.6,34.73,97.26,23.49a2.92,2.92,0,0,0-4.6,0,4,4,0,0,0,0,5L102.22,40,92.66,51.51a4,4,0,0,0,0,5,2.92,2.92,0,0,0,4.6,0l9.34-11.24,9.34,11.24a2.92,2.92,0,0,0,4.6,0,4,4,0,0,0,0-5Z"/><text class="cls-4" transform="translate(207.16 45.04)">Organizations</text><polygon class="cls-2" points="342.08 37.76 337.6 42.24 333.11 37.76 342.08 37.76"/><text class="cls-4" transform="translate(384.23 45.04)">Services</text><polygon class="cls-2" points="471.21 37.76 466.73 42.24 462.25 37.76 471.21 37.76"/><path class="cls-2" d="M656.43,57.67H704V51.78H656.43v5.89Zm0-14.72H704V37.06H656.43v5.89Zm0-20.61v5.89H704V22.33H656.43Z"/><rect class="cls-3" x="-0.23" y="80" width="720.46" height="65"/><text class="cls-5" transform="translate(10.23 121.85)">Nag<tspan x="44.41" y="0">y</tspan><tspan x="56.7" y="0">on hosszú n</tspan><tspan x="190.7" y="0">e</tspan><tspan x="203.92" y="0">vű o</tspan><tspan x="250.66" y="0">r</tspan><tspan x="259.68" y="0">ganization</tspan></text><rect class="cls-6" x="528.39" y="177.58" width="182.07" height="37"/><text class="cls-7" transform="translate(575.35 200.83)">New connection</text><rect class="cls-2" x="563.93" y="189.45" width="1.3" height="10.08"/><rect class="cls-2" x="563.9" y="189.64" width="1.35" height="9.7" transform="translate(759.07 -370.09) rotate(90)"/><path class="cls-3" d="M353.46,179.49v35h-342v-35h342m1-1h-344v37h344v-37h0Z"/><rect class="cls-3" x="354.46" y="178.49" width="37" height="37"/><path class="cls-2" d="M377.37,199.64h-0.93l-0.33-.32a7.64,7.64,0,1,0-.82.82l0.32,0.33v0.93l5.87,5.86,1.75-1.75Zm-7,0a5.28,5.28,0,1,1,5.28-5.28A5.27,5.27,0,0,1,370.32,199.64Z"/><text class="cls-8" transform="translate(26.82 201.19)">Servise, Permission, Permission set</text><text class="cls-9" transform="translate(10.46 266.69)">Connected se<tspan x="135.88" y="0">r</tspan><tspan x="144.38" y="0">vices</tspan></text><rect class="cls-3" x="11.46" y="298.02" width="699" height="40"/><rect class="cls-3" x="11.46" y="344.69" width="699" height="40"/><rect class="cls-3" x="11.46" y="391.35" width="699" height="40"/><path class="cls-3" d="M709.46,430.69V788h-697V430.69h697m1-1h-699V789h699V429.69h0Z"/><rect class="cls-3" x="11.46" y="797.29" width="699" height="40"/><rect class="cls-3" x="11.46" y="843.95" width="699" height="40"/><rect class="cls-3" x="11.46" y="890.62" width="699" height="40"/><rect class="cls-3" x="11.46" y="937.29" width="699" height="40"/><text class="cls-10" transform="translate(26.46 322.99)">könyvtár</text><text class="cls-10" transform="translate(27.79 369.65)">se<tspan x="15.85" y="0">r</tspan><tspan x="21.64" y="0">vice2</tspan></text><text class="cls-10" transform="translate(27.46 416.32)">se<tspan x="15.85" y="0">r</tspan><tspan x="21.64" y="0">vice3</tspan></text><text class="cls-11" transform="translate(27.46 464.97)">P<tspan x="10.69" y="0">ermission sets</tspan></text><text class="cls-10" transform="translate(26.59 822.25)">se<tspan x="15.85" y="0">r</tspan><tspan x="21.64" y="0">vice4</tspan></text><text class="cls-10" transform="translate(26.59 868.92)">se<tspan x="15.85" y="0">r</tspan><tspan x="21.64" y="0">vice5</tspan></text><text class="cls-10" transform="translate(26.59 915.59)">se<tspan x="15.85" y="0">r</tspan><tspan x="21.64" y="0">vice6</tspan></text><text class="cls-10" transform="translate(26.59 962.25)">se<tspan x="15.85" y="0">r</tspan><tspan x="21.64" y="0">vice7</tspan></text><text class="cls-12" transform="translate(248.04 416.32)">Service manager</text><text class="cls-12" transform="translate(403.85 416.32)">Kis Lajos (kislajos@valami.hu)</text><polygon class="cls-3" points="674.94 501.85 667.08 509.39 659.22 501.85 674.94 501.85"/><text class="cls-13" transform="translate(45.9 509.82) scale(1.04 1)">permissionset1</text><rect class="cls-14" x="27.71" y="489.12" width="666.49" height="33"/><text class="cls-15" transform="translate(590 509.39) scale(1.04 1)">P<tspan x="7.87" y="0">ending</tspan></text><text class="cls-16" transform="translate(45.9 617.64)">P<tspan x="8.68" y="0">ermissions</tspan></text><text class="cls-17" transform="translate(159.82 617.64)">permission1<tspan x="0" y="21">permission2</tspan><tspan x="0" y="42">permission3</tspan><tspan x="0" y="63">permission4</tspan></text><path class="cls-6" d="M624.82,555.62a2,2,0,0,0,2,2h8a2,2,0,0,0,2-2v-12h-12v12Zm13-15h-3.5l-1-1h-5l-1,1h-3.5v2h14v-2Z"/><text class="cls-18" transform="translate(45.9 552.82) scale(1.04 1)">permissionset2</text><text class="cls-16" transform="translate(45.9 589.16)">Details</text><rect class="cls-19" x="27.71" y="532.12" width="666.49" height="161"/><rect class="cls-19" x="27.71" y="532.12" width="666.49" height="33"/><text class="cls-17" transform="translate(159.82 589.16)">Ez egy szép és jó jogosultságcsomag.</text><polygon class="cls-6" points="674.62 552.39 667.08 544.85 659.54 552.39 674.62 552.39"/><polygon class="cls-3" points="674.62 758.85 667.08 766.39 659.54 758.85 674.62 758.85"/><text class="cls-13" transform="translate(45.9 766.82) scale(1.04 1)">permissionset2</text><rect class="cls-14" x="27.71" y="746.12" width="666.49" height="33"/><text class="cls-13" transform="translate(45.9 723.82) scale(1.04 1)">permissionset2</text><rect class="cls-14" x="27.71" y="703.12" width="666.49" height="33"/><polygon class="cls-3" points="674.62 715.85 667.08 723.39 659.54 715.85 674.62 715.85"/><polygon class="cls-2" points="692 310.89 684.4 318.48 676.81 310.89 692 310.89"/><polygon class="cls-2" points="691.89 415.12 684.35 407.58 676.81 415.12 691.89 415.12"/><polygon class="cls-2" points="691.89 815.58 684.35 823.12 676.81 815.58 691.89 815.58"/><polygon class="cls-2" points="691.89 862.25 684.35 869.79 676.81 862.25 691.89 862.25"/><polygon class="cls-2" points="691.89 908.92 684.35 916.46 676.81 908.92 691.89 908.92"/><polygon class="cls-2" points="691.89 955.58 684.35 963.12 676.81 955.58 691.89 955.58"/><polygon class="cls-2" points="692 360.89 684.4 368.48 676.81 360.89 692 360.89"/></g></svg>