<svg id="o_connecteds" xmlns="http://www.w3.org/2000/svg" viewBox="0 0 320 903.79"><defs><style>.cls-1,.cls-4,.cls-6,.cls-8{fill:#fff;}.cls-15,.cls-2{fill:#333;}.cls-13,.cls-14,.cls-3,.cls-7,.cls-9{fill:#61afc5;}.cls-4{font-size:18px;}.cls-11,.cls-13,.cls-16,.cls-4,.cls-6,.cls-7,.cls-8,.cls-9{font-family:Roboto Condensed;}.cls-11,.cls-13,.cls-16,.cls-4,.cls-7,.cls-8,.cls-9{font-weight:700;}.cls-11,.cls-16,.cls-5{fill:#ea7e73;}.cls-11,.cls-6{font-size:14px;}.cls-7{font-size:25px;}.cls-8{font-size:17px;}.cls-9{font-size:19px;}.cls-10,.cls-12{fill:none;stroke-miterlimit:10;}.cls-10{stroke:#61afc5;}.cls-12{stroke:#ea7e73;}.cls-13,.cls-14,.cls-15,.cls-16{font-size:15px;}.cls-14,.cls-15{font-family:Open Sans;}</style></defs><title>mobile</title><g id="mobile-6" data-name="mobile"><rect class="cls-1" y="80" width="320.46" height="810.62"/><polygon class="cls-1" points="301.83 192.35 294.23 199.95 286.64 192.35 301.83 192.35"/><polygon class="cls-1" points="301.71 296.59 294.18 289.05 286.64 296.59 301.71 296.59"/><polygon class="cls-1" points="301.71 697.05 294.18 704.59 286.64 697.05 301.71 697.05"/><polygon class="cls-1" points="301.71 743.71 294.18 751.25 286.64 743.71 301.71 743.71"/><polygon class="cls-1" points="301.71 790.38 294.18 797.92 286.64 790.38 301.71 790.38"/><polygon class="cls-1" points="301.71 837.05 294.18 844.59 286.64 837.05 301.71 837.05"/><polygon class="cls-1" points="301.83 242.35 294.23 249.95 286.64 242.35 301.83 242.35"/><rect class="cls-2" width="320" height="40"/><path class="cls-1" d="M81.48,18.82l0-.07-0.11-.19-0.15-.26L78.76,14l-0.29-.52-0.15-.26-0.8-1.42a2.48,2.48,0,0,0-.6-0.71,2.39,2.39,0,0,0-.87-0.45l-0.06,0h0l-0.08,0a2.33,2.33,0,0,0-.48,0H67.59a2.41,2.41,0,0,0-2.09,1.24l-3.92,7a2.56,2.56,0,0,0,0,2.49l4.14,7.39a1.66,1.66,0,0,0,1.44.86A1.64,1.64,0,0,0,68,29.26a1.74,1.74,0,0,0,.61-2.34l-2.92-5.21H77.35l-1.5,2.67-0.29.52-0.12.21-1,1.81a1.7,1.7,0,0,0-.17.44,1.76,1.76,0,0,0,0,1h0a1.68,1.68,0,0,0,.6.81L75,29.27h0a1.62,1.62,0,0,0,.81.22A1.64,1.64,0,0,0,77,29.07h0a1.73,1.73,0,0,0,.35-0.43l0.14-.26,3.72-6.64,0.15-.26,0.13-.23v0A2.54,2.54,0,0,0,81.48,18.82Zm-15.81-.54,2.08-3.71a1.24,1.24,0,0,1,1.08-.64h5.36a1.24,1.24,0,0,1,1.08.64l0.19,0.34,0.12,0.21,0.29,0.52,1.49,2.65H65.68Z"/><path class="cls-3" d="M90.14,18.75l-3.92-7a2.41,2.41,0,0,0-2.09-1.24H76.28l-0.37,0-0.09,0H75.76a2.41,2.41,0,0,0-.93.44,2.48,2.48,0,0,0-.65.75l-0.78,1.39-0.15.26L73,13.91l-2.44,4.35-0.15.26-0.13.23v0a2.56,2.56,0,0,0,0,2.39l0,0.07,0.11,0.19,0.15,0.26,3.75,6.69h0l0,0,0.12,0.2a1.68,1.68,0,0,0,.44.51L75,29.25h0a1.62,1.62,0,0,0,1.68,0A1.68,1.68,0,0,0,77,29.05h0a1.71,1.71,0,0,0,.48-0.81,1.76,1.76,0,0,0,0-.91,1.71,1.71,0,0,0-.16-0.41l-1-1.83-0.12-.21-0.29-.52-1.49-2.67-0.29-.52-0.13-.24,0,0-0.15-.27a1.32,1.32,0,0,1,0-1.28l0.17-.3v0l0.15-.26,0.29-.52,1.48-2.65,0.29-.52,0.12-.21,0.18-.32a1.24,1.24,0,0,1,1.08-.64h5.36a1.24,1.24,0,0,1,1.08.64L86,18.29H81.2l0.15,0.26,0.11,0.19,0,0.07a2.54,2.54,0,0,1,0,2.39v0l-0.13.23-0.15.26H86l-2.92,5.21a1.74,1.74,0,0,0,.61,2.34,1.64,1.64,0,0,0,.83.23A1.66,1.66,0,0,0,86,28.63l4.14-7.39A2.56,2.56,0,0,0,90.14,18.75Z"/><path class="cls-1" d="M24.29,10.5a1.82,1.82,0,0,0-1.66,2V18H13.78v-5.6a1.82,1.82,0,0,0-1.66-2,1.82,1.82,0,0,0-1.66,2v15.1a1.82,1.82,0,0,0,1.66,2,1.82,1.82,0,0,0,1.66-2V22h8.85v5.6a1.82,1.82,0,0,0,1.66,2,1.82,1.82,0,0,0,1.66-2V12.45A1.82,1.82,0,0,0,24.29,10.5ZM25,11.34A1,1,0,0,0,24.29,11a1,1,0,0,0-.66.25A1,1,0,0,1,24.29,11,1,1,0,0,1,25,11.34ZM12.12,11a1,1,0,0,1,.74.33,1,1,0,0,0-1.47,0A1,1,0,0,1,12.12,11Z"/><path class="cls-1" d="M42.11,22a1.82,1.82,0,0,0,1.66-2,1.82,1.82,0,0,0-1.66-2H31.6V14.4H42.11a1.82,1.82,0,0,0,1.66-2,1.82,1.82,0,0,0-1.66-2H29.94a1.82,1.82,0,0,0-1.66,2v15.1a1.82,1.82,0,0,0,1.66,2H42.11a2,2,0,0,0,0-3.9H31.6V22H42.11Zm1.16-9.5h0a1.76,1.76,0,0,1-.05.43A1.76,1.76,0,0,0,43.27,12.45Z"/><path class="cls-1" d="M56.13,20l5-6.2a2.21,2.21,0,0,0,0-2.69,1.5,1.5,0,0,0-2.41,0l-4.88,6.05L49,11.11a1.5,1.5,0,0,0-2.41,0,2.21,2.21,0,0,0,0,2.69l5,6.2-5,6.2a2.21,2.21,0,0,0,0,2.69,1.5,1.5,0,0,0,2.41,0l4.88-6.05,4.88,6.05a1.5,1.5,0,0,0,2.41,0,2.21,2.21,0,0,0,0-2.69Z"/><path class="cls-1" d="M284.67,29.5h25.59V26.33H284.67V29.5Zm0-7.92h25.59V18.42H284.67v3.17Zm0-11.08v3.17h25.59V10.5H284.67Z"/><rect class="cls-3" y="40" width="320" height="40"/><text class="cls-4" transform="translate(10.46 65.55)">Nag<tspan x="28.55" y="0">y</tspan><tspan x="36.45" y="0">on hosszú n</tspan><tspan x="122.59" y="0">e</tspan><tspan x="131.09" y="0">vű o</tspan><tspan x="161.14" y="0">r</tspan><tspan x="166.94" y="0">ganization</tspan></text><path class="cls-3" d="M229.32,98.5v28H11.61v-28h217.7m1-1H10.61v30h219.7v-30h0Z"/><rect class="cls-3" x="200.74" y="97.71" width="29.57" height="29.57"/><path class="cls-1" d="M219.05,114.62h-0.74l-0.26-.25a6.11,6.11,0,1,0-.66.66l0.25,0.26V116l4.69,4.68,1.4-1.4Zm-5.63,0a4.22,4.22,0,1,1,4.22-4.22A4.22,4.22,0,0,1,213.42,114.62Z"/><rect class="cls-5" x="250.32" y="97.5" width="60" height="30"/><text class="cls-6" transform="translate(272.36 116.59)">New</text><rect class="cls-1" x="261.93" y="106.92" width="1.18" height="9.15"/><rect class="cls-1" x="261.9" y="107.1" width="1.23" height="8.81" transform="translate(374.02 -151.02) rotate(90)"/><text class="cls-7" transform="translate(10.29 165.15)">Connected se<tspan x="135.88" y="0">r</tspan><tspan x="144.38" y="0">vices</tspan></text><rect class="cls-3" x="11.29" y="179.48" width="300.11" height="40"/><rect class="cls-3" x="11.29" y="226.15" width="300.11" height="40"/><rect class="cls-3" x="11.29" y="272.82" width="300.11" height="40"/><path class="cls-3" d="M310.4,312.15V669.42H12.29V312.15H310.4m1-1H11.29V670.42H311.4V311.15h0Z"/><rect class="cls-3" x="11.29" y="678.75" width="300.11" height="40"/><rect class="cls-3" x="11.29" y="725.42" width="300.11" height="40"/><rect class="cls-3" x="11.29" y="772.08" width="300.11" height="40"/><rect class="cls-3" x="11.29" y="818.75" width="300.11" height="40"/><text class="cls-8" transform="translate(26.29 204.45)">könyvtár</text><text class="cls-8" transform="translate(27.62 251.12)">se<tspan x="15.85" y="0">r</tspan><tspan x="21.64" y="0">vice2</tspan></text><text class="cls-8" transform="translate(27.29 297.78)">se<tspan x="15.85" y="0">r</tspan><tspan x="21.64" y="0">vice3</tspan></text><text class="cls-9" transform="translate(27.29 346.43)">P<tspan x="10.69" y="0">ermission sets</tspan></text><text class="cls-8" transform="translate(26.41 703.72)">se<tspan x="15.85" y="0">r</tspan><tspan x="21.64" y="0">vice4</tspan></text><text class="cls-8" transform="translate(26.41 750.39)">se<tspan x="15.85" y="0">r</tspan><tspan x="21.64" y="0">vice5</tspan></text><text class="cls-8" transform="translate(26.41 797.05)">se<tspan x="15.85" y="0">r</tspan><tspan x="21.64" y="0">vice6</tspan></text><text class="cls-8" transform="translate(26.41 843.72)">se<tspan x="15.85" y="0">r</tspan><tspan x="21.64" y="0">vice7</tspan></text><polygon class="cls-3" points="294.77 383.31 286.91 390.85 279.05 383.31 294.77 383.31"/><rect class="cls-10" x="18.27" y="370.58" width="286.15" height="33"/><text class="cls-11" transform="translate(209.83 390.85) scale(1.04 1)">P<tspan x="7.87" y="0">ending</tspan></text><path class="cls-5" d="M244.65,437.08a2,2,0,0,0,2,2h8a2,2,0,0,0,2-2v-12h-12v12Zm13-15h-3.5l-1-1h-5l-1,1h-3.5v2h14v-2Z"/><rect class="cls-12" x="18.27" y="413.58" width="286.15" height="161"/><rect class="cls-12" x="18.27" y="413.58" width="286.15" height="33"/><polygon class="cls-5" points="294.45 433.85 286.91 426.31 279.37 433.85 294.45 433.85"/><polygon class="cls-3" points="284.45 640.31 276.91 647.85 269.37 640.31 284.45 640.31"/><rect class="cls-10" x="18.27" y="627.58" width="286.15" height="33"/><text class="cls-13" transform="translate(25.46 391.29) scale(1.04 1)">permissionset1</text><text class="cls-14" transform="translate(25.46 520.1)">Permissions</text><text class="cls-15" transform="translate(25.46 539.62)">permission1<tspan x="0" y="21">permission2</tspan></text><text class="cls-16" transform="translate(25.46 434.28) scale(1.04 1)">permissionset2</text><text class="cls-14" transform="translate(25.46 470.63)">Details</text><text class="cls-15" transform="translate(25.46 491.08)">Ez egy szép és jó jogosultságcsomag.</text><text class="cls-13" transform="translate(25.46 648.29) scale(1.04 1)">permissionset2</text><text class="cls-13" transform="translate(25.46 605.29) scale(1.04 1)">permissionset2</text><rect class="cls-10" x="18.27" y="584.58" width="286.15" height="33"/><polygon class="cls-3" points="284.45 597.31 276.91 604.85 269.37 597.31 284.45 597.31"/></g></svg>