<svg id="admin_contact" xmlns="http://www.w3.org/2000/svg" viewBox="0 0 320 602.33"><defs><style>.cls-1,.cls-5,.cls-6{fill:#333;}.cls-2,.cls-7,.cls-9{fill:#fff;}.cls-3{fill:#61afc5;}.cls-11,.cls-4{fill:#ba334d;}.cls-5{font-size:24px;}.cls-10,.cls-11,.cls-12,.cls-5,.cls-6,.cls-7,.cls-9{font-family:Open Sans;}.cls-5,.cls-9{font-weight:700;}.cls-6,.cls-7,.cls-9{font-size:16px;}.cls-8{fill:#e8e8e8;}.cls-10,.cls-11{font-size:15px;}.cls-10{fill:#231f20;}.cls-12{font-size:17px;fill:#939393;font-style:italic;}</style></defs><title>mobile</title><g id="mobile-7" data-name="mobile"><rect class="cls-1" width="320" height="40"/><path class="cls-2" d="M81.48,18.82l0-.07-0.11-.19-0.15-.26L78.76,14l-0.29-.52-0.15-.26-0.8-1.42a2.48,2.48,0,0,0-.6-0.71,2.39,2.39,0,0,0-.87-0.45l-0.06,0h0l-0.08,0a2.33,2.33,0,0,0-.48,0H67.59a2.41,2.41,0,0,0-2.09,1.24l-3.92,7a2.56,2.56,0,0,0,0,2.49l4.14,7.39a1.66,1.66,0,0,0,1.44.86A1.64,1.64,0,0,0,68,29.26a1.74,1.74,0,0,0,.61-2.34l-2.92-5.21H77.35l-1.5,2.67-0.29.52-0.12.21-1,1.81a1.7,1.7,0,0,0-.17.44,1.76,1.76,0,0,0,0,1h0a1.68,1.68,0,0,0,.6.81L75,29.27h0a1.62,1.62,0,0,0,.81.22A1.64,1.64,0,0,0,77,29.07h0a1.73,1.73,0,0,0,.35-0.43l0.14-.26,3.72-6.64,0.15-.26,0.13-.23v0A2.54,2.54,0,0,0,81.48,18.82Zm-15.81-.54,2.08-3.71a1.24,1.24,0,0,1,1.08-.64h5.36a1.24,1.24,0,0,1,1.08.64l0.19,0.34,0.12,0.21,0.29,0.52,1.49,2.65H65.68Z"/><path class="cls-3" d="M90.14,18.75l-3.92-7a2.41,2.41,0,0,0-2.09-1.24H76.28l-0.37,0-0.09,0H75.76a2.41,2.41,0,0,0-.93.44,2.48,2.48,0,0,0-.65.75l-0.78,1.39-0.15.26L73,13.91l-2.44,4.35-0.15.26-0.13.23v0a2.56,2.56,0,0,0,0,2.39l0,0.07,0.11,0.19,0.15,0.26,3.75,6.69h0l0,0,0.12,0.2a1.68,1.68,0,0,0,.44.51L75,29.25h0a1.62,1.62,0,0,0,1.68,0A1.68,1.68,0,0,0,77,29.05h0a1.71,1.71,0,0,0,.48-0.81,1.76,1.76,0,0,0,0-.91,1.71,1.71,0,0,0-.16-0.41l-1-1.83-0.12-.21-0.29-.52-1.49-2.67-0.29-.52-0.13-.24,0,0-0.15-.27a1.32,1.32,0,0,1,0-1.28l0.17-.3v0l0.15-.26,0.29-.52,1.48-2.65,0.29-.52,0.12-.21,0.18-.32a1.24,1.24,0,0,1,1.08-.64h5.36a1.24,1.24,0,0,1,1.08.64L86,18.29H81.2l0.15,0.26,0.11,0.19,0,0.07a2.54,2.54,0,0,1,0,2.39v0l-0.13.23-0.15.26H86l-2.92,5.21a1.74,1.74,0,0,0,.61,2.34,1.64,1.64,0,0,0,.83.23A1.66,1.66,0,0,0,86,28.63l4.14-7.39A2.56,2.56,0,0,0,90.14,18.75Z"/><path class="cls-2" d="M24.29,10.5a1.82,1.82,0,0,0-1.66,2V18H13.78v-5.6a1.82,1.82,0,0,0-1.66-2,1.82,1.82,0,0,0-1.66,2v15.1a1.82,1.82,0,0,0,1.66,2,1.82,1.82,0,0,0,1.66-2V22h8.85v5.6a1.82,1.82,0,0,0,1.66,2,1.82,1.82,0,0,0,1.66-2V12.45A1.82,1.82,0,0,0,24.29,10.5ZM25,11.34A1,1,0,0,0,24.29,11a1,1,0,0,0-.66.25A1,1,0,0,1,24.29,11,1,1,0,0,1,25,11.34ZM12.12,11a1,1,0,0,1,.74.33,1,1,0,0,0-1.47,0A1,1,0,0,1,12.12,11Z"/><path class="cls-2" d="M42.11,22a1.82,1.82,0,0,0,1.66-2,1.82,1.82,0,0,0-1.66-2H31.6V14.4H42.11a1.82,1.82,0,0,0,1.66-2,1.82,1.82,0,0,0-1.66-2H29.94a1.82,1.82,0,0,0-1.66,2v15.1a1.82,1.82,0,0,0,1.66,2H42.11a2,2,0,0,0,0-3.9H31.6V22H42.11Zm1.16-9.5h0a1.76,1.76,0,0,1-.05.43A1.76,1.76,0,0,0,43.27,12.45Z"/><path class="cls-2" d="M56.13,20l5-6.2a2.21,2.21,0,0,0,0-2.69,1.5,1.5,0,0,0-2.41,0l-4.88,6.05L49,11.11a1.5,1.5,0,0,0-2.41,0,2.21,2.21,0,0,0,0,2.69l5,6.2-5,6.2a2.21,2.21,0,0,0,0,2.69,1.5,1.5,0,0,0,2.41,0l4.88-6.05,4.88,6.05a1.5,1.5,0,0,0,2.41,0,2.21,2.21,0,0,0,0-2.69Z"/><path class="cls-2" d="M284.67,29.5h25.59V26.33H284.67V29.5Zm0-7.92h25.59V18.42H284.67v3.17Zm0-11.08v3.17h25.59V10.5H284.67Z"/><path class="cls-2" d="M253.46,12.5a11.83,11.83,0,0,0-11,7.5,11.82,11.82,0,0,0,22,0A11.83,11.83,0,0,0,253.46,12.5Z"/><circle class="cls-1" cx="253.46" cy="20" r="5"/><circle class="cls-2" cx="253.46" cy="20" r="3"/><rect class="cls-4" x="10.46" y="547.04" width="88.83" height="41"/><text class="cls-5" transform="translate(12.86 75.81)">Contact to</text><path class="cls-1" d="M308.54,150.59v38H11.46v-38H308.54m1-1H10.46v40H309.54v-40h0Z"/><text class="cls-6" transform="translate(106.9 173.79)">Hexaa admins</text><rect class="cls-1" x="10.29" y="99.25" width="299.42" height="40"/><text class="cls-7" transform="translate(94.25 123.46)">Service managers</text><rect class="cls-8" x="10.96" y="318" width="299" height="38.99"/><path class="cls-1" d="M309.46,318.5v38h-298v-38h298m1-1h-300v40h300v-40h0Z"/><rect class="cls-8" x="10.96" y="367.54" width="299" height="169"/><path class="cls-1" d="M309.46,368V536h-298V368h298m1-1h-300V537h300V367h0Z"/><text class="cls-9" transform="translate(35.43 572.06)">Send</text><rect class="cls-8" x="10.96" y="235.99" width="299" height="38.99"/><path class="cls-4" d="M309.46,236.49v38h-298v-38h298m1-1h-300v40h300v-40h0Z"/><text class="cls-10" transform="translate(20.46 259.96)">blablaal</text><text class="cls-11" transform="translate(10.46 294.89)">Service does not exist.</text><text class="cls-12" transform="translate(20.46 342.29)">Title</text><text class="cls-12" transform="translate(20.46 388.84)">Message</text></g></svg>