<svg id="admin_contact" xmlns="http://www.w3.org/2000/svg" viewBox="0 0 720 960"><defs><style>.cls-1,.cls-10,.cls-6,.cls-7{fill:#333;}.cls-11,.cls-2,.cls-4,.cls-8{fill:#fff;}.cls-3{fill:#61afc5;}.cls-4{font-size:18px;}.cls-10,.cls-11,.cls-12,.cls-13,.cls-4,.cls-6,.cls-7,.cls-8{font-family:Open Sans;}.cls-13,.cls-5{fill:#ba334d;}.cls-6{font-size:24px;}.cls-10,.cls-11,.cls-6{font-weight:700;}.cls-11,.cls-7,.cls-8{font-size:16px;}.cls-9{fill:#e8e8e8;}.cls-10{font-size:17px;}.cls-12,.cls-13{font-size:15px;}.cls-12{fill:#231f20;}</style></defs><title>mobile</title><g id="tablet-7" data-name="tablet"><rect class="cls-1" width="720" height="80"/><path class="cls-2" d="M159.7,37.82l-0.07-.13-0.2-.35-0.28-.48-4.66-8.08-0.55-1-0.28-.48-1.53-2.64a4.67,4.67,0,0,0-2.82-2.16l-0.12,0h0l-0.15,0a4.58,4.58,0,0,0-.91-0.09h-15a4.63,4.63,0,0,0-4,2.31l-7.5,13a4.64,4.64,0,0,0,0,4.62L129.54,56a3.18,3.18,0,0,0,5.93-1.59,3.16,3.16,0,0,0-.43-1.59l-5.58-9.67H151.8l-2.86,5-0.55,1-0.23.39-1.94,3.36a3.1,3.1,0,0,0-.33.82,3.17,3.17,0,0,0,.09,1.86h0v0a3.14,3.14,0,0,0,1.15,1.5l0.25,0.17h0a3.17,3.17,0,0,0,3.63-.37h0a3.24,3.24,0,0,0,.66-0.8l0.27-.48,7.12-12.33,0.28-.48,0.25-.42,0-.05A4.6,4.6,0,0,0,159.7,37.82Zm-30.24-1,4-6.89a2.38,2.38,0,0,1,2.06-1.19h10.26a2.38,2.38,0,0,1,2.06,1.19l0.36,0.63,0.22,0.39,0.55,1,2.84,4.92H129.46Z"/><path class="cls-3" d="M176.26,37.69l-7.5-13a4.64,4.64,0,0,0-4-2.31h-15a4.83,4.83,0,0,0-.71.05l-0.17,0h0l-0.1,0a4.64,4.64,0,0,0-3,2.2l-1.49,2.57-0.28.48-0.55,1-4.66,8.08-0.28.48-0.25.43,0,0.05a4.63,4.63,0,0,0,0,4.44l0.07,0.12,0.2,0.35,0.28,0.48,7.17,12.42h0l0.05,0.09L146.17,56a3.15,3.15,0,0,0,.84,1l0.26,0.19h0A3.16,3.16,0,0,0,151,56.8h0a3.16,3.16,0,0,0,.93-1.51,3.18,3.18,0,0,0,0-1.68,3.13,3.13,0,0,0-.31-0.76l-2-3.4-0.23-.39-0.55-1-2.86-5-0.55-1-0.26-.44,0,0-0.29-.51a2.39,2.39,0,0,1,0-2.37l0.32-.56,0,0,0.28-.48,0.55-1L149,31.86l0.55-1,0.23-.39,0.34-.59a2.38,2.38,0,0,1,2.06-1.19h10.26a2.38,2.38,0,0,1,2.06,1.19l4,6.89h-9.27l0.28,0.48,0.2,0.35,0.07,0.13a4.6,4.6,0,0,1,0,4.44l0,0.05-0.25.42-0.28.48h9.31l-5.58,9.67A3.18,3.18,0,0,0,168.35,56l7.92-13.71A4.64,4.64,0,0,0,176.26,37.69Z"/><path class="cls-2" d="M50.29,22.37A3.42,3.42,0,0,0,47.12,26V36.38H30.19V26A3.42,3.42,0,0,0,27,22.37,3.42,3.42,0,0,0,23.84,26V54A3.42,3.42,0,0,0,27,57.63,3.42,3.42,0,0,0,30.19,54V43.62H47.12V54a3.2,3.2,0,1,0,6.34,0V26A3.42,3.42,0,0,0,50.29,22.37Zm1.41,1.57a2,2,0,0,0-1.41-.61,2,2,0,0,0-1.25.47,2,2,0,0,1,1.25-.47A2,2,0,0,1,51.7,23.93ZM27,23.32a2,2,0,0,1,1.41.61,1.93,1.93,0,0,0-2.82,0A2,2,0,0,1,27,23.32Z"/><path class="cls-2" d="M84.38,43.62A3.42,3.42,0,0,0,87.55,40a3.42,3.42,0,0,0-3.17-3.62H64.27V29.61H84.38A3.42,3.42,0,0,0,87.55,26a3.42,3.42,0,0,0-3.17-3.62H61.1A3.42,3.42,0,0,0,57.93,26V54a3.42,3.42,0,0,0,3.17,3.62H84.38a3.65,3.65,0,0,0,0-7.25H64.27V43.62H84.38ZM86.6,26h0a3.17,3.17,0,0,1-.1.79A3.17,3.17,0,0,0,86.6,26Z"/><path class="cls-2" d="M111.21,40l9.56-11.51a4,4,0,0,0,0-5,2.92,2.92,0,0,0-4.6,0l-9.34,11.24L97.49,23.49a2.92,2.92,0,0,0-4.6,0,4,4,0,0,0,0,5L102.45,40,92.89,51.51a4,4,0,0,0,0,5,2.92,2.92,0,0,0,4.6,0l9.34-11.24,9.34,11.24a2.92,2.92,0,0,0,4.6,0,4,4,0,0,0,0-5Z"/><text class="cls-4" transform="translate(207.39 45.04)">Organizations</text><polygon class="cls-2" points="342.31 37.76 337.83 42.24 333.34 37.76 342.31 37.76"/><text class="cls-4" transform="translate(374.46 45.04)">Services</text><polygon class="cls-2" points="461.45 37.76 456.96 42.24 452.48 37.76 461.45 37.76"/><path class="cls-2" d="M656.67,57.67h47.59V51.78H656.67v5.89Zm0-14.72h47.59V37.06H656.67v5.89Zm0-20.61v5.89h47.59V22.33H656.67Z"/><rect class="cls-5" x="490.46" width="92.33" height="80"/><text class="cls-4" transform="translate(507.97 45.04)">Admin</text><path class="cls-2" d="M611.65,32.27a11.83,11.83,0,0,0-11,7.5,11.82,11.82,0,0,0,22,0A11.83,11.83,0,0,0,611.65,32.27Z"/><circle class="cls-1" cx="611.65" cy="39.77" r="5"/><circle class="cls-2" cx="611.65" cy="39.77" r="3"/></g><g id="desktop-7" data-name="desktop"><rect class="cls-5" x="170.94" y="614.92" width="88.83" height="41"/><text class="cls-6" transform="translate(10.94 134.81)">Contact to</text><path class="cls-1" d="M629.46,160.59v48H411.94v-48H629.46m1-1H410.94v50H630.46v-50h0Z"/><text class="cls-7" transform="translate(470.34 188.79)">Hexaa admins</text><rect class="cls-1" x="90.46" y="161.25" width="219.48" height="50"/><text class="cls-8" transform="translate(131.69 190.46)">Service managers</text><rect class="cls-9" x="170.96" y="302.25" width="459.48" height="38.99"/><path class="cls-5" d="M629.94,302.75v38H171.46v-38H629.94m1-1H170.46v40H630.94v-40h0Z"/><text class="cls-10" transform="translate(10.94 326.5)">Service name</text><text class="cls-10" transform="translate(10.94 406.34)">Title</text><text class="cls-10" transform="translate(10.94 456.17)">Message</text><rect class="cls-9" x="170.96" y="382.08" width="459.48" height="38.99"/><path class="cls-1" d="M629.94,382.58v38H171.46v-38H629.94m1-1H170.46v40H630.94v-40h0Z"/><rect class="cls-9" x="170.96" y="432.83" width="459.48" height="169"/><path class="cls-1" d="M629.94,433.33v168H171.46v-168H629.94m1-1H170.46v170H630.94v-170h0Z"/><text class="cls-11" transform="translate(195.9 639.9)">Send</text><text class="cls-12" transform="translate(187.58 326.22)">blablaal</text><text class="cls-13" transform="translate(170.21 362.22)">Service does not exist.</text></g></svg>