<svg id="profile" xmlns="http://www.w3.org/2000/svg" viewBox="0 0 320 987"><defs><style>.cls-1,.cls-14,.cls-6,.cls-7{fill:#fff;}.cls-15,.cls-19,.cls-2{fill:none;stroke-miterlimit:10;}.cls-2{stroke:#636464;}.cls-16,.cls-17,.cls-18,.cls-3{fill:#333;}.cls-4{fill:#61afc5;}.cls-5{fill:#ba334d;}.cls-6{font-size:8.79px;}.cls-17,.cls-18,.cls-20,.cls-6,.cls-7,.cls-8,.cls-9{font-family:Open Sans;}.cls-16,.cls-7,.cls-8,.cls-9{font-size:15px;}.cls-10,.cls-12,.cls-13,.cls-8,.cls-9{fill:#636464;}.cls-10,.cls-13,.cls-14,.cls-16,.cls-9{font-weight:700;}.cls-10{font-size:25px;}.cls-10,.cls-13,.cls-14,.cls-16{font-family:Roboto Condensed;}.cls-11,.cls-20{fill:#ea7e73;}.cls-13{font-size:18.67px;}.cls-14{font-size:17px;}.cls-15{stroke:#333;}.cls-17{font-size:12px;}.cls-18,.cls-20{font-size:14px;}.cls-19{stroke:#ea7e73;}.cls-20{font-style:italic;}</style></defs><title>mobile</title><g id="mobile-8" data-name="mobile"><rect class="cls-1" x="0.46" y="40.19" width="320" height="919.81"/><rect class="cls-2" x="10" y="267.25" width="300" height="45"/><rect class="cls-3" x="0.46" y="0.19" width="320" height="40"/><path class="cls-1" d="M81.48,19l0-.07-0.11-.18-0.15-.25-2.44-4.23-0.29-.5-0.15-.25-0.8-1.38a2.44,2.44,0,0,0-1.47-1.13L76,11h0l-0.08,0a2.4,2.4,0,0,0-.48,0H67.59a2.42,2.42,0,0,0-2.09,1.21L61.58,19a2.42,2.42,0,0,0,0,2.42l4.14,7.17a1.66,1.66,0,0,0,3.1-.83,1.65,1.65,0,0,0-.22-0.83l-2.92-5.05H77.35l-1.5,2.59-0.29.5-0.12.2-1,1.76a1.62,1.62,0,0,0-.17.43,1.66,1.66,0,0,0,0,1h0a1.64,1.64,0,0,0,.6.78L75,29.19h0A1.66,1.66,0,0,0,77,29h0a1.69,1.69,0,0,0,.35-0.42l0.14-.25,3.72-6.45,0.15-.25,0.13-.22v0A2.4,2.4,0,0,0,81.48,19Zm-15.81-.52,2.08-3.6a1.25,1.25,0,0,1,1.08-.62h5.36a1.24,1.24,0,0,1,1.08.62l0.19,0.33,0.12,0.2L75.86,16l1.49,2.57H65.68Z"/><path class="cls-4" d="M90.14,19l-3.92-6.79A2.43,2.43,0,0,0,84.13,11H76.28l-0.37,0-0.09,0H75.76a2.42,2.42,0,0,0-1.57,1.15l-0.78,1.35-0.15.25-0.29.5-2.44,4.22-0.15.25L70.27,19v0a2.42,2.42,0,0,0,0,2.32l0,0.07,0.11,0.19,0.15,0.25,3.75,6.49h0l0,0,0.12,0.2a1.65,1.65,0,0,0,.44.5L75,29.17h0A1.65,1.65,0,0,0,77,29h0a1.65,1.65,0,0,0,.48-0.79,1.66,1.66,0,0,0,0-.88,1.63,1.63,0,0,0-.16-0.4l-1-1.78-0.12-.2-0.29-.5-1.49-2.59-0.29-.5-0.13-.23,0,0-0.15-.27a1.25,1.25,0,0,1,0-1.24l0.17-.29v0L74.09,19l0.29-.5,1.48-2.57,0.29-.5,0.12-.2,0.18-.31a1.24,1.24,0,0,1,1.08-.62h5.36a1.25,1.25,0,0,1,1.08.62L86,18.53H81.2l0.15,0.25L81.45,19l0,0.07a2.4,2.4,0,0,1,0,2.32v0l-0.13.22-0.15.25H86L83.12,26.9A1.66,1.66,0,0,0,86,28.57l4.14-7.17A2.42,2.42,0,0,0,90.14,19Z"/><path class="cls-1" d="M24.29,11a1.79,1.79,0,0,0-1.66,1.89V18.3H13.78V12.87A1.79,1.79,0,0,0,12.12,11a1.79,1.79,0,0,0-1.66,1.89V27.52a1.79,1.79,0,0,0,1.66,1.89,1.79,1.79,0,0,0,1.66-1.89V22.08h8.85v5.43a1.79,1.79,0,0,0,1.66,1.89,1.79,1.79,0,0,0,1.66-1.89V12.87A1.79,1.79,0,0,0,24.29,11ZM25,11.79a1,1,0,0,0-.74-0.32,1,1,0,0,0-.66.25,1,1,0,0,1,.66-0.25A1,1,0,0,1,25,11.79Zm-12.91-.32a1,1,0,0,1,.74.32,1,1,0,0,0-1.47,0A1,1,0,0,1,12.12,11.47Z"/><path class="cls-1" d="M42.11,22.08a1.79,1.79,0,0,0,1.66-1.89,1.79,1.79,0,0,0-1.66-1.89H31.6V14.76H42.11a1.79,1.79,0,0,0,1.66-1.89A1.79,1.79,0,0,0,42.11,11H29.94a1.79,1.79,0,0,0-1.66,1.89V27.52a1.79,1.79,0,0,0,1.66,1.89H42.11a1.91,1.91,0,0,0,0-3.79H31.6V22.08H42.11Zm1.16-9.22h0a1.66,1.66,0,0,1-.05.41A1.66,1.66,0,0,0,43.27,12.87Z"/><path class="cls-1" d="M56.13,20.19l5-6a2.1,2.1,0,0,0,0-2.61,1.52,1.52,0,0,0-2.41,0l-4.88,5.88L49,11.56a1.52,1.52,0,0,0-2.41,0,2.1,2.1,0,0,0,0,2.61l5,6-5,6a2.1,2.1,0,0,0,0,2.61,1.52,1.52,0,0,0,2.41,0l4.88-5.88,4.88,5.88a1.52,1.52,0,0,0,2.41,0,2.1,2.1,0,0,0,0-2.61Z"/><path class="cls-1" d="M309.07,14.47H307.8v6.35h1.27V14.47Zm3.07,1.38-0.9.9a4.4,4.4,0,0,1,1.65,3.44,4.45,4.45,0,1,1-7.26-3.44l-0.9-.9A5.72,5.72,0,1,0,312.14,15.85Z"/><rect class="cls-4" x="179.77" y="0.19" width="87.19" height="40"/><ellipse class="cls-5" cx="255.92" cy="8.01" rx="10.55" ry="6.59"/><text class="cls-6" transform="translate(253.4 10.47)">1</text><text class="cls-7" transform="translate(187.47 24.39)">Username</text><path class="cls-3" d="M309,57.77v191H11v-191H309m1-1H10v193H310v-193h0Z"/><text class="cls-8" transform="translate(25.1 143.03)">Teniszütő Ernő</text><text class="cls-8" transform="translate(25.1 187.2)">teniszutoerno@gmail.com</text><text class="cls-8" transform="translate(25.1 231.37)">teniszutoerno@partners.sztaki.hu</text><text class="cls-9" transform="translate(25.1 123.78)">Name</text><text class="cls-9" transform="translate(25.1 167.95)">Email</text><text class="cls-9" transform="translate(25.1 212.12)">Federal ID</text><text class="cls-10" transform="translate(25.1 90.12)">P<tspan x="14.22" y="0">r</tspan><tspan x="22.07" y="0">ope</tspan><tspan x="58.85" y="0">r</tspan><tspan x="67.75" y="0">ties</tspan></text><path class="cls-11" d="M277.92,83.15V86.9h3.75l11.06-11.06L289,72.09Zm17.71-10.21a1,1,0,0,0,0-1.41l-2.34-2.34a1,1,0,0,0-1.41,0L290.05,71l3.75,3.75Z"/><path class="cls-1" d="M283.11,16.88a3,3,0,0,1,3,3,2.92,2.92,0,0,1-.22,1.1l1.76,1.76a7.11,7.11,0,0,0,2.06-2.86,7.12,7.12,0,0,0-6.62-4.51,7,7,0,0,0-2.4.42l1.3,1.3A2.92,2.92,0,0,1,283.11,16.88Zm-6-1.64,1.37,1.37,0.28,0.28a7.11,7.11,0,0,0-2.25,3,7.12,7.12,0,0,0,9.26,4L286,24.15l1.76,1.76,0.76-.76L277.86,14.47Zm3.33,3.33,0.93,0.93a1.7,1.7,0,0,0,0,.39,1.8,1.8,0,0,0,1.81,1.81,1.7,1.7,0,0,0,.39,0l0.93,0.93A3,3,0,0,1,280.42,18.57ZM283,18.1l1.9,1.9V19.9a1.8,1.8,0,0,0-1.81-1.81H283Z"/><path class="cls-12" d="M37.73,276.15a13.6,13.6,0,0,0-13.6,13.6H19.6l5.88,5.88,0.11,0.21,6.1-6.09H27.15a10.63,10.63,0,1,1,3.11,7.46l-2.15,2.15A13.59,13.59,0,1,0,37.73,276.15Z"/><polygon class="cls-12" points="36.21 283.77 36.21 291.24 42.61 295.04 43.68 293.23 38.45 290.12 38.45 283.77 36.21 283.77"/><text class="cls-13" transform="translate(101.09 295.21)">Account his<tspan x="88.38" y="0">t</tspan><tspan x="93.84" y="0">o</tspan><tspan x="103.13" y="0">r</tspan><tspan x="109.48" y="0">y</tspan></text><text class="cls-10" transform="translate(10 369.01)">A<tspan x="14.72" y="0">ttributes</tspan></text><rect class="cls-12" x="10" y="866.03" width="300" height="40"/><text class="cls-14" transform="translate(22.2 891) scale(0.81 1)">attribute4</text><rect class="cls-12" x="10" y="916.03" width="300" height="40"/><text class="cls-14" transform="translate(22.2 941) scale(0.81 1)">attribute5</text><rect class="cls-12" x="10" y="573.69" width="300" height="40"/><polygon class="cls-1" points="295.31 594.13 287.77 586.59 280.24 594.13 295.31 594.13"/><text class="cls-14" transform="translate(25 598.66)">Lábmé<tspan x="45.3" y="0">r</tspan><tspan x="50.78" y="0">et</tspan></text><path class="cls-12" d="M309,613.69V804H11V613.69H309m1-1H10V805H310V612.69h0Z"/><path class="cls-12" d="M280.11,664.16v3.73h3.73l11-11-3.73-3.73ZM297.71,654a1,1,0,0,0,0-1.4l-2.33-2.33a1,1,0,0,0-1.4,0l-1.82,1.82,3.73,3.73Z"/><path class="cls-12" d="M277.55,707.19v3.75h3.75l11.06-11.06-3.75-3.75ZM295.25,697a1,1,0,0,0,0-1.41l-2.34-2.34a1,1,0,0,0-1.41,0l-1.83,1.83,3.75,3.75Z"/><rect class="cls-15" x="22.1" y="642.44" width="243.36" height="33"/><text class="cls-16" transform="translate(21.95 636.14) scale(1.04 1)">V<tspan x="8.33" y="0">alues</tspan></text><text class="cls-16" transform="translate(21.95 772.29) scale(1.04 1)">Suppo<tspan x="37.8" y="0">r</tspan><tspan x="43.14" y="0">ted se</tspan><tspan x="79.8" y="0">r</tspan><tspan x="84.91" y="0">vices</tspan></text><text class="cls-17" transform="translate(21.95 790.77)">Service1, service3, service5, service8</text><rect class="cls-15" x="22.1" y="685.44" width="243.36" height="33"/><text class="cls-18" transform="translate(66.95 663.14)">Első érték</text><text class="cls-18" transform="translate(66.95 706.14) scale(0.95 1)">Másodikérték</text><rect class="cls-3" x="29.4" y="728.44" width="2.42" height="18"/><rect class="cls-3" x="29.4" y="728.44" width="2.42" height="18" transform="translate(768.05 706.83) rotate(90)"/><rect class="cls-12" x="10" y="816.03" width="300" height="40"/><text class="cls-14" transform="translate(22.2 841) scale(0.81 1)">L<tspan x="8.13" y="0">e</tspan><tspan x="16.16" y="0">vlista</tspan></text><rect class="cls-11" x="10" y="384.34" width="300" height="40"/><polygon class="cls-1" points="295.37 404.81 287.77 397.21 280.18 404.81 295.37 404.81"/><text class="cls-14" transform="translate(25 409.31)">A<tspan x="10.06" y="0">u</tspan><tspan x="18.43" y="0">t</tspan><tspan x="23.4" y="0">ótípus</tspan></text><path class="cls-11" d="M309,423.68V562H11V423.68H309m1-1H10V563H310V422.68h0Z"/><path class="cls-11" d="M278.35,485.79v4.13h4.13l12.18-12.18-4.13-4.13Zm19.51-11.24a1.1,1.1,0,0,0,0-1.55l-2.58-2.58a1.1,1.1,0,0,0-1.55,0l-2,2,4.13,4.13Z"/><text class="cls-17" transform="translate(21.95 547.34)">Service1, service3, service5, service8</text><text class="cls-16" transform="translate(22.38 446.21) scale(1.04 1)">V<tspan x="8.33" y="0">alues</tspan></text><text class="cls-16" transform="translate(22.38 526.36) scale(1.04 1)">Suppo<tspan x="37.8" y="0">r</tspan><tspan x="43.14" y="0">ted se</tspan><tspan x="79.8" y="0">r</tspan><tspan x="84.91" y="0">vices</tspan></text><rect class="cls-19" x="21.95" y="463.5" width="243.52" height="33"/><text class="cls-20" transform="translate(36.79 484.2)">Még nincs érték.</text><path class="cls-1" d="M253.92,412.4a2.05,2.05,0,0,1,.62-1.54,2.45,2.45,0,0,1,3.21,0,2.05,2.05,0,0,1,.62,1.54,2,2,0,0,1-.61,1.52,2.49,2.49,0,0,1-3.23,0A2,2,0,0,1,253.92,412.4Zm3.94-4.3h-3.39L254,394.17h4.34Z"/><polygon class="cls-1" points="295.31 832.26 287.77 839.8 280.24 832.26 295.31 832.26"/><polygon class="cls-1" points="295.31 882.26 287.77 889.8 280.24 882.26 295.31 882.26"/><polygon class="cls-1" points="295.31 932.26 287.77 939.8 280.24 932.26 295.31 932.26"/></g></svg>