<svg id="vo_manager1" xmlns="http://www.w3.org/2000/svg" viewBox="0 0 1920 918.85"><defs><style>.cls-1,.cls-11,.cls-12,.cls-4{fill:#333;}.cls-2{fill:#61afc5;}.cls-3{fill:#ea7e73;}.cls-11,.cls-4{font-size:28px;}.cls-11,.cls-4,.cls-7{font-family:Roboto Condensed;font-weight:700;}.cls-5{fill:none;}.cls-12,.cls-5{stroke:#fff;stroke-miterlimit:10;}.cls-10,.cls-6,.cls-7,.cls-8,.cls-9{fill:#fff;}.cls-7{font-size:32px;}.cls-8{font-size:18px;}.cls-10,.cls-8,.cls-9{font-family:Verdana;}.cls-9{font-size:19px;}.cls-10{font-size:20px;}.cls-11{white-space:pre;}.cls-12{stroke-width:3px;}</style></defs><title>invite_organization</title><g id="icons"><path class="cls-1" d="M852.48,11051.17l27.52-27.52-13.88-13.88-27.52,27.52a19.33,19.33,0,0,0-24.64,2.17l-22.28,22.28,8,8,9.65-9.65a5,5,0,0,1,6.81-.27,3,3,0,0,1,.28.26l13.34,13.34a3,3,0,0,1,.26.28,5,5,0,0,1-.26,6.82l-9.65,9.65,8,8,22.28-22.28a19.32,19.32,0,0,0,2.16-24.65h0Z" transform="translate(0 -10704)"/><path class="cls-2" d="M810,11093.08l-13.34-13.34a5,5,0,0,0-7.09,0l-9.65,9.65h0l-8-8-22.29,22.29a19.33,19.33,0,0,0-2.17,24.64L720,11155.88l13.88,13.88,27.52-27.52a19.32,19.32,0,0,0,24.65-2.16l22.29-22.29-8-8,9.65-9.65A5,5,0,0,0,810,11093.08Z" transform="translate(0 -10704)"/><rect class="cls-3" x="734.42" y="310.63" width="4.46" height="33.24"/><rect class="cls-3" x="734.41" y="11014.63" width="4.46" height="33.24" transform="translate(11767.9 -409.4) rotate(90)"/><text class="cls-4" transform="translate(695.15 539.72)">Invite o<tspan x="83.37" y="0">r</tspan><tspan x="92.39" y="0">ganization</tspan></text><polygon class="cls-5" points="782.04 422.5 769.22 425.94 759.82 416.55 763.26 403.72 776.09 400.28 785.48 409.67 782.04 422.5"/><circle class="cls-6" cx="759.82" cy="11120.54" r="2.65" transform="translate(-7640.86 -6909.6) rotate(-45)"/><circle class="cls-6" cx="763.25" cy="11107.7" r="2.65" transform="translate(-7630.78 -6910.93) rotate(-45)"/><circle class="cls-6" cx="776.07" cy="11104.28" r="2.65" transform="translate(-7624.6 -6902.87) rotate(-45)"/><circle class="cls-6" cx="785.44" cy="11113.68" r="2.65" transform="translate(-7628.51 -6893.49) rotate(-45)"/><circle class="cls-6" cx="782.05" cy="11126.5" r="2.65" transform="translate(-7638.57 -6892.13) rotate(-45)"/><circle class="cls-6" cx="769.14" cy="11129.86" r="2.65" transform="translate(-7644.72 -6900.28) rotate(-45)"/></g><rect class="cls-2" y="79.61" width="1920" height="65"/><text class="cls-7" transform="translate(46.08 123.04)">Se<tspan x="32.59" y="0">r</tspan><tspan x="43.48" y="0">vice name</tspan></text><rect class="cls-1" width="1920" height="80"/><text class="cls-8" transform="translate(1716.5 45.04)">Username</text><path class="cls-6" d="M1868.79,10733.07h-2.43v12.14h2.43v-12.14Zm5.86,2.63-1.72,1.72a8.4,8.4,0,0,1,3.14,6.57,8.5,8.5,0,1,1-13.87-6.58l-1.71-1.71A10.93,10.93,0,1,0,1874.65,10735.71Z" transform="translate(0 -10704)"/><rect class="cls-2" x="501" width="150" height="81.25"/><text class="cls-9" transform="translate(321.17 48.54)">Organizations</text><polygon class="cls-6" points="627.25 40.86 622.76 45.34 618.28 40.86 627.25 40.86"/><text class="cls-10" transform="translate(525 48.7)">Services</text><path class="cls-6" d="M184.84,10741.82l-0.07-.13-0.2-.35-0.28-.48-4.66-8.08-0.55-1-0.28-.48-1.53-2.64a4.67,4.67,0,0,0-2.82-2.16l-0.12,0h0l-0.15,0a4.58,4.58,0,0,0-.91-0.09h-15a4.63,4.63,0,0,0-4,2.31l-7.5,13a4.64,4.64,0,0,0,0,4.62l7.91,13.71a3.18,3.18,0,0,0,5.93-1.59,3.16,3.16,0,0,0-.43-1.59l-5.58-9.67h22.33l-2.86,5-0.55,1-0.23.39-1.94,3.36a3.1,3.1,0,0,0-.33.82,3.17,3.17,0,0,0,.09,1.86h0v0a3.14,3.14,0,0,0,1.15,1.5l0.25,0.17h0a3.17,3.17,0,0,0,3.63-.37h0a3.24,3.24,0,0,0,.66-0.8l0.27-.48,7.12-12.33,0.28-.48,0.25-.42,0-.05A4.6,4.6,0,0,0,184.84,10741.82Zm-30.24-1,4-6.89a2.38,2.38,0,0,1,2.06-1.19H170.9a2.38,2.38,0,0,1,2.06,1.19l0.36,0.63,0.22,0.39,0.55,1,2.84,4.92H154.61Z" transform="translate(0 -10704)"/><path class="cls-2" d="M201.41,10741.69l-7.5-13a4.64,4.64,0,0,0-4-2.31h-15a4.83,4.83,0,0,0-.71.05l-0.17,0h0l-0.1,0a4.64,4.64,0,0,0-3,2.2l-1.49,2.57-0.28.48-0.55,1-4.66,8.08-0.28.48-0.25.43,0,0.05a4.63,4.63,0,0,0,0,4.44l0.07,0.12,0.2,0.35,0.28,0.48,7.17,12.42h0l0.05,0.09,0.22,0.38a3.15,3.15,0,0,0,.84,1l0.26,0.19h0a3.16,3.16,0,0,0,3.75-.37h0a3.16,3.16,0,0,0,.93-1.51,3.18,3.18,0,0,0,0-1.68,3.13,3.13,0,0,0-.31-0.76l-2-3.4-0.23-.39-0.55-1-2.86-5-0.55-1-0.26-.44,0,0-0.29-.51a2.39,2.39,0,0,1,0-2.37l0.32-.56,0,0,0.28-.48,0.55-1,2.84-4.92,0.55-1,0.23-.39,0.34-.59a2.38,2.38,0,0,1,2.06-1.19h10.26a2.38,2.38,0,0,1,2.06,1.19l4,6.89H184.3l0.28,0.48,0.2,0.35,0.07,0.13a4.6,4.6,0,0,1,0,4.44l0,0.05-0.25.42-0.28.48h9.31l-5.58,9.67a3.18,3.18,0,0,0,5.51,3.18l7.92-13.71A4.64,4.64,0,0,0,201.41,10741.69Z" transform="translate(0 -10704)"/><path class="cls-6" d="M75.44,10726.37a3.42,3.42,0,0,0-3.17,3.62v10.39H55.33V10730a3.2,3.2,0,1,0-6.34,0v28a3.2,3.2,0,1,0,6.34,0v-10.39H72.27V10758a3.2,3.2,0,1,0,6.34,0v-28A3.42,3.42,0,0,0,75.44,10726.37Zm1.41,1.57a2,2,0,0,0-1.41-.61,2,2,0,0,0-1.25.47,2,2,0,0,1,1.25-.47A2,2,0,0,1,76.85,10727.93Zm-24.69-.61a2,2,0,0,1,1.41.61,1.93,1.93,0,0,0-2.82,0A2,2,0,0,1,52.16,10727.32Z" transform="translate(0 -10704)"/><path class="cls-6" d="M109.52,10747.62a3.65,3.65,0,0,0,0-7.25H89.42v-6.77h20.11a3.65,3.65,0,0,0,0-7.25H86.25a3.42,3.42,0,0,0-3.17,3.62v28a3.42,3.42,0,0,0,3.17,3.62h23.28a3.65,3.65,0,0,0,0-7.25H89.42v-6.77h20.11Zm2.21-17.63h0a3.17,3.17,0,0,1-.1.79A3.17,3.17,0,0,0,111.74,10730Z" transform="translate(0 -10704)"/><path class="cls-6" d="M136.35,10744l9.56-11.51a4,4,0,0,0,0-5,2.92,2.92,0,0,0-4.6,0l-9.34,11.24-9.34-11.24a2.92,2.92,0,0,0-4.6,0,4,4,0,0,0,0,5l9.56,11.51-9.56,11.51a4,4,0,0,0,0,5,2.92,2.92,0,0,0,4.6,0l9.34-11.24,9.34,11.24a2.92,2.92,0,0,0,4.6,0,4,4,0,0,0,0-5Z" transform="translate(0 -10704)"/><text class="cls-8" transform="translate(395.04 117.15)">Properties</text><text class="cls-8" transform="translate(546.26 117.15)">Managers</text><text class="cls-8" transform="translate(842.17 117.15)">P<tspan x="10.42" y="0">ermissions</tspan></text><text class="cls-8" transform="translate(693.43 117.15)">A<tspan x="12.13" y="0">ttributes</tspan></text><text class="cls-8" transform="translate(1008.82 117.15)">P<tspan x="10.42" y="0">ermission sets</tspan></text><text class="cls-8" transform="translate(1209 117.15)">Connected organizations</text><g id="icons-2" data-name="icons"><path class="cls-1" d="M970.83,11411.31a65,65,0,0,0-65,65H884.17l28.09,28.09,0.51,1,29.18-29.11H920.28a50.8,50.8,0,1,1,14.88,35.68l-10.26,10.26A65,65,0,1,0,970.83,11411.31Z" transform="translate(0 -10704)"/><polygon class="cls-3" points="963.57 743.74 963.57 779.45 994.14 797.6 999.29 788.95 974.29 774.1 974.29 743.74 963.57 743.74"/><text class="cls-4" transform="translate(890.75 911.26)">View his<tspan x="94.36" y="0">t</tspan><tspan x="102.55" y="0">o</tspan><tspan x="116.48" y="0">r</tspan><tspan x="126.01" y="0">y</tspan></text><path class="cls-3" d="M1280,11411.31a65,65,0,1,0,65,65A65,65,0,0,0,1280,11411.31Zm32.5,71.5h-65v-13h65v13Z" transform="translate(0 -10704)"/><text class="cls-4" transform="translate(1200.16 911.26)">Delete se<tspan x="104.23" y="0">r</tspan><tspan x="113.76" y="0">vice</tspan></text><path class="cls-1" d="M619.76,11542.81l-0.27-1.16a139.54,139.54,0,0,1-2.48-13.73c-1.45-11.55-5.31-42.14,12-58.66,7.19-6.85,17.57-10.62,29.24-10.62H659c11.3,0.09,20.64,3.3,27.78,9.55,12.77,11.17,17.64,31.25,14.46,59.69a125.18,125.18,0,0,1-2.38,13.77l-0.27,1.17H619.76Z" transform="translate(0 -10704)"/><path class="cls-6" d="M658.27,11460.13H659c3.53,0,16.46.15,26.78,9.18,18.67,16.33,14.93,49.66,14,58.41a123.75,123.75,0,0,1-2.35,13.58H620.95c-1.1-4.78-1.92-9.39-2.45-13.58-1.42-11.31-5.23-41.38,11.58-57.39,10.21-9.73,23.75-10.21,28.2-10.21m0-3h0c-12.05,0-22.8,3.92-30.27,11-17.88,17-14,48.18-12.49,59.9A141.18,141.18,0,0,0,618,11542l0.54,2.33h81.25l0.53-2.33a126.59,126.59,0,0,0,2.41-13.92c3.24-29-1.79-49.49-15-61-7.42-6.49-17.09-9.83-28.73-9.92h-0.78Z" transform="translate(0 -10704)"/><circle class="cls-1" cx="658.92" cy="730.56" r="23.25"/><path class="cls-6" d="M645.81,11511l2.84,2.84a1.19,1.19,0,0,0,1.73,0l11.23-11.23a8.06,8.06,0,0,0,10.12-11l-5.43,5.3-3.7-3.7,5.3-5.3a8.16,8.16,0,0,0-9.13,1.6,7.92,7.92,0,0,0-1.85,8.51l-11.23,11.23A1.11,1.11,0,0,0,645.81,11511Z" transform="translate(0 -10704)"/><path class="cls-3" d="M604.26,11411.31H582a2.77,2.77,0,0,0-2.76,2.78v16.66a2.79,2.79,0,0,0,2.78,2.78h22.22a2.79,2.79,0,0,0,2.78-2.78v-16.66A2.79,2.79,0,0,0,604.26,11411.31Zm0,19.44H582v-13.89l11.11,6.94,11.11-6.94v13.89Zm-11.11-9.72-11.11-6.94h22.22Z" transform="translate(0 -10704)"/><text class="cls-11" transform="translate(555.75 911.26)"> Contact admin</text><rect class="cls-3" x="1374.09" y="305.76" width="4.29" height="31.94"/><rect class="cls-3" x="1374.09" y="11009.76" width="4.29" height="31.94" transform="translate(12401.97 -1054.49) rotate(90)"/><rect class="cls-1" x="1360.26" y="354" width="159.48" height="111.24"/><polygon class="cls-12" points="1440 409.63 1519.74 354 1360.26 354 1440 409.63"/><path class="cls-6" d="M1509.41,11164a52.84,52.84,0,0,1-1,5.8h-32.66c-0.47-2-.82-4-1-5.8-0.61-4.83-2.23-17.67,4.94-24.51,4.65-4.43,10.91-4.37,12.37-4.36s7,0.07,11.44,3.92C1511.43,11146,1509.83,11160.23,1509.41,11164Z" transform="translate(0 -10704)"/><circle class="cls-6" cx="1491.97" cy="420.18" r="9.93"/><text class="cls-4" transform="translate(1356.45 539.72)">Invite manager</text><path class="cls-1" d="M1139.11,11013.76l55,152H1179.1l-14.9-43.86-0.92-2.71h-69.86l-1,2.65-15.76,43.93H1063l57.16-152h18.94m-41.9,94.26h61l-1.77-5.27-23.62-70.42-0.92-2.73h-6.12l-1,2.63-25.63,70.42-2,5.37m44.71-98.26H1117.4l-60.17,160h22.28l16.71-46.57h64.18l15.82,46.57h23.62l-57.94-160h0Zm-39,94.26,25.63-70.42H1129l23.62,70.42h-49.69Z" transform="translate(0 -10704)"/><rect class="cls-3" x="1054.94" y="305.76" width="4.59" height="34.18"/><rect class="cls-3" x="1054.94" y="11009.76" width="4.59" height="34.18" transform="translate(12084.09 -734.38) rotate(90)"/><text class="cls-4" transform="translate(1046.36 539.72)">Add attribute<tspan x="0.86" y="27">specification</tspan></text><polygon class="cls-1" points="560 371.84 466.07 465.76 400 399.73 411.1 388.63 466.07 443.61 548.95 360.78 560 371.84"/><rect class="cls-3" x="414.8" y="305.76" width="4.59" height="34.18"/><rect class="cls-3" x="414.8" y="11009.76" width="4.59" height="34.18" transform="translate(11443.95 -94.24) rotate(90)"/><text class="cls-4" transform="translate(377.71 539.72)">C<tspan x="15.97" y="0">r</tspan><tspan x="24.99" y="0">eate permission</tspan></text><text y="-10704"/></g></svg>