<svg id="index2" xmlns="http://www.w3.org/2000/svg" viewBox="0 0 130 112.58"><defs><style>.cls-1{fill:#ea7e73;}.cls-2{fill:#fff;}</style></defs><title>add service</title><g id="content"><polygon class="cls-1" points="130 56.29 97.5 112.58 32.5 112.58 0 56.29 32.5 0 97.5 0 130 56.29"/><path class="cls-2" d="M996.56,1661.57l-8.08-6.32a26.44,26.44,0,0,0,0-7.51l8.08-6.32A1.94,1.94,0,0,0,997,1639l-7.66-13.26a1.93,1.93,0,0,0-2.34-.84l-9.54,3.83a27.83,27.83,0,0,0-6.48-3.75l-1.45-10.16a1.87,1.87,0,0,0-1.88-1.61H952.33a1.87,1.87,0,0,0-1.88,1.61L949,1624.95a29.36,29.36,0,0,0-6.48,3.75l-9.54-3.83a1.87,1.87,0,0,0-2.34.84L923,1639a1.89,1.89,0,0,0,.46,2.45l8.08,6.32a26.41,26.41,0,0,0,0,7.51l-8.08,6.32A1.93,1.93,0,0,0,923,1664l7.66,13.26a1.94,1.94,0,0,0,2.34.85l9.54-3.83a27.84,27.84,0,0,0,6.48,3.75l1.45,10.16a1.87,1.87,0,0,0,1.88,1.61h15.33a1.87,1.87,0,0,0,1.88-1.61l1.45-10.16a29.36,29.36,0,0,0,6.48-3.75l9.54,3.83a1.87,1.87,0,0,0,2.34-.85L997,1664A1.94,1.94,0,0,0,996.56,1661.57ZM960,1669.85a18.35,18.35,0,1,1,18.35-18.35A18.36,18.36,0,0,1,960,1669.85Z" transform="translate(-894.99 -1595.21)"/></g></svg>