<svg id="admin2" xmlns="http://www.w3.org/2000/svg" viewBox="0 0 153.04 35.27"><defs><style>.cls-1{fill:#fff;}.cls-2{fill:#61afc5;}</style></defs><title>hexaa_blue</title><path class="cls-1" d="M8001.21,4793.76l-0.07-.13-0.2-.35-0.28-.48-4.66-8.08-0.55-1-0.28-.48-1.53-2.64a4.67,4.67,0,0,0-2.82-2.16l-0.12,0h0l-0.15,0a4.58,4.58,0,0,0-.91-0.09h-15a4.63,4.63,0,0,0-4,2.31l-7.5,13a4.64,4.64,0,0,0,0,4.62L7971,4812a3.18,3.18,0,0,0,5.93-1.59,3.16,3.16,0,0,0-.43-1.59l-5.58-9.67h22.33l-2.86,5-0.55,1-0.23.39-1.94,3.36a3.1,3.1,0,0,0-.33.82,3.17,3.17,0,0,0,.09,1.86h0v0a3.14,3.14,0,0,0,1.15,1.5l0.25,0.17h0a3.17,3.17,0,0,0,3.63-.37h0a3.24,3.24,0,0,0,.66-0.8l0.27-.48,7.12-12.33,0.28-.48,0.25-.42,0-.05A4.6,4.6,0,0,0,8001.21,4793.76Zm-30.24-1,4-6.89a2.38,2.38,0,0,1,2.06-1.19h10.26a2.38,2.38,0,0,1,2.06,1.19l0.36,0.63,0.22,0.39,0.55,1,2.84,4.92H7971Z" transform="translate(-7865.35 -4778.31)"/><path class="cls-2" d="M8017.77,4793.63l-7.5-13a4.64,4.64,0,0,0-4-2.31h-15a4.83,4.83,0,0,0-.71.05l-0.17,0h0l-0.1,0a4.64,4.64,0,0,0-3,2.2l-1.49,2.57-0.28.48-0.55,1-4.66,8.08-0.28.48-0.25.43,0,0.05a4.63,4.63,0,0,0,0,4.44l0.07,0.12,0.2,0.35,0.28,0.48,7.17,12.42h0l0.05,0.09,0.22,0.38a3.15,3.15,0,0,0,.84,1l0.26,0.19h0a3.16,3.16,0,0,0,3.75-.37h0a3.16,3.16,0,0,0,.93-1.51,3.18,3.18,0,0,0,0-1.68,3.13,3.13,0,0,0-.31-0.76l-2-3.4L7991,4805l-0.55-1-2.86-5-0.55-1-0.26-.44,0,0-0.29-.51a2.39,2.39,0,0,1,0-2.37l0.32-.56,0,0,0.28-.48,0.55-1,2.84-4.92,0.55-1,0.23-.39,0.34-.59a2.38,2.38,0,0,1,2.06-1.19h10.26a2.38,2.38,0,0,1,2.06,1.19l4,6.89h-9.27l0.28,0.48,0.2,0.35,0.07,0.13a4.6,4.6,0,0,1,0,4.44l0,0.05-0.25.42-0.28.48h9.31l-5.58,9.67a3.18,3.18,0,0,0,5.51,3.18l7.92-13.71A4.64,4.64,0,0,0,8017.77,4793.63Z" transform="translate(-7865.35 -4778.31)"/><path class="cls-1" d="M7891.8,4778.31a3.42,3.42,0,0,0-3.17,3.62v10.39H7871.7v-10.39a3.2,3.2,0,1,0-6.34,0v28a3.2,3.2,0,1,0,6.34,0v-10.39h16.94V4810a3.2,3.2,0,1,0,6.34,0v-28A3.42,3.42,0,0,0,7891.8,4778.31Zm1.41,1.57a2,2,0,0,0-1.41-.61,2,2,0,0,0-1.25.47,2,2,0,0,1,1.25-.47A2,2,0,0,1,7893.21,4779.88Zm-24.69-.61a2,2,0,0,1,1.41.61,1.93,1.93,0,0,0-2.82,0A2,2,0,0,1,7868.52,4779.27Z" transform="translate(-7865.35 -4778.31)"/><path class="cls-1" d="M7925.89,4799.57a3.65,3.65,0,0,0,0-7.25h-20.11v-6.77h20.11a3.65,3.65,0,0,0,0-7.25h-23.28a3.42,3.42,0,0,0-3.17,3.62v28a3.42,3.42,0,0,0,3.17,3.62h23.28a3.65,3.65,0,0,0,0-7.25h-20.11v-6.77h20.11Zm2.21-17.63h0a3.17,3.17,0,0,1-.1.79A3.17,3.17,0,0,0,7928.1,4781.93Z" transform="translate(-7865.35 -4778.31)"/><path class="cls-1" d="M7952.71,4795.95l9.56-11.51a4,4,0,0,0,0-5,2.92,2.92,0,0,0-4.6,0l-9.34,11.24-9.34-11.24a2.92,2.92,0,0,0-4.6,0,4,4,0,0,0,0,5l9.56,11.51-9.56,11.51a4,4,0,0,0,0,5,2.92,2.92,0,0,0,4.6,0l9.34-11.24,9.34,11.24a2.92,2.92,0,0,0,4.6,0,4,4,0,0,0,0-5Z" transform="translate(-7865.35 -4778.31)"/></svg>