<svg id="service1" xmlns="http://www.w3.org/2000/svg" viewBox="0 0 169.03 160"><defs><style>.cls-1{fill:#ea7e73;}.cls-2,.cls-3{fill:#333;}.cls-3{stroke:#fff;stroke-miterlimit:10;stroke-width:3px;}.cls-4{fill:#fff;}</style></defs><title>invite_manager</title><g id="icons"><rect class="cls-1" x="18.6" width="4.29" height="31.94"/><rect class="cls-1" x="1374.09" y="11009.76" width="4.29" height="31.94" transform="translate(11046.48 -1360.26) rotate(90)"/><rect class="cls-2" x="4.77" y="48.24" width="159.48" height="111.24"/><polygon class="cls-3" points="84.51 103.86 164.25 48.24 4.77 48.24 84.51 103.86"/><path class="cls-4" d="M1509.41,11164a52.84,52.84,0,0,1-1,5.8h-32.66c-0.47-2-.82-4-1-5.8-0.61-4.83-2.23-17.67,4.94-24.51,4.65-4.43,10.91-4.37,12.37-4.36s7,0.07,11.44,3.92C1511.43,11146,1509.83,11160.23,1509.41,11164Z" transform="translate(-1355.49 -11009.76)"/><circle class="cls-4" cx="136.48" cy="114.41" r="9.93"/></g></svg>