<svg id="Layer_1" data-name="Layer 1" xmlns="http://www.w3.org/2000/svg" viewBox="0 0 1920 1080"><defs><style>.cls-1{fill:#333;}.cls-10,.cls-11,.cls-2,.cls-4,.cls-6{fill:#fff;}.cls-3,.cls-5,.cls-7,.cls-9{fill:#61afc5;}.cls-4{font-size:18px;font-family:Verdana;}.cls-5{font-size:26px;font-family:Roboto Condensed;}.cls-11,.cls-5,.cls-9{font-weight:700;}.cls-11,.cls-6,.cls-7,.cls-9{font-size:19px;font-family:Open Sans;}.cls-7{font-style:italic;}.cls-8{fill:none;stroke:#61afc5;}.cls-10,.cls-8{stroke-miterlimit:10;}.cls-10{stroke:#fff;}</style></defs><title>create_service</title><rect class="cls-1" width="1920" height="80"/><path class="cls-2" d="M184.84,39l-0.07-.13-0.2-.35-0.28-.48L179.64,30l-0.55-1-0.28-.48-1.53-2.64a4.67,4.67,0,0,0-2.82-2.16l-0.12,0h0l-0.15,0a4.58,4.58,0,0,0-.91-0.09h-15a4.63,4.63,0,0,0-4,2.31l-7.5,13a4.64,4.64,0,0,0,0,4.62l7.91,13.71a3.18,3.18,0,0,0,5.93-1.59,3.16,3.16,0,0,0-.43-1.59l-5.58-9.67h22.33l-2.86,5-0.55,1-0.23.39-1.94,3.36a3.1,3.1,0,0,0-.33.82,3.17,3.17,0,0,0,.09,1.86h0v0a3.14,3.14,0,0,0,1.15,1.5l0.25,0.17h0a3.17,3.17,0,0,0,3.63-.37h0a3.24,3.24,0,0,0,.66-0.8l0.27-.48,7.12-12.33,0.28-.48,0.25-.42,0-.05A4.6,4.6,0,0,0,184.84,39Zm-30.24-1,4-6.89A2.38,2.38,0,0,1,160.64,30H170.9A2.38,2.38,0,0,1,173,31.14l0.36,0.63,0.22,0.39,0.55,1L176.94,38H154.61Z"/><path class="cls-3" d="M201.41,38.9l-7.5-13a4.64,4.64,0,0,0-4-2.31h-15a4.83,4.83,0,0,0-.71.05l-0.17,0h0l-0.1,0a4.64,4.64,0,0,0-3,2.2l-1.49,2.57-0.28.48-0.55,1L163.92,38l-0.28.48-0.25.43,0,0.05a4.63,4.63,0,0,0,0,4.44l0.07,0.12,0.2,0.35,0.28,0.48L171,56.77h0l0.05,0.09,0.22,0.38a3.15,3.15,0,0,0,.84,1l0.26,0.19h0a3.16,3.16,0,0,0,3.75-.37h0a3.16,3.16,0,0,0,.93-1.51,3.18,3.18,0,0,0,0-1.68,3.13,3.13,0,0,0-.31-0.76l-2-3.4-0.23-.39-0.55-1-2.86-5-0.55-1L170.41,43l0,0-0.29-.51a2.39,2.39,0,0,1,0-2.37l0.32-.56,0,0,0.28-.48,0.55-1,2.84-4.92,0.55-1,0.23-.39,0.34-.59A2.38,2.38,0,0,1,177.27,30h10.26a2.38,2.38,0,0,1,2.06,1.19l4,6.89H184.3l0.28,0.48,0.2,0.35L184.84,39a4.6,4.6,0,0,1,0,4.44l0,0.05-0.25.42-0.28.48h9.31L188,54.06a3.18,3.18,0,0,0,5.51,3.18l7.92-13.71A4.64,4.64,0,0,0,201.41,38.9Z"/><path class="cls-2" d="M75.44,23.58a3.42,3.42,0,0,0-3.17,3.62V37.59H55.33V27.2a3.2,3.2,0,1,0-6.34,0v28a3.2,3.2,0,1,0,6.34,0V44.84H72.27V55.23a3.2,3.2,0,1,0,6.34,0v-28A3.42,3.42,0,0,0,75.44,23.58Zm1.41,1.57a2,2,0,0,0-1.41-.61,2,2,0,0,0-1.25.47,2,2,0,0,1,1.25-.47A2,2,0,0,1,76.85,25.15Zm-24.69-.61a2,2,0,0,1,1.41.61,1.93,1.93,0,0,0-2.82,0A2,2,0,0,1,52.16,24.54Z"/><path class="cls-2" d="M109.53,44.84a3.42,3.42,0,0,0,3.17-3.62,3.42,3.42,0,0,0-3.17-3.62H89.42V30.82h20.11a3.42,3.42,0,0,0,3.17-3.62,3.42,3.42,0,0,0-3.17-3.62H86.25a3.42,3.42,0,0,0-3.17,3.62v28a3.42,3.42,0,0,0,3.17,3.62h23.28a3.65,3.65,0,0,0,0-7.25H89.42V44.84h20.11Zm2.21-17.63h0a3.17,3.17,0,0,1-.1.79A3.17,3.17,0,0,0,111.74,27.2Z"/><path class="cls-2" d="M136.35,41.21l9.56-11.51a4,4,0,0,0,0-5,2.92,2.92,0,0,0-4.6,0L132,35.95l-9.34-11.24a2.92,2.92,0,0,0-4.6,0,4,4,0,0,0,0,5l9.56,11.51L118,52.73a4,4,0,0,0,0,5,2.92,2.92,0,0,0,4.6,0L132,46.48l9.34,11.24a2.92,2.92,0,0,0,4.6,0,4,4,0,0,0,0-5Z"/><path class="cls-2" d="M1868.79,29.07h-2.43V41.21h2.43V29.07Zm5.86,2.63-1.72,1.72a8.4,8.4,0,0,1,3.14,6.57,8.5,8.5,0,1,1-13.87-6.58l-1.71-1.71A10.93,10.93,0,1,0,1874.65,31.71Z"/><text class="cls-4" transform="translate(1716.5 45.04)">Username</text><rect class="cls-3" x="702.5" y="209.86" width="172" height="14"/><path class="cls-2" d="M874,210.36v13H703v-13H874m1-1H702v15H875v-15h0Z"/><rect class="cls-3" x="530.5" y="209.86" width="172" height="14"/><path class="cls-2" d="M702,210.36v13H531v-13H702m1-1H530v15H703v-15h0Z"/><path class="cls-3" d="M1389,210.36v13H531v-13h858m1-1H530v15h860v-15h0Z"/><text class="cls-5" transform="translate(530 175.52)">C<tspan x="14.83" y="0">r</tspan><tspan x="23.21" y="0">eate se</tspan><tspan x="98.55" y="0">r</tspan><tspan x="107.4" y="0">vice</tspan></text><rect class="cls-3" x="1250" y="150" width="140" height="39.9"/><text class="cls-6" transform="translate(1299.61 175.52)">Next</text><text class="cls-7" transform="translate(771.15 270.36)">Válaszd ki a használni kívánt attribútumokat.</text><path class="cls-3" d="M1389,334.36v38H531v-38h858m1-1H530v40h860v-40h0Z"/><rect class="cls-8" x="546.36" y="342.7" width="23.97" height="20.67"/><text class="cls-9" transform="translate(590 359.36)">attribute1</text><rect class="cls-3" x="530" y="372.36" width="860" height="40"/><rect class="cls-10" x="546.36" y="381.7" width="23.97" height="20.67"/><text class="cls-11" transform="translate(590 398.36)">attribute1</text><polygon class="cls-3" points="567.57 387.59 556.74 398.42 549.12 390.8 550.4 389.52 556.74 395.86 566.29 386.31 567.57 387.59"/><path class="cls-3" d="M1389,412.36v38H531v-38h858m1-1H530v40h860v-40h0Z"/><rect class="cls-8" x="546.36" y="420.7" width="23.97" height="20.67"/><text class="cls-9" transform="translate(590 437.36)">attribute1</text><path class="cls-3" d="M1389,451.36v38H531v-38h858m1-1H530v40h860v-40h0Z"/><rect class="cls-8" x="546.36" y="459.7" width="23.97" height="20.67"/><text class="cls-9" transform="translate(590 476.36)">attribute1</text><path class="cls-3" d="M1389,490.36v38H531v-38h858m1-1H530v40h860v-40h0Z"/><rect class="cls-8" x="546.36" y="498.7" width="23.97" height="20.67"/><text class="cls-9" transform="translate(590 515.36)">attribute1</text><path class="cls-3" d="M1389,529.36v38H531v-38h858m1-1H530v40h860v-40h0Z"/><rect class="cls-8" x="546.36" y="537.7" width="23.97" height="20.67"/><text class="cls-9" transform="translate(590 554.36)">attribute1</text><path class="cls-3" d="M1389,568.36v38H531v-38h858m1-1H530v40h860v-40h0Z"/><rect class="cls-8" x="546.36" y="576.7" width="23.97" height="20.67"/><text class="cls-9" transform="translate(590 593.36)">attribute1</text><path class="cls-3" d="M1389,607.36v38H531v-38h858m1-1H530v40h860v-40h0Z"/><rect class="cls-8" x="546.36" y="615.7" width="23.97" height="20.67"/><text class="cls-9" transform="translate(590 632.36)">attribute1</text><path class="cls-3" d="M1389,646.36v38H531v-38h858m1-1H530v40h860v-40h0Z"/><rect class="cls-8" x="546.36" y="654.7" width="23.97" height="20.67"/><text class="cls-9" transform="translate(590 671.36)">attribute1</text><path class="cls-3" d="M1389,685.36v38H531v-38h858m1-1H530v40h860v-40h0Z"/><rect class="cls-8" x="546.36" y="693.7" width="23.97" height="20.67"/><text class="cls-9" transform="translate(590 710.36)">attribute1</text><path class="cls-3" d="M1389,724.36v38H531v-38h858m1-1H530v40h860v-40h0Z"/><rect class="cls-8" x="546.36" y="732.7" width="23.97" height="20.67"/><text class="cls-9" transform="translate(590 749.36)">attribute1</text><path class="cls-3" d="M1389,763.36v38H531v-38h858m1-1H530v40h860v-40h0Z"/><rect class="cls-8" x="546.36" y="771.7" width="23.97" height="20.67"/><text class="cls-9" transform="translate(590 788.36)">attribute1</text><path class="cls-3" d="M1389,802.36v38H531v-38h858m1-1H530v40h860v-40h0Z"/><rect class="cls-8" x="546.36" y="810.7" width="23.97" height="20.67"/><text class="cls-9" transform="translate(590 827.36)">attribute1</text><path class="cls-3" d="M1389,841.36v38H531v-38h858m1-1H530v40h860v-40h0Z"/><rect class="cls-8" x="546.36" y="849.7" width="23.97" height="20.67"/><text class="cls-9" transform="translate(590 866.36)">attribute1</text><path class="cls-3" d="M1389,880.36v38H531v-38h858m1-1H530v40h860v-40h0Z"/><rect class="cls-8" x="546.36" y="888.7" width="23.97" height="20.67"/><text class="cls-9" transform="translate(590 905.36)">attribute1</text><path class="cls-3" d="M1389,919.36v38H531v-38h858m1-1H530v40h860v-40h0Z"/><rect class="cls-8" x="546.36" y="927.7" width="23.97" height="20.67"/><text class="cls-9" transform="translate(590 944.36)">attribute1</text><path class="cls-3" d="M1389,958.36v38H531v-38h858m1-1H530v40h860v-40h0Z"/><rect class="cls-8" x="546.36" y="966.7" width="23.97" height="20.67"/><text class="cls-9" transform="translate(590 983.36)">attribute1</text></svg>