<svg id="Layer_1" data-name="Layer 1" xmlns="http://www.w3.org/2000/svg" viewBox="0 0 1920 1080"><defs><style>.cls-1{fill:#333;}.cls-2,.cls-4,.cls-8{fill:#fff;}.cls-3,.cls-5{fill:#61afc5;}.cls-4{font-size:18px;font-family:Verdana;}.cls-5{font-size:26px;}.cls-5,.cls-6{font-family:Roboto Condensed;font-weight:700;}.cls-6{font-size:36.16px;}.cls-6,.cls-7{fill:#e97d73;}.cls-8{font-size:19px;font-family:Open Sans;}.cls-9{fill:none;stroke:#e97d73;stroke-miterlimit:10;}</style></defs><title>create_vo</title><rect class="cls-1" x="2" width="1920" height="80"/><path class="cls-2" d="M186.85,39l-0.07-.13-0.2-.35-0.28-.48L181.64,30l-0.55-1-0.28-.48-1.53-2.64a4.67,4.67,0,0,0-2.82-2.16l-0.12,0h0l-0.15,0a4.58,4.58,0,0,0-.91-0.09h-15a4.63,4.63,0,0,0-4,2.31l-7.5,13a4.64,4.64,0,0,0,0,4.62l7.91,13.71a3.18,3.18,0,0,0,5.93-1.59,3.16,3.16,0,0,0-.43-1.59l-5.58-9.67h22.33l-2.86,5-0.55,1-0.23.39-1.94,3.36a3.1,3.1,0,0,0-.33.82,3.17,3.17,0,0,0,.09,1.86h0v0a3.14,3.14,0,0,0,1.15,1.5l0.25,0.17h0a3.17,3.17,0,0,0,3.63-.37h0a3.24,3.24,0,0,0,.66-0.8l0.27-.48,7.12-12.33,0.28-.48,0.25-.42,0-.05A4.6,4.6,0,0,0,186.85,39Zm-30.24-1,4-6.89A2.38,2.38,0,0,1,162.64,30H172.9A2.38,2.38,0,0,1,175,31.14l0.36,0.63,0.22,0.39,0.55,1L178.94,38H156.61Z"/><path class="cls-3" d="M203.41,38.9l-7.5-13a4.64,4.64,0,0,0-4-2.31h-15a4.83,4.83,0,0,0-.71.05l-0.17,0h0l-0.1,0a4.64,4.64,0,0,0-3,2.2l-1.49,2.57-0.28.48-0.55,1L165.92,38l-0.28.48-0.25.43,0,0.05a4.63,4.63,0,0,0,0,4.44l0.07,0.12,0.2,0.35,0.28,0.48L173,56.77h0l0.05,0.09,0.22,0.38a3.15,3.15,0,0,0,.84,1l0.26,0.19h0a3.16,3.16,0,0,0,3.75-.37h0a3.16,3.16,0,0,0,.93-1.51,3.18,3.18,0,0,0,0-1.68,3.13,3.13,0,0,0-.31-0.76l-2-3.4-0.23-.39-0.55-1-2.86-5-0.55-1L172.41,43l0,0-0.29-.51a2.39,2.39,0,0,1,0-2.37l0.32-.56,0,0,0.28-.48,0.55-1,2.84-4.92,0.55-1,0.23-.39,0.34-.59A2.38,2.38,0,0,1,179.28,30h10.26a2.38,2.38,0,0,1,2.06,1.19l4,6.89H186.3l0.28,0.48,0.2,0.35L186.85,39a4.6,4.6,0,0,1,0,4.44l0,0.05-0.25.42-0.28.48h9.31L190,54.06a3.18,3.18,0,0,0,5.51,3.18l7.92-13.71A4.64,4.64,0,0,0,203.41,38.9Z"/><path class="cls-2" d="M77.44,23.58a3.42,3.42,0,0,0-3.17,3.62V37.59H57.33V27.2a3.2,3.2,0,1,0-6.34,0v28a3.2,3.2,0,1,0,6.34,0V44.84H74.27V55.23a3.2,3.2,0,1,0,6.34,0v-28A3.42,3.42,0,0,0,77.44,23.58Zm1.41,1.57a2,2,0,0,0-1.41-.61,2,2,0,0,0-1.25.47,2,2,0,0,1,1.25-.47A2,2,0,0,1,78.85,25.15Zm-24.69-.61a2,2,0,0,1,1.41.61,1.93,1.93,0,0,0-2.82,0A2,2,0,0,1,54.16,24.54Z"/><path class="cls-2" d="M111.53,44.84a3.42,3.42,0,0,0,3.17-3.62,3.42,3.42,0,0,0-3.17-3.62H91.42V30.82h20.11a3.42,3.42,0,0,0,3.17-3.62,3.42,3.42,0,0,0-3.17-3.62H88.25a3.42,3.42,0,0,0-3.17,3.62v28a3.42,3.42,0,0,0,3.17,3.62h23.28a3.65,3.65,0,0,0,0-7.25H91.42V44.84h20.11Zm2.21-17.63h0a3.17,3.17,0,0,1-.1.79A3.17,3.17,0,0,0,113.74,27.2Z"/><path class="cls-2" d="M138.35,41.21l9.56-11.51a4,4,0,0,0,0-5,2.92,2.92,0,0,0-4.6,0L134,35.95l-9.34-11.24a2.92,2.92,0,0,0-4.6,0,4,4,0,0,0,0,5l9.56,11.51L120,52.73a4,4,0,0,0,0,5,2.92,2.92,0,0,0,4.6,0L134,46.48l9.34,11.24a2.92,2.92,0,0,0,4.6,0,4,4,0,0,0,0-5Z"/><path class="cls-2" d="M1870.79,29.07h-2.43V41.21h2.43V29.07Zm5.86,2.63-1.72,1.72a8.4,8.4,0,0,1,3.14,6.57,8.5,8.5,0,1,1-13.87-6.58l-1.71-1.71A10.93,10.93,0,1,0,1876.65,31.71Z"/><text class="cls-4" transform="translate(1718.5 45.04)">Username</text><text class="cls-5" transform="translate(531.2 167.56)">C<tspan x="14.83" y="0">r</tspan><tspan x="23.21" y="0">eate vi</tspan><tspan x="92.54" y="0">r</tspan><tspan x="101.79" y="0">tual o</tspan><tspan x="160.29" y="0">r</tspan><tspan x="168.67" y="0">ganization</tspan></text><text class="cls-6" transform="translate(737.86 353.6)">Now <tspan x="71.36" y="0">y</tspan><tspan x="87.23" y="0">our o</tspan><tspan x="161.34" y="0">r</tspan><tspan x="173" y="0">ganization is done.</tspan></text><rect class="cls-7" x="1250" y="133.57" width="140" height="39"/><text class="cls-8" transform="translate(1299.61 158.63)">Finish</text><ellipse class="cls-9" cx="959.5" cy="458.09" rx="73.5" ry="70.5"/><path class="cls-7" d="M998.06,478.09c-7.65,15.26-22.06,25.56-38.56,25.56s-30.91-10.3-38.56-25.56H919c7.81,16.4,23,27.56,40.5,27.56s32.69-11.16,40.5-27.56h-1.94Z"/><ellipse class="cls-7" cx="933.83" cy="439.29" rx="7.5" ry="7.19"/><ellipse class="cls-7" cx="982.5" cy="439.29" rx="7.5" ry="7.19"/><rect class="cls-3" x="1098.83" y="190.5" width="142.33" height="14"/><path class="cls-2" d="M1240.67,191v13H1099.33V191h141.33m1-1H1098.33v15h143.33V190h0Z"/><rect class="cls-3" x="956.5" y="190.5" width="142.33" height="14"/><path class="cls-2" d="M1098.33,191v13H957V191h141.33m1-1H956v15h143.33V190h0Z"/><rect class="cls-3" x="814.17" y="190.5" width="142.33" height="14"/><path class="cls-2" d="M956,191v13H814.67V191H956m1-1H813.67v15H957V190h0Z"/><rect class="cls-3" x="671.83" y="190.5" width="142.33" height="14"/><path class="cls-2" d="M813.67,191v13H672.33V191H813.67m1-1H671.33v15H814.67V190h0Z"/><rect class="cls-3" x="529.5" y="190.5" width="142.33" height="14"/><path class="cls-2" d="M671.33,191v13H530V191H671.33m1-1H529v15H672.33V190h0Z"/><rect class="cls-3" x="1241.17" y="190.5" width="148.33" height="14"/><path class="cls-2" d="M1389,191v13H1241.67V191H1389m1-1H1240.67v15H1390V190h0Z"/><path class="cls-3" d="M1389,191v13H531V191h858m1-1H530v15h860V190h0Z"/></svg>