<svg id="service1" xmlns="http://www.w3.org/2000/svg" viewBox="0 0 124.44 133"><defs><style>.cls-1{fill:#333;}.cls-2{fill:#fff;}.cls-3{fill:#ea7e73;}</style></defs><title>contact_admin</title><g id="icons"><path class="cls-1" d="M619.76,11542.81l-0.27-1.16a139.54,139.54,0,0,1-2.48-13.73c-1.45-11.55-5.31-42.14,12-58.66,7.19-6.85,17.57-10.62,29.24-10.62H659c11.3,0.09,20.64,3.3,27.78,9.55,12.77,11.17,17.64,31.25,14.46,59.69a125.18,125.18,0,0,1-2.38,13.77l-0.27,1.17H619.76Z" transform="translate(-579.26 -11411.31)"/><path class="cls-2" d="M658.27,11460.13H659c3.53,0,16.46.15,26.78,9.18,18.67,16.33,14.93,49.66,14,58.41a123.75,123.75,0,0,1-2.35,13.58H620.95c-1.1-4.78-1.92-9.39-2.45-13.58-1.42-11.31-5.23-41.38,11.58-57.39,10.21-9.73,23.75-10.21,28.2-10.21m0-3h0c-12.05,0-22.8,3.92-30.27,11-17.88,17-14,48.18-12.49,59.9A141.18,141.18,0,0,0,618,11542l0.54,2.33h81.25l0.53-2.33a126.59,126.59,0,0,0,2.41-13.92c3.24-29-1.79-49.49-15-61-7.42-6.49-17.09-9.83-28.73-9.92h-0.78Z" transform="translate(-579.26 -11411.31)"/><circle class="cls-1" cx="79.66" cy="23.25" r="23.25"/><path class="cls-2" d="M645.81,11511l2.84,2.84a1.19,1.19,0,0,0,1.73,0l11.23-11.23a8.06,8.06,0,0,0,10.12-11l-5.43,5.3-3.7-3.7,5.3-5.3a8.16,8.16,0,0,0-9.13,1.6,7.92,7.92,0,0,0-1.85,8.51l-11.23,11.23A1.11,1.11,0,0,0,645.81,11511Z" transform="translate(-579.26 -11411.31)"/><path class="cls-3" d="M604.26,11411.31H582a2.77,2.77,0,0,0-2.76,2.78v16.66a2.79,2.79,0,0,0,2.78,2.78h22.22a2.79,2.79,0,0,0,2.78-2.78v-16.66A2.79,2.79,0,0,0,604.26,11411.31Zm0,19.44H582v-13.89l11.11,6.94,11.11-6.94v13.89Zm-11.11-9.72-11.11-6.94h22.22Z" transform="translate(-579.26 -11411.31)"/></g></svg>