<svg id="vo_manager1" xmlns="http://www.w3.org/2000/svg" viewBox="0 0 160 160"><defs><style>.cls-1{fill:#333;}.cls-2{fill:#61afc5;}.cls-3{fill:#ea7e73;}.cls-4{fill:none;stroke:#fff;stroke-miterlimit:10;}.cls-5{fill:#fff;}</style></defs><title>invite_organization</title><g id="icons"><path class="cls-1" d="M852.48,11051.17l27.52-27.52-13.88-13.88-27.52,27.52a19.33,19.33,0,0,0-24.64,2.17l-22.28,22.28,8,8,9.65-9.65a5,5,0,0,1,6.81-.27,3,3,0,0,1,.28.26l13.34,13.34a3,3,0,0,1,.26.28,5,5,0,0,1-.26,6.82l-9.65,9.65,8,8,22.28-22.28a19.32,19.32,0,0,0,2.16-24.65h0Z" transform="translate(-720 -11009.76)"/><path class="cls-2" d="M810,11093.08l-13.34-13.34a5,5,0,0,0-7.09,0l-9.65,9.65h0l-8-8-22.29,22.29a19.33,19.33,0,0,0-2.17,24.64L720,11155.88l13.88,13.88,27.52-27.52a19.32,19.32,0,0,0,24.65-2.16l22.29-22.29-8-8,9.65-9.65A5,5,0,0,0,810,11093.08Z" transform="translate(-720 -11009.76)"/><rect class="cls-3" x="14.41" y="4.86" width="4.46" height="33.24"/><rect class="cls-3" x="734.41" y="11014.63" width="4.46" height="33.24" transform="translate(11047.89 -715.16) rotate(90)"/><polygon class="cls-4" points="62.04 116.73 49.21 120.17 39.82 110.78 43.26 97.95 56.09 94.51 65.48 103.91 62.04 116.73"/><circle class="cls-5" cx="759.82" cy="11120.54" r="2.65" transform="translate(-8360.86 -7215.36) rotate(-45)"/><circle class="cls-5" cx="763.25" cy="11107.7" r="2.65" transform="translate(-8350.78 -7216.7) rotate(-45)"/><circle class="cls-5" cx="776.07" cy="11104.28" r="2.65" transform="translate(-8344.61 -7208.63) rotate(-45)"/><circle class="cls-5" cx="785.44" cy="11113.68" r="2.65" transform="translate(-8348.51 -7199.25) rotate(-45)"/><circle class="cls-5" cx="782.05" cy="11126.5" r="2.65" transform="translate(-8358.57 -7197.9) rotate(-45)"/><circle class="cls-5" cx="769.14" cy="11129.86" r="2.65" transform="translate(-8364.73 -7206.04) rotate(-45)"/></g></svg>