<?xml version="1.0" encoding="utf-8"?>
<!-- Generator: Adobe Illustrator 19.2.0, SVG Export Plug-In . SVG Version: 6.00 Build 0)  -->
<svg version="1.1" xmlns="http://www.w3.org/2000/svg" xmlns:xlink="http://www.w3.org/1999/xlink" x="0px" y="0px"
	 viewBox="0 0 1920 1080" style="enable-background:new 0 0 1920 1080;" xml:space="preserve">
<style type="text/css">
	.st0{fill:#333333;}
	.st1{fill:#FFFFFF;}
	.st2{fill:#61AFC5;}
	.st3{fill:none;stroke:#61AFC5;stroke-miterlimit:10;}
	.st4{fill:#FFFFFF;stroke:#FFFFFF;stroke-miterlimit:10;}
	.st5{font-family:'Verdana';}
	.st6{font-size:18px;}
	.st7{font-family:'RobotoCondensed-Bold';}
	.st8{font-size:26px;}
	.st9{fill:#E97D73;}
	.st10{font-family:'OpenSans';}
	.st11{font-size:19px;}
	.st12{font-size:36.1645px;}
	.st13{fill:none;stroke:#E97D73;stroke-miterlimit:10;}
	.st14{fill:#C6DBE0;}
	.st15{fill:none;stroke:#76CABF;stroke-miterlimit:10;}
	.st16{fill:#EE342E;stroke:#76CABF;stroke-miterlimit:10;}
</style>
<g id="Layer_1">
	<rect y="-4896" class="st0" width="1920" height="80"/>
	<path class="st1" d="M184.8-4857c0,0,0-0.1-0.1-0.1l-0.2-0.4l-0.3-0.5l-4.7-8.1l-0.6-1l-0.3-0.5l-1.5-2.6c-0.3-0.5-0.7-1-1.1-1.3
		c-0.5-0.4-1.1-0.7-1.7-0.8l-0.1,0h0c0,0-0.1,0-0.1,0c-0.3-0.1-0.6-0.1-0.9-0.1h-15c-1.6,0-3.2,0.9-4,2.3l-7.5,13
		c-0.8,1.4-0.8,3.2,0,4.6l7.9,13.7c0.6,1,1.6,1.6,2.8,1.6c0.6,0,1.1-0.1,1.6-0.4c1-0.6,1.6-1.6,1.6-2.8c0-0.6-0.1-1.1-0.4-1.6
		l-5.6-9.7h16.6h5.7l-2.9,5l-0.6,1l-0.2,0.4l-1.9,3.4c-0.1,0.3-0.3,0.5-0.3,0.8c-0.2,0.6-0.1,1.3,0.1,1.9h0l0,0
		c0.2,0.6,0.6,1.1,1.2,1.5l0.2,0.2h0c0.5,0.3,1,0.4,1.5,0.4c0.8,0,1.5-0.3,2.1-0.8c0,0,0,0,0,0c0.3-0.2,0.5-0.5,0.7-0.8l0.3-0.5
		l7.1-12.3l0.3-0.5l0.2-0.4c0,0,0,0,0-0.1C185.6-4853.9,185.6-4855.6,184.8-4857z M154.6-4858l4-6.9c0.4-0.7,1.2-1.2,2.1-1.2h10.3
		c0.8,0,1.6,0.5,2.1,1.2l0.4,0.6l0.2,0.4l0.6,1l2.8,4.9H154.6z"/>
	<path class="st2" d="M201.4-4857.1l-7.5-13c-0.8-1.4-2.4-2.3-4-2.3h-15c-0.2,0-0.5,0-0.7,0.1c-0.1,0-0.1,0-0.2,0h0l-0.1,0
		c-0.6,0.1-1.3,0.4-1.8,0.8c-0.5,0.4-0.9,0.8-1.2,1.4l-1.5,2.6l-0.3,0.5l-0.6,1l-4.7,8.1l-0.3,0.5l-0.2,0.4c0,0,0,0,0,0.1
		c-0.8,1.4-0.8,3.1,0,4.4l0.1,0.1l0.2,0.4l0.3,0.5l7.2,12.4v0l0.1,0.1l0.2,0.4c0.2,0.4,0.5,0.7,0.8,1l0.3,0.2h0
		c0.5,0.3,1.1,0.4,1.6,0.4c0.6,0,1.1-0.1,1.6-0.4c0.2-0.1,0.4-0.2,0.5-0.4c0,0,0,0,0,0c0.4-0.4,0.8-0.9,0.9-1.5
		c0.1-0.3,0.1-0.6,0.1-0.8c0-0.3,0-0.6-0.1-0.8c-0.1-0.3-0.2-0.5-0.3-0.8l-2-3.4l-0.2-0.4l-0.6-1l-2.9-5l-0.6-1l-0.3-0.4l0,0
		l-0.3-0.5c-0.4-0.7-0.4-1.6,0-2.4l0.3-0.6l0,0l0.3-0.5l0.6-1l2.8-4.9l0.6-1l0.2-0.4l0.3-0.6c0.4-0.7,1.2-1.2,2.1-1.2h1.3h9
		c0.8,0,1.6,0.5,2.1,1.2l4,6.9h-9.3l0.3,0.5l0.2,0.4c0,0,0,0.1,0.1,0.1c0.7,1.4,0.7,3.1,0,4.4c0,0,0,0,0,0.1l-0.2,0.4l-0.3,0.5h9.3
		l-5.6,9.7c-0.9,1.5-0.4,3.5,1.2,4.3c0.5,0.3,1,0.4,1.6,0.4c1.1,0,2.2-0.6,2.8-1.6l7.9-13.7C202.2-4853.9,202.2-4855.7,201.4-4857.1
		z"/>
	<path class="st1" d="M75.4-4872.4c-1.7,0-3.2,1.6-3.2,3.6v10.4H55.3v-10.4c0-2-1.4-3.6-3.2-3.6c-1.7,0-3.2,1.6-3.2,3.6v28
		c0,2,1.4,3.6,3.2,3.6c1.7,0,3.2-1.6,3.2-3.6v-10.4h16.9v10.4c0,2,1.4,3.6,3.2,3.6c1.7,0,3.2-1.6,3.2-3.6v-28
		C78.6-4870.8,77.2-4872.4,75.4-4872.4z M76.8-4870.9c-0.4-0.4-0.9-0.6-1.4-0.6c-0.5,0-0.9,0.2-1.3,0.5c0.4-0.3,0.8-0.5,1.3-0.5
		C76-4871.5,76.5-4871.2,76.8-4870.9z M52.2-4871.5c0.5,0,1,0.2,1.4,0.6C53.2-4871.2,52.7-4871.5,52.2-4871.5s-1,0.2-1.4,0.6
		C51.1-4871.2,51.6-4871.5,52.2-4871.5z"/>
	<path class="st1" d="M109.5-4851.2c1.7,0,3.2-1.6,3.2-3.6s-1.4-3.6-3.2-3.6H89.4v-6.8h20.1c1.7,0,3.2-1.6,3.2-3.6
		c0-2-1.4-3.6-3.2-3.6H86.2c-1.7,0-3.2,1.6-3.2,3.6v28c0,2,1.4,3.6,3.2,3.6h23.3c1.7,0,3.2-1.6,3.2-3.6c0-2-1.4-3.6-3.2-3.6H89.4
		v-6.8H109.5z M111.7-4868.8L111.7-4868.8c0,0.3,0,0.5-0.1,0.8C111.7-4868.3,111.7-4868.5,111.7-4868.8z"/>
	<path class="st1" d="M136.4-4854.8l9.6-11.5c1.2-1.4,1.2-3.6,0-5c-0.6-0.7-1.4-1.1-2.3-1.1c-0.9,0-1.7,0.4-2.3,1.1l-9.3,11.2
		l-9.3-11.2c-0.6-0.7-1.4-1.1-2.3-1.1c-0.9,0-1.7,0.4-2.3,1.1c-1.2,1.4-1.2,3.6,0,5l9.6,11.5l-9.6,11.5c-1.2,1.4-1.2,3.6,0,5
		c0.6,0.7,1.4,1.1,2.3,1.1c0.9,0,1.7-0.4,2.3-1.1l9.3-11.2l9.3,11.2c0.6,0.7,1.4,1.1,2.3,1.1c0.9,0,1.7-0.4,2.3-1.1
		c1.2-1.4,1.2-3.6,0-5L136.4-4854.8z"/>
	<path class="st1" d="M1868.8-4866.9h-2.4v12.1h2.4V-4866.9z M1874.7-4864.3l-1.7,1.7c1.9,1.5,3.1,3.9,3.1,6.6
		c0,4.7-3.8,8.5-8.5,8.5s-8.5-3.8-8.5-8.5c0-2.7,1.2-5,3.1-6.6l-1.7-1.7c-2.4,2-3.8,5-3.8,8.3c0,6,4.9,10.9,10.9,10.9
		s10.9-4.9,10.9-10.9C1878.5-4859.3,1877-4862.3,1874.7-4864.3z"/>
	<text transform="matrix(1 0 0 1 1716.5002 -4850.958)" class="st1 st5 st6">Username</text>
	<rect y="-3720" class="st0" width="1920" height="80"/>
	<path class="st1" d="M184.8-3681c0,0,0-0.1-0.1-0.1l-0.2-0.4l-0.3-0.5l-4.7-8.1l-0.6-1l-0.3-0.5l-1.5-2.6c-0.3-0.5-0.7-1-1.1-1.3
		c-0.5-0.4-1.1-0.7-1.7-0.8l-0.1,0h0c0,0-0.1,0-0.1,0c-0.3-0.1-0.6-0.1-0.9-0.1h-15c-1.6,0-3.2,0.9-4,2.3l-7.5,13
		c-0.8,1.4-0.8,3.2,0,4.6l7.9,13.7c0.6,1,1.6,1.6,2.8,1.6c0.6,0,1.1-0.1,1.6-0.4c1-0.6,1.6-1.6,1.6-2.8c0-0.6-0.1-1.1-0.4-1.6
		l-5.6-9.7h16.6h5.7l-2.9,5l-0.6,1l-0.2,0.4l-1.9,3.4c-0.1,0.3-0.3,0.5-0.3,0.8c-0.2,0.6-0.1,1.3,0.1,1.9h0l0,0
		c0.2,0.6,0.6,1.1,1.2,1.5l0.2,0.2h0c0.5,0.3,1,0.4,1.5,0.4c0.8,0,1.5-0.3,2.1-0.8c0,0,0,0,0,0c0.3-0.2,0.5-0.5,0.7-0.8l0.3-0.5
		l7.1-12.3l0.3-0.5l0.2-0.4c0,0,0,0,0-0.1C185.6-3677.9,185.6-3679.6,184.8-3681z M154.6-3682l4-6.9c0.4-0.7,1.2-1.2,2.1-1.2h10.3
		c0.8,0,1.6,0.5,2.1,1.2l0.4,0.6l0.2,0.4l0.6,1l2.8,4.9H154.6z"/>
	<path class="st2" d="M201.4-3681.1l-7.5-13c-0.8-1.4-2.4-2.3-4-2.3h-15c-0.2,0-0.5,0-0.7,0.1c-0.1,0-0.1,0-0.2,0h0l-0.1,0
		c-0.6,0.1-1.3,0.4-1.8,0.8c-0.5,0.4-0.9,0.8-1.2,1.4l-1.5,2.6l-0.3,0.5l-0.6,1l-4.7,8.1l-0.3,0.5l-0.2,0.4c0,0,0,0,0,0.1
		c-0.8,1.4-0.8,3.1,0,4.4l0.1,0.1l0.2,0.4l0.3,0.5l7.2,12.4v0l0.1,0.1l0.2,0.4c0.2,0.4,0.5,0.7,0.8,1l0.3,0.2h0
		c0.5,0.3,1.1,0.4,1.6,0.4c0.6,0,1.1-0.1,1.6-0.4c0.2-0.1,0.4-0.2,0.5-0.4c0,0,0,0,0,0c0.4-0.4,0.8-0.9,0.9-1.5
		c0.1-0.3,0.1-0.6,0.1-0.8s0-0.6-0.1-0.8c-0.1-0.3-0.2-0.5-0.3-0.8l-2-3.4l-0.2-0.4l-0.6-1l-2.9-5l-0.6-1l-0.3-0.4l0,0l-0.3-0.5
		c-0.4-0.7-0.4-1.6,0-2.4l0.3-0.6l0,0l0.3-0.5l0.6-1l2.8-4.9l0.6-1l0.2-0.4l0.3-0.6c0.4-0.7,1.2-1.2,2.1-1.2h1.3h9
		c0.8,0,1.6,0.5,2.1,1.2l4,6.9h-9.3l0.3,0.5l0.2,0.4c0,0,0,0.1,0.1,0.1c0.7,1.4,0.7,3.1,0,4.4c0,0,0,0,0,0.1l-0.2,0.4l-0.3,0.5h9.3
		l-5.6,9.7c-0.9,1.5-0.4,3.5,1.2,4.3c0.5,0.3,1,0.4,1.6,0.4c1.1,0,2.2-0.6,2.8-1.6l7.9-13.7C202.2-3677.9,202.2-3679.7,201.4-3681.1
		z"/>
	<path class="st1" d="M75.4-3696.4c-1.7,0-3.2,1.6-3.2,3.6v10.4H55.3v-10.4c0-2-1.4-3.6-3.2-3.6c-1.7,0-3.2,1.6-3.2,3.6v28
		c0,2,1.4,3.6,3.2,3.6c1.7,0,3.2-1.6,3.2-3.6v-10.4h16.9v10.4c0,2,1.4,3.6,3.2,3.6c1.7,0,3.2-1.6,3.2-3.6v-28
		C78.6-3694.8,77.2-3696.4,75.4-3696.4z M76.8-3694.9c-0.4-0.4-0.9-0.6-1.4-0.6c-0.5,0-0.9,0.2-1.3,0.5c0.4-0.3,0.8-0.5,1.3-0.5
		C76-3695.5,76.5-3695.2,76.8-3694.9z M52.2-3695.5c0.5,0,1,0.2,1.4,0.6C53.2-3695.2,52.7-3695.5,52.2-3695.5s-1,0.2-1.4,0.6
		C51.1-3695.2,51.6-3695.5,52.2-3695.5z"/>
	<path class="st1" d="M109.5-3675.2c1.7,0,3.2-1.6,3.2-3.6c0-2-1.4-3.6-3.2-3.6H89.4v-6.8h20.1c1.7,0,3.2-1.6,3.2-3.6
		c0-2-1.4-3.6-3.2-3.6H86.2c-1.7,0-3.2,1.6-3.2,3.6v28c0,2,1.4,3.6,3.2,3.6h23.3c1.7,0,3.2-1.6,3.2-3.6c0-2-1.4-3.6-3.2-3.6H89.4
		v-6.8H109.5z M111.7-3692.8L111.7-3692.8c0,0.3,0,0.5-0.1,0.8C111.7-3692.3,111.7-3692.5,111.7-3692.8z"/>
	<path class="st1" d="M136.4-3678.8l9.6-11.5c1.2-1.4,1.2-3.6,0-5c-0.6-0.7-1.4-1.1-2.3-1.1c-0.9,0-1.7,0.4-2.3,1.1l-9.3,11.2
		l-9.3-11.2c-0.6-0.7-1.4-1.1-2.3-1.1c-0.9,0-1.7,0.4-2.3,1.1c-1.2,1.4-1.2,3.6,0,5l9.6,11.5l-9.6,11.5c-1.2,1.4-1.2,3.6,0,5
		c0.6,0.7,1.4,1.1,2.3,1.1c0.9,0,1.7-0.4,2.3-1.1l9.3-11.2l9.3,11.2c0.6,0.7,1.4,1.1,2.3,1.1c0.9,0,1.7-0.4,2.3-1.1
		c1.2-1.4,1.2-3.6,0-5L136.4-3678.8z"/>
	<path class="st1" d="M1868.8-3690.9h-2.4v12.1h2.4V-3690.9z M1874.7-3688.3l-1.7,1.7c1.9,1.5,3.1,3.9,3.1,6.6
		c0,4.7-3.8,8.5-8.5,8.5s-8.5-3.8-8.5-8.5c0-2.7,1.2-5,3.1-6.6l-1.7-1.7c-2.4,2-3.8,5-3.8,8.3c0,6,4.9,10.9,10.9,10.9
		s10.9-4.9,10.9-10.9C1878.5-3683.3,1877-3686.3,1874.7-3688.3z"/>
	<text transform="matrix(1 0 0 1 1716.5002 -3674.958)" class="st1 st5 st6">Username</text>
	<g>
		<g>
			<rect x="702.5" y="-3510.1" class="st2" width="172" height="14"/>
			<path class="st1" d="M874-3509.6v13H703v-13H874 M875-3510.6H702v15h173V-3510.6L875-3510.6z"/>
		</g>
		<g>
			<rect x="530.5" y="-3510.1" class="st2" width="172" height="14"/>
			<path class="st1" d="M702-3509.6v13H531v-13H702 M703-3510.6H530v15h173V-3510.6L703-3510.6z"/>
		</g>
		<g>
		</g>
		<g>
		</g>
		<g>
		</g>
		<g>
		</g>
		<g>
			<path class="st2" d="M1389-3509.6v13H531v-13H1389 M1390-3510.6H530v15h860V-3510.6L1390-3510.6z"/>
		</g>
		<text transform="matrix(1 0 0 1 530.0002 -3544.4844)" class="st2 st7 st8">Create service</text>
		<rect x="1250" y="-3570" class="st2" width="140" height="39.9"/>
		<text transform="matrix(1 0 0 1 1299.6079 -3544.4846)" class="st1 st10 st11">Next</text>
		<g>
			<text transform="matrix(1 0 0 1 771.1453 -3449.6362)" class="st2 st11" style="font-family:'OpenSans-Italic';">Válaszd ki a használni kívánt attribútumokat.</text>
		</g>
		<g>
			<g>
				<path class="st2" d="M1389-3385.6v38H531v-38H1389 M1390-3386.6H530v40h860V-3386.6L1390-3386.6z"/>
			</g>
			<rect x="546.4" y="-3377.3" class="st3" width="24" height="20.7"/>
			<g>
				<text transform="matrix(1 0 0 1 589.9998 -3360.636)" class="st2 st11" style="font-family:'OpenSans-Semibold';">attribute1</text>
			</g>
		</g>
		<g>
			<rect x="530" y="-3347.6" class="st2" width="860" height="40"/>
		</g>
		<rect x="546.4" y="-3338.3" class="st4" width="24" height="20.7"/>
		<g>
			<text transform="matrix(1 0 0 1 589.9998 -3321.636)" class="st1 st11" style="font-family:'OpenSans-Semibold';">attribute1</text>
		</g>
		<polygon class="st2" points="567.6,-3332.4 556.7,-3321.6 549.1,-3329.2 550.4,-3330.5 556.7,-3324.1 566.3,-3333.7 		"/>
		<g>
			<g>
				<path class="st2" d="M1389-3307.6v38H531v-38H1389 M1390-3308.6H530v40h860V-3308.6L1390-3308.6z"/>
			</g>
			<rect x="546.4" y="-3299.3" class="st3" width="24" height="20.7"/>
			<g>
				<text transform="matrix(1 0 0 1 589.9998 -3282.636)" class="st2 st11" style="font-family:'OpenSans-Semibold';">attribute1</text>
			</g>
		</g>
		<g>
			<g>
				<path class="st2" d="M1389-3268.6v38H531v-38H1389 M1390-3269.6H530v40h860V-3269.6L1390-3269.6z"/>
			</g>
			<rect x="546.4" y="-3260.3" class="st3" width="24" height="20.7"/>
			<g>
				<text transform="matrix(1 0 0 1 589.9998 -3243.636)" class="st2 st11" style="font-family:'OpenSans-Semibold';">attribute1</text>
			</g>
		</g>
		<g>
			<g>
				<path class="st2" d="M1389-3229.6v38H531v-38H1389 M1390-3230.6H530v40h860V-3230.6L1390-3230.6z"/>
			</g>
			<rect x="546.4" y="-3221.3" class="st3" width="24" height="20.7"/>
			<g>
				<text transform="matrix(1 0 0 1 589.9998 -3204.636)" class="st2 st11" style="font-family:'OpenSans-Semibold';">attribute1</text>
			</g>
		</g>
		<g>
			<g>
				<path class="st2" d="M1389-3190.6v38H531v-38H1389 M1390-3191.6H530v40h860V-3191.6L1390-3191.6z"/>
			</g>
			<rect x="546.4" y="-3182.3" class="st3" width="24" height="20.7"/>
			<g>
				<text transform="matrix(1 0 0 1 589.9998 -3165.636)" class="st2 st11" style="font-family:'OpenSans-Semibold';">attribute1</text>
			</g>
		</g>
		<g>
			<g>
				<path class="st2" d="M1389-3151.6v38H531v-38H1389 M1390-3152.6H530v40h860V-3152.6L1390-3152.6z"/>
			</g>
			<rect x="546.4" y="-3143.3" class="st3" width="24" height="20.7"/>
			<g>
				<text transform="matrix(1 0 0 1 589.9998 -3126.636)" class="st2 st11" style="font-family:'OpenSans-Semibold';">attribute1</text>
			</g>
		</g>
		<g>
			<g>
				<path class="st2" d="M1389-3112.6v38H531v-38H1389 M1390-3113.6H530v40h860V-3113.6L1390-3113.6z"/>
			</g>
			<rect x="546.4" y="-3104.3" class="st3" width="24" height="20.7"/>
			<g>
				<text transform="matrix(1 0 0 1 589.9998 -3087.636)" class="st2 st11" style="font-family:'OpenSans-Semibold';">attribute1</text>
			</g>
		</g>
		<g>
			<g>
				<path class="st2" d="M1389-3073.6v38H531v-38H1389 M1390-3074.6H530v40h860V-3074.6L1390-3074.6z"/>
			</g>
			<rect x="546.4" y="-3065.3" class="st3" width="24" height="20.7"/>
			<g>
				<text transform="matrix(1 0 0 1 589.9998 -3048.636)" class="st2 st11" style="font-family:'OpenSans-Semibold';">attribute1</text>
			</g>
		</g>
		<g>
			<g>
				<path class="st2" d="M1389-3034.6v38H531v-38H1389 M1390-3035.6H530v40h860V-3035.6L1390-3035.6z"/>
			</g>
			<rect x="546.4" y="-3026.3" class="st3" width="24" height="20.7"/>
			<g>
				<text transform="matrix(1 0 0 1 589.9998 -3009.636)" class="st2 st11" style="font-family:'OpenSans-Semibold';">attribute1</text>
			</g>
		</g>
		<g>
			<g>
				<path class="st2" d="M1389-2995.6v38H531v-38H1389 M1390-2996.6H530v40h860V-2996.6L1390-2996.6z"/>
			</g>
			<rect x="546.4" y="-2987.3" class="st3" width="24" height="20.7"/>
			<g>
				<text transform="matrix(1 0 0 1 589.9998 -2970.636)" class="st2 st11" style="font-family:'OpenSans-Semibold';">attribute1</text>
			</g>
		</g>
		<g>
			<g>
				<path class="st2" d="M1389-2956.6v38H531v-38H1389 M1390-2957.6H530v40h860V-2957.6L1390-2957.6z"/>
			</g>
			<rect x="546.4" y="-2948.3" class="st3" width="24" height="20.7"/>
			<g>
				<text transform="matrix(1 0 0 1 589.9998 -2931.636)" class="st2 st11" style="font-family:'OpenSans-Semibold';">attribute1</text>
			</g>
		</g>
		<g>
			<g>
				<path class="st2" d="M1389-2917.6v38H531v-38H1389 M1390-2918.6H530v40h860V-2918.6L1390-2918.6z"/>
			</g>
			<rect x="546.4" y="-2909.3" class="st3" width="24" height="20.7"/>
			<g>
				<text transform="matrix(1 0 0 1 589.9998 -2892.636)" class="st2 st11" style="font-family:'OpenSans-Semibold';">attribute1</text>
			</g>
		</g>
		<g>
			<g>
				<path class="st2" d="M1389-2878.6v38H531v-38H1389 M1390-2879.6H530v40h860V-2879.6L1390-2879.6z"/>
			</g>
			<rect x="546.4" y="-2870.3" class="st3" width="24" height="20.7"/>
			<g>
				<text transform="matrix(1 0 0 1 589.9998 -2853.636)" class="st2 st11" style="font-family:'OpenSans-Semibold';">attribute1</text>
			</g>
		</g>
		<g>
			<g>
				<path class="st2" d="M1389-2839.6v38H531v-38H1389 M1390-2840.6H530v40h860V-2840.6L1390-2840.6z"/>
			</g>
			<rect x="546.4" y="-2831.3" class="st3" width="24" height="20.7"/>
			<g>
				<text transform="matrix(1 0 0 1 589.9998 -2814.636)" class="st2 st11" style="font-family:'OpenSans-Semibold';">attribute1</text>
			</g>
		</g>
		<g>
			<g>
				<path class="st2" d="M1389-2800.6v38H531v-38H1389 M1390-2801.6H530v40h860V-2801.6L1390-2801.6z"/>
			</g>
			<rect x="546.4" y="-2792.3" class="st3" width="24" height="20.7"/>
			<g>
				<text transform="matrix(1 0 0 1 589.9998 -2775.636)" class="st2 st11" style="font-family:'OpenSans-Semibold';">attribute1</text>
			</g>
		</g>
		<g>
			<g>
				<path class="st2" d="M1389-2761.6v38H531v-38H1389 M1390-2762.6H530v40h860V-2762.6L1390-2762.6z"/>
			</g>
			<rect x="546.4" y="-2753.3" class="st3" width="24" height="20.7"/>
			<g>
				<text transform="matrix(1 0 0 1 589.9998 -2736.636)" class="st2 st11" style="font-family:'OpenSans-Semibold';">attribute1</text>
			</g>
		</g>
	</g>
	<rect y="-2504" class="st0" width="1920" height="80"/>
	<path class="st1" d="M184.8-2465c0,0,0-0.1-0.1-0.1l-0.2-0.4l-0.3-0.5l-4.7-8.1l-0.6-1l-0.3-0.5l-1.5-2.6c-0.3-0.5-0.7-1-1.1-1.3
		c-0.5-0.4-1.1-0.7-1.7-0.8l-0.1,0h0c0,0-0.1,0-0.1,0c-0.3-0.1-0.6-0.1-0.9-0.1h-15c-1.6,0-3.2,0.9-4,2.3l-7.5,13
		c-0.8,1.4-0.8,3.2,0,4.6l7.9,13.7c0.6,1,1.6,1.6,2.8,1.6c0.6,0,1.1-0.1,1.6-0.4c1-0.6,1.6-1.6,1.6-2.8c0-0.6-0.1-1.1-0.4-1.6
		l-5.6-9.7h16.6h5.7l-2.9,5l-0.6,1l-0.2,0.4l-1.9,3.4c-0.1,0.3-0.3,0.5-0.3,0.8c-0.2,0.6-0.1,1.3,0.1,1.9h0l0,0
		c0.2,0.6,0.6,1.1,1.2,1.5l0.2,0.2h0c0.5,0.3,1,0.4,1.5,0.4c0.8,0,1.5-0.3,2.1-0.8c0,0,0,0,0,0c0.3-0.2,0.5-0.5,0.7-0.8l0.3-0.5
		l7.1-12.3l0.3-0.5l0.2-0.4c0,0,0,0,0-0.1C185.6-2461.9,185.6-2463.6,184.8-2465z M154.6-2466l4-6.9c0.4-0.7,1.2-1.2,2.1-1.2h10.3
		c0.8,0,1.6,0.5,2.1,1.2l0.4,0.6l0.2,0.4l0.6,1l2.8,4.9H154.6z"/>
	<path class="st2" d="M201.4-2465.1l-7.5-13c-0.8-1.4-2.4-2.3-4-2.3h-15c-0.2,0-0.5,0-0.7,0.1c-0.1,0-0.1,0-0.2,0h0l-0.1,0
		c-0.6,0.1-1.3,0.4-1.8,0.8c-0.5,0.4-0.9,0.8-1.2,1.4l-1.5,2.6l-0.3,0.5l-0.6,1l-4.7,8.1l-0.3,0.5l-0.2,0.4c0,0,0,0,0,0.1
		c-0.8,1.4-0.8,3.1,0,4.4l0.1,0.1l0.2,0.4l0.3,0.5l7.2,12.4v0l0.1,0.1l0.2,0.4c0.2,0.4,0.5,0.7,0.8,1l0.3,0.2h0
		c0.5,0.3,1.1,0.4,1.6,0.4c0.6,0,1.1-0.1,1.6-0.4c0.2-0.1,0.4-0.2,0.5-0.4c0,0,0,0,0,0c0.4-0.4,0.8-0.9,0.9-1.5
		c0.1-0.3,0.1-0.6,0.1-0.8s0-0.6-0.1-0.8c-0.1-0.3-0.2-0.5-0.3-0.8l-2-3.4l-0.2-0.4l-0.6-1l-2.9-5l-0.6-1l-0.3-0.4l0,0l-0.3-0.5
		c-0.4-0.7-0.4-1.6,0-2.4l0.3-0.6l0,0l0.3-0.5l0.6-1l2.8-4.9l0.6-1l0.2-0.4l0.3-0.6c0.4-0.7,1.2-1.2,2.1-1.2h1.3h9
		c0.8,0,1.6,0.5,2.1,1.2l4,6.9h-9.3l0.3,0.5l0.2,0.4c0,0,0,0.1,0.1,0.1c0.7,1.4,0.7,3.1,0,4.4c0,0,0,0,0,0.1l-0.2,0.4l-0.3,0.5h9.3
		l-5.6,9.7c-0.9,1.5-0.4,3.5,1.2,4.3c0.5,0.3,1,0.4,1.6,0.4c1.1,0,2.2-0.6,2.8-1.6l7.9-13.7C202.2-2461.9,202.2-2463.7,201.4-2465.1
		z"/>
	<path class="st1" d="M75.4-2480.4c-1.7,0-3.2,1.6-3.2,3.6v10.4H55.3v-10.4c0-2-1.4-3.6-3.2-3.6c-1.7,0-3.2,1.6-3.2,3.6v28
		c0,2,1.4,3.6,3.2,3.6c1.7,0,3.2-1.6,3.2-3.6v-10.4h16.9v10.4c0,2,1.4,3.6,3.2,3.6c1.7,0,3.2-1.6,3.2-3.6v-28
		C78.6-2478.8,77.2-2480.4,75.4-2480.4z M76.8-2478.9c-0.4-0.4-0.9-0.6-1.4-0.6c-0.5,0-0.9,0.2-1.3,0.5c0.4-0.3,0.8-0.5,1.3-0.5
		C76-2479.5,76.5-2479.2,76.8-2478.9z M52.2-2479.5c0.5,0,1,0.2,1.4,0.6C53.2-2479.2,52.7-2479.5,52.2-2479.5s-1,0.2-1.4,0.6
		C51.1-2479.2,51.6-2479.5,52.2-2479.5z"/>
	<path class="st1" d="M109.5-2459.2c1.7,0,3.2-1.6,3.2-3.6c0-2-1.4-3.6-3.2-3.6H89.4v-6.8h20.1c1.7,0,3.2-1.6,3.2-3.6
		c0-2-1.4-3.6-3.2-3.6H86.2c-1.7,0-3.2,1.6-3.2,3.6v28c0,2,1.4,3.6,3.2,3.6h23.3c1.7,0,3.2-1.6,3.2-3.6c0-2-1.4-3.6-3.2-3.6H89.4
		v-6.8H109.5z M111.7-2476.8L111.7-2476.8c0,0.3,0,0.5-0.1,0.8C111.7-2476.3,111.7-2476.5,111.7-2476.8z"/>
	<path class="st1" d="M136.4-2462.8l9.6-11.5c1.2-1.4,1.2-3.6,0-5c-0.6-0.7-1.4-1.1-2.3-1.1c-0.9,0-1.7,0.4-2.3,1.1l-9.3,11.2
		l-9.3-11.2c-0.6-0.7-1.4-1.1-2.3-1.1c-0.9,0-1.7,0.4-2.3,1.1c-1.2,1.4-1.2,3.6,0,5l9.6,11.5l-9.6,11.5c-1.2,1.4-1.2,3.6,0,5
		c0.6,0.7,1.4,1.1,2.3,1.1c0.9,0,1.7-0.4,2.3-1.1l9.3-11.2l9.3,11.2c0.6,0.7,1.4,1.1,2.3,1.1c0.9,0,1.7-0.4,2.3-1.1
		c1.2-1.4,1.2-3.6,0-5L136.4-2462.8z"/>
	<path class="st1" d="M1868.8-2474.9h-2.4v12.1h2.4V-2474.9z M1874.7-2472.3l-1.7,1.7c1.9,1.5,3.1,3.9,3.1,6.6
		c0,4.7-3.8,8.5-8.5,8.5s-8.5-3.8-8.5-8.5c0-2.7,1.2-5,3.1-6.6l-1.7-1.7c-2.4,2-3.8,5-3.8,8.3c0,6,4.9,10.9,10.9,10.9
		s10.9-4.9,10.9-10.9C1878.5-2467.3,1877-2470.3,1874.7-2472.3z"/>
	<text transform="matrix(1 0 0 1 1716.5002 -2458.958)" class="st1 st5 st6">Username</text>
	<g>
		<g>
			<rect x="874.5" y="-2294.1" class="st2" width="172" height="14"/>
			<path class="st1" d="M1046-2293.6v13H875v-13H1046 M1047-2294.6H874v15h173V-2294.6L1047-2294.6z"/>
		</g>
		<g>
			<rect x="702.5" y="-2294.1" class="st2" width="172" height="14"/>
			<path class="st1" d="M874-2293.6v13H703v-13H874 M875-2294.6H702v15h173V-2294.6L875-2294.6z"/>
		</g>
		<g>
			<rect x="530.5" y="-2294.1" class="st2" width="172" height="14"/>
			<path class="st1" d="M702-2293.6v13H531v-13H702 M703-2294.6H530v15h173V-2294.6L703-2294.6z"/>
		</g>
		<g>
		</g>
		<g>
		</g>
		<g>
		</g>
		<g>
		</g>
		<g>
			<path class="st2" d="M1389-2293.6v13H531v-13H1389 M1390-2294.6H530v15h860V-2294.6L1390-2294.6z"/>
		</g>
		<text transform="matrix(1 0 0 1 530.0002 -2328.4844)" class="st2 st7 st8">Create service</text>
		<rect x="1250" y="-2354" class="st2" width="140" height="39.9"/>
		<text transform="matrix(1 0 0 1 1299.6079 -2328.4846)" class="st1 st10 st11">Next</text>
		<g>
			<text transform="matrix(1 0 0 1 801.1438 -2233.6362)" class="st2 st11" style="font-family:'OpenSans-Italic';">Készítsd el a szolgáltatássod jogköreit.</text>
		</g>
		<g>
			<path class="st2" d="M1389-2162.1v38H531v-38H1389 M1390-2163.1H530v40h860V-2163.1L1390-2163.1z"/>
		</g>
		<g>
			<text transform="matrix(1 0 0 1 550.0002 -2137.135)" class="st2 st11" style="font-family:'OpenSans-Semibold';">permission1</text>
		</g>
		<polygon class="st2" points="1367.4,-2146.9 1359.8,-2139.3 1352.2,-2146.9 		"/>
		<g>
			<path class="st2" d="M1389-2123.1v38H531v-38H1389 M1390-2124.1H530v40h860V-2124.1L1390-2124.1z"/>
		</g>
		<g>
			<text transform="matrix(1 0 0 1 550.0002 -2098.135)" class="st2 st11" style="font-family:'OpenSans-Semibold';">permission2</text>
		</g>
		<polygon class="st2" points="1367.4,-2107.9 1359.8,-2100.3 1352.2,-2107.9 		"/>
		<rect x="890" y="-2037.7" class="st2" width="136" height="39"/>
		<text transform="matrix(1 0 0 1 947.5985 -2012.6323)" class="st1 st10 st11">New</text>
		<g>
			<g>
				<rect x="934" y="-2025.6" class="st1" width="1.7" height="12.8"/>
				
					<rect x="934" y="-2025.4" transform="matrix(-1.836970e-016 1 -1 -1.836970e-016 -1084.3865 -2954.011)" class="st1" width="1.7" height="12.3"/>
			</g>
		</g>
	</g>
	<rect y="-1272" class="st0" width="1920" height="80"/>
	<path class="st1" d="M184.8-1233c0,0,0-0.1-0.1-0.1l-0.2-0.4l-0.3-0.5l-4.7-8.1l-0.6-1l-0.3-0.5l-1.5-2.6c-0.3-0.5-0.7-1-1.1-1.3
		c-0.5-0.4-1.1-0.7-1.7-0.8l-0.1,0h0c0,0-0.1,0-0.1,0c-0.3-0.1-0.6-0.1-0.9-0.1h-15c-1.6,0-3.2,0.9-4,2.3l-7.5,13
		c-0.8,1.4-0.8,3.2,0,4.6l7.9,13.7c0.6,1,1.6,1.6,2.8,1.6c0.6,0,1.1-0.1,1.6-0.4c1-0.6,1.6-1.6,1.6-2.8c0-0.6-0.1-1.1-0.4-1.6
		l-5.6-9.7h16.6h5.7l-2.9,5l-0.6,1l-0.2,0.4l-1.9,3.4c-0.1,0.3-0.3,0.5-0.3,0.8c-0.2,0.6-0.1,1.3,0.1,1.9h0l0,0
		c0.2,0.6,0.6,1.1,1.2,1.5l0.2,0.2h0c0.5,0.3,1,0.4,1.5,0.4c0.8,0,1.5-0.3,2.1-0.8c0,0,0,0,0,0c0.3-0.2,0.5-0.5,0.7-0.8l0.3-0.5
		l7.1-12.3l0.3-0.5l0.2-0.4c0,0,0,0,0-0.1C185.6-1229.9,185.6-1231.6,184.8-1233z M154.6-1234l4-6.9c0.4-0.7,1.2-1.2,2.1-1.2h10.3
		c0.8,0,1.6,0.5,2.1,1.2l0.4,0.6l0.2,0.4l0.6,1l2.8,4.9H154.6z"/>
	<path class="st2" d="M201.4-1233.1l-7.5-13c-0.8-1.4-2.4-2.3-4-2.3h-15c-0.2,0-0.5,0-0.7,0.1c-0.1,0-0.1,0-0.2,0h0l-0.1,0
		c-0.6,0.1-1.3,0.4-1.8,0.8c-0.5,0.4-0.9,0.8-1.2,1.4l-1.5,2.6l-0.3,0.5l-0.6,1l-4.7,8.1l-0.3,0.5l-0.2,0.4c0,0,0,0,0,0.1
		c-0.8,1.4-0.8,3.1,0,4.4l0.1,0.1l0.2,0.4l0.3,0.5l7.2,12.4v0l0.1,0.1l0.2,0.4c0.2,0.4,0.5,0.7,0.8,1l0.3,0.2h0
		c0.5,0.3,1.1,0.4,1.6,0.4c0.6,0,1.1-0.1,1.6-0.4c0.2-0.1,0.4-0.2,0.5-0.4c0,0,0,0,0,0c0.4-0.4,0.8-0.9,0.9-1.5
		c0.1-0.3,0.1-0.6,0.1-0.8s0-0.6-0.1-0.8c-0.1-0.3-0.2-0.5-0.3-0.8l-2-3.4l-0.2-0.4l-0.6-1l-2.9-5l-0.6-1l-0.3-0.4l0,0l-0.3-0.5
		c-0.4-0.7-0.4-1.6,0-2.4l0.3-0.6l0,0l0.3-0.5l0.6-1l2.8-4.9l0.6-1l0.2-0.4l0.3-0.6c0.4-0.7,1.2-1.2,2.1-1.2h1.3h9
		c0.8,0,1.6,0.5,2.1,1.2l4,6.9h-9.3l0.3,0.5l0.2,0.4c0,0,0,0.1,0.1,0.1c0.7,1.4,0.7,3.1,0,4.4c0,0,0,0,0,0.1l-0.2,0.4l-0.3,0.5h9.3
		l-5.6,9.7c-0.9,1.5-0.4,3.5,1.2,4.3c0.5,0.3,1,0.4,1.6,0.4c1.1,0,2.2-0.6,2.8-1.6l7.9-13.7C202.2-1229.9,202.2-1231.7,201.4-1233.1
		z"/>
	<path class="st1" d="M75.4-1248.4c-1.7,0-3.2,1.6-3.2,3.6v10.4H55.3v-10.4c0-2-1.4-3.6-3.2-3.6c-1.7,0-3.2,1.6-3.2,3.6v28
		c0,2,1.4,3.6,3.2,3.6c1.7,0,3.2-1.6,3.2-3.6v-10.4h16.9v10.4c0,2,1.4,3.6,3.2,3.6c1.7,0,3.2-1.6,3.2-3.6v-28
		C78.6-1246.8,77.2-1248.4,75.4-1248.4z M76.8-1246.9c-0.4-0.4-0.9-0.6-1.4-0.6c-0.5,0-0.9,0.2-1.3,0.5c0.4-0.3,0.8-0.5,1.3-0.5
		C76-1247.5,76.5-1247.2,76.8-1246.9z M52.2-1247.5c0.5,0,1,0.2,1.4,0.6C53.2-1247.2,52.7-1247.5,52.2-1247.5s-1,0.2-1.4,0.6
		C51.1-1247.2,51.6-1247.5,52.2-1247.5z"/>
	<path class="st1" d="M109.5-1227.2c1.7,0,3.2-1.6,3.2-3.6c0-2-1.4-3.6-3.2-3.6H89.4v-6.8h20.1c1.7,0,3.2-1.6,3.2-3.6
		c0-2-1.4-3.6-3.2-3.6H86.2c-1.7,0-3.2,1.6-3.2,3.6v28c0,2,1.4,3.6,3.2,3.6h23.3c1.7,0,3.2-1.6,3.2-3.6c0-2-1.4-3.6-3.2-3.6H89.4
		v-6.8H109.5z M111.7-1244.8L111.7-1244.8c0,0.3,0,0.5-0.1,0.8C111.7-1244.3,111.7-1244.5,111.7-1244.8z"/>
	<path class="st1" d="M136.4-1230.8l9.6-11.5c1.2-1.4,1.2-3.6,0-5c-0.6-0.7-1.4-1.1-2.3-1.1c-0.9,0-1.7,0.4-2.3,1.1l-9.3,11.2
		l-9.3-11.2c-0.6-0.7-1.4-1.1-2.3-1.1c-0.9,0-1.7,0.4-2.3,1.1c-1.2,1.4-1.2,3.6,0,5l9.6,11.5l-9.6,11.5c-1.2,1.4-1.2,3.6,0,5
		c0.6,0.7,1.4,1.1,2.3,1.1c0.9,0,1.7-0.4,2.3-1.1l9.3-11.2l9.3,11.2c0.6,0.7,1.4,1.1,2.3,1.1c0.9,0,1.7-0.4,2.3-1.1
		c1.2-1.4,1.2-3.6,0-5L136.4-1230.8z"/>
	<path class="st1" d="M1868.8-1242.9h-2.4v12.1h2.4V-1242.9z M1874.7-1240.3l-1.7,1.7c1.9,1.5,3.1,3.9,3.1,6.6
		c0,4.7-3.8,8.5-8.5,8.5s-8.5-3.8-8.5-8.5c0-2.7,1.2-5,3.1-6.6l-1.7-1.7c-2.4,2-3.8,5-3.8,8.3c0,6,4.9,10.9,10.9,10.9
		s10.9-4.9,10.9-10.9C1878.5-1235.3,1877-1238.3,1874.7-1240.3z"/>
	<text transform="matrix(1 0 0 1 1716.5002 -1226.958)" class="st1 st5 st6">Username</text>
	<g>
		<g>
			<rect x="874.5" y="-1062.1" class="st2" width="172" height="14"/>
			<path class="st1" d="M1046-1061.6v13H875v-13H1046 M1047-1062.6H874v15h173V-1062.6L1047-1062.6z"/>
		</g>
		<g>
			<rect x="702.5" y="-1062.1" class="st2" width="172" height="14"/>
			<path class="st1" d="M874-1061.6v13H703v-13H874 M875-1062.6H702v15h173V-1062.6L875-1062.6z"/>
		</g>
		<g>
			<rect x="530.5" y="-1062.1" class="st2" width="172" height="14"/>
			<path class="st1" d="M702-1061.6v13H531v-13H702 M703-1062.6H530v15h173V-1062.6L703-1062.6z"/>
		</g>
		<g>
		</g>
		<g>
			<rect x="1046.5" y="-1062.1" class="st2" width="172" height="14"/>
			<g>
				<path class="st1" d="M1218-1061.6v13h-171v-13H1218 M1219-1062.6h-173v15h173V-1062.6L1219-1062.6z"/>
			</g>
		</g>
		<g>
		</g>
		<g>
		</g>
		<g>
			<path class="st2" d="M1389-1061.6v13H531v-13H1389 M1390-1062.6H530v15h860V-1062.6L1390-1062.6z"/>
		</g>
		<text transform="matrix(1 0 0 1 530.0002 -1096.4844)" class="st2 st7 st8">Create service</text>
		<rect x="1250" y="-1122" class="st2" width="140" height="39.9"/>
		<text transform="matrix(1 0 0 1 1299.6079 -1096.4846)" class="st1 st10 st11">Next</text>
		<g>
			<text transform="matrix(1 0 0 1 503.4246 -1001.6362)" class="st2 st11" style="font-family:'OpenSans-Italic';">Ahhoz, hogy a szolgáltatásod jogköreit publikálhasd a szervezeteknek, jogosultság csomagba kell tenned őket.</text>
		</g>
		<g>
			<path class="st2" d="M1389-930.1v38H531v-38H1389 M1390-931.1H530v40h860V-931.1L1390-931.1z"/>
		</g>
		<g>
			<text transform="matrix(1 0 0 1 550.0002 -905.135)" class="st2 st11" style="font-family:'OpenSans-Semibold';">permission set1</text>
		</g>
		<polygon class="st2" points="1367.4,-914.9 1359.8,-907.3 1352.2,-914.9 		"/>
		<g>
			<path class="st2" d="M1389-891.1v38H531v-38H1389 M1390-892.1H530v40h860V-892.1L1390-892.1z"/>
		</g>
		<g>
			<text transform="matrix(1 0 0 1 550.0002 -866.135)" class="st2 st11" style="font-family:'OpenSans-Semibold';">permission set2</text>
		</g>
		<polygon class="st2" points="1367.4,-875.9 1359.8,-868.3 1352.2,-875.9 		"/>
		<rect x="890" y="-805.7" class="st2" width="136" height="39"/>
		<text transform="matrix(1 0 0 1 947.5985 -780.6323)" class="st1 st10 st11">New</text>
		<g>
			<g>
				<rect x="934" y="-793.6" class="st1" width="1.7" height="12.8"/>
				
					<rect x="934" y="-793.4" transform="matrix(-1.836970e-016 1 -1 -1.836970e-016 147.6135 -1722.0109)" class="st1" width="1.7" height="12.3"/>
			</g>
		</g>
	</g>
	<rect class="st0" width="1920" height="80"/>
	<path class="st1" d="M184.8,39c0,0,0-0.1-0.1-0.1l-0.2-0.4l-0.3-0.5l-4.7-8.1l-0.6-1l-0.3-0.5l-1.5-2.6c-0.3-0.5-0.7-1-1.1-1.3
		c-0.5-0.4-1.1-0.7-1.7-0.8l-0.1,0h0c0,0-0.1,0-0.1,0c-0.3-0.1-0.6-0.1-0.9-0.1h-15c-1.6,0-3.2,0.9-4,2.3l-7.5,13
		c-0.8,1.4-0.8,3.2,0,4.6l7.9,13.7c0.6,1,1.6,1.6,2.8,1.6c0.6,0,1.1-0.1,1.6-0.4c1-0.6,1.6-1.6,1.6-2.8c0-0.6-0.1-1.1-0.4-1.6
		l-5.6-9.7h16.6h5.7l-2.9,5l-0.6,1l-0.2,0.4l-1.9,3.4c-0.1,0.3-0.3,0.5-0.3,0.8c-0.2,0.6-0.1,1.3,0.1,1.9h0l0,0
		c0.2,0.6,0.6,1.1,1.2,1.5l0.2,0.2h0c0.5,0.3,1,0.4,1.5,0.4c0.8,0,1.5-0.3,2.1-0.8c0,0,0,0,0,0c0.3-0.2,0.5-0.5,0.7-0.8l0.3-0.5
		l7.1-12.3l0.3-0.5l0.2-0.4c0,0,0,0,0-0.1C185.6,42.1,185.6,40.4,184.8,39z M154.6,38l4-6.9c0.4-0.7,1.2-1.2,2.1-1.2h10.3
		c0.8,0,1.6,0.5,2.1,1.2l0.4,0.6l0.2,0.4l0.6,1l2.8,4.9H154.6z"/>
	<path class="st2" d="M201.4,38.9l-7.5-13c-0.8-1.4-2.4-2.3-4-2.3h-15c-0.2,0-0.5,0-0.7,0.1c-0.1,0-0.1,0-0.2,0h0l-0.1,0
		c-0.6,0.1-1.3,0.4-1.8,0.8c-0.5,0.4-0.9,0.8-1.2,1.4l-1.5,2.6l-0.3,0.5l-0.6,1l-4.7,8.1l-0.3,0.5l-0.2,0.4c0,0,0,0,0,0.1
		c-0.8,1.4-0.8,3.1,0,4.4l0.1,0.1l0.2,0.4l0.3,0.5l7.2,12.4v0l0.1,0.1l0.2,0.4c0.2,0.4,0.5,0.7,0.8,1l0.3,0.2h0
		c0.5,0.3,1.1,0.4,1.6,0.4c0.6,0,1.1-0.1,1.6-0.4c0.2-0.1,0.4-0.2,0.5-0.4c0,0,0,0,0,0c0.4-0.4,0.8-0.9,0.9-1.5
		c0.1-0.3,0.1-0.6,0.1-0.8c0-0.3,0-0.6-0.1-0.8c-0.1-0.3-0.2-0.5-0.3-0.8l-2-3.4l-0.2-0.4l-0.6-1l-2.9-5l-0.6-1l-0.3-0.4l0,0
		l-0.3-0.5c-0.4-0.7-0.4-1.6,0-2.4l0.3-0.6l0,0l0.3-0.5l0.6-1l2.8-4.9l0.6-1l0.2-0.4l0.3-0.6c0.4-0.7,1.2-1.2,2.1-1.2h1.3h9
		c0.8,0,1.6,0.5,2.1,1.2l4,6.9h-9.3l0.3,0.5l0.2,0.4c0,0,0,0.1,0.1,0.1c0.7,1.4,0.7,3.1,0,4.4c0,0,0,0,0,0.1l-0.2,0.4l-0.3,0.5h9.3
		l-5.6,9.7c-0.9,1.5-0.4,3.5,1.2,4.3c0.5,0.3,1,0.4,1.6,0.4c1.1,0,2.2-0.6,2.8-1.6l7.9-13.7C202.2,42.1,202.2,40.3,201.4,38.9z"/>
	<path class="st1" d="M75.4,23.6c-1.7,0-3.2,1.6-3.2,3.6v10.4H55.3V27.2c0-2-1.4-3.6-3.2-3.6c-1.7,0-3.2,1.6-3.2,3.6v28
		c0,2,1.4,3.6,3.2,3.6c1.7,0,3.2-1.6,3.2-3.6V44.8h16.9v10.4c0,2,1.4,3.6,3.2,3.6c1.7,0,3.2-1.6,3.2-3.6v-28
		C78.6,25.2,77.2,23.6,75.4,23.6z M76.8,25.1c-0.4-0.4-0.9-0.6-1.4-0.6c-0.5,0-0.9,0.2-1.3,0.5c0.4-0.3,0.8-0.5,1.3-0.5
		C76,24.5,76.5,24.8,76.8,25.1z M52.2,24.5c0.5,0,1,0.2,1.4,0.6C53.2,24.8,52.7,24.5,52.2,24.5c-0.5,0-1,0.2-1.4,0.6
		C51.1,24.8,51.6,24.5,52.2,24.5z"/>
	<path class="st1" d="M109.5,44.8c1.7,0,3.2-1.6,3.2-3.6s-1.4-3.6-3.2-3.6H89.4v-6.8h20.1c1.7,0,3.2-1.6,3.2-3.6
		c0-2-1.4-3.6-3.2-3.6H86.2c-1.7,0-3.2,1.6-3.2,3.6v28c0,2,1.4,3.6,3.2,3.6h23.3c1.7,0,3.2-1.6,3.2-3.6c0-2-1.4-3.6-3.2-3.6H89.4
		v-6.8H109.5z M111.7,27.2L111.7,27.2c0,0.3,0,0.5-0.1,0.8C111.7,27.7,111.7,27.5,111.7,27.2z"/>
	<path class="st1" d="M136.4,41.2l9.6-11.5c1.2-1.4,1.2-3.6,0-5c-0.6-0.7-1.4-1.1-2.3-1.1c-0.9,0-1.7,0.4-2.3,1.1L132,35.9
		l-9.3-11.2c-0.6-0.7-1.4-1.1-2.3-1.1c-0.9,0-1.7,0.4-2.3,1.1c-1.2,1.4-1.2,3.6,0,5l9.6,11.5L118,52.7c-1.2,1.4-1.2,3.6,0,5
		c0.6,0.7,1.4,1.1,2.3,1.1c0.9,0,1.7-0.4,2.3-1.1l9.3-11.2l9.3,11.2c0.6,0.7,1.4,1.1,2.3,1.1c0.9,0,1.7-0.4,2.3-1.1
		c1.2-1.4,1.2-3.6,0-5L136.4,41.2z"/>
	<path class="st1" d="M1868.8,29.1h-2.4v12.1h2.4V29.1z M1874.7,31.7l-1.7,1.7c1.9,1.5,3.1,3.9,3.1,6.6c0,4.7-3.8,8.5-8.5,8.5
		s-8.5-3.8-8.5-8.5c0-2.7,1.2-5,3.1-6.6l-1.7-1.7c-2.4,2-3.8,5-3.8,8.3c0,6,4.9,10.9,10.9,10.9s10.9-4.9,10.9-10.9
		C1878.5,36.7,1877,33.7,1874.7,31.7z"/>
	<text transform="matrix(1 0 0 1 1716.5002 45.042)" class="st1 st5 st6">Username</text>
	<g>
		<rect x="874.5" y="209.9" class="st2" width="172" height="14"/>
		<path class="st1" d="M1046,210.4v13H875v-13H1046 M1047,209.4H874v15h173V209.4L1047,209.4z"/>
	</g>
	<g>
		<rect x="702.5" y="209.9" class="st2" width="172" height="14"/>
		<path class="st1" d="M874,210.4v13H703v-13H874 M875,209.4H702v15h173V209.4L875,209.4z"/>
	</g>
	<g>
		<rect x="530.5" y="209.9" class="st2" width="172" height="14"/>
		<path class="st1" d="M702,210.4v13H531v-13H702 M703,209.4H530v15h173V209.4L703,209.4z"/>
	</g>
	<g>
		<rect x="1218.5" y="209.9" class="st2" width="172" height="14"/>
		<g>
			<path class="st1" d="M1390,210.4v13h-171v-13H1390 M1391,209.4h-173v15h173V209.4L1391,209.4z"/>
		</g>
	</g>
	<g>
		<rect x="1046.5" y="209.9" class="st2" width="172" height="14"/>
		<g>
			<path class="st1" d="M1218,210.4v13h-171v-13H1218 M1219,209.4h-173v15h173V209.4L1219,209.4z"/>
		</g>
	</g>
	<g>
	</g>
	<g>
	</g>
	<g>
		<path class="st2" d="M1389,210.4v13H531v-13H1389 M1390,209.4H530v15h860V209.4L1390,209.4z"/>
	</g>
	<text transform="matrix(1 0 0 1 530.0002 175.5156)" class="st2 st7 st8">Create service</text>
	<rect x="1250" y="150" class="st9" width="140" height="39.9"/>
	<text transform="matrix(1 0 0 1 1294.0986 175.5151)" class="st1 st10 st11">Finish</text>
	<g>
		<g>
			<text transform="matrix(1 0 0 1 773.8093 371.8024)" class="st9 st7 st12">Now your service is done.</text>
		</g>
		<ellipse class="st13" cx="957.5" cy="476.3" rx="73.5" ry="70.5"/>
		<path class="st9" d="M996.1,496.3c-7.6,15.3-22.1,25.6-38.6,25.6s-30.9-10.3-38.6-25.6H917c7.8,16.4,23,27.6,40.5,27.6
			s32.7-11.2,40.5-27.6H996.1z"/>
		<polyline class="st9" points="1005.6,501.3 1003.3,501.3 911.7,501.3 909.3,501.3 		"/>
		<ellipse class="st9" cx="931.8" cy="457.5" rx="7.5" ry="7.2"/>
		<ellipse class="st9" cx="980.5" cy="457.5" rx="7.5" ry="7.2"/>
	</g>
	<g>
		<g>
			<rect x="530.5" y="-4686.1" class="st2" width="172" height="14"/>
			<path class="st1" d="M702-4685.6v13H531v-13H702 M703-4686.6H530v15h173V-4686.6L703-4686.6z"/>
		</g>
		<g>
		</g>
		<g>
		</g>
		<g>
		</g>
		<g>
		</g>
		<g>
			<path class="st2" d="M1389-4685.6v13H531v-13H1389 M1390-4686.6H530v15h860V-4686.6L1390-4686.6z"/>
		</g>
		<text transform="matrix(1 0 0 1 530.0002 -4720.4844)" class="st2 st7 st8">Create service</text>
		<g>
			<rect x="770.5" y="-4562.1" class="st14" width="379" height="49"/>
			<path class="st2" d="M1149-4561.6v48H771v-48H1149 M1150-4562.6H770v50h380V-4562.6L1150-4562.6z"/>
		</g>
		<text transform="matrix(1 0 0 1 785.0005 -4532.042)" class="st2 st11" style="font-family:'OpenSans-Italic';">Service name</text>
		<g>
			<rect x="770.5" y="-4492.1" class="st14" width="379" height="49"/>
			<path class="st2" d="M1149-4491.6v48H771v-48H1149 M1150-4492.6H770v50h380V-4492.6L1150-4492.6z"/>
		</g>
		<text transform="matrix(1 0 0 1 785.0005 -4462.042)" class="st2 st11" style="font-family:'OpenSans-Italic';">Description</text>
		<g>
			<rect x="770.5" y="-4422.1" class="st14" width="379" height="49"/>
			<g>
				<path class="st2" d="M1149-4421.6v48H771v-48H1149 M1150-4422.6H770v50h380V-4422.6L1150-4422.6z"/>
			</g>
		</g>
		<g>
			<text transform="matrix(1 0 0 1 785.0005 -4392.042)" class="st2 st11" style="font-family:'OpenSans-Italic';">Url</text>
		</g>
		<rect x="1250" y="-4746" class="st2" width="140" height="39.9"/>
		<text transform="matrix(1 0 0 1 1299.6079 -4720.4844)" class="st1 st10 st11">Next</text>
		<g>
			<rect x="770" y="-4352.6" class="st2" width="380" height="50"/>
		</g>
		<g>
			<text transform="matrix(1 0 0 1 785.0005 -4322.042)" class="st1 st11" style="font-family:'OpenSans-Italic';">Entity Id</text>
		</g>
		<polygon class="st1" points="1130,-4329.7 1122.4,-4322.1 1114.8,-4329.7 		"/>
		<g>
			<text transform="matrix(1 0 0 1 809.1931 -4625.6362)" class="st2 st11" style="font-family:'OpenSans-Italic';">Add meg a szervezeted alapadatait.</text>
		</g>
	</g>
</g>
<g id="Layer_2">
	<line class="st15" x1="1560" y1="-12464" x2="1560" y2="3919"/>
	<line class="st16" x1="1550" y1="-12458" x2="1550" y2="3925"/>
	<line class="st15" x1="1490" y1="-12458" x2="1490" y2="3925"/>
	<line class="st15" x1="1480" y1="-12461" x2="1480" y2="3922"/>
	<line class="st15" x1="1470" y1="-12458" x2="1470" y2="3925"/>
	<line class="st15" x1="1410" y1="-12458" x2="1410" y2="3925"/>
	<line class="st15" x1="1400" y1="-12461" x2="1400" y2="3922"/>
	<line class="st15" x1="1390" y1="-12458" x2="1390" y2="3925"/>
	<line class="st15" x1="1330" y1="-12458" x2="1330" y2="3925"/>
	<line class="st15" x1="1320" y1="-12461" x2="1320" y2="3922"/>
	<line class="st15" x1="1310" y1="-12458" x2="1310" y2="3925"/>
	<line class="st15" x1="1250" y1="-12458" x2="1250" y2="3925"/>
	<line class="st15" x1="1240" y1="-12461" x2="1240" y2="3922"/>
	<line class="st15" x1="1230" y1="-12458" x2="1230" y2="3925"/>
	<line class="st15" x1="1170" y1="-12458" x2="1170" y2="3925"/>
	<line class="st15" x1="1160" y1="-12461" x2="1160" y2="3922"/>
	<line class="st15" x1="1150" y1="-12458" x2="1150" y2="3925"/>
	<line class="st15" x1="1090" y1="-12458" x2="1090" y2="3925"/>
	<line class="st15" x1="1080" y1="-12461" x2="1080" y2="3922"/>
	<line class="st15" x1="1070" y1="-12458" x2="1070" y2="3925"/>
	<line class="st15" x1="1010" y1="-12458" x2="1010" y2="3925"/>
	<line class="st15" x1="1000" y1="-12461" x2="1000" y2="3922"/>
	<line class="st15" x1="990" y1="-12458" x2="990" y2="3925"/>
	<line class="st15" x1="930" y1="-12458" x2="930" y2="3925"/>
	<line class="st15" x1="920" y1="-12452" x2="920" y2="3931"/>
	<line class="st15" x1="910" y1="-12458" x2="910" y2="3925"/>
	<line class="st15" x1="850" y1="-12458" x2="850" y2="3925"/>
	<line class="st15" x1="840" y1="-12461" x2="840" y2="3922"/>
	<line class="st15" x1="830" y1="-12458" x2="830" y2="3925"/>
	<line class="st15" x1="770" y1="-12458" x2="770" y2="3925"/>
	<line class="st15" x1="760" y1="-12461" x2="760" y2="3922"/>
	<line class="st15" x1="750" y1="-12458" x2="750" y2="3925"/>
	<line class="st15" x1="690" y1="-12458" x2="690" y2="3925"/>
	<line class="st15" x1="680" y1="-12461" x2="680" y2="3922"/>
	<line class="st15" x1="670" y1="-12458" x2="670" y2="3925"/>
	<line class="st15" x1="610" y1="-12458" x2="610" y2="3925"/>
	<line class="st15" x1="600" y1="-12461" x2="600" y2="3922"/>
	<line class="st15" x1="590" y1="-12458" x2="590" y2="3925"/>
	<line class="st15" x1="520" y1="-12461" x2="520" y2="3922"/>
	<line class="st15" x1="510" y1="-12458" x2="510" y2="3925"/>
	<line class="st15" x1="440" y1="-12461" x2="440" y2="3922"/>
	<line class="st15" x1="430" y1="-12458" x2="430" y2="3925"/>
	<line class="st16" x1="370" y1="-12458" x2="370" y2="3925"/>
	<line class="st15" x1="360" y1="-12461" x2="360" y2="3922"/>
	<line class="st15" x1="530" y1="-12458" x2="530" y2="3925"/>
</g>
</svg>
